;TYPE=PLATED
;Layer: PTH_Through
;EasyEDA Pro Client v1.8.39.fb3963, 2022-10-20 14:29:14
;Gerber Generator version 0.3
M48
METRIC,LZ,0000.00
;Hole size 1 = 0.87 METRIC
T01C0.87
;Hole size 2 = 0.87 METRIC
T02C0.87
;Hole size 3 = 0.91 METRIC
T03C0.91
;Hole size 4 = 0.92 METRIC
T04C0.92
;Hole size 5 = 0.97 METRIC
T05C0.97
;Hole size 6 = 0.97 METRIC
T06C0.97
;Hole size 7 = 0.98 METRIC
T07C0.98
;Hole size 8 = 0.98 METRIC
T08C0.98
;Hole size 9 = 1.02 METRIC
T09C1.02
;Hole size 10 = 1.02 METRIC
T10C1.02
;Hole size 11 = 1.08 METRIC
T11C1.08
;Hole size 12 = 1.10 METRIC
T12C1.10
;Hole size 13 = 1.10 METRIC
T13C1.10
;Hole size 14 = 1.11 METRIC
T14C1.11
;Hole size 15 = 1.12 METRIC
T15C1.12
;Hole size 16 = 1.13 METRIC
T16C1.13
;Hole size 17 = 1.16 METRIC
T17C1.16
;Hole size 18 = 1.17 METRIC
T18C1.17
;Hole size 19 = 1.23 METRIC
T19C1.23
;Hole size 20 = 1.23 METRIC
T20C1.23
;Hole size 21 = 1.33 METRIC
T21C1.33
;Hole size 22 = 1.33 METRIC
T22C1.33
;Hole size 23 = 1.35 METRIC
T23C1.35
%
G05
G90
T01
X101185Y063593
T02
X100973Y063593
X101396Y063593
T03
X100573Y063772
X100573Y064123
X098364Y063735
X098364Y064085
X097486Y063736
X097486Y064087
T04
X101319Y059037
X101570Y059037
X101829Y059037
T05
X100574Y062802
T06
X100574Y063317
T07
X099612Y063030
X099612Y063296
T08
X099905Y059994
X099905Y060202
X100370Y058611
X100163Y058611
X101421Y063099
X101213Y063099
T09
X097049Y060163
X097323Y059532
X097941Y059270
X098582Y059532
X098840Y060150
X098588Y060813
X097954Y061065
X097313Y060813
T10
X097297Y060158
X097572Y059527
X098190Y059265
X098831Y059527
X099089Y060145
X098837Y060808
X098203Y061060
X097562Y060808
T11
X101578Y058403
X101613Y058403
X101545Y058403
T12
X098311Y059752
X098064Y059752
X097817Y059752
T13
X100014Y064233
X100012Y063226
T14
X101540Y061307
X101532Y061818
T15
X095578Y064094
X095573Y063084
T16
X094994Y062951
X095113Y062352
T17
X095151Y063928
X094869Y063427
T18
X100598Y060705
X100587Y059203
T19
X098675Y063078
T20
X097320Y063082
T21
X094314Y059339
X095536Y058145
X095732Y058727
X094312Y060980
X095534Y059785
X095729Y060368
T22
X095536Y059342
X095534Y060983
T23
X095425Y061943
X094905Y061943
X095553Y056902
X095034Y056902
X094110Y061883
X094110Y061364
X096773Y064124
X096253Y064124
M30