G04 Layer: BottomSolderMaskLayer*
G04 EasyEDA Pro v1.8.39.fb3963, 2022-10-20 14:29:14*
G04 Gerber Generator version 0.3*
G04 Scale: 100 percent, Rotated: No, Reflected: No*
G04 Dimensions in millimeters*
G04 Leading zeros omitted, absolute positions, 4 integers and 2 decimals*
%FSLAX42Y42*%
%MOMM*%
%ADD10C,3.048*%
%ADD11C,3.81*%
%ADD12C,2.639273*%
%ADD13O,2.303201X0.903201*%
%ADD14O,2.7032X1.003201*%
%ADD15C,2.770309*%
%ADD16C,2.406099*%
%ADD17C,1.942163*%
%ADD18C,2.155419*%
%ADD19C,2.3232*%
%ADD20C,2.322652*%
%ADD21C,2.754412*%
%ADD22C,2.754417*%
%ADD23C,1.992295*%
%ADD24C,1.989503*%
%ADD25C,1.989498*%
%ADD26C,2.616126*%
%ADD27C,2.616121*%
%ADD28C,2.008139*%
%ADD29C,2.008134*%
%ADD30C,1.99229*%
%ADD31C,2.669113*%
%ADD32C,2.669108*%
%ADD33C,2.494443*%
%ADD34C,2.878714*%
%ADD35C,3.203199*%
%ADD36C,2.364791*%
%ADD37C,2.443584*%
%ADD38O,0.696595X2.069109*%
G75*


G04 PolygonModel Start*
G54D10*
G01X95729Y60368D02*
G01X95093Y60368D01*
G01X94920Y60541D01*
G01X94110Y61883D02*
G01X94110Y61182D01*
G01X94312Y60980D01*
G54D11*
G01X95126Y62301D02*
G01X95126Y61823D01*
G01X95055Y61752D01*
G01Y61451D01*
G01X94933Y61328D01*
G01Y58798D01*
G01X95038Y58693D01*
G01X95727D01*
G54D10*
G01X94272Y58433D02*
G01X95567Y57164D01*
G01Y57016D01*
G01X95503Y56915D02*
G01X95084Y56915D01*
G01Y57334D01*
G01X95294Y56915D02*
G01X95300Y56921D01*
G01Y57258D01*
G01X94259Y59347D02*
G01X94259Y58412D01*
G01X95541Y57131D01*
G01X95122D01*
G01Y57549D01*
G01X95114Y57558D01*
G01X94259Y59309D02*
G01X94259Y58374D01*
G01X95541Y57093D01*
G01X95122D01*
G01Y57511D01*
G01X95114Y57520D01*
G01X94272Y59347D02*
G01X94298Y58412D01*
G01X95579Y57131D01*
G01X95161D01*
G01Y57549D01*
G01X95152Y57558D01*
G01X94298Y59296D02*
G01X94259Y58382D01*
G01X95579Y56940D02*
G01X95161Y56940D01*
G01Y57359D01*
G01X95152Y57367D01*
G01X95554Y56978D02*
G01X95135Y56978D01*
G01Y57397D01*
G01X95127Y57405D01*
G01X95084Y57124D02*
G01X95084Y57582D01*
G01X94259Y59309D02*
G01X94259Y58374D01*
G01X95541Y57093D01*
G01X95122D01*
G01Y57511D01*
G01X95114Y57520D01*
G04 PolygonModel End*

G04 Pad Start*
G36*
G01X100413Y63843D02*
G01X100223Y63843D01*
G03X100213Y63833I0J-10D01*
G01Y63703D01*
G03X100223Y63693I10J0D01*
G01X100413D01*
G03X100423Y63703I0J10D01*
G01Y63833D01*
G03X100413Y63843I-10J0D01*
G37*
G36*
G01X100413Y64172D02*
G01X100223Y64172D01*
G03X100213Y64162I0J-10D01*
G01Y64032D01*
G03X100223Y64022I10J0D01*
G01X100413D01*
G03X100423Y64032I0J10D01*
G01Y64162D01*
G03X100413Y64172I-10J0D01*
G37*
G54D12*
G01X101578Y58403D03*
G01X101613Y58403D03*
G01X101545Y58403D03*
G54D13*
G01X98874Y63168D03*
G01X98874Y63041D03*
G01X98874Y62914D03*
G01X98874Y62787D03*
G01X99363Y62787D03*
G01X99363Y62914D03*
G01X99363Y63041D03*
G01X99363Y63168D03*
G54D14*
G01X100491Y57075D03*
G01X100491Y57202D03*
G01X100491Y57329D03*
G01X100491Y57456D03*
G01X100491Y57583D03*
G01X100491Y57710D03*
G01X100491Y57837D03*
G01X100491Y57964D03*
G01X101053Y57964D03*
G01X101053Y57837D03*
G01X101053Y57710D03*
G01X101053Y57583D03*
G01X101053Y57456D03*
G01X101053Y57329D03*
G01X101053Y57202D03*
G01X101053Y57075D03*
G36*
G01X97121Y61066D02*
G01X96931Y61066D01*
G03X96921Y61056I0J-10D01*
G01Y60926D01*
G03X96931Y60916I10J0D01*
G01X97121D01*
G03X97132Y60926I0J10D01*
G01Y61056D01*
G03X97121Y61066I-10J0D01*
G37*
G36*
G01X97121Y61395D02*
G01X96931Y61395D01*
G03X96921Y61385I0J-10D01*
G01Y61255D01*
G03X96931Y61245I10J0D01*
G01X97121D01*
G03X97132Y61255I0J10D01*
G01Y61385D01*
G03X97121Y61395I-10J0D01*
G37*
G36*
G01X100981Y61542D02*
G01X100791Y61542D01*
G03X100780Y61532I0J-10D01*
G01Y61402D01*
G03X100791Y61392I10J0D01*
G01X100981D01*
G03X100991Y61402I0J10D01*
G01Y61532D01*
G03X100981Y61542I-10J0D01*
G37*
G36*
G01X100981Y61871D02*
G01X100791Y61871D01*
G03X100780Y61861I0J-10D01*
G01Y61731D01*
G03X100791Y61721I10J0D01*
G01X100981D01*
G03X100991Y61731I0J10D01*
G01Y61861D01*
G03X100981Y61871I-10J0D01*
G37*
G36*
G01X97405Y59942D02*
G01X97405Y59752D01*
G03X97415Y59742I10J0D01*
G01X97545D01*
G03X97555Y59752I0J10D01*
G01Y59942D01*
G03X97545Y59952I-10J0D01*
G01X97415D01*
G03X97405Y59942I0J-10D01*
G37*
G36*
G01X97076Y59942D02*
G01X97076Y59752D01*
G03X97086Y59742I10J0D01*
G01X97216D01*
G03X97226Y59752I0J10D01*
G01Y59942D01*
G03X97216Y59952I-10J0D01*
G01X97086D01*
G03X97076Y59942I0J-10D01*
G37*
G36*
G01X100904Y58261D02*
G01X100804Y58261D01*
G03X100793Y58251I0J-10D01*
G01Y58111D01*
G03X100804Y58101I10J0D01*
G01X100904D01*
G03X100914Y58111I0J10D01*
G01Y58251D01*
G03X100904Y58261I-10J0D01*
G37*
G36*
G01X100702Y58261D02*
G01X100602Y58261D01*
G03X100591Y58251I0J-10D01*
G01Y58111D01*
G03X100602Y58101I10J0D01*
G01X100702D01*
G03X100712Y58111I0J10D01*
G01Y58251D01*
G03X100702Y58261I-10J0D01*
G37*
G36*
G01X101334Y58650D02*
G01X101234Y58650D01*
G03X101224Y58640I0J-10D01*
G01Y58500D01*
G03X101234Y58490I10J0D01*
G01X101334D01*
G03X101344Y58500I0J10D01*
G01Y58640D01*
G03X101334Y58650I-10J0D01*
G37*
G36*
G01X101132Y58650D02*
G01X101032Y58650D01*
G03X101022Y58640I0J-10D01*
G01Y58500D01*
G03X101032Y58490I10J0D01*
G01X101132D01*
G03X101142Y58500I0J10D01*
G01Y58640D01*
G03X101132Y58650I-10J0D01*
G37*
G36*
G01X99664Y61114D02*
G01X99664Y60994D01*
G03X99674Y60984I10J0D01*
G01X99759D01*
G03X99769Y60994I0J10D01*
G01Y61114D01*
G03X99759Y61124I-10J0D01*
G01X99674D01*
G03X99664Y61114I0J-10D01*
G37*
G36*
G01X99664Y60904D02*
G01X99664Y60784D01*
G03X99674Y60774I10J0D01*
G01X99759D01*
G03X99769Y60784I0J10D01*
G01Y60904D01*
G03X99759Y60914I-10J0D01*
G01X99674D01*
G03X99664Y60904I0J-10D01*
G37*
G36*
G01X99432Y60985D02*
G01X99432Y60895D01*
G03X99442Y60885I10J0D01*
G01X99572D01*
G03X99583Y60895I0J10D01*
G01Y60985D01*
G03X99572Y60995I-10J0D01*
G01X99442D01*
G03X99432Y60985I0J-10D01*
G37*
G36*
G01X99646Y61516D02*
G01X99646Y61396D01*
G03X99656Y61386I10J0D01*
G01X99741D01*
G03X99751Y61396I0J10D01*
G01Y61516D01*
G03X99741Y61527I-10J0D01*
G01X99656D01*
G03X99646Y61516I0J-10D01*
G37*
G36*
G01X99646Y61306D02*
G01X99646Y61186D01*
G03X99656Y61176I10J0D01*
G01X99741D01*
G03X99751Y61186I0J10D01*
G01Y61306D01*
G03X99741Y61316I-10J0D01*
G01X99656D01*
G03X99646Y61306I0J-10D01*
G37*
G36*
G01X99414Y61387D02*
G01X99414Y61297D01*
G03X99425Y61287I10J0D01*
G01X99555D01*
G03X99565Y61297I0J10D01*
G01Y61387D01*
G03X99555Y61397I-10J0D01*
G01X99425D01*
G03X99414Y61387I0J-10D01*
G37*
G36*
G01X99660Y61909D02*
G01X99660Y61789D01*
G03X99670Y61779I10J0D01*
G01X99755D01*
G03X99765Y61789I0J10D01*
G01Y61909D01*
G03X99755Y61919I-10J0D01*
G01X99670D01*
G03X99660Y61909I0J-10D01*
G37*
G36*
G01X99660Y61699D02*
G01X99660Y61579D01*
G03X99670Y61569I10J0D01*
G01X99755D01*
G03X99765Y61579I0J10D01*
G01Y61699D01*
G03X99755Y61709I-10J0D01*
G01X99670D01*
G03X99660Y61699I0J-10D01*
G37*
G36*
G01X99428Y61780D02*
G01X99428Y61690D01*
G03X99438Y61679I10J0D01*
G01X99568D01*
G03X99578Y61690I0J10D01*
G01Y61780D01*
G03X99568Y61790I-10J0D01*
G01X99438D01*
G03X99428Y61780I0J-10D01*
G37*
G36*
G01X99816Y61087D02*
G01X99816Y60987D01*
G03X99826Y60977I10J0D01*
G01X99966D01*
G03X99976Y60987I0J10D01*
G01Y61087D01*
G03X99966Y61097I-10J0D01*
G01X99826D01*
G03X99816Y61087I0J-10D01*
G37*
G36*
G01X99816Y60885D02*
G01X99816Y60785D01*
G03X99826Y60775I10J0D01*
G01X99966D01*
G03X99976Y60785I0J10D01*
G01Y60885D01*
G03X99966Y60895I-10J0D01*
G01X99826D01*
G03X99816Y60885I0J-10D01*
G37*
G36*
G01X100241Y62843D02*
G01X100051Y62843D01*
G03X100041Y62833I0J-10D01*
G01Y62703D01*
G03X100051Y62693I10J0D01*
G01X100241D01*
G03X100251Y62703I0J10D01*
G01Y62833D01*
G03X100241Y62843I-10J0D01*
G37*
G36*
G01X100241Y63172D02*
G01X100051Y63172D01*
G03X100041Y63162I0J-10D01*
G01Y63032D01*
G03X100051Y63022I10J0D01*
G01X100241D01*
G03X100251Y63032I0J10D01*
G01Y63162D01*
G03X100241Y63172I-10J0D01*
G37*
G36*
G01X99940Y62843D02*
G01X99750Y62843D01*
G03X99740Y62833I0J-10D01*
G01Y62703D01*
G03X99750Y62693I10J0D01*
G01X99940D01*
G03X99951Y62703I0J10D01*
G01Y62833D01*
G03X99940Y62843I-10J0D01*
G37*
G36*
G01X99940Y63172D02*
G01X99750Y63172D01*
G03X99740Y63162I0J-10D01*
G01Y63032D01*
G03X99750Y63022I10J0D01*
G01X99940D01*
G03X99951Y63032I0J10D01*
G01Y63162D01*
G03X99940Y63172I-10J0D01*
G37*
G36*
G01X100371Y61517D02*
G01X100371Y61327D01*
G03X100381Y61317I10J0D01*
G01X100511D01*
G03X100521Y61327I0J10D01*
G01Y61517D01*
G03X100511Y61527I-10J0D01*
G01X100381D01*
G03X100371Y61517I0J-10D01*
G37*
G36*
G01X100042Y61517D02*
G01X100042Y61327D01*
G03X100052Y61317I10J0D01*
G01X100182D01*
G03X100192Y61327I0J10D01*
G01Y61517D01*
G03X100182Y61527I-10J0D01*
G01X100052D01*
G03X100042Y61517I0J-10D01*
G37*
G36*
G01X100371Y61080D02*
G01X100371Y60890D01*
G03X100381Y60880I10J0D01*
G01X100511D01*
G03X100521Y60890I0J10D01*
G01Y61080D01*
G03X100511Y61090I-10J0D01*
G01X100381D01*
G03X100371Y61080I0J-10D01*
G37*
G36*
G01X100042Y61080D02*
G01X100042Y60890D01*
G03X100052Y60880I10J0D01*
G01X100182D01*
G03X100192Y60890I0J10D01*
G01Y61080D01*
G03X100182Y61090I-10J0D01*
G01X100052D01*
G03X100042Y61080I0J-10D01*
G37*
G36*
G01X98085Y63169D02*
G01X97985Y63169D01*
G03X97975Y63159I0J-10D01*
G01Y63019D01*
G03X97985Y63008I10J0D01*
G01X98085D01*
G03X98096Y63019I0J10D01*
G01Y63159D01*
G03X98085Y63169I-10J0D01*
G37*
G36*
G01X97883Y63169D02*
G01X97783Y63169D01*
G03X97773Y63159I0J-10D01*
G01Y63019D01*
G03X97783Y63008I10J0D01*
G01X97883D01*
G03X97894Y63019I0J10D01*
G01Y63159D01*
G03X97883Y63169I-10J0D01*
G37*
G36*
G01X101443Y62923D02*
G01X101343Y62923D01*
G03X101332Y62913I0J-10D01*
G01Y62773D01*
G03X101343Y62763I10J0D01*
G01X101443D01*
G03X101453Y62773I0J10D01*
G01Y62913D01*
G03X101443Y62923I-10J0D01*
G37*
G36*
G01X101241Y62923D02*
G01X101141Y62923D01*
G03X101130Y62913I0J-10D01*
G01Y62773D01*
G03X101141Y62763I10J0D01*
G01X101241D01*
G03X101251Y62773I0J10D01*
G01Y62913D01*
G03X101241Y62923I-10J0D01*
G37*
G36*
G01X100755Y64102D02*
G01X100755Y64002D01*
G03X100766Y63992I10J0D01*
G01X100906D01*
G03X100916Y64002I0J10D01*
G01Y64102D01*
G03X100906Y64113I-10J0D01*
G01X100766D01*
G03X100755Y64102I0J-10D01*
G37*
G36*
G01X100755Y63900D02*
G01X100755Y63800D01*
G03X100766Y63790I10J0D01*
G01X100906D01*
G03X100916Y63800I0J10D01*
G01Y63900D01*
G03X100906Y63911I-10J0D01*
G01X100766D01*
G03X100755Y63900I0J-10D01*
G37*
G36*
G01X101462Y63432D02*
G01X101362Y63432D01*
G03X101351Y63421I0J-10D01*
G01Y63281D01*
G03X101362Y63271I10J0D01*
G01X101462D01*
G03X101472Y63281I0J10D01*
G01Y63421D01*
G03X101462Y63432I-10J0D01*
G37*
G36*
G01X101260Y63432D02*
G01X101160Y63432D01*
G03X101149Y63421I0J-10D01*
G01Y63281D01*
G03X101160Y63271I10J0D01*
G01X101260D01*
G03X101270Y63281I0J10D01*
G01Y63421D01*
G03X101260Y63432I-10J0D01*
G37*
G36*
G01X99813Y61914D02*
G01X99813Y61814D01*
G03X99823Y61804I10J0D01*
G01X99963D01*
G03X99973Y61814I0J10D01*
G01Y61914D01*
G03X99963Y61925I-10J0D01*
G01X99823D01*
G03X99813Y61914I0J-10D01*
G37*
G36*
G01X99813Y61712D02*
G01X99813Y61612D01*
G03X99823Y61602I10J0D01*
G01X99963D01*
G03X99973Y61612I0J10D01*
G01Y61712D01*
G03X99963Y61723I-10J0D01*
G01X99823D01*
G03X99813Y61712I0J-10D01*
G37*
G36*
G01X99813Y61492D02*
G01X99813Y61392D01*
G03X99823Y61382I10J0D01*
G01X99963D01*
G03X99973Y61392I0J10D01*
G01Y61492D01*
G03X99963Y61502I-10J0D01*
G01X99823D01*
G03X99813Y61492I0J-10D01*
G37*
G36*
G01X99813Y61290D02*
G01X99813Y61190D01*
G03X99823Y61180I10J0D01*
G01X99963D01*
G03X99973Y61190I0J10D01*
G01Y61290D01*
G03X99963Y61300I-10J0D01*
G01X99823D01*
G03X99813Y61290I0J-10D01*
G37*
G36*
G01X98351Y60127D02*
G01X98251Y60127D01*
G03X98241Y60117I0J-10D01*
G01Y59977D01*
G03X98251Y59967I10J0D01*
G01X98351D01*
G03X98361Y59977I0J10D01*
G01Y60117D01*
G03X98351Y60127I-10J0D01*
G37*
G36*
G01X98149Y60127D02*
G01X98049Y60127D01*
G03X98039Y60117I0J-10D01*
G01Y59977D01*
G03X98049Y59967I10J0D01*
G01X98149D01*
G03X98159Y59977I0J10D01*
G01Y60117D01*
G03X98149Y60127I-10J0D01*
G37*
G36*
G01X101331Y57827D02*
G01X101331Y57727D01*
G03X101341Y57717I10J0D01*
G01X101481D01*
G03X101491Y57727I0J10D01*
G01Y57827D01*
G03X101481Y57837I-10J0D01*
G01X101341D01*
G03X101331Y57827I0J-10D01*
G37*
G36*
G01X101331Y57625D02*
G01X101331Y57525D01*
G03X101341Y57515I10J0D01*
G01X101481D01*
G03X101491Y57525I0J10D01*
G01Y57625D01*
G03X101481Y57635I-10J0D01*
G01X101341D01*
G03X101331Y57625I0J-10D01*
G37*
G36*
G01X101585Y57827D02*
G01X101585Y57727D01*
G03X101595Y57717I10J0D01*
G01X101735D01*
G03X101745Y57727I0J10D01*
G01Y57827D01*
G03X101735Y57838I-10J0D01*
G01X101595D01*
G03X101585Y57827I0J-10D01*
G37*
G36*
G01X101585Y57625D02*
G01X101585Y57525D01*
G03X101595Y57515I10J0D01*
G01X101735D01*
G03X101745Y57525I0J10D01*
G01Y57625D01*
G03X101735Y57636I-10J0D01*
G01X101595D01*
G03X101585Y57625I0J-10D01*
G37*
G36*
G01X101440Y60188D02*
G01X101440Y60088D01*
G03X101450Y60078I10J0D01*
G01X101590D01*
G03X101600Y60088I0J10D01*
G01Y60188D01*
G03X101590Y60198I-10J0D01*
G01X101450D01*
G03X101440Y60188I0J-10D01*
G37*
G36*
G01X101440Y59986D02*
G01X101440Y59886D01*
G03X101450Y59876I10J0D01*
G01X101590D01*
G03X101600Y59886I0J10D01*
G01Y59986D01*
G03X101590Y59996I-10J0D01*
G01X101450D01*
G03X101440Y59986I0J-10D01*
G37*
G36*
G01X100511Y59411D02*
G01X100611Y59411D01*
G03X100621Y59422I0J10D01*
G01Y59562D01*
G03X100611Y59572I-10J0D01*
G01X100511D01*
G03X100501Y59562I0J-10D01*
G01Y59422D01*
G03X100511Y59411I10J0D01*
G37*
G36*
G01X100713Y59411D02*
G01X100813Y59411D01*
G03X100823Y59422I0J10D01*
G01Y59562D01*
G03X100813Y59572I-10J0D01*
G01X100713D01*
G03X100703Y59562I0J-10D01*
G01Y59422D01*
G03X100713Y59411I10J0D01*
G37*
G36*
G01X101037Y59510D02*
G01X101037Y59410D01*
G03X101047Y59400I10J0D01*
G01X101187D01*
G03X101197Y59410I0J10D01*
G01Y59510D01*
G03X101187Y59521I-10J0D01*
G01X101047D01*
G03X101037Y59510I0J-10D01*
G37*
G36*
G01X101037Y59309D02*
G01X101037Y59209D01*
G03X101047Y59198I10J0D01*
G01X101187D01*
G03X101197Y59209I0J10D01*
G01Y59309D01*
G03X101187Y59319I-10J0D01*
G01X101047D01*
G03X101037Y59309I0J-10D01*
G37*
G36*
G01X96310Y60342D02*
G01X96130Y60342D01*
G03X96120Y60332I0J-10D01*
G01Y60152D01*
G03X96130Y60142I10J0D01*
G01X96310D01*
G03X96320Y60152I0J10D01*
G01Y60332D01*
G03X96310Y60342I-10J0D01*
G37*
G36*
G01X96307Y60747D02*
G01X96127Y60747D01*
G03X96117Y60737I0J-10D01*
G01Y60557D01*
G03X96127Y60547I10J0D01*
G01X96307D01*
G03X96317Y60557I0J10D01*
G01Y60737D01*
G03X96307Y60747I-10J0D01*
G37*
G36*
G01X96072Y59302D02*
G01X96252Y59302D01*
G03X96262Y59313I0J10D01*
G01Y59493D01*
G03X96252Y59503I-10J0D01*
G01X96072D01*
G03X96062Y59493I0J-10D01*
G01Y59313D01*
G03X96072Y59302I10J0D01*
G37*
G36*
G01X96075Y58898D02*
G01X96255Y58898D01*
G03X96265Y58908I0J10D01*
G01Y59088D01*
G03X96255Y59098I-10J0D01*
G01X96075D01*
G03X96065Y59088I0J-10D01*
G01Y58908D01*
G03X96075Y58898I10J0D01*
G37*
G36*
G01X99701Y63482D02*
G01X99701Y63662D01*
G03X99691Y63672I-10J0D01*
G01X99511D01*
G03X99501Y63662I0J-10D01*
G01Y63482D01*
G03X99511Y63472I10J0D01*
G01X99691D01*
G03X99701Y63482I0J10D01*
G37*
G36*
G01X100106Y63485D02*
G01X100106Y63665D01*
G03X100096Y63675I-10J0D01*
G01X99916D01*
G03X99905Y63665I0J-10D01*
G01Y63485D01*
G03X99916Y63474I10J0D01*
G01X100096D01*
G03X100106Y63485I0J10D01*
G37*
G36*
G01X97001Y63188D02*
G01X97001Y63008D01*
G03X97011Y62998I10J0D01*
G01X97191D01*
G03X97201Y63008I0J10D01*
G01Y63188D01*
G03X97191Y63199I-10J0D01*
G01X97011D01*
G03X97001Y63188I0J-10D01*
G37*
G36*
G01X96596Y63186D02*
G01X96596Y63006D01*
G03X96607Y62996I10J0D01*
G01X96787D01*
G03X96797Y63006I0J10D01*
G01Y63186D01*
G03X96787Y63196I-10J0D01*
G01X96607D01*
G03X96596Y63186I0J-10D01*
G37*
G36*
G01X96374Y63186D02*
G01X96374Y63006D01*
G03X96384Y62995I10J0D01*
G01X96564D01*
G03X96574Y63006I0J10D01*
G01Y63186D01*
G03X96564Y63196I-10J0D01*
G01X96384D01*
G03X96374Y63186I0J-10D01*
G37*
G36*
G01X95969Y63183D02*
G01X95969Y63003D01*
G03X95979Y62993I10J0D01*
G01X96159D01*
G03X96169Y63003I0J10D01*
G01Y63183D01*
G03X96159Y63193I-10J0D01*
G01X95979D01*
G03X95969Y63183I0J-10D01*
G37*
G36*
G01X95894Y63853D02*
G01X95704Y63853D01*
G03X95694Y63843I0J-10D01*
G01Y63713D01*
G03X95704Y63703I10J0D01*
G01X95894D01*
G03X95904Y63713I0J10D01*
G01Y63843D01*
G03X95894Y63853I-10J0D01*
G37*
G36*
G01X95894Y64182D02*
G01X95704Y64182D01*
G03X95694Y64172I0J-10D01*
G01Y64042D01*
G03X95704Y64032I10J0D01*
G01X95894D01*
G03X95904Y64042I0J10D01*
G01Y64172D01*
G03X95894Y64182I-10J0D01*
G37*
G36*
G01X95892Y63182D02*
G01X95702Y63182D01*
G03X95691Y63172I0J-10D01*
G01Y63042D01*
G03X95702Y63032I10J0D01*
G01X95892D01*
G03X95902Y63042I0J10D01*
G01Y63172D01*
G03X95892Y63182I-10J0D01*
G37*
G36*
G01X95892Y63511D02*
G01X95702Y63511D01*
G03X95691Y63501I0J-10D01*
G01Y63371D01*
G03X95702Y63361I10J0D01*
G01X95892D01*
G03X95902Y63371I0J10D01*
G01Y63501D01*
G03X95892Y63511I-10J0D01*
G37*
G36*
G01X100248Y59350D02*
G01X100248Y59160D01*
G03X100258Y59150I10J0D01*
G01X100388D01*
G03X100398Y59160I0J10D01*
G01Y59350D01*
G03X100388Y59360I-10J0D01*
G01X100258D01*
G03X100248Y59350I0J-10D01*
G37*
G36*
G01X99919Y59350D02*
G01X99919Y59160D01*
G03X99929Y59150I10J0D01*
G01X100059D01*
G03X100069Y59160I0J10D01*
G01Y59350D01*
G03X100059Y59360I-10J0D01*
G01X99929D01*
G03X99919Y59350I0J-10D01*
G37*
G36*
G01X99207Y59934D02*
G01X99207Y59744D01*
G03X99217Y59734I10J0D01*
G01X99347D01*
G03X99358Y59744I0J10D01*
G01Y59934D01*
G03X99347Y59944I-10J0D01*
G01X99217D01*
G03X99207Y59934I0J-10D01*
G37*
G36*
G01X98878Y59934D02*
G01X98878Y59744D01*
G03X98888Y59734I10J0D01*
G01X99018D01*
G03X99029Y59744I0J10D01*
G01Y59934D01*
G03X99018Y59944I-10J0D01*
G01X98888D01*
G03X98878Y59934I0J-10D01*
G37*
G36*
G01X96682Y59517D02*
G01X96682Y59327D01*
G03X96692Y59316I10J0D01*
G01X96822D01*
G03X96832Y59327I0J10D01*
G01Y59517D01*
G03X96822Y59527I-10J0D01*
G01X96692D01*
G03X96682Y59517I0J-10D01*
G37*
G36*
G01X96353Y59517D02*
G01X96353Y59327D01*
G03X96363Y59316I10J0D01*
G01X96493D01*
G03X96503Y59327I0J10D01*
G01Y59517D01*
G03X96493Y59527I-10J0D01*
G01X96363D01*
G03X96353Y59517I0J-10D01*
G37*
G36*
G01X96680Y61261D02*
G01X96680Y61071D01*
G03X96690Y61061I10J0D01*
G01X96820D01*
G03X96830Y61071I0J10D01*
G01Y61261D01*
G03X96820Y61271I-10J0D01*
G01X96690D01*
G03X96680Y61261I0J-10D01*
G37*
G36*
G01X96351Y61261D02*
G01X96351Y61071D01*
G03X96361Y61061I10J0D01*
G01X96491D01*
G03X96501Y61071I0J10D01*
G01Y61261D01*
G03X96491Y61271I-10J0D01*
G01X96361D01*
G03X96351Y61261I0J-10D01*
G37*
G36*
G01X96535Y61780D02*
G01X96535Y61590D01*
G03X96545Y61580I10J0D01*
G01X96675D01*
G03X96686Y61590I0J10D01*
G01Y61780D01*
G03X96675Y61790I-10J0D01*
G01X96545D01*
G03X96535Y61780I0J-10D01*
G37*
G36*
G01X96206Y61780D02*
G01X96206Y61590D01*
G03X96216Y61580I10J0D01*
G01X96346D01*
G03X96357Y61590I0J10D01*
G01Y61780D01*
G03X96346Y61790I-10J0D01*
G01X96216D01*
G03X96206Y61780I0J-10D01*
G37*
G36*
G01X99211Y63547D02*
G01X99211Y63357D01*
G03X99221Y63347I10J0D01*
G01X99351D01*
G03X99361Y63357I0J10D01*
G01Y63547D01*
G03X99351Y63558I-10J0D01*
G01X99221D01*
G03X99211Y63547I0J-10D01*
G37*
G36*
G01X98882Y63547D02*
G01X98882Y63357D01*
G03X98892Y63347I10J0D01*
G01X99022D01*
G03X99032Y63357I0J10D01*
G01Y63547D01*
G03X99022Y63558I-10J0D01*
G01X98892D01*
G03X98882Y63547I0J-10D01*
G37*
G36*
G01X98862Y63819D02*
G01X98862Y63629D01*
G03X98872Y63619I10J0D01*
G01X99002D01*
G03X99012Y63629I0J10D01*
G01Y63819D01*
G03X99002Y63830I-10J0D01*
G01X98872D01*
G03X98862Y63819I0J-10D01*
G37*
G36*
G01X98533Y63819D02*
G01X98533Y63629D01*
G03X98543Y63619I10J0D01*
G01X98673D01*
G03X98683Y63629I0J10D01*
G01Y63819D01*
G03X98673Y63830I-10J0D01*
G01X98543D01*
G03X98533Y63819I0J-10D01*
G37*
G54D15*
G01X100014Y64233D03*
G01X100012Y63226D03*
G54D16*
G01X98311Y59752D03*
G01X98064Y59752D03*
G01X97817Y59752D03*
G54D17*
G01X101319Y59037D03*
G01X101570Y59037D03*
G01X101829Y59037D03*
G54D18*
G01X101540Y61307D03*
G01X101532Y61818D03*
G54D20*
G01X100598Y60705D03*
G01X100587Y59203D03*
G54D21*
G01X94314Y59339D03*
G01X95536Y58145D03*
G01X95732Y58727D03*
G54D22*
G01X95536Y59342D03*
G54D21*
G01X94312Y60980D03*
G01X95534Y59785D03*
G01X95729Y60368D03*
G54D22*
G01X95534Y60983D03*
G54D23*
G01X99905Y59994D03*
G01X99905Y60202D03*
G01X100370Y58611D03*
G01X100163Y58611D03*
G01X101421Y63099D03*
G01X101213Y63099D03*
G54D24*
G01X97297Y60158D03*
G54D25*
G01X97049Y60163D03*
G54D24*
G01X97572Y59527D03*
G54D25*
G01X97323Y59532D03*
G54D24*
G01X98190Y59265D03*
G54D25*
G01X97941Y59270D03*
G54D24*
G01X98831Y59527D03*
G54D25*
G01X98582Y59532D03*
G54D24*
G01X99089Y60145D03*
G54D25*
G01X98840Y60150D03*
G54D24*
G01X98837Y60808D03*
G54D25*
G01X98588Y60813D03*
G54D24*
G01X98203Y61060D03*
G54D25*
G01X97954Y61065D03*
G54D24*
G01X97562Y60808D03*
G54D25*
G01X97313Y60813D03*
G54D26*
G01X100574Y63317D03*
G54D27*
G01X100574Y62802D03*
G54D28*
G01X100973Y63593D03*
G54D29*
G01X101185Y63593D03*
G54D28*
G01X101396Y63593D03*
G54D30*
G01X99612Y63030D03*
G01X99612Y63296D03*
G54D31*
G01X97320Y63082D03*
G54D32*
G01X98675Y63078D03*
G54D33*
G01X100573Y63772D03*
G01X100573Y64123D03*
G01X98364Y63735D03*
G01X98364Y64085D03*
G01X97486Y63736D03*
G01X97486Y64087D03*
G54D34*
G01X94994Y62951D03*
G01X95113Y62352D03*
G54D35*
G01X95425Y61943D03*
G01X94905Y61943D03*
G01X95553Y56902D03*
G01X95034Y56902D03*
G01X94110Y61883D03*
G01X94110Y61364D03*
G01X96773Y64124D03*
G01X96253Y64124D03*
G54D36*
G01X95578Y64094D03*
G01X95573Y63084D03*
G54D37*
G01X95151Y63928D03*
G01X94869Y63427D03*
G54D38*
G01X100279Y60294D03*
G01X100406Y60294D03*
G01X100533Y60294D03*
G01X100660Y60294D03*
G01X100787Y60294D03*
G01X100914Y60294D03*
G01X101041Y60294D03*
G01X100279Y59747D03*
G01X100406Y59747D03*
G01X100533Y59747D03*
G01X100660Y59747D03*
G01X100787Y59747D03*
G01X100914Y59747D03*
G01X101041Y59747D03*
G04 Pad End*

M02*
