G04 Layer: BoardOutlineLayer*
G04 EasyEDA Pro v1.8.39.fb3963, 2022-10-20 14:29:14*
G04 Gerber Generator version 0.3*
G04 Scale: 100 percent, Rotated: No, Reflected: No*
G04 Dimensions in millimeters*
G04 Leading zeros omitted, absolute positions, 4 integers and 2 decimals*
%FSLAX42Y42*%
%MOMM*%
%ADD10C,0.1*%
%ADD11C,0.800001*%
G75*


G04 PolygonModel Start*
G54D10*
G01X100107Y57992D02*
G03X99133Y58910I-1008J-94D01*
G01X97148Y58912D02*
G03X96103Y57990I-15J-1037D01*
G01X97148Y58910D02*
G01X99189Y58910D01*
G54D11*
G01X95355Y58377D02*
G01X95825Y58377D01*
G01X95975Y58565D01*
G01Y58826D01*
G01X95767Y59035D01*
G01X95439D01*
G01X95298Y59176D01*
G01Y59917D01*
G01X95420Y60039D01*
G01X95820D01*
G01X95965Y60183D01*
G01Y60582D01*
G01X95882Y60665D01*
G01X95414D01*
G01X95288Y60791D01*
G01Y61131D01*
G54D10*
G01X93852Y57110D02*
G01X95052Y55910D01*
G01X95052Y64410D02*
G01X93852Y63210D01*
G01X102352Y63210D02*
G01X101152Y64410D01*
G01X93852Y57110D02*
G01X93852Y63210D01*
G01X101152Y55910D02*
G01X100102Y55910D01*
G01X100102Y55910D02*
G01X100102Y57910D01*
G01X96102Y55910D02*
G01X95052Y55910D01*
G01X97102Y58910D02*
G01X99102Y58910D01*
G01X96102Y55910D02*
G01X96102Y57910D01*
G01X95052Y64410D02*
G01X101152Y64410D01*
G01X102352Y63210D02*
G01X102352Y57110D01*
G01X101152Y55910D02*
G01X102352Y57110D01*
G01X100102Y57910D02*
G03X99102Y58910I-1000J0D01*
G01X97102Y58910D02*
G03X96102Y57910I0J-1000D01*
G01X94402Y62910D02*
G03X94002Y62910I-200J0D01*
G01X102202Y62910D02*
G03X101802Y62910I-200J0D01*
G01X102202Y58160D02*
G03X101802Y58160I-200J0D01*
G01X94002Y57410D02*
G03X94402Y57410I200J0D01*
G01X94402Y57410D02*
G03X94002Y57410I-200J0D01*
G01X101802Y58160D02*
G03X102202Y58160I200J0D01*
G01X101802Y62910D02*
G03X102202Y62910I200J0D01*
G01X94002Y62910D02*
G03X94402Y62910I200J0D01*
G04 PolygonModel End*

M02*
