G04 Layer: TopSilkscreenLayer*
G04 EasyEDA Pro v1.8.39.fb3963, 2022-10-20 14:29:14*
G04 Gerber Generator version 0.3*
G04 Scale: 100 percent, Rotated: No, Reflected: No*
G04 Dimensions in millimeters*
G04 Leading zeros omitted, absolute positions, 4 integers and 2 decimals*
%FSLAX42Y42*%
%MOMM*%
%ADD10C,0.1*%
%ADD11C,2.799999*%
G75*


G04 Text Start*
G04 //text: K1*
G54D10*
G01X101298Y58122D02*
G01X101298Y58057D01*
G01X101341Y58122D02*
G01X101298Y58079D01*
G01X101313Y58094D02*
G01X101341Y58057D01*
G01X101365Y58110D02*
G01X101371Y58113D01*
G01X101381Y58122D01*
G01Y58057D01*
G04 //text: D4*
G01X99678Y64272D02*
G01X99678Y64207D01*
G01X99678Y64272D02*
G01X99699Y64272D01*
G01X99708Y64269D01*
G01X99715Y64263D01*
G01X99718Y64256D01*
G01X99721Y64247D01*
G01Y64232D01*
G01X99718Y64223D01*
G01X99715Y64217D01*
G01X99708Y64211D01*
G01X99699Y64207D01*
G01X99678D01*
G01X99776Y64272D02*
G01X99745Y64229D01*
G01X99791D01*
G01X99776Y64272D02*
G01X99776Y64207D01*
G04 //text: IR1*
G01X98000Y60661D02*
G01X98000Y60597D01*
G01X98025Y60661D02*
G01X98025Y60597D01*
G01X98025Y60661D02*
G01X98052Y60661D01*
G01X98061Y60658D01*
G01X98064Y60655D01*
G01X98067Y60649D01*
G01Y60643D01*
G01X98064Y60636D01*
G01X98061Y60633D01*
G01X98052Y60630D01*
G01X98025D01*
G01X98046Y60630D02*
G01X98067Y60597D01*
G01X98092Y60649D02*
G01X98098Y60652D01*
G01X98107Y60661D01*
G01Y60597D01*
G04 //text: LED9*
G01X101699Y60087D02*
G01X101699Y60022D01*
G01X101699Y60022D02*
G01X101736Y60022D01*
G01X101760Y60087D02*
G01X101760Y60022D01*
G01X101760Y60087D02*
G01X101800Y60087D01*
G01X101760Y60056D02*
G01X101785Y60056D01*
G01X101760Y60022D02*
G01X101800Y60022D01*
G01X101825Y60087D02*
G01X101825Y60022D01*
G01X101825Y60087D02*
G01X101846Y60087D01*
G01X101855Y60084D01*
G01X101861Y60078D01*
G01X101865Y60071D01*
G01X101868Y60062D01*
G01Y60047D01*
G01X101865Y60038D01*
G01X101861Y60032D01*
G01X101855Y60026D01*
G01X101846Y60022D01*
G01X101825D01*
G01X101932Y60065D02*
G01X101929Y60056D01*
G01X101923Y60050D01*
G01X101914Y60047D01*
G01X101911D01*
G01X101902Y60050D01*
G01X101895Y60056D01*
G01X101892Y60065D01*
G01Y60068D01*
G01X101895Y60078D01*
G01X101902Y60084D01*
G01X101911Y60087D01*
G01X101914D01*
G01X101923Y60084D01*
G01X101929Y60078D01*
G01X101932Y60065D01*
G01Y60050D01*
G01X101929Y60035D01*
G01X101923Y60026D01*
G01X101914Y60022D01*
G01X101908D01*
G01X101899Y60026D01*
G01X101895Y60032D01*
G04 //text: LS1*
G01X101473Y62313D02*
G01X101473Y62249D01*
G01X101473Y62249D02*
G01X101510Y62249D01*
G01X101578Y62304D02*
G01X101571Y62310D01*
G01X101562Y62313D01*
G01X101550D01*
G01X101541Y62310D01*
G01X101535Y62304D01*
G01Y62298D01*
G01X101538Y62292D01*
G01X101541Y62289D01*
G01X101547Y62286D01*
G01X101565Y62280D01*
G01X101571Y62277D01*
G01X101574Y62273D01*
G01X101578Y62267D01*
G01Y62258D01*
G01X101571Y62252D01*
G01X101562Y62249D01*
G01X101550D01*
G01X101541Y62252D01*
G01X101535Y62258D01*
G01X101602Y62301D02*
G01X101608Y62304D01*
G01X101617Y62313D01*
G01Y62249D01*
G04 //text: J1*
G01X100581Y60897D02*
G01X100581Y60848D01*
G01X100578Y60839D01*
G01X100575Y60836D01*
G01X100569Y60833D01*
G01X100563D01*
G01X100557Y60836D01*
G01X100554Y60839D01*
G01X100551Y60848D01*
G01Y60854D01*
G01X100606Y60885D02*
G01X100612Y60888D01*
G01X100621Y60897D01*
G01Y60833D01*
G04 //text: RL2*
G01X95681Y57899D02*
G01X95681Y57835D01*
G01X95681Y57899D02*
G01X95708Y57899D01*
G01X95718Y57896D01*
G01X95721Y57893D01*
G01X95724Y57887D01*
G01Y57881D01*
G01X95721Y57875D01*
G01X95718Y57872D01*
G01X95708Y57868D01*
G01X95681D01*
G01X95702Y57868D02*
G01X95724Y57835D01*
G01X95748Y57899D02*
G01X95748Y57835D01*
G01X95748Y57835D02*
G01X95785Y57835D01*
G01X95813Y57884D02*
G01X95813Y57887D01*
G01X95816Y57893D01*
G01X95819Y57896D01*
G01X95825Y57899D01*
G01X95837D01*
G01X95843Y57896D01*
G01X95847Y57893D01*
G01X95850Y57887D01*
G01Y57881D01*
G01X95847Y57875D01*
G01X95840Y57865D01*
G01X95810Y57835D01*
G01X95853D01*
G04 //text: RL3*
G01X95714Y61279D02*
G01X95714Y61215D01*
G01X95714Y61279D02*
G01X95741Y61279D01*
G01X95750Y61276D01*
G01X95753Y61273D01*
G01X95756Y61267D01*
G01Y61261D01*
G01X95753Y61255D01*
G01X95750Y61252D01*
G01X95741Y61248D01*
G01X95714D01*
G01X95735Y61248D02*
G01X95756Y61215D01*
G01X95781Y61279D02*
G01X95781Y61215D01*
G01X95781Y61215D02*
G01X95818Y61215D01*
G01X95848Y61279D02*
G01X95882Y61279D01*
G01X95864Y61255D01*
G01X95873D01*
G01X95879Y61252D01*
G01X95882Y61248D01*
G01X95885Y61239D01*
G01Y61233D01*
G01X95882Y61224D01*
G01X95876Y61218D01*
G01X95867Y61215D01*
G01X95858D01*
G01X95848Y61218D01*
G01X95845Y61221D01*
G01X95842Y61227D01*
G04 //text: EC7*
G01X99786Y60439D02*
G01X99786Y60375D01*
G01X99786Y60439D02*
G01X99826Y60439D01*
G01X99786Y60408D02*
G01X99810Y60408D01*
G01X99786Y60375D02*
G01X99826Y60375D01*
G01X99896Y60424D02*
G01X99893Y60430D01*
G01X99887Y60436D01*
G01X99881Y60439D01*
G01X99869D01*
G01X99863Y60436D01*
G01X99856Y60430D01*
G01X99853Y60424D01*
G01X99850Y60414D01*
G01Y60399D01*
G01X99853Y60390D01*
G01X99856Y60384D01*
G01X99863Y60378D01*
G01X99869Y60375D01*
G01X99881D01*
G01X99887Y60378D01*
G01X99893Y60384D01*
G01X99896Y60390D01*
G01X99964Y60439D02*
G01X99933Y60375D01*
G01X99921Y60439D02*
G01X99964Y60439D01*
G04 //text: EC4*
G01X100164Y58916D02*
G01X100164Y58851D01*
G01X100164Y58916D02*
G01X100204Y58916D01*
G01X100164Y58885D02*
G01X100188Y58885D01*
G01X100164Y58851D02*
G01X100204Y58851D01*
G01X100274Y58901D02*
G01X100271Y58907D01*
G01X100265Y58913D01*
G01X100259Y58916D01*
G01X100247D01*
G01X100241Y58913D01*
G01X100234Y58907D01*
G01X100231Y58901D01*
G01X100228Y58891D01*
G01Y58876D01*
G01X100231Y58867D01*
G01X100234Y58861D01*
G01X100241Y58855D01*
G01X100247Y58851D01*
G01X100259D01*
G01X100265Y58855D01*
G01X100271Y58861D01*
G01X100274Y58867D01*
G01X100330Y58916D02*
G01X100299Y58873D01*
G01X100345D01*
G01X100330Y58916D02*
G01X100330Y58851D01*
G04 //text: EC8*
G01X101289Y62759D02*
G01X101289Y62695D01*
G01X101289Y62759D02*
G01X101328Y62759D01*
G01X101289Y62728D02*
G01X101313Y62728D01*
G01X101289Y62695D02*
G01X101328Y62695D01*
G01X101399Y62744D02*
G01X101396Y62750D01*
G01X101390Y62756D01*
G01X101384Y62759D01*
G01X101371D01*
G01X101365Y62756D01*
G01X101359Y62750D01*
G01X101356Y62744D01*
G01X101353Y62735D01*
G01Y62719D01*
G01X101356Y62710D01*
G01X101359Y62704D01*
G01X101365Y62698D01*
G01X101371Y62695D01*
G01X101384D01*
G01X101390Y62698D01*
G01X101396Y62704D01*
G01X101399Y62710D01*
G01X101439Y62759D02*
G01X101430Y62756D01*
G01X101426Y62750D01*
G01Y62744D01*
G01X101430Y62738D01*
G01X101436Y62735D01*
G01X101448Y62732D01*
G01X101457Y62728D01*
G01X101463Y62722D01*
G01X101466Y62716D01*
G01Y62707D01*
G01X101463Y62701D01*
G01X101460Y62698D01*
G01X101451Y62695D01*
G01X101439D01*
G01X101430Y62698D01*
G01X101426Y62701D01*
G01X101423Y62707D01*
G01Y62716D01*
G01X101426Y62722D01*
G01X101433Y62728D01*
G01X101442Y62732D01*
G01X101454Y62735D01*
G01X101460Y62738D01*
G01X101463Y62744D01*
G01Y62750D01*
G01X101460Y62756D01*
G01X101451Y62759D01*
G01X101439D01*
G04 //text: LED5*
G01X96504Y60227D02*
G01X96504Y60162D01*
G01X96504Y60162D02*
G01X96541Y60162D01*
G01X96565Y60227D02*
G01X96565Y60162D01*
G01X96565Y60227D02*
G01X96605Y60227D01*
G01X96565Y60196D02*
G01X96590Y60196D01*
G01X96565Y60162D02*
G01X96605Y60162D01*
G01X96630Y60227D02*
G01X96630Y60162D01*
G01X96630Y60227D02*
G01X96651Y60227D01*
G01X96660Y60224D01*
G01X96666Y60218D01*
G01X96670Y60211D01*
G01X96673Y60202D01*
G01Y60187D01*
G01X96670Y60178D01*
G01X96666Y60172D01*
G01X96660Y60166D01*
G01X96651Y60162D01*
G01X96630D01*
G01X96734Y60227D02*
G01X96704Y60227D01*
G01X96700Y60199D01*
G01X96704Y60202D01*
G01X96713Y60205D01*
G01X96722D01*
G01X96731Y60202D01*
G01X96737Y60196D01*
G01X96740Y60187D01*
G01Y60181D01*
G01X96737Y60172D01*
G01X96731Y60166D01*
G01X96722Y60162D01*
G01X96713D01*
G01X96704Y60166D01*
G01X96700Y60169D01*
G01X96697Y60175D01*
G04 //text: LED6*
G01X96857Y59587D02*
G01X96857Y59522D01*
G01X96857Y59522D02*
G01X96893Y59522D01*
G01X96918Y59587D02*
G01X96918Y59522D01*
G01X96918Y59587D02*
G01X96958Y59587D01*
G01X96918Y59556D02*
G01X96942Y59556D01*
G01X96918Y59522D02*
G01X96958Y59522D01*
G01X96982Y59587D02*
G01X96982Y59522D01*
G01X96982Y59587D02*
G01X97004Y59587D01*
G01X97013Y59584D01*
G01X97019Y59578D01*
G01X97022Y59571D01*
G01X97025Y59562D01*
G01Y59547D01*
G01X97022Y59538D01*
G01X97019Y59532D01*
G01X97013Y59526D01*
G01X97004Y59522D01*
G01X96982D01*
G01X97087Y59578D02*
G01X97083Y59584D01*
G01X97074Y59587D01*
G01X97068D01*
G01X97059Y59584D01*
G01X97053Y59575D01*
G01X97050Y59559D01*
G01Y59544D01*
G01X97053Y59532D01*
G01X97059Y59526D01*
G01X97068Y59522D01*
G01X97071D01*
G01X97080Y59526D01*
G01X97087Y59532D01*
G01X97090Y59541D01*
G01Y59544D01*
G01X97087Y59553D01*
G01X97080Y59559D01*
G01X97071Y59562D01*
G01X97068D01*
G01X97059Y59559D01*
G01X97053Y59553D01*
G01X97050Y59544D01*
G04 //text: LED7*
G01X97472Y59062D02*
G01X97472Y58997D01*
G01X97472Y58997D02*
G01X97508Y58997D01*
G01X97533Y59062D02*
G01X97533Y58997D01*
G01X97533Y59062D02*
G01X97573Y59062D01*
G01X97533Y59031D02*
G01X97557Y59031D01*
G01X97533Y58997D02*
G01X97573Y58997D01*
G01X97597Y59062D02*
G01X97597Y58997D01*
G01X97597Y59062D02*
G01X97619Y59062D01*
G01X97628Y59059D01*
G01X97634Y59053D01*
G01X97637Y59046D01*
G01X97640Y59037D01*
G01Y59022D01*
G01X97637Y59013D01*
G01X97634Y59007D01*
G01X97628Y59001D01*
G01X97619Y58997D01*
G01X97597D01*
G01X97708Y59062D02*
G01X97677Y58997D01*
G01X97665Y59062D02*
G01X97708Y59062D01*
G04 //text: LED8*
G01X98904Y59127D02*
G01X98904Y59062D01*
G01X98904Y59062D02*
G01X98941Y59062D01*
G01X98965Y59127D02*
G01X98965Y59062D01*
G01X98965Y59127D02*
G01X99005Y59127D01*
G01X98965Y59096D02*
G01X98990Y59096D01*
G01X98965Y59062D02*
G01X99005Y59062D01*
G01X99030Y59127D02*
G01X99030Y59062D01*
G01X99030Y59127D02*
G01X99051Y59127D01*
G01X99060Y59124D01*
G01X99066Y59118D01*
G01X99070Y59111D01*
G01X99073Y59102D01*
G01Y59087D01*
G01X99070Y59078D01*
G01X99066Y59072D01*
G01X99060Y59066D01*
G01X99051Y59062D01*
G01X99030D01*
G01X99113Y59127D02*
G01X99104Y59124D01*
G01X99100Y59118D01*
G01Y59111D01*
G01X99104Y59105D01*
G01X99110Y59102D01*
G01X99122Y59099D01*
G01X99131Y59096D01*
G01X99137Y59090D01*
G01X99140Y59084D01*
G01Y59075D01*
G01X99137Y59069D01*
G01X99134Y59066D01*
G01X99125Y59062D01*
G01X99113D01*
G01X99104Y59066D01*
G01X99100Y59069D01*
G01X99097Y59075D01*
G01Y59084D01*
G01X99100Y59090D01*
G01X99107Y59096D01*
G01X99116Y59099D01*
G01X99128Y59102D01*
G01X99134Y59105D01*
G01X99137Y59111D01*
G01Y59118D01*
G01X99134Y59124D01*
G01X99125Y59127D01*
G01X99113D01*
G04 //text: LED4*
G01X99212Y60572D02*
G01X99212Y60507D01*
G01X99212Y60507D02*
G01X99248Y60507D01*
G01X99273Y60572D02*
G01X99273Y60507D01*
G01X99273Y60572D02*
G01X99313Y60572D01*
G01X99273Y60541D02*
G01X99297Y60541D01*
G01X99273Y60507D02*
G01X99313Y60507D01*
G01X99337Y60572D02*
G01X99337Y60507D01*
G01X99337Y60572D02*
G01X99359Y60572D01*
G01X99368Y60569D01*
G01X99374Y60563D01*
G01X99377Y60556D01*
G01X99380Y60547D01*
G01Y60532D01*
G01X99377Y60523D01*
G01X99374Y60517D01*
G01X99368Y60511D01*
G01X99359Y60507D01*
G01X99337D01*
G01X99435Y60572D02*
G01X99405Y60529D01*
G01X99451D01*
G01X99435Y60572D02*
G01X99435Y60507D01*
G04 //text: LED3*
G01X98563Y61227D02*
G01X98563Y61163D01*
G01X98563Y61163D02*
G01X98600Y61163D01*
G01X98625Y61227D02*
G01X98625Y61163D01*
G01X98625Y61227D02*
G01X98664Y61227D01*
G01X98625Y61196D02*
G01X98649Y61196D01*
G01X98625Y61163D02*
G01X98664Y61163D01*
G01X98689Y61227D02*
G01X98689Y61163D01*
G01X98689Y61227D02*
G01X98710Y61227D01*
G01X98720Y61224D01*
G01X98726Y61218D01*
G01X98729Y61212D01*
G01X98732Y61202D01*
G01Y61187D01*
G01X98729Y61178D01*
G01X98726Y61172D01*
G01X98720Y61166D01*
G01X98710Y61163D01*
G01X98689D01*
G01X98763Y61227D02*
G01X98796Y61227D01*
G01X98778Y61202D01*
G01X98787D01*
G01X98793Y61199D01*
G01X98796Y61196D01*
G01X98799Y61187D01*
G01Y61181D01*
G01X98796Y61172D01*
G01X98790Y61166D01*
G01X98781Y61163D01*
G01X98772D01*
G01X98763Y61166D01*
G01X98760Y61169D01*
G01X98757Y61175D01*
G04 //text: LED2*
G01X97929Y61478D02*
G01X97929Y61414D01*
G01X97929Y61414D02*
G01X97966Y61414D01*
G01X97990Y61478D02*
G01X97990Y61414D01*
G01X97990Y61478D02*
G01X98030Y61478D01*
G01X97990Y61448D02*
G01X98015Y61448D01*
G01X97990Y61414D02*
G01X98030Y61414D01*
G01X98055Y61478D02*
G01X98055Y61414D01*
G01X98055Y61478D02*
G01X98076Y61478D01*
G01X98085Y61475D01*
G01X98092Y61469D01*
G01X98095Y61463D01*
G01X98098Y61454D01*
G01Y61438D01*
G01X98095Y61429D01*
G01X98092Y61423D01*
G01X98085Y61417D01*
G01X98076Y61414D01*
G01X98055D01*
G01X98126Y61463D02*
G01X98126Y61466D01*
G01X98129Y61472D01*
G01X98132Y61475D01*
G01X98138Y61478D01*
G01X98150D01*
G01X98156Y61475D01*
G01X98159Y61472D01*
G01X98162Y61466D01*
G01Y61460D01*
G01X98159Y61454D01*
G01X98153Y61444D01*
G01X98123Y61414D01*
G01X98165D01*
G04 //text: LED1*
G01X97302Y61226D02*
G01X97302Y61162D01*
G01X97302Y61162D02*
G01X97338Y61162D01*
G01X97363Y61226D02*
G01X97363Y61162D01*
G01X97363Y61226D02*
G01X97403Y61226D01*
G01X97363Y61195D02*
G01X97388Y61195D01*
G01X97363Y61162D02*
G01X97403Y61162D01*
G01X97427Y61226D02*
G01X97427Y61162D01*
G01X97427Y61226D02*
G01X97449Y61226D01*
G01X97458Y61223D01*
G01X97464Y61217D01*
G01X97467Y61211D01*
G01X97470Y61202D01*
G01Y61186D01*
G01X97467Y61177D01*
G01X97464Y61171D01*
G01X97458Y61165D01*
G01X97449Y61162D01*
G01X97427D01*
G01X97495Y61214D02*
G01X97501Y61217D01*
G01X97510Y61226D01*
G01Y61162D01*
G04 //text: L2*
G01X100578Y62532D02*
G01X100578Y62467D01*
G01X100578Y62467D02*
G01X100615Y62467D01*
G01X100642Y62516D02*
G01X100642Y62520D01*
G01X100645Y62526D01*
G01X100648Y62529D01*
G01X100655Y62532D01*
G01X100667D01*
G01X100673Y62529D01*
G01X100676Y62526D01*
G01X100679Y62520D01*
G01Y62513D01*
G01X100676Y62507D01*
G01X100670Y62498D01*
G01X100639Y62467D01*
G01X100682D01*
G04 //text: U2*
G01X101127Y63776D02*
G01X101127Y63730D01*
G01X101130Y63721D01*
G01X101136Y63715D01*
G01X101145Y63712D01*
G01X101151D01*
G01X101160Y63715D01*
G01X101166Y63721D01*
G01X101169Y63730D01*
G01Y63776D01*
G01X101197Y63761D02*
G01X101197Y63764D01*
G01X101200Y63770D01*
G01X101203Y63773D01*
G01X101209Y63776D01*
G01X101222D01*
G01X101228Y63773D01*
G01X101231Y63770D01*
G01X101234Y63764D01*
G01Y63757D01*
G01X101231Y63751D01*
G01X101225Y63742D01*
G01X101194Y63712D01*
G01X101237D01*
G04 //text: C6*
G01X99615Y63472D02*
G01X99612Y63479D01*
G01X99606Y63485D01*
G01X99600Y63488D01*
G01X99588D01*
G01X99582Y63485D01*
G01X99576Y63479D01*
G01X99573Y63472D01*
G01X99570Y63463D01*
G01Y63448D01*
G01X99573Y63439D01*
G01X99576Y63433D01*
G01X99582Y63426D01*
G01X99588Y63423D01*
G01X99600D01*
G01X99606Y63426D01*
G01X99612Y63433D01*
G01X99615Y63439D01*
G01X99677Y63479D02*
G01X99674Y63485D01*
G01X99665Y63488D01*
G01X99658D01*
G01X99649Y63485D01*
G01X99643Y63476D01*
G01X99640Y63460D01*
G01Y63445D01*
G01X99643Y63433D01*
G01X99649Y63426D01*
G01X99658Y63423D01*
G01X99661D01*
G01X99671Y63426D01*
G01X99677Y63433D01*
G01X99680Y63442D01*
G01Y63445D01*
G01X99677Y63454D01*
G01X99671Y63460D01*
G01X99661Y63463D01*
G01X99658D01*
G01X99649Y63460D01*
G01X99643Y63454D01*
G01X99640Y63445D01*
G04 //text: L1*
G01X97956Y63429D02*
G01X97956Y63365D01*
G01X97956Y63365D02*
G01X97992Y63365D01*
G01X98017Y63417D02*
G01X98023Y63420D01*
G01X98033Y63429D01*
G01Y63365D01*
G04 //text: EC5*
G01X100979Y64252D02*
G01X100979Y64187D01*
G01X100979Y64252D02*
G01X101018Y64252D01*
G01X100979Y64221D02*
G01X101003Y64221D01*
G01X100979Y64187D02*
G01X101018Y64187D01*
G01X101089Y64236D02*
G01X101086Y64243D01*
G01X101080Y64249D01*
G01X101074Y64252D01*
G01X101061D01*
G01X101055Y64249D01*
G01X101049Y64243D01*
G01X101046Y64236D01*
G01X101043Y64227D01*
G01Y64212D01*
G01X101046Y64203D01*
G01X101049Y64197D01*
G01X101055Y64191D01*
G01X101061Y64187D01*
G01X101074D01*
G01X101080Y64191D01*
G01X101086Y64197D01*
G01X101089Y64203D01*
G01X101150Y64252D02*
G01X101120Y64252D01*
G01X101116Y64224D01*
G01X101120Y64227D01*
G01X101129Y64230D01*
G01X101138D01*
G01X101147Y64227D01*
G01X101153Y64221D01*
G01X101156Y64212D01*
G01Y64206D01*
G01X101153Y64197D01*
G01X101147Y64191D01*
G01X101138Y64187D01*
G01X101129D01*
G01X101120Y64191D01*
G01X101116Y64194D01*
G01X101113Y64200D01*
G04 //text: EC3*
G01X98556Y63527D02*
G01X98556Y63462D01*
G01X98556Y63527D02*
G01X98596Y63527D01*
G01X98556Y63496D02*
G01X98580Y63496D01*
G01X98556Y63462D02*
G01X98596Y63462D01*
G01X98666Y63511D02*
G01X98663Y63518D01*
G01X98657Y63524D01*
G01X98651Y63527D01*
G01X98639D01*
G01X98633Y63524D01*
G01X98626Y63518D01*
G01X98623Y63511D01*
G01X98620Y63502D01*
G01Y63487D01*
G01X98623Y63478D01*
G01X98626Y63472D01*
G01X98633Y63466D01*
G01X98639Y63462D01*
G01X98651D01*
G01X98657Y63466D01*
G01X98663Y63472D01*
G01X98666Y63478D01*
G01X98697Y63527D02*
G01X98731Y63527D01*
G01X98712Y63502D01*
G01X98722D01*
G01X98728Y63499D01*
G01X98731Y63496D01*
G01X98734Y63487D01*
G01Y63481D01*
G01X98731Y63472D01*
G01X98725Y63466D01*
G01X98715Y63462D01*
G01X98706D01*
G01X98697Y63466D01*
G01X98694Y63469D01*
G01X98691Y63475D01*
G04 //text: EC2*
G01X97104Y63519D02*
G01X97104Y63455D01*
G01X97104Y63519D02*
G01X97143Y63519D01*
G01X97104Y63488D02*
G01X97128Y63488D01*
G01X97104Y63455D02*
G01X97143Y63455D01*
G01X97214Y63504D02*
G01X97211Y63510D01*
G01X97205Y63516D01*
G01X97199Y63519D01*
G01X97186D01*
G01X97180Y63516D01*
G01X97174Y63510D01*
G01X97171Y63504D01*
G01X97168Y63495D01*
G01Y63479D01*
G01X97171Y63470D01*
G01X97174Y63464D01*
G01X97180Y63458D01*
G01X97186Y63455D01*
G01X97199D01*
G01X97205Y63458D01*
G01X97211Y63464D01*
G01X97214Y63470D01*
G01X97241Y63504D02*
G01X97241Y63507D01*
G01X97245Y63513D01*
G01X97248Y63516D01*
G01X97254Y63519D01*
G01X97266D01*
G01X97272Y63516D01*
G01X97275Y63513D01*
G01X97278Y63507D01*
G01Y63501D01*
G01X97275Y63495D01*
G01X97269Y63485D01*
G01X97238Y63455D01*
G01X97281D01*
G04 //text: RX*
G01X94628Y62649D02*
G01X94628Y62585D01*
G01X94628Y62649D02*
G01X94655Y62649D01*
G01X94665Y62646D01*
G01X94668Y62643D01*
G01X94671Y62637D01*
G01Y62631D01*
G01X94668Y62625D01*
G01X94665Y62622D01*
G01X94655Y62618D01*
G01X94628D01*
G01X94649Y62618D02*
G01X94671Y62585D01*
G01X94695Y62649D02*
G01X94738Y62585D01*
G01X94738Y62649D02*
G01X94695Y62585D01*
G04 //text: ACL*
G01X95738Y61984D02*
G01X95714Y61920D01*
G01X95738Y61984D02*
G01X95762Y61920D01*
G01X95723Y61941D02*
G01X95753Y61941D01*
G01X95833Y61969D02*
G01X95830Y61975D01*
G01X95824Y61981D01*
G01X95818Y61984D01*
G01X95806D01*
G01X95799Y61981D01*
G01X95793Y61975D01*
G01X95790Y61969D01*
G01X95787Y61960D01*
G01Y61944D01*
G01X95790Y61935D01*
G01X95793Y61929D01*
G01X95799Y61923D01*
G01X95806Y61920D01*
G01X95818D01*
G01X95824Y61923D01*
G01X95830Y61929D01*
G01X95833Y61935D01*
G01X95858Y61984D02*
G01X95858Y61920D01*
G01X95858Y61920D02*
G01X95894Y61920D01*
G04 //text: L-OUT1*
G01X95120Y57235D02*
G01X95120Y57170D01*
G01X95120Y57170D02*
G01X95156Y57170D01*
G01X95181Y57198D02*
G01X95236Y57198D01*
G01X95279Y57235D02*
G01X95273Y57232D01*
G01X95267Y57226D01*
G01X95264Y57219D01*
G01X95260Y57210D01*
G01Y57195D01*
G01X95264Y57186D01*
G01X95267Y57180D01*
G01X95273Y57173D01*
G01X95279Y57170D01*
G01X95291D01*
G01X95297Y57173D01*
G01X95303Y57180D01*
G01X95306Y57186D01*
G01X95309Y57195D01*
G01Y57210D01*
G01X95306Y57219D01*
G01X95303Y57226D01*
G01X95297Y57232D01*
G01X95291Y57235D01*
G01X95279D01*
G01X95334Y57235D02*
G01X95334Y57189D01*
G01X95337Y57180D01*
G01X95343Y57173D01*
G01X95352Y57170D01*
G01X95359D01*
G01X95368Y57173D01*
G01X95374Y57180D01*
G01X95377Y57189D01*
G01Y57235D01*
G01X95423Y57235D02*
G01X95423Y57170D01*
G01X95402Y57235D02*
G01X95444Y57235D01*
G01X95469Y57223D02*
G01X95475Y57226D01*
G01X95485Y57235D01*
G01Y57170D01*
G04 //text: L-OUT2*
G01X94443Y61387D02*
G01X94443Y61322D01*
G01X94443Y61322D02*
G01X94479Y61322D01*
G01X94504Y61350D02*
G01X94559Y61350D01*
G01X94602Y61387D02*
G01X94596Y61384D01*
G01X94590Y61378D01*
G01X94587Y61371D01*
G01X94584Y61362D01*
G01Y61347D01*
G01X94587Y61338D01*
G01X94590Y61332D01*
G01X94596Y61326D01*
G01X94602Y61322D01*
G01X94614D01*
G01X94621Y61326D01*
G01X94627Y61332D01*
G01X94630Y61338D01*
G01X94633Y61347D01*
G01Y61362D01*
G01X94630Y61371D01*
G01X94627Y61378D01*
G01X94621Y61384D01*
G01X94614Y61387D01*
G01X94602D01*
G01X94657Y61387D02*
G01X94657Y61341D01*
G01X94660Y61332D01*
G01X94667Y61326D01*
G01X94676Y61322D01*
G01X94682D01*
G01X94691Y61326D01*
G01X94697Y61332D01*
G01X94700Y61341D01*
G01Y61387D01*
G01X94746Y61387D02*
G01X94746Y61322D01*
G01X94725Y61387D02*
G01X94768Y61387D01*
G01X94795Y61371D02*
G01X94795Y61375D01*
G01X94799Y61381D01*
G01X94802Y61384D01*
G01X94808Y61387D01*
G01X94820D01*
G01X94826Y61384D01*
G01X94829Y61381D01*
G01X94832Y61375D01*
G01Y61368D01*
G01X94829Y61362D01*
G01X94823Y61353D01*
G01X94792Y61322D01*
G01X94835D01*
G04 //text: ACN*
G01X96455Y63814D02*
G01X96431Y63750D01*
G01X96455Y63814D02*
G01X96480Y63750D01*
G01X96440Y63771D02*
G01X96471Y63771D01*
G01X96550Y63799D02*
G01X96547Y63805D01*
G01X96541Y63811D01*
G01X96535Y63814D01*
G01X96523D01*
G01X96517Y63811D01*
G01X96511Y63805D01*
G01X96508Y63799D01*
G01X96504Y63790D01*
G01Y63774D01*
G01X96508Y63765D01*
G01X96511Y63759D01*
G01X96517Y63753D01*
G01X96523Y63750D01*
G01X96535D01*
G01X96541Y63753D01*
G01X96547Y63759D01*
G01X96550Y63765D01*
G01X96575Y63814D02*
G01X96575Y63750D01*
G01X96575Y63814D02*
G01X96618Y63750D01*
G01X96618Y63814D02*
G01X96618Y63750D01*
G04 //text: C1*
G01X96009Y63581D02*
G01X96006Y63588D01*
G01X96000Y63594D01*
G01X95993Y63597D01*
G01X95981D01*
G01X95975Y63594D01*
G01X95969Y63588D01*
G01X95966Y63581D01*
G01X95963Y63572D01*
G01Y63557D01*
G01X95966Y63548D01*
G01X95969Y63542D01*
G01X95975Y63536D01*
G01X95981Y63532D01*
G01X95993D01*
G01X96000Y63536D01*
G01X96006Y63542D01*
G01X96009Y63548D01*
G01X96033Y63585D02*
G01X96040Y63588D01*
G01X96049Y63597D01*
G01Y63532D01*
G04 //text: ZR1*
G01X94634Y63762D02*
G01X94591Y63697D01*
G01X94591Y63762D02*
G01X94634Y63762D01*
G01X94591Y63697D02*
G01X94634Y63697D01*
G01X94658Y63762D02*
G01X94658Y63697D01*
G01X94658Y63762D02*
G01X94686Y63762D01*
G01X94695Y63759D01*
G01X94698Y63756D01*
G01X94701Y63750D01*
G01Y63743D01*
G01X94698Y63737D01*
G01X94695Y63734D01*
G01X94686Y63731D01*
G01X94658D01*
G01X94680Y63731D02*
G01X94701Y63697D01*
G01X94726Y63750D02*
G01X94732Y63753D01*
G01X94741Y63762D01*
G01Y63697D01*
G04 Text End*

G04 PolygonModel Start*
G01X100153Y64066D02*
G01X99884Y64066D01*
G01X100153Y64066D02*
G01X100153Y63418D01*
G01X100153Y63418D02*
G01X99884Y63418D01*
G01X99884Y64066D02*
G01X99884Y63418D01*
G01X100146Y63541D02*
G01X99886Y63541D01*
G01X97698Y59907D02*
G01X97698Y60564D01*
G01X97698Y59907D02*
G01X98416Y59907D01*
G01X98416Y59907D02*
G01X98416Y60564D01*
G01X97698Y60564D02*
G01X98416Y60564D01*
G01X101722Y59187D02*
G03X101737Y58905I-134J-148D01*
G01X100605Y59301D02*
G01X100605Y60561D01*
G01X94039Y59506D02*
G01X94039Y57981D01*
G01X94039Y57981D02*
G01X96011Y57981D01*
G01X96011Y59506D02*
G01X96011Y57981D01*
G01X94039Y59506D02*
G01X96011Y59506D01*
G01X94037Y61147D02*
G01X94037Y59622D01*
G01X94037Y59622D02*
G01X96008Y59622D01*
G01X96008Y61147D02*
G01X96008Y59622D01*
G01X94037Y61147D02*
G01X96008Y61147D01*
G01X99741Y60010D02*
G01X99741Y59947D01*
G01X99784Y59983D02*
G01X99702Y59983D01*
G01X100355Y58447D02*
G01X100418Y58447D01*
G01X100382Y58490D02*
G01X100382Y58408D01*
G01X101406Y62935D02*
G01X101468Y62935D01*
G01X101433Y62978D02*
G01X101433Y62896D01*
G01X97447Y60344D02*
G03X97443Y59953I-271J-193D01*
G01X97442Y59967D02*
G01X97442Y60351D01*
G01X97721Y59713D02*
G03X97718Y59322I-271J-193D01*
G01X97717Y59336D02*
G01X97717Y59720D01*
G01X98339Y59451D02*
G03X98336Y59061I-271J-193D01*
G01X98335Y59074D02*
G01X98335Y59458D01*
G01X98980Y59713D02*
G03X98977Y59322I-271J-193D01*
G01X98976Y59336D02*
G01X98976Y59719D01*
G01X99238Y60331D02*
G03X99235Y59940I-271J-193D01*
G01X99234Y59954D02*
G01X99234Y60338D01*
G01X98986Y60995D02*
G03X98983Y60604I-271J-193D01*
G01X98982Y60617D02*
G01X98982Y61001D01*
G01X98352Y61246D02*
G03X98349Y60855I-271J-193D01*
G01X98348Y60869D02*
G01X98348Y61253D01*
G01X97711Y60994D02*
G03X97708Y60603I-271J-193D01*
G01X97707Y60617D02*
G01X97707Y61001D01*
G01X100953Y63585D02*
G03X101413Y63602I230J9D01*
G01X99722Y63281D02*
G01X99804Y63281D01*
G01X99765Y63316D02*
G01X99765Y63253D01*
G01X98453Y63332D02*
G01X97550Y63332D01*
G01X98453Y62833D02*
G01X98453Y63332D01*
G01X98453Y62833D02*
G01X97550Y62833D01*
G01X97550Y62833D02*
G01X97550Y63332D01*
G01X100348Y63698D02*
G01X100348Y63797D01*
G01X100408Y63741D02*
G01X100291Y63741D01*
G01X98139Y63660D02*
G01X98139Y63759D01*
G01X98200Y63703D02*
G01X98083Y63703D01*
G01X97261Y63662D02*
G01X97261Y63761D01*
G01X97322Y63704D02*
G01X97204Y63704D01*
G01X94740Y63162D02*
G01X94928Y62148D01*
G01X95346Y62223D02*
G01X94928Y62148D01*
G01X95163Y63228D02*
G01X95346Y62223D01*
G01X95163Y63228D02*
G01X94746Y63162D01*
G01X94762Y62178D02*
G01X94762Y61682D01*
G01X95609Y62178D02*
G01X94762Y62178D01*
G01X95609Y62178D02*
G01X95609Y61682D01*
G01X95609Y61682D02*
G01X94762Y61682D01*
G01X94890Y57138D02*
G01X94890Y56641D01*
G01X95738Y57138D02*
G01X94890Y57138D01*
G01X95738Y57138D02*
G01X95738Y56641D01*
G01X95738Y56641D02*
G01X94890Y56641D01*
G01X93874Y61220D02*
G01X94370Y61220D01*
G01X93874Y62068D02*
G01X93874Y61220D01*
G01X93874Y62068D02*
G01X94370Y62068D01*
G01X94370Y62068D02*
G01X94370Y61220D01*
G01X96110Y64359D02*
G01X96110Y63863D01*
G01X96958Y64359D02*
G01X96110Y64359D01*
G01X96958Y64359D02*
G01X96958Y63863D01*
G01X96958Y63863D02*
G01X96110Y63863D01*
G01X95882Y64230D02*
G01X95280Y64230D01*
G01X95882Y62934D02*
G01X95882Y64230D01*
G01X95882Y62934D02*
G01X95280Y62934D01*
G01X95280Y62934D02*
G01X95280Y64230D01*
G01X94826Y64124D02*
G01X95219Y64124D01*
G01X95219Y64124D02*
G01X95219Y63237D01*
G01X94826Y63237D02*
G01X95219Y63237D01*
G01X94826Y64124D02*
G01X94826Y63237D01*
G04 PolygonModel End*

G04 Circle Start*
G54D11*
G01X101030Y59037D02*
G03X102110Y59037I540J0D01*
G03X101030I-540J0D01*
G54D10*
G01X101168Y59039D02*
G03X101962Y59039I397J0D01*
G03X101168I-397J0D01*
G01X100865Y59043D02*
G03X102283Y59043I709J0D01*
G03X100865I-709J0D01*
G01X97894Y60337D02*
G03X98182Y60337I144J0D01*
G03X97894I-144J0D01*
G01X101428Y59035D02*
G03X101727Y59035I149J0D01*
G03X101428I-149J0D01*
G01X100896Y61569D02*
G03X102201Y61569I652J0D01*
G03X100896I-652J0D01*
G01X99639Y60107D02*
G03X100118Y60107I240J0D01*
G03X99639I-240J0D01*
G01X100018Y58584D02*
G03X100497Y58584I240J0D01*
G03X100018I-240J0D01*
G01X101069Y63072D02*
G03X101548Y63072I240J0D01*
G03X101069I-240J0D01*
G01X96940Y60152D02*
G03X97442Y60152I251J0D01*
G03X96940I-251J0D01*
G01X97214Y59521D02*
G03X97717Y59521I251J0D01*
G03X97214I-251J0D01*
G01X97832Y59260D02*
G03X98334Y59260I251J0D01*
G03X97832I-251J0D01*
G01X98473Y59521D02*
G03X98975Y59521I251J0D01*
G03X98473I-251J0D01*
G01X98731Y60139D02*
G03X99234Y60139I251J0D01*
G03X98731I-251J0D01*
G01X98479Y60803D02*
G03X98982Y60803I251J0D01*
G03X98479I-251J0D01*
G01X97845Y61054D02*
G03X98348Y61054I251J0D01*
G03X97845I-251J0D01*
G01X97204Y60802D02*
G03X97706Y60802I251J0D01*
G03X97204I-251J0D01*
G01X100127Y63062D02*
G03X101048Y63062I460J0D01*
G03X100127I-460J0D01*
G01X99388Y63156D02*
G03X99867Y63156I240J0D01*
G03X99388I-240J0D01*
G01X100172Y63947D02*
G03X100964Y63947I396J0D01*
G03X100172I-396J0D01*
G01X97964Y63909D02*
G03X98756Y63909I396J0D01*
G03X97964I-396J0D01*
G01X97085Y63910D02*
G03X97878Y63910I396J0D01*
G03X97085I-396J0D01*
G01X94763Y62933D02*
G03X95250Y62933I244J0D01*
G03X94763I-244J0D01*
G04 Circle End*

M02*
