G04 Layer: BottomSilkscreenLayer*
G04 EasyEDA Pro v1.8.39.fb3963, 2022-10-20 14:29:14*
G04 Gerber Generator version 0.3*
G04 Scale: 100 percent, Rotated: No, Reflected: No*
G04 Dimensions in millimeters*
G04 Leading zeros omitted, absolute positions, 4 integers and 2 decimals*
%FSLAX42Y42*%
%MOMM*%
%ADD10C,0.1*%
%ADD11C,0.1524*%
%ADD12C,0.299999*%
G75*


G04 Text Start*
G04 //text: R8*
G54D10*
G01X100376Y64321D02*
G01X100376Y64256D01*
G01X100376Y64321D02*
G01X100349Y64321D01*
G01X100340Y64318D01*
G01X100337Y64314D01*
G01X100334Y64308D01*
G01Y64302D01*
G01X100337Y64296D01*
G01X100340Y64293D01*
G01X100349Y64290D01*
G01X100376D01*
G01X100355Y64290D02*
G01X100334Y64256D01*
G01X100294Y64321D02*
G01X100303Y64318D01*
G01X100306Y64311D01*
G01Y64305D01*
G01X100303Y64299D01*
G01X100297Y64296D01*
G01X100285Y64293D01*
G01X100275Y64290D01*
G01X100269Y64284D01*
G01X100266Y64278D01*
G01Y64268D01*
G01X100269Y64262D01*
G01X100272Y64259D01*
G01X100281Y64256D01*
G01X100294D01*
G01X100303Y64259D01*
G01X100306Y64262D01*
G01X100309Y64268D01*
G01Y64278D01*
G01X100306Y64284D01*
G01X100300Y64290D01*
G01X100291Y64293D01*
G01X100278Y64296D01*
G01X100272Y64299D01*
G01X100269Y64305D01*
G01Y64311D01*
G01X100272Y64318D01*
G01X100281Y64321D01*
G01X100294D01*
G04 //text: U1*
G01X99163Y62651D02*
G01X99163Y62605D01*
G01X99160Y62596D01*
G01X99154Y62590D01*
G01X99145Y62587D01*
G01X99139D01*
G01X99130Y62590D01*
G01X99124Y62596D01*
G01X99121Y62605D01*
G01Y62651D01*
G01X99096Y62639D02*
G01X99090Y62642D01*
G01X99080Y62651D01*
G01Y62587D01*
G04 //text: U4*
G01X100817Y56944D02*
G01X100817Y56898D01*
G01X100814Y56889D01*
G01X100808Y56883D01*
G01X100799Y56880D01*
G01X100793D01*
G01X100783Y56883D01*
G01X100777Y56889D01*
G01X100774Y56898D01*
G01Y56944D01*
G01X100719Y56944D02*
G01X100750Y56901D01*
G01X100704D01*
G01X100719Y56944D02*
G01X100719Y56880D01*
G04 //text: R23*
G01X97118Y61543D02*
G01X97118Y61479D01*
G01X97118Y61543D02*
G01X97091Y61543D01*
G01X97082Y61540D01*
G01X97079Y61537D01*
G01X97076Y61531D01*
G01Y61525D01*
G01X97079Y61519D01*
G01X97082Y61515D01*
G01X97091Y61512D01*
G01X97118D01*
G01X97097Y61512D02*
G01X97076Y61479D01*
G01X97048Y61528D02*
G01X97048Y61531D01*
G01X97045Y61537D01*
G01X97042Y61540D01*
G01X97036Y61543D01*
G01X97023D01*
G01X97017Y61540D01*
G01X97014Y61537D01*
G01X97011Y61531D01*
G01Y61525D01*
G01X97014Y61519D01*
G01X97020Y61509D01*
G01X97051Y61479D01*
G01X97008D01*
G01X96977Y61543D02*
G01X96944Y61543D01*
G01X96962Y61519D01*
G01X96953D01*
G01X96947Y61515D01*
G01X96944Y61512D01*
G01X96941Y61503D01*
G01Y61497D01*
G01X96944Y61488D01*
G01X96950Y61482D01*
G01X96959Y61479D01*
G01X96968D01*
G01X96977Y61482D01*
G01X96980Y61485D01*
G01X96983Y61491D01*
G04 //text: R12*
G01X100964Y62019D02*
G01X100964Y61955D01*
G01X100964Y62019D02*
G01X100936Y62019D01*
G01X100927Y62016D01*
G01X100924Y62013D01*
G01X100921Y62007D01*
G01Y62001D01*
G01X100924Y61995D01*
G01X100927Y61992D01*
G01X100936Y61989D01*
G01X100964D01*
G01X100942Y61989D02*
G01X100921Y61955D01*
G01X100896Y62007D02*
G01X100890Y62010D01*
G01X100881Y62019D01*
G01Y61955D01*
G01X100853Y62004D02*
G01X100853Y62007D01*
G01X100850Y62013D01*
G01X100847Y62016D01*
G01X100841Y62019D01*
G01X100829D01*
G01X100823Y62016D01*
G01X100820Y62013D01*
G01X100817Y62007D01*
G01Y62001D01*
G01X100820Y61995D01*
G01X100826Y61986D01*
G01X100856Y61955D01*
G01X100814D01*
G04 //text: R16*
G01X97559Y60119D02*
G01X97559Y60055D01*
G01X97559Y60119D02*
G01X97532Y60119D01*
G01X97522Y60116D01*
G01X97519Y60113D01*
G01X97516Y60107D01*
G01Y60101D01*
G01X97519Y60095D01*
G01X97522Y60092D01*
G01X97532Y60088D01*
G01X97559D01*
G01X97538Y60088D02*
G01X97516Y60055D01*
G01X97492Y60107D02*
G01X97486Y60110D01*
G01X97476Y60119D01*
G01Y60055D01*
G01X97415Y60110D02*
G01X97418Y60116D01*
G01X97427Y60119D01*
G01X97433D01*
G01X97442Y60116D01*
G01X97448Y60107D01*
G01X97452Y60092D01*
G01Y60076D01*
G01X97448Y60064D01*
G01X97442Y60058D01*
G01X97433Y60055D01*
G01X97430D01*
G01X97421Y60058D01*
G01X97415Y60064D01*
G01X97412Y60073D01*
G01Y60076D01*
G01X97415Y60085D01*
G01X97421Y60092D01*
G01X97430Y60095D01*
G01X97433D01*
G01X97442Y60092D01*
G01X97448Y60085D01*
G01X97452Y60076D01*
G04 //text: C7*
G01X100760Y58385D02*
G01X100763Y58391D01*
G01X100770Y58397D01*
G01X100776Y58400D01*
G01X100788D01*
G01X100794Y58397D01*
G01X100800Y58391D01*
G01X100803Y58385D01*
G01X100806Y58375D01*
G01Y58360D01*
G01X100803Y58351D01*
G01X100800Y58345D01*
G01X100794Y58339D01*
G01X100788Y58336D01*
G01X100776D01*
G01X100770Y58339D01*
G01X100763Y58345D01*
G01X100760Y58351D01*
G01X100693Y58400D02*
G01X100723Y58336D01*
G01X100736Y58400D02*
G01X100693Y58400D01*
G04 //text: R25*
G01X101269Y58789D02*
G01X101269Y58724D01*
G01X101269Y58789D02*
G01X101241Y58789D01*
G01X101232Y58786D01*
G01X101229Y58783D01*
G01X101226Y58776D01*
G01Y58770D01*
G01X101229Y58764D01*
G01X101232Y58761D01*
G01X101241Y58758D01*
G01X101269D01*
G01X101247Y58758D02*
G01X101226Y58724D01*
G01X101198Y58773D02*
G01X101198Y58776D01*
G01X101195Y58783D01*
G01X101192Y58786D01*
G01X101186Y58789D01*
G01X101174D01*
G01X101168Y58786D01*
G01X101165Y58783D01*
G01X101162Y58776D01*
G01Y58770D01*
G01X101165Y58764D01*
G01X101171Y58755D01*
G01X101201Y58724D01*
G01X101159D01*
G01X101097Y58789D02*
G01X101128Y58789D01*
G01X101131Y58761D01*
G01X101128Y58764D01*
G01X101119Y58767D01*
G01X101110D01*
G01X101100Y58764D01*
G01X101094Y58758D01*
G01X101091Y58749D01*
G01Y58743D01*
G01X101094Y58734D01*
G01X101100Y58727D01*
G01X101110Y58724D01*
G01X101119D01*
G01X101128Y58727D01*
G01X101131Y58730D01*
G01X101134Y58737D01*
G04 //text: Q2*
G01X99391Y60969D02*
G01X99397Y60966D01*
G01X99403Y60960D01*
G01X99406Y60954D01*
G01X99409Y60944D01*
G01Y60929D01*
G01X99406Y60920D01*
G01X99403Y60914D01*
G01X99397Y60908D01*
G01X99391Y60905D01*
G01X99378D01*
G01X99372Y60908D01*
G01X99366Y60914D01*
G01X99363Y60920D01*
G01X99360Y60929D01*
G01Y60944D01*
G01X99363Y60954D01*
G01X99366Y60960D01*
G01X99372Y60966D01*
G01X99378Y60969D01*
G01X99391D01*
G01X99382Y60917D02*
G01X99363Y60898D01*
G01X99332Y60954D02*
G01X99332Y60957D01*
G01X99329Y60963D01*
G01X99326Y60966D01*
G01X99320Y60969D01*
G01X99308D01*
G01X99302Y60966D01*
G01X99299Y60963D01*
G01X99296Y60957D01*
G01Y60951D01*
G01X99299Y60944D01*
G01X99305Y60935D01*
G01X99336Y60905D01*
G01X99293D01*
G04 //text: Q1*
G01X99373Y61371D02*
G01X99379Y61368D01*
G01X99385Y61362D01*
G01X99388Y61356D01*
G01X99391Y61346D01*
G01Y61331D01*
G01X99388Y61322D01*
G01X99385Y61316D01*
G01X99379Y61310D01*
G01X99373Y61307D01*
G01X99361D01*
G01X99355Y61310D01*
G01X99349Y61316D01*
G01X99346Y61322D01*
G01X99342Y61331D01*
G01Y61346D01*
G01X99346Y61356D01*
G01X99349Y61362D01*
G01X99355Y61368D01*
G01X99361Y61371D01*
G01X99373D01*
G01X99364Y61319D02*
G01X99346Y61301D01*
G01X99318Y61359D02*
G01X99311Y61362D01*
G01X99302Y61371D01*
G01Y61307D01*
G04 //text: Q4*
G01X99386Y61764D02*
G01X99392Y61761D01*
G01X99399Y61755D01*
G01X99402Y61748D01*
G01X99405Y61739D01*
G01Y61724D01*
G01X99402Y61715D01*
G01X99399Y61709D01*
G01X99392Y61702D01*
G01X99386Y61699D01*
G01X99374D01*
G01X99368Y61702D01*
G01X99362Y61709D01*
G01X99359Y61715D01*
G01X99356Y61724D01*
G01Y61739D01*
G01X99359Y61748D01*
G01X99362Y61755D01*
G01X99368Y61761D01*
G01X99374Y61764D01*
G01X99386D01*
G01X99377Y61712D02*
G01X99359Y61693D01*
G01X99301Y61764D02*
G01X99331Y61721D01*
G01X99285D01*
G01X99301Y61764D02*
G01X99301Y61699D01*
G04 //text: R14*
G01X100204Y60803D02*
G01X100204Y60739D01*
G01X100204Y60803D02*
G01X100177Y60803D01*
G01X100167Y60800D01*
G01X100164Y60797D01*
G01X100161Y60791D01*
G01Y60785D01*
G01X100164Y60779D01*
G01X100167Y60776D01*
G01X100177Y60773D01*
G01X100204D01*
G01X100183Y60773D02*
G01X100161Y60739D01*
G01X100137Y60791D02*
G01X100131Y60794D01*
G01X100121Y60803D01*
G01Y60739D01*
G01X100066Y60803D02*
G01X100097Y60760D01*
G01X100051D01*
G01X100066Y60803D02*
G01X100066Y60739D01*
G04 //text: R6*
G01X100202Y62590D02*
G01X100202Y62526D01*
G01X100202Y62590D02*
G01X100175Y62590D01*
G01X100166Y62587D01*
G01X100163Y62584D01*
G01X100160Y62578D01*
G01Y62572D01*
G01X100163Y62565D01*
G01X100166Y62562D01*
G01X100175Y62559D01*
G01X100202D01*
G01X100181Y62559D02*
G01X100160Y62526D01*
G01X100098Y62581D02*
G01X100101Y62587D01*
G01X100110Y62590D01*
G01X100117D01*
G01X100126Y62587D01*
G01X100132Y62578D01*
G01X100135Y62562D01*
G01Y62547D01*
G01X100132Y62535D01*
G01X100126Y62529D01*
G01X100117Y62526D01*
G01X100113D01*
G01X100104Y62529D01*
G01X100098Y62535D01*
G01X100095Y62544D01*
G01Y62547D01*
G01X100098Y62556D01*
G01X100104Y62562D01*
G01X100113Y62565D01*
G01X100117D01*
G01X100126Y62562D01*
G01X100132Y62556D01*
G01X100135Y62547D01*
G04 //text: R3*
G01X99904Y62590D02*
G01X99904Y62526D01*
G01X99904Y62590D02*
G01X99876Y62590D01*
G01X99867Y62587D01*
G01X99864Y62584D01*
G01X99861Y62578D01*
G01Y62572D01*
G01X99864Y62565D01*
G01X99867Y62562D01*
G01X99876Y62559D01*
G01X99904D01*
G01X99882Y62559D02*
G01X99861Y62526D01*
G01X99830Y62590D02*
G01X99796Y62590D01*
G01X99815Y62565D01*
G01X99806D01*
G01X99799Y62562D01*
G01X99796Y62559D01*
G01X99793Y62550D01*
G01Y62544D01*
G01X99796Y62535D01*
G01X99802Y62529D01*
G01X99812Y62526D01*
G01X99821D01*
G01X99830Y62529D01*
G01X99833Y62532D01*
G01X99836Y62538D01*
G04 //text: R11*
G01X100345Y61671D02*
G01X100345Y61607D01*
G01X100345Y61671D02*
G01X100318Y61671D01*
G01X100309Y61668D01*
G01X100306Y61665D01*
G01X100302Y61659D01*
G01Y61653D01*
G01X100306Y61647D01*
G01X100309Y61644D01*
G01X100318Y61641D01*
G01X100345D01*
G01X100324Y61641D02*
G01X100302Y61607D01*
G01X100278Y61659D02*
G01X100272Y61662D01*
G01X100262Y61671D01*
G01Y61607D01*
G01X100238Y61659D02*
G01X100232Y61662D01*
G01X100222Y61671D01*
G01Y61607D01*
G04 //text: R15*
G01X100769Y61004D02*
G01X100769Y60940D01*
G01X100769Y61004D02*
G01X100742Y61004D01*
G01X100732Y61001D01*
G01X100729Y60998D01*
G01X100726Y60992D01*
G01Y60986D01*
G01X100729Y60980D01*
G01X100732Y60977D01*
G01X100742Y60973D01*
G01X100769D01*
G01X100748Y60973D02*
G01X100726Y60940D01*
G01X100702Y60992D02*
G01X100696Y60995D01*
G01X100686Y61004D01*
G01Y60940D01*
G01X100625Y61004D02*
G01X100655Y61004D01*
G01X100658Y60977D01*
G01X100655Y60980D01*
G01X100646Y60983D01*
G01X100637D01*
G01X100628Y60980D01*
G01X100622Y60973D01*
G01X100619Y60964D01*
G01Y60958D01*
G01X100622Y60949D01*
G01X100628Y60943D01*
G01X100637Y60940D01*
G01X100646D01*
G01X100655Y60943D01*
G01X100658Y60946D01*
G01X100662Y60952D01*
G04 //text: R4*
G01X97988Y63307D02*
G01X97988Y63243D01*
G01X97988Y63307D02*
G01X97961Y63307D01*
G01X97951Y63304D01*
G01X97948Y63301D01*
G01X97945Y63295D01*
G01Y63289D01*
G01X97948Y63283D01*
G01X97951Y63279D01*
G01X97961Y63276D01*
G01X97988D01*
G01X97967Y63276D02*
G01X97945Y63243D01*
G01X97890Y63307D02*
G01X97921Y63264D01*
G01X97875D01*
G01X97890Y63307D02*
G01X97890Y63243D01*
G04 //text: C4*
G01X101616Y62876D02*
G01X101619Y62883D01*
G01X101625Y62889D01*
G01X101632Y62892D01*
G01X101644D01*
G01X101650Y62889D01*
G01X101656Y62883D01*
G01X101659Y62876D01*
G01X101662Y62867D01*
G01Y62852D01*
G01X101659Y62843D01*
G01X101656Y62837D01*
G01X101650Y62831D01*
G01X101644Y62827D01*
G01X101632D01*
G01X101625Y62831D01*
G01X101619Y62837D01*
G01X101616Y62843D01*
G01X101561Y62892D02*
G01X101592Y62849D01*
G01X101546D01*
G01X101561Y62892D02*
G01X101561Y62827D01*
G04 //text: C3*
G01X100842Y64232D02*
G01X100845Y64238D01*
G01X100852Y64244D01*
G01X100858Y64247D01*
G01X100870D01*
G01X100876Y64244D01*
G01X100882Y64238D01*
G01X100885Y64232D01*
G01X100888Y64223D01*
G01Y64207D01*
G01X100885Y64198D01*
G01X100882Y64192D01*
G01X100876Y64186D01*
G01X100870Y64183D01*
G01X100858D01*
G01X100852Y64186D01*
G01X100845Y64192D01*
G01X100842Y64198D01*
G01X100811Y64247D02*
G01X100778Y64247D01*
G01X100796Y64223D01*
G01X100787D01*
G01X100781Y64219D01*
G01X100778Y64216D01*
G01X100775Y64207D01*
G01Y64201D01*
G01X100778Y64192D01*
G01X100784Y64186D01*
G01X100793Y64183D01*
G01X100802D01*
G01X100811Y64186D01*
G01X100815Y64189D01*
G01X100818Y64195D01*
G04 //text: R9*
G01X101695Y63394D02*
G01X101695Y63330D01*
G01X101695Y63394D02*
G01X101667Y63394D01*
G01X101658Y63391D01*
G01X101655Y63388D01*
G01X101652Y63382D01*
G01Y63376D01*
G01X101655Y63370D01*
G01X101658Y63367D01*
G01X101667Y63363D01*
G01X101695D01*
G01X101673Y63363D02*
G01X101652Y63330D01*
G01X101587Y63373D02*
G01X101590Y63363D01*
G01X101596Y63357D01*
G01X101606Y63354D01*
G01X101609D01*
G01X101618Y63357D01*
G01X101624Y63363D01*
G01X101627Y63373D01*
G01Y63376D01*
G01X101624Y63385D01*
G01X101618Y63391D01*
G01X101609Y63394D01*
G01X101606D01*
G01X101596Y63391D01*
G01X101590Y63385D01*
G01X101587Y63373D01*
G01Y63357D01*
G01X101590Y63342D01*
G01X101596Y63333D01*
G01X101606Y63330D01*
G01X101612D01*
G01X101621Y63333D01*
G01X101624Y63339D01*
G04 //text: R13*
G01X99964Y62059D02*
G01X99964Y61995D01*
G01X99964Y62059D02*
G01X99936Y62059D01*
G01X99927Y62056D01*
G01X99924Y62053D01*
G01X99921Y62047D01*
G01Y62041D01*
G01X99924Y62035D01*
G01X99927Y62031D01*
G01X99936Y62028D01*
G01X99964D01*
G01X99943Y62028D02*
G01X99921Y61995D01*
G01X99897Y62047D02*
G01X99890Y62050D01*
G01X99881Y62059D01*
G01Y61995D01*
G01X99850Y62059D02*
G01X99817Y62059D01*
G01X99835Y62035D01*
G01X99826D01*
G01X99820Y62031D01*
G01X99817Y62028D01*
G01X99814Y62019D01*
G01Y62013D01*
G01X99817Y62004D01*
G01X99823Y61998D01*
G01X99832Y61995D01*
G01X99841D01*
G01X99850Y61998D01*
G01X99853Y62001D01*
G01X99856Y62007D01*
G04 //text: R10*
G01X100189Y61252D02*
G01X100189Y61187D01*
G01X100189Y61252D02*
G01X100162Y61252D01*
G01X100152Y61249D01*
G01X100149Y61246D01*
G01X100146Y61240D01*
G01Y61233D01*
G01X100149Y61227D01*
G01X100152Y61224D01*
G01X100162Y61221D01*
G01X100189D01*
G01X100168Y61221D02*
G01X100146Y61187D01*
G01X100122Y61240D02*
G01X100116Y61243D01*
G01X100106Y61252D01*
G01Y61187D01*
G01X100063Y61252D02*
G01X100072Y61249D01*
G01X100078Y61240D01*
G01X100082Y61224D01*
G01Y61215D01*
G01X100078Y61200D01*
G01X100072Y61191D01*
G01X100063Y61187D01*
G01X100057D01*
G01X100048Y61191D01*
G01X100042Y61200D01*
G01X100039Y61215D01*
G01Y61224D01*
G01X100042Y61240D01*
G01X100048Y61249D01*
G01X100057Y61252D01*
G01X100063D01*
G04 //text: C5*
G01X98208Y60251D02*
G01X98211Y60257D01*
G01X98217Y60263D01*
G01X98223Y60266D01*
G01X98235D01*
G01X98241Y60263D01*
G01X98247Y60257D01*
G01X98251Y60251D01*
G01X98254Y60241D01*
G01Y60226D01*
G01X98251Y60217D01*
G01X98247Y60211D01*
G01X98241Y60205D01*
G01X98235Y60202D01*
G01X98223D01*
G01X98217Y60205D01*
G01X98211Y60211D01*
G01X98208Y60217D01*
G01X98146Y60266D02*
G01X98177Y60266D01*
G01X98180Y60238D01*
G01X98177Y60241D01*
G01X98168Y60245D01*
G01X98159D01*
G01X98149Y60241D01*
G01X98143Y60235D01*
G01X98140Y60226D01*
G01Y60220D01*
G01X98143Y60211D01*
G01X98149Y60205D01*
G01X98159Y60202D01*
G01X98168D01*
G01X98177Y60205D01*
G01X98180Y60208D01*
G01X98183Y60214D01*
G04 //text: C8*
G01X101418Y57957D02*
G01X101421Y57963D01*
G01X101427Y57969D01*
G01X101433Y57972D01*
G01X101445D01*
G01X101451Y57969D01*
G01X101458Y57963D01*
G01X101461Y57957D01*
G01X101464Y57947D01*
G01Y57932D01*
G01X101461Y57923D01*
G01X101458Y57917D01*
G01X101451Y57911D01*
G01X101445Y57908D01*
G01X101433D01*
G01X101427Y57911D01*
G01X101421Y57917D01*
G01X101418Y57923D01*
G01X101378Y57972D02*
G01X101387Y57969D01*
G01X101390Y57963D01*
G01Y57957D01*
G01X101387Y57951D01*
G01X101381Y57947D01*
G01X101369Y57944D01*
G01X101360Y57941D01*
G01X101353Y57935D01*
G01X101350Y57929D01*
G01Y57920D01*
G01X101353Y57914D01*
G01X101357Y57911D01*
G01X101366Y57908D01*
G01X101378D01*
G01X101387Y57911D01*
G01X101390Y57914D01*
G01X101393Y57920D01*
G01Y57929D01*
G01X101390Y57935D01*
G01X101384Y57941D01*
G01X101375Y57944D01*
G01X101363Y57947D01*
G01X101357Y57951D01*
G01X101353Y57957D01*
G01Y57963D01*
G01X101357Y57969D01*
G01X101366Y57972D01*
G01X101378D01*
G04 //text: R18*
G01X101736Y57972D02*
G01X101736Y57908D01*
G01X101736Y57972D02*
G01X101708Y57972D01*
G01X101699Y57969D01*
G01X101696Y57966D01*
G01X101693Y57960D01*
G01Y57954D01*
G01X101696Y57947D01*
G01X101699Y57944D01*
G01X101708Y57941D01*
G01X101736D01*
G01X101715Y57941D02*
G01X101693Y57908D01*
G01X101669Y57960D02*
G01X101662Y57963D01*
G01X101653Y57972D01*
G01Y57908D01*
G01X101613Y57972D02*
G01X101622Y57969D01*
G01X101625Y57963D01*
G01Y57957D01*
G01X101622Y57951D01*
G01X101616Y57947D01*
G01X101604Y57944D01*
G01X101595Y57941D01*
G01X101589Y57935D01*
G01X101586Y57929D01*
G01Y57920D01*
G01X101589Y57914D01*
G01X101592Y57911D01*
G01X101601Y57908D01*
G01X101613D01*
G01X101622Y57911D01*
G01X101625Y57914D01*
G01X101628Y57920D01*
G01Y57929D01*
G01X101625Y57935D01*
G01X101619Y57941D01*
G01X101610Y57944D01*
G01X101598Y57947D01*
G01X101592Y57951D01*
G01X101589Y57957D01*
G01Y57963D01*
G01X101592Y57969D01*
G01X101601Y57972D01*
G01X101613D01*
G04 //text: C2*
G01X101527Y60317D02*
G01X101530Y60323D01*
G01X101536Y60330D01*
G01X101542Y60333D01*
G01X101554D01*
G01X101561Y60330D01*
G01X101567Y60323D01*
G01X101570Y60317D01*
G01X101573Y60308D01*
G01Y60293D01*
G01X101570Y60284D01*
G01X101567Y60277D01*
G01X101561Y60271D01*
G01X101554Y60268D01*
G01X101542D01*
G01X101536Y60271D01*
G01X101530Y60277D01*
G01X101527Y60284D01*
G01X101499Y60317D02*
G01X101499Y60320D01*
G01X101496Y60327D01*
G01X101493Y60330D01*
G01X101487Y60333D01*
G01X101475D01*
G01X101469Y60330D01*
G01X101466Y60327D01*
G01X101463Y60320D01*
G01Y60314D01*
G01X101466Y60308D01*
G01X101472Y60299D01*
G01X101502Y60268D01*
G01X101459D01*
G04 //text: R29*
G01X100903Y59565D02*
G01X100968Y59565D01*
G01X100903Y59565D02*
G01X100903Y59538D01*
G01X100907Y59529D01*
G01X100910Y59526D01*
G01X100916Y59523D01*
G01X100922D01*
G01X100928Y59526D01*
G01X100931Y59529D01*
G01X100934Y59538D01*
G01Y59565D01*
G01X100934Y59544D02*
G01X100968Y59523D01*
G01X100919Y59495D02*
G01X100916Y59495D01*
G01X100910Y59492D01*
G01X100907Y59489D01*
G01X100903Y59483D01*
G01Y59470D01*
G01X100907Y59464D01*
G01X100910Y59461D01*
G01X100916Y59458D01*
G01X100922D01*
G01X100928Y59461D01*
G01X100937Y59467D01*
G01X100968Y59498D01*
G01Y59455D01*
G01X100925Y59391D02*
G01X100934Y59394D01*
G01X100940Y59400D01*
G01X100943Y59409D01*
G01Y59412D01*
G01X100940Y59421D01*
G01X100934Y59427D01*
G01X100925Y59431D01*
G01X100922D01*
G01X100913Y59427D01*
G01X100907Y59421D01*
G01X100903Y59412D01*
G01Y59409D01*
G01X100907Y59400D01*
G01X100913Y59394D01*
G01X100925Y59391D01*
G01X100940D01*
G01X100956Y59394D01*
G01X100965Y59400D01*
G01X100968Y59409D01*
G01Y59415D01*
G01X100965Y59424D01*
G01X100959Y59427D01*
G04 //text: R30*
G01X101416Y59527D02*
G01X101416Y59462D01*
G01X101416Y59527D02*
G01X101389Y59527D01*
G01X101380Y59524D01*
G01X101377Y59521D01*
G01X101374Y59515D01*
G01Y59508D01*
G01X101377Y59502D01*
G01X101380Y59499D01*
G01X101389Y59496D01*
G01X101416D01*
G01X101395Y59496D02*
G01X101374Y59462D01*
G01X101343Y59527D02*
G01X101309Y59527D01*
G01X101328Y59502D01*
G01X101318D01*
G01X101312Y59499D01*
G01X101309Y59496D01*
G01X101306Y59487D01*
G01Y59481D01*
G01X101309Y59472D01*
G01X101315Y59466D01*
G01X101324Y59462D01*
G01X101334D01*
G01X101343Y59466D01*
G01X101346Y59469D01*
G01X101349Y59475D01*
G01X101263Y59527D02*
G01X101272Y59524D01*
G01X101279Y59515D01*
G01X101282Y59499D01*
G01Y59490D01*
G01X101279Y59475D01*
G01X101272Y59466D01*
G01X101263Y59462D01*
G01X101257D01*
G01X101248Y59466D01*
G01X101242Y59475D01*
G01X101239Y59490D01*
G01Y59499D01*
G01X101242Y59515D01*
G01X101248Y59524D01*
G01X101257Y59527D01*
G01X101263D01*
G04 //text: D6*
G01X96525Y60489D02*
G01X96525Y60425D01*
G01X96525Y60489D02*
G01X96503Y60489D01*
G01X96494Y60486D01*
G01X96488Y60480D01*
G01X96485Y60474D01*
G01X96482Y60465D01*
G01Y60449D01*
G01X96485Y60440D01*
G01X96488Y60434D01*
G01X96494Y60428D01*
G01X96503Y60425D01*
G01X96525D01*
G01X96420Y60480D02*
G01X96423Y60486D01*
G01X96433Y60489D01*
G01X96439D01*
G01X96448Y60486D01*
G01X96454Y60477D01*
G01X96457Y60462D01*
G01Y60446D01*
G01X96454Y60434D01*
G01X96448Y60428D01*
G01X96439Y60425D01*
G01X96436D01*
G01X96426Y60428D01*
G01X96420Y60434D01*
G01X96417Y60443D01*
G01Y60446D01*
G01X96420Y60455D01*
G01X96426Y60462D01*
G01X96436Y60465D01*
G01X96439D01*
G01X96448Y60462D01*
G01X96454Y60455D01*
G01X96457Y60446D01*
G04 //text: D5*
G01X96500Y59199D02*
G01X96500Y59135D01*
G01X96500Y59199D02*
G01X96478Y59199D01*
G01X96469Y59196D01*
G01X96463Y59190D01*
G01X96460Y59184D01*
G01X96457Y59175D01*
G01Y59159D01*
G01X96460Y59150D01*
G01X96463Y59144D01*
G01X96469Y59138D01*
G01X96478Y59135D01*
G01X96500D01*
G01X96395Y59199D02*
G01X96426Y59199D01*
G01X96429Y59172D01*
G01X96426Y59175D01*
G01X96417Y59178D01*
G01X96408D01*
G01X96398Y59175D01*
G01X96392Y59168D01*
G01X96389Y59159D01*
G01Y59153D01*
G01X96392Y59144D01*
G01X96398Y59138D01*
G01X96408Y59135D01*
G01X96417D01*
G01X96426Y59138D01*
G01X96429Y59141D01*
G01X96432Y59147D01*
G04 //text: D1*
G01X99848Y63832D02*
G01X99848Y63768D01*
G01X99848Y63832D02*
G01X99827Y63832D01*
G01X99817Y63829D01*
G01X99811Y63823D01*
G01X99808Y63817D01*
G01X99805Y63807D01*
G01Y63792D01*
G01X99808Y63783D01*
G01X99811Y63777D01*
G01X99817Y63771D01*
G01X99827Y63768D01*
G01X99848D01*
G01X99781Y63820D02*
G01X99774Y63823D01*
G01X99765Y63832D01*
G01Y63768D01*
G04 //text: D3*
G01X96957Y63320D02*
G01X96957Y63256D01*
G01X96957Y63320D02*
G01X96936Y63320D01*
G01X96927Y63317D01*
G01X96921Y63311D01*
G01X96918Y63305D01*
G01X96914Y63295D01*
G01Y63280D01*
G01X96918Y63271D01*
G01X96921Y63265D01*
G01X96927Y63259D01*
G01X96936Y63256D01*
G01X96957D01*
G01X96884Y63320D02*
G01X96850Y63320D01*
G01X96868Y63295D01*
G01X96859D01*
G01X96853Y63292D01*
G01X96850Y63289D01*
G01X96847Y63280D01*
G01Y63274D01*
G01X96850Y63265D01*
G01X96856Y63259D01*
G01X96865Y63256D01*
G01X96874D01*
G01X96884Y63259D01*
G01X96887Y63262D01*
G01X96890Y63268D01*
G04 //text: D2*
G01X96330Y63317D02*
G01X96330Y63253D01*
G01X96330Y63317D02*
G01X96309Y63317D01*
G01X96299Y63314D01*
G01X96293Y63308D01*
G01X96290Y63302D01*
G01X96287Y63293D01*
G01Y63277D01*
G01X96290Y63268D01*
G01X96293Y63262D01*
G01X96299Y63256D01*
G01X96309Y63253D01*
G01X96330D01*
G01X96260Y63302D02*
G01X96260Y63305D01*
G01X96256Y63311D01*
G01X96253Y63314D01*
G01X96247Y63317D01*
G01X96235D01*
G01X96229Y63314D01*
G01X96226Y63311D01*
G01X96223Y63305D01*
G01Y63299D01*
G01X96226Y63293D01*
G01X96232Y63284D01*
G01X96263Y63253D01*
G01X96220D01*
G04 //text: R7*
G01X95572Y63814D02*
G01X95572Y63750D01*
G01X95572Y63814D02*
G01X95545Y63814D01*
G01X95535Y63811D01*
G01X95532Y63808D01*
G01X95529Y63802D01*
G01Y63796D01*
G01X95532Y63790D01*
G01X95535Y63787D01*
G01X95545Y63783D01*
G01X95572D01*
G01X95551Y63783D02*
G01X95529Y63750D01*
G01X95462Y63814D02*
G01X95492Y63750D01*
G01X95505Y63814D02*
G01X95462Y63814D01*
G04 //text: R5*
G01X95590Y63529D02*
G01X95590Y63465D01*
G01X95590Y63529D02*
G01X95562Y63529D01*
G01X95553Y63526D01*
G01X95550Y63523D01*
G01X95547Y63517D01*
G01Y63511D01*
G01X95550Y63505D01*
G01X95553Y63502D01*
G01X95562Y63498D01*
G01X95590D01*
G01X95568Y63498D02*
G01X95547Y63465D01*
G01X95485Y63529D02*
G01X95516Y63529D01*
G01X95519Y63502D01*
G01X95516Y63505D01*
G01X95507Y63508D01*
G01X95498D01*
G01X95488Y63505D01*
G01X95482Y63498D01*
G01X95479Y63489D01*
G01Y63483D01*
G01X95482Y63474D01*
G01X95488Y63468D01*
G01X95498Y63465D01*
G01X95507D01*
G01X95516Y63468D01*
G01X95519Y63471D01*
G01X95522Y63477D01*
G04 //text: R20*
G01X100249Y59504D02*
G01X100249Y59440D01*
G01X100249Y59504D02*
G01X100222Y59504D01*
G01X100213Y59501D01*
G01X100210Y59498D01*
G01X100207Y59492D01*
G01Y59486D01*
G01X100210Y59479D01*
G01X100213Y59476D01*
G01X100222Y59473D01*
G01X100249D01*
G01X100228Y59473D02*
G01X100207Y59440D01*
G01X100179Y59489D02*
G01X100179Y59492D01*
G01X100176Y59498D01*
G01X100173Y59501D01*
G01X100166Y59504D01*
G01X100154D01*
G01X100148Y59501D01*
G01X100145Y59498D01*
G01X100142Y59492D01*
G01Y59486D01*
G01X100145Y59479D01*
G01X100151Y59470D01*
G01X100182Y59440D01*
G01X100139D01*
G01X100096Y59504D02*
G01X100105Y59501D01*
G01X100111Y59492D01*
G01X100114Y59476D01*
G01Y59467D01*
G01X100111Y59452D01*
G01X100105Y59443D01*
G01X100096Y59440D01*
G01X100090D01*
G01X100081Y59443D01*
G01X100075Y59452D01*
G01X100071Y59467D01*
G01Y59476D01*
G01X100075Y59492D01*
G01X100081Y59501D01*
G01X100090Y59504D01*
G01X100096D01*
G04 //text: R1*
G01X99365Y60127D02*
G01X99365Y60062D01*
G01X99365Y60127D02*
G01X99337Y60127D01*
G01X99328Y60124D01*
G01X99325Y60121D01*
G01X99322Y60115D01*
G01Y60108D01*
G01X99325Y60102D01*
G01X99328Y60099D01*
G01X99337Y60096D01*
G01X99365D01*
G01X99343Y60096D02*
G01X99322Y60062D01*
G01X99297Y60115D02*
G01X99291Y60118D01*
G01X99282Y60127D01*
G01Y60062D01*
G04 //text: R21*
G01X96669Y59671D02*
G01X96669Y59606D01*
G01X96669Y59671D02*
G01X96642Y59671D01*
G01X96633Y59668D01*
G01X96630Y59664D01*
G01X96627Y59658D01*
G01Y59652D01*
G01X96630Y59646D01*
G01X96633Y59643D01*
G01X96642Y59640D01*
G01X96669D01*
G01X96648Y59640D02*
G01X96627Y59606D01*
G01X96599Y59655D02*
G01X96599Y59658D01*
G01X96596Y59664D01*
G01X96593Y59668D01*
G01X96586Y59671D01*
G01X96574D01*
G01X96568Y59668D01*
G01X96565Y59664D01*
G01X96562Y59658D01*
G01Y59652D01*
G01X96565Y59646D01*
G01X96571Y59637D01*
G01X96602Y59606D01*
G01X96559D01*
G01X96534Y59658D02*
G01X96528Y59661D01*
G01X96519Y59671D01*
G01Y59606D01*
G04 //text: R19*
G01X96666Y61415D02*
G01X96666Y61350D01*
G01X96666Y61415D02*
G01X96639Y61415D01*
G01X96630Y61412D01*
G01X96627Y61409D01*
G01X96624Y61403D01*
G01Y61396D01*
G01X96627Y61390D01*
G01X96630Y61387D01*
G01X96639Y61384D01*
G01X96666D01*
G01X96645Y61384D02*
G01X96624Y61350D01*
G01X96599Y61403D02*
G01X96593Y61406D01*
G01X96583Y61415D01*
G01Y61350D01*
G01X96519Y61393D02*
G01X96522Y61384D01*
G01X96528Y61378D01*
G01X96537Y61375D01*
G01X96540D01*
G01X96550Y61378D01*
G01X96556Y61384D01*
G01X96559Y61393D01*
G01Y61396D01*
G01X96556Y61406D01*
G01X96550Y61412D01*
G01X96540Y61415D01*
G01X96537D01*
G01X96528Y61412D01*
G01X96522Y61406D01*
G01X96519Y61393D01*
G01Y61378D01*
G01X96522Y61363D01*
G01X96528Y61354D01*
G01X96537Y61350D01*
G01X96544D01*
G01X96553Y61354D01*
G01X96556Y61360D01*
G04 //text: R22*
G01X96094Y61709D02*
G01X96094Y61645D01*
G01X96094Y61709D02*
G01X96067Y61709D01*
G01X96057Y61706D01*
G01X96054Y61703D01*
G01X96051Y61697D01*
G01Y61691D01*
G01X96054Y61685D01*
G01X96057Y61682D01*
G01X96067Y61678D01*
G01X96094D01*
G01X96073Y61678D02*
G01X96051Y61645D01*
G01X96024Y61694D02*
G01X96024Y61697D01*
G01X96021Y61703D01*
G01X96017Y61706D01*
G01X96011Y61709D01*
G01X95999D01*
G01X95993Y61706D01*
G01X95990Y61703D01*
G01X95987Y61697D01*
G01Y61691D01*
G01X95990Y61685D01*
G01X95996Y61675D01*
G01X96027Y61645D01*
G01X95984D01*
G01X95956Y61694D02*
G01X95956Y61697D01*
G01X95953Y61703D01*
G01X95950Y61706D01*
G01X95944Y61709D01*
G01X95932D01*
G01X95925Y61706D01*
G01X95922Y61703D01*
G01X95919Y61697D01*
G01Y61691D01*
G01X95922Y61685D01*
G01X95928Y61675D01*
G01X95959Y61645D01*
G01X95916D01*
G04 //text: R2*
G01X98770Y63462D02*
G01X98770Y63397D01*
G01X98770Y63462D02*
G01X98742Y63462D01*
G01X98733Y63459D01*
G01X98730Y63456D01*
G01X98727Y63450D01*
G01Y63443D01*
G01X98730Y63437D01*
G01X98733Y63434D01*
G01X98742Y63431D01*
G01X98770D01*
G01X98748Y63431D02*
G01X98727Y63397D01*
G01X98699Y63446D02*
G01X98699Y63450D01*
G01X98696Y63456D01*
G01X98693Y63459D01*
G01X98687Y63462D01*
G01X98675D01*
G01X98668Y63459D01*
G01X98665Y63456D01*
G01X98662Y63450D01*
G01Y63443D01*
G01X98665Y63437D01*
G01X98671Y63428D01*
G01X98702Y63397D01*
G01X98659D01*
G04 //text: R40*
G01X98865Y63973D02*
G01X98865Y63909D01*
G01X98865Y63973D02*
G01X98837Y63973D01*
G01X98828Y63970D01*
G01X98825Y63967D01*
G01X98822Y63961D01*
G01Y63955D01*
G01X98825Y63949D01*
G01X98828Y63946D01*
G01X98837Y63943D01*
G01X98865D01*
G01X98844Y63943D02*
G01X98822Y63909D01*
G01X98767Y63973D02*
G01X98798Y63930D01*
G01X98752D01*
G01X98767Y63973D02*
G01X98767Y63909D01*
G01X98709Y63973D02*
G01X98718Y63970D01*
G01X98724Y63961D01*
G01X98727Y63946D01*
G01Y63937D01*
G01X98724Y63921D01*
G01X98718Y63912D01*
G01X98709Y63909D01*
G01X98703D01*
G01X98693Y63912D01*
G01X98687Y63921D01*
G01X98684Y63937D01*
G01Y63946D01*
G01X98687Y63961D01*
G01X98693Y63970D01*
G01X98703Y63973D01*
G01X98709D01*
G04 //text: U4*
G54D11*
G01X100183Y59784D02*
G01X100183Y59738D01*
G01X100180Y59729D01*
G01X100173Y59722D01*
G01X100164Y59719D01*
G01X100158D01*
G01X100149Y59722D01*
G01X100143Y59729D01*
G01X100139Y59738D01*
G01Y59784D01*
G01X100078Y59784D02*
G01X100109Y59741D01*
G01X100063D01*
G01X100078Y59784D02*
G01X100078Y59719D01*
G04 Text End*

G04 PolygonModel Start*
G54D10*
G01X100166Y63644D02*
G01X100470Y63644D01*
G01X100166Y63644D02*
G01X100166Y64223D01*
G01X100166Y64223D02*
G01X100470Y64223D01*
G01X100470Y63644D02*
G01X100470Y64223D01*
G01X99018Y63199D02*
G01X99228Y63199D01*
G01X99018Y63199D02*
G01X99018Y62705D01*
G01X99018Y62705D02*
G01X99228Y62705D01*
G01X99228Y63199D02*
G01X99228Y62705D01*
G01X100835Y57001D02*
G03X100723Y57004I-56J-5D01*
G01X100646Y58028D02*
G01X100907Y58028D01*
G01X100907Y58028D02*
G01X100907Y57001D01*
G01X100646Y57001D02*
G01X100907Y57001D01*
G01X100646Y58028D02*
G01X100646Y57001D01*
G01X96874Y60867D02*
G01X97178Y60867D01*
G01X96874Y60867D02*
G01X96874Y61446D01*
G01X96874Y61446D02*
G01X97178Y61446D01*
G01X97178Y60867D02*
G01X97178Y61446D01*
G01X100733Y61343D02*
G01X101037Y61343D01*
G01X100733Y61343D02*
G01X100733Y61922D01*
G01X100733Y61922D02*
G01X101037Y61922D01*
G01X101037Y61343D02*
G01X101037Y61922D01*
G01X97604Y59695D02*
G01X97604Y59999D01*
G01X97604Y59695D02*
G01X97025Y59695D01*
G01X97025Y59695D02*
G01X97025Y59999D01*
G01X97604Y59999D02*
G01X97025Y59999D01*
G01X100541Y58074D02*
G01X100951Y58074D01*
G01X100541Y58303D02*
G01X100541Y58074D01*
G01X100541Y58303D02*
G01X100951Y58303D01*
G01X100951Y58303D02*
G01X100951Y58074D01*
G01X100972Y58463D02*
G01X101382Y58463D01*
G01X100972Y58692D02*
G01X100972Y58463D01*
G01X100972Y58692D02*
G01X101382Y58692D01*
G01X101382Y58692D02*
G01X101382Y58463D01*
G01X99617Y60785D02*
G01X99490Y60785D01*
G01X99490Y61085D02*
G01X99490Y60785D01*
G01X99607Y61085D02*
G01X99490Y61085D01*
G01X99599Y61187D02*
G01X99473Y61187D01*
G01X99473Y61487D02*
G01X99473Y61187D01*
G01X99589Y61487D02*
G01X99473Y61487D01*
G01X99612Y61580D02*
G01X99486Y61580D01*
G01X99486Y61880D02*
G01X99486Y61580D01*
G01X99603Y61880D02*
G01X99486Y61880D01*
G01X100003Y60725D02*
G01X100003Y61135D01*
G01X99775Y60725D02*
G01X100003Y60725D01*
G01X99775Y60725D02*
G01X99775Y61135D01*
G01X99775Y61135D02*
G01X100003Y61135D01*
G01X99994Y62644D02*
G01X100298Y62644D01*
G01X99994Y62644D02*
G01X99994Y63223D01*
G01X99994Y63223D02*
G01X100298Y63223D01*
G01X100298Y62644D02*
G01X100298Y63223D01*
G01X99693Y62644D02*
G01X99997Y62644D01*
G01X99693Y62644D02*
G01X99693Y63223D01*
G01X99693Y63223D02*
G01X99997Y63223D01*
G01X99997Y62644D02*
G01X99997Y63223D01*
G01X100570Y61270D02*
G01X100570Y61574D01*
G01X100570Y61270D02*
G01X99991Y61270D01*
G01X99991Y61270D02*
G01X99991Y61574D01*
G01X100570Y61574D02*
G01X99991Y61574D01*
G01X100570Y60833D02*
G01X100570Y61137D01*
G01X100570Y60833D02*
G01X99991Y60833D01*
G01X99991Y60833D02*
G01X99991Y61137D01*
G01X100570Y61137D02*
G01X99991Y61137D01*
G01X97723Y62982D02*
G01X98133Y62982D01*
G01X97723Y63210D02*
G01X97723Y62982D01*
G01X97723Y63210D02*
G01X98133Y63210D01*
G01X98133Y63210D02*
G01X98133Y62982D01*
G01X101080Y62736D02*
G01X101490Y62736D01*
G01X101080Y62965D02*
G01X101080Y62736D01*
G01X101080Y62965D02*
G01X101490Y62965D01*
G01X101490Y62965D02*
G01X101490Y62736D01*
G01X100943Y63740D02*
G01X100943Y64150D01*
G01X100714Y63740D02*
G01X100943Y63740D01*
G01X100714Y63740D02*
G01X100714Y64150D01*
G01X100714Y64150D02*
G01X100943Y64150D01*
G01X101099Y63245D02*
G01X101509Y63245D01*
G01X101099Y63473D02*
G01X101099Y63245D01*
G01X101099Y63473D02*
G01X101509Y63473D01*
G01X101509Y63473D02*
G01X101509Y63245D01*
G01X100000Y61552D02*
G01X100000Y61962D01*
G01X99771Y61552D02*
G01X100000Y61552D01*
G01X99771Y61552D02*
G01X99771Y61962D01*
G01X99771Y61962D02*
G01X100000Y61962D01*
G01X100000Y61130D02*
G01X100000Y61539D01*
G01X99771Y61130D02*
G01X100000Y61130D01*
G01X99771Y61130D02*
G01X99771Y61539D01*
G01X99771Y61539D02*
G01X100000Y61539D01*
G01X97989Y59940D02*
G01X98399Y59940D01*
G01X97989Y60169D02*
G01X97989Y59940D01*
G01X97989Y60169D02*
G01X98399Y60169D01*
G01X98399Y60169D02*
G01X98399Y59940D01*
G01X101518Y57465D02*
G01X101518Y57875D01*
G01X101290Y57465D02*
G01X101518Y57465D01*
G01X101290Y57465D02*
G01X101290Y57875D01*
G01X101290Y57875D02*
G01X101518Y57875D01*
G01X101772Y57465D02*
G01X101772Y57875D01*
G01X101543Y57465D02*
G01X101772Y57465D01*
G01X101543Y57465D02*
G01X101543Y57875D01*
G01X101543Y57875D02*
G01X101772Y57875D01*
G01X101627Y59826D02*
G01X101627Y60235D01*
G01X101399Y59826D02*
G01X101627Y59826D01*
G01X101399Y59826D02*
G01X101399Y60235D01*
G01X101399Y60235D02*
G01X101627Y60235D01*
G01X100873Y59599D02*
G01X100464Y59599D01*
G01X100873Y59370D02*
G01X100873Y59599D01*
G01X100873Y59370D02*
G01X100464Y59370D01*
G01X100464Y59370D02*
G01X100464Y59599D01*
G01X101224Y59148D02*
G01X101224Y59558D01*
G01X100996Y59148D02*
G01X101224Y59148D01*
G01X100996Y59148D02*
G01X100996Y59558D01*
G01X100996Y59558D02*
G01X101224Y59558D01*
G01X96344Y60647D02*
G01X96344Y60248D01*
G01X96344Y60647D02*
G01X96057Y60647D01*
G01X96057Y60647D02*
G01X96057Y60248D01*
G01X96344Y60248D02*
G01X96057Y60248D01*
G01X96342Y60372D02*
G01X96065Y60372D01*
G01X96038Y58998D02*
G01X96038Y59397D01*
G01X96038Y58998D02*
G01X96325Y58998D01*
G01X96325Y58998D02*
G01X96325Y59397D01*
G01X96038Y59397D02*
G01X96325Y59397D01*
G01X96040Y59272D02*
G01X96317Y59272D01*
G01X100005Y63447D02*
G01X99606Y63447D01*
G01X100005Y63447D02*
G01X100005Y63735D01*
G01X100005Y63735D02*
G01X99606Y63735D01*
G01X99606Y63447D02*
G01X99606Y63735D01*
G01X99731Y63450D02*
G01X99731Y63727D01*
G01X96697Y63223D02*
G01X97096Y63223D01*
G01X96697Y63223D02*
G01X96697Y62935D01*
G01X96697Y62935D02*
G01X97096Y62935D01*
G01X97096Y63223D02*
G01X97096Y62935D01*
G01X96971Y63220D02*
G01X96971Y62944D01*
G01X96069Y63220D02*
G01X96468Y63220D01*
G01X96069Y63220D02*
G01X96069Y62933D01*
G01X96069Y62933D02*
G01X96468Y62933D01*
G01X96468Y63220D02*
G01X96468Y62933D01*
G01X96344Y63218D02*
G01X96344Y62941D01*
G01X95647Y63654D02*
G01X95951Y63654D01*
G01X95647Y63654D02*
G01X95647Y64233D01*
G01X95647Y64233D02*
G01X95951Y64233D01*
G01X95951Y63654D02*
G01X95951Y64233D01*
G01X95644Y62983D02*
G01X95948Y62983D01*
G01X95644Y62983D02*
G01X95644Y63563D01*
G01X95644Y63563D02*
G01X95948Y63563D01*
G01X95948Y62983D02*
G01X95948Y63563D01*
G01X100447Y59103D02*
G01X100447Y59407D01*
G01X100447Y59103D02*
G01X99868Y59103D01*
G01X99868Y59103D02*
G01X99868Y59407D01*
G01X100447Y59407D02*
G01X99868Y59407D01*
G01X99406Y59687D02*
G01X99406Y59991D01*
G01X99406Y59687D02*
G01X98827Y59687D01*
G01X98827Y59687D02*
G01X98827Y59991D01*
G01X99406Y59991D02*
G01X98827Y59991D01*
G01X96881Y59269D02*
G01X96881Y59573D01*
G01X96881Y59269D02*
G01X96301Y59269D01*
G01X96301Y59269D02*
G01X96301Y59573D01*
G01X96881Y59573D02*
G01X96301Y59573D01*
G01X96879Y61014D02*
G01X96879Y61318D01*
G01X96879Y61014D02*
G01X96300Y61014D01*
G01X96300Y61014D02*
G01X96300Y61318D01*
G01X96879Y61318D02*
G01X96300Y61318D01*
G01X96734Y61533D02*
G01X96734Y61837D01*
G01X96734Y61533D02*
G01X96155Y61533D01*
G01X96155Y61533D02*
G01X96155Y61837D01*
G01X96734Y61837D02*
G01X96155Y61837D01*
G01X99410Y63300D02*
G01X99410Y63604D01*
G01X99410Y63300D02*
G01X98830Y63300D01*
G01X98830Y63300D02*
G01X98830Y63604D01*
G01X99410Y63604D02*
G01X98830Y63604D01*
G01X99061Y63572D02*
G01X99061Y63876D01*
G01X99061Y63572D02*
G01X98482Y63572D01*
G01X98482Y63572D02*
G01X98482Y63876D01*
G01X99061Y63876D02*
G01X98482Y63876D01*
G54D11*
G01X100220Y60172D02*
G01X100220Y59868D01*
G01X100220Y59868D02*
G01X101100Y59868D01*
G01X101100Y59868D02*
G01X101100Y60172D01*
G01X101100Y60172D02*
G01X100220Y60172D01*
G04 PolygonModel End*

G04 Circle Start*
G54D10*
G01X99142Y63134D02*
G03X99202Y63134I30J0D01*
G03X99142I-30J0D01*
G54D12*
G01X100264Y60097D02*
G03X100294Y60097I15J0D01*
G03X100264I-15J0D01*
G01X100189Y60294D02*
G03X100219Y60294I15J0D01*
G03X100189I-15J0D01*
G04 Circle End*

M02*
