;TYPE=PLATED
;Layer: PTH_Through
;EasyEDA Pro Client v1.9.29.eba1c1, 2023-03-01 16:56:36
;Gerber Generator version 0.3
M48
METRIC,LZ,000.000
;Hole size 1 = 0.700 METRIC
T01C0.700
;Hole size 2 = 0.872 METRIC
T02C0.872
;Hole size 3 = 0.872 METRIC
T03C0.872
;Hole size 4 = 0.912 METRIC
T04C0.912
;Hole size 5 = 0.954 METRIC
T05C0.954
;Hole size 6 = 0.954 METRIC
T06C0.954
;Hole size 7 = 0.965 METRIC
T07C0.965
;Hole size 8 = 0.965 METRIC
T08C0.965
;Hole size 9 = 0.985 METRIC
T09C0.985
;Hole size 10 = 0.985 METRIC
T10C0.985
;Hole size 11 = 1.000 METRIC
T11C1.000
;Hole size 12 = 1.079 METRIC
T12C1.079
;Hole size 13 = 1.104 METRIC
T13C1.104
;Hole size 14 = 1.106 METRIC
T14C1.106
;Hole size 15 = 1.119 METRIC
T15C1.119
;Hole size 16 = 1.161 METRIC
T16C1.161
;Hole size 17 = 1.171 METRIC
T17C1.171
;Hole size 18 = 1.200 METRIC
T18C1.200
;Hole size 19 = 1.233 METRIC
T19C1.233
;Hole size 20 = 1.233 METRIC
T20C1.233
;Hole size 21 = 1.524 METRIC
T21C1.524
%
G05
G90
T01
X625560Y565361
X629378Y570124
T02
X654426Y616602
T03
X653368Y618434
X655483Y614770
T04
X652012Y609628
X653766Y606590
X631779Y593418
X634259Y590937
X624896Y589147
X627376Y586667
T05
X684360Y620277
T06
X681832Y620478
X679253Y620595
X676759Y620762
X674281Y620796
T07
X644897Y613428
T08
X644003Y608356
T09
X637623Y606330
X635910Y608372
T10
X699103Y620140
X698392Y618189
X692766Y615870
X692055Y613919
X663027Y617720
X662666Y619765
X659043Y609862
X659404Y607817
T11
X622799Y563409
X608435Y563292
T12
X672371Y609108
X672280Y609446
X672456Y608790
T13
X641413Y595607
X641440Y605679
T14
X710878Y611623
X707015Y608275
T15
X625098Y580689
X615001Y580737
T16
X616338Y575875
X621351Y573054
T17
X685342Y602848
X670320Y602959
T18
X616227Y569341G85X617027Y569341
X621422Y569341G85X622222Y569341
X609705Y555892G85X610505Y555892
X614900Y555892G85X615700Y555892
X734204Y564082G85X733804Y564775
X731607Y568580G85X731207Y569273
X743020Y569597G85X742561Y570252
X740041Y573852G85X739582Y574508
T19
X619202Y589543
T20
X627948Y599898
T21
X721096Y582178
X736047Y585933
X738061Y579938
X730839Y589521
X728317Y572596
X711571Y594878
X726522Y598633
X728536Y592638
X721314Y602221
X718792Y585296
M30