G04 Layer: BoardOutlineLayer*
G04 EasyEDA Pro v1.9.29.eba1c1, 2023-03-01 16:56:33*
G04 Gerber Generator version 0.3*
G04 Scale: 100 percent, Rotated: No, Reflected: No*
G04 Dimensions in millimeters*
G04 Leading zeros omitted, absolute positions, 3 integers and 3 decimals*
%FSLAX33Y33*%
%MOMM*%
%ADD10C,0.1*%
%ADD11C,1.000001*%
G75*


G04 PolygonModel Start*
G54D10*
G01X749478Y552369D02*
G03X606190Y552286I-71645J657D01*
G01X726826Y552371D02*
G01X749478Y552371D01*
G01X606219Y552286D02*
G01X629065Y552286D01*
G54D11*
G01X637106Y588835D02*
G01X652378Y600528D01*
G01X682625Y605663D02*
G01X696341Y603885D01*
G01X725424Y592455D02*
G01X729996Y586740D01*
G01X724662Y579882D02*
G01X724789Y586486D01*
G01X623824Y566801D02*
G01X626999Y570103D01*
G01X617399Y572823D02*
G01X620667Y576091D01*
G01X613775Y566097D02*
G01X613775Y570774D01*
G54D10*
G01X726773Y552434D02*
G03X629031Y552289I-48872J590D01*
G54D11*
G01X623512Y566404D02*
G01X621411Y566420D01*
G01X731266Y577596D02*
G01X730631Y583946D01*
G01X720979Y591185D02*
G01X724789Y586486D01*
G04 PolygonModel End*

G04 Circle Start*
G54D10*
G01X731611Y556297D02*
G03X734903Y556297I1646J0D01*
G03X731611I-1646J0D01*
G01X706774Y600431D02*
G03X710065Y600431I1646J0D01*
G03X706774I-1646J0D01*
G01X621006Y556877D02*
G03X624297Y556877I1646J0D01*
G03X621006I-1646J0D01*
G01X646524Y600825D02*
G03X649926Y600825I1701J0D01*
G03X646524I-1701J0D01*
G04 Circle End*

M02*
