G04 Layer: TopSilkscreenLayer*
G04 EasyEDA Pro v1.9.29.eba1c1, 2023-03-01 16:56:33*
G04 Gerber Generator version 0.3*
G04 Scale: 100 percent, Rotated: No, Reflected: No*
G04 Dimensions in millimeters*
G04 Leading zeros omitted, absolute positions, 3 integers and 3 decimals*
%FSLAX33Y33*%
%MOMM*%
%ADD10C,0.1*%
%ADD11C,0.1524*%
%ADD12C,0.299999*%
%ADD13C,0.254*%
G75*


G04 Text Start*
G04 //text: LS1*
G54D10*
G01X708970Y614502D02*
G01X708772Y613890D01*
G01X708772Y613890D02*
G01X709120Y613777D01*
G01X709933Y614093D02*
G01X709894Y614170D01*
G01X709816Y614227D01*
G01X709700Y614264D01*
G01X709601Y614265D01*
G01X709524Y614225D01*
G01X709506Y614167D01*
G01X709516Y614100D01*
G01X709535Y614059D01*
G01X709583Y614011D01*
G01X709741Y613896D01*
G01X709789Y613848D01*
G01X709809Y613810D01*
G01X709819Y613742D01*
G01X709791Y613656D01*
G01X709714Y613616D01*
G01X709617D01*
G01X709501Y613653D01*
G01X709421Y613711D01*
G01X709382Y613788D01*
G01X710158Y613988D02*
G01X710225Y613998D01*
G01X710340Y614056D01*
G01X710142Y613445D01*
G04 //text: 100U/16V*
G01X696620Y619411D02*
G01X696659Y619435D01*
G01X696717Y619504D01*
G01X696755Y619064D01*
G01X697041Y619532D02*
G01X696982Y619504D01*
G01X696944Y619440D01*
G01X696933Y619331D01*
G01X696939Y619271D01*
G01X696968Y619166D01*
G01X697017Y619109D01*
G01X697079Y619092D01*
G01X697122Y619096D01*
G01X697184Y619124D01*
G01X697219Y619188D01*
G01X697230Y619296D01*
G01X697224Y619357D01*
G01X697195Y619461D01*
G01X697149Y619519D01*
G01X697084Y619536D01*
G01X697041Y619532D01*
G01X697534Y619575D02*
G01X697473Y619547D01*
G01X697438Y619483D01*
G01X697424Y619374D01*
G01X697430Y619314D01*
G01X697462Y619209D01*
G01X697507Y619152D01*
G01X697573Y619135D01*
G01X697613Y619139D01*
G01X697674Y619167D01*
G01X697712Y619231D01*
G01X697723Y619339D01*
G01X697718Y619400D01*
G01X697688Y619505D01*
G01X697640Y619562D01*
G01X697575Y619579D01*
G01X697534Y619575D01*
G01X697901Y619607D02*
G01X697929Y619294D01*
G01X697954Y619232D01*
G01X698001Y619195D01*
G01X698064Y619178D01*
G01X698107Y619182D01*
G01X698165Y619210D01*
G01X698205Y619254D01*
G01X698220Y619319D01*
G01X698192Y619633D01*
G01X698762Y619767D02*
G01X698443Y619066D01*
G01X698976Y619617D02*
G01X699015Y619641D01*
G01X699073Y619710D01*
G01X699111Y619270D01*
G01X699529Y619686D02*
G01X699505Y619725D01*
G01X699440Y619742D01*
G01X699397Y619738D01*
G01X699338Y619710D01*
G01X699300Y619646D01*
G01X699289Y619538D01*
G01X699298Y619434D01*
G01X699326Y619352D01*
G01X699372Y619315D01*
G01X699435Y619298D01*
G01X699458Y619300D01*
G01X699517Y619328D01*
G01X699556Y619372D01*
G01X699571Y619437D01*
G01X699569Y619458D01*
G01X699543Y619519D01*
G01X699497Y619556D01*
G01X699434Y619573D01*
G01X699411Y619571D01*
G01X699352Y619543D01*
G01X699313Y619499D01*
G01X699298Y619434D01*
G01X699743Y619769D02*
G01X699949Y619343D01*
G01X700077Y619798D02*
G01X699949Y619343D01*
G04 //text: EC10*
G01X697294Y616259D02*
G01X697350Y615619D01*
G01X697294Y616259D02*
G01X697689Y616294D01*
G01X697321Y615953D02*
G01X697564Y615974D01*
G01X697350Y615619D02*
G01X697745Y615654D01*
G01X698405Y616203D02*
G01X698370Y616262D01*
G01X698304Y616317D01*
G01X698240Y616342D01*
G01X698119Y616331D01*
G01X698061Y616296D01*
G01X698003Y616229D01*
G01X697978Y616166D01*
G01X697956Y616070D01*
G01X697969Y615918D01*
G01X698007Y615829D01*
G01X698043Y615771D01*
G01X698111Y615716D01*
G01X698175Y615691D01*
G01X698296Y615702D01*
G01X698354Y615737D01*
G01X698410Y615804D01*
G01X698435Y615867D01*
G01X698648Y616255D02*
G01X698706Y616291D01*
G01X698789Y616390D01*
G01X698845Y615750D01*
G01X699220Y616428D02*
G01X699131Y616389D01*
G01X699078Y616293D01*
G01X699059Y616136D01*
G01X699067Y616045D01*
G01X699113Y615896D01*
G01X699182Y615810D01*
G01X699276Y615787D01*
G01X699336Y615793D01*
G01X699425Y615831D01*
G01X699477Y615928D01*
G01X699495Y616082D01*
G01X699487Y616173D01*
G01X699443Y616325D01*
G01X699374Y616411D01*
G01X699280Y616433D01*
G01X699220Y616428D01*
G04 //text: 100U/16V*
G01X693821Y614412D02*
G01X693776Y614407D01*
G01X693695Y614369D01*
G01X693846Y614784D01*
G01X693389Y614480D02*
G01X693454Y614481D01*
G01X693516Y614523D01*
G01X693571Y614616D01*
G01X693592Y614674D01*
G01X693609Y614781D01*
G01X693590Y614853D01*
G01X693540Y614895D01*
G01X693500Y614910D01*
G01X693432D01*
G01X693373Y614867D01*
G01X693318Y614774D01*
G01X693297Y614716D01*
G01X693279Y614609D01*
G01X693297Y614538D01*
G01X693349Y614495D01*
G01X693389Y614480D01*
G01X692924Y614649D02*
G01X692991Y614649D01*
G01X693050Y614693D01*
G01X693108Y614785D01*
G01X693129Y614842D01*
G01X693144Y614950D01*
G01X693127Y615021D01*
G01X693075Y615065D01*
G01X693037Y615079D01*
G01X692969D01*
G01X692908Y615036D01*
G01X692852Y614943D01*
G01X692831Y614886D01*
G01X692814Y614779D01*
G01X692834Y614706D01*
G01X692885Y614663D01*
G01X692924Y614649D01*
G01X692578Y614775D02*
G01X692685Y615071D01*
G01X692688Y615138D01*
G01X692661Y615191D01*
G01X692612Y615233D01*
G01X692571Y615248D01*
G01X692506Y615247D01*
G01X692452Y615224D01*
G01X692411Y615171D01*
G01X692303Y614875D01*
G01X691730Y614995D02*
G01X692315Y615495D01*
G01X691599Y615221D02*
G01X691554Y615216D01*
G01X691472Y615178D01*
G01X691624Y615593D01*
G01X691069Y615392D02*
G01X691075Y615347D01*
G01X691126Y615304D01*
G01X691167Y615289D01*
G01X691232D01*
G01X691294Y615332D01*
G01X691349Y615425D01*
G01X691385Y615523D01*
G01X691394Y615609D01*
G01X691368Y615662D01*
G01X691318Y615704D01*
G01X691297Y615712D01*
G01X691232Y615711D01*
G01X691177Y615688D01*
G01X691136Y615635D01*
G01X691129Y615616D01*
G01X691127Y615549D01*
G01X691153Y615496D01*
G01X691203Y615454D01*
G01X691224Y615446D01*
G01X691289Y615447D01*
G01X691344Y615470D01*
G01X691385Y615523D01*
G01X690840Y615408D02*
G01X690834Y615880D01*
G01X690525Y615522D02*
G01X690834Y615880D01*
G04 //text: EC7*
G01X691918Y611639D02*
G01X692138Y612243D01*
G01X691918Y611639D02*
G01X691545Y611775D01*
G01X692023Y611928D02*
G01X691794Y612012D01*
G01X692138Y612243D02*
G01X691765Y612379D01*
G01X690934Y612160D02*
G01X690942Y612092D01*
G01X690978Y612014D01*
G01X691025Y611964D01*
G01X691140Y611923D01*
G01X691207Y611930D01*
G01X691288Y611966D01*
G01X691337Y612013D01*
G01X691398Y612091D01*
G01X691450Y612234D01*
G01X691453Y612330D01*
G01X691445Y612398D01*
G01X691406Y612477D01*
G01X691359Y612526D01*
G01X691245Y612568D01*
G01X691177Y612560D01*
G01X691099Y612524D01*
G01X691050Y612477D01*
G01X690247Y612248D02*
G01X690756Y612746D01*
G01X690650Y612101D02*
G01X690247Y612248D01*
G04 //text: 100U/16V*
G01X660993Y619584D02*
G01X661039Y619585D01*
G01X661123Y619616D01*
G01X660936Y619215D01*
G01X661418Y619478D02*
G01X661353Y619483D01*
G01X661288Y619446D01*
G01X661225Y619358D01*
G01X661199Y619303D01*
G01X661172Y619198D01*
G01X661185Y619124D01*
G01X661231Y619078D01*
G01X661270Y619059D01*
G01X661337Y619053D01*
G01X661400Y619091D01*
G01X661463Y619179D01*
G01X661489Y619235D01*
G01X661516Y619340D01*
G01X661505Y619412D01*
G01X661457Y619460D01*
G01X661418Y619478D01*
G01X661867Y619269D02*
G01X661800Y619275D01*
G01X661737Y619237D01*
G01X661671Y619150D01*
G01X661645Y619095D01*
G01X661621Y618988D01*
G01X661632Y618916D01*
G01X661680Y618868D01*
G01X661717Y618851D01*
G01X661784Y618845D01*
G01X661849Y618882D01*
G01X661912Y618970D01*
G01X661938Y619025D01*
G01X661965Y619131D01*
G01X661951Y619204D01*
G01X661904Y619252D01*
G01X661867Y619269D01*
G01X662201Y619113D02*
G01X662067Y618828D01*
G01X662059Y618762D01*
G01X662081Y618707D01*
G01X662127Y618660D01*
G01X662166Y618642D01*
G01X662231Y618637D01*
G01X662287Y618655D01*
G01X662332Y618704D01*
G01X662465Y618990D01*
G01X663026Y618821D02*
G01X662399Y618373D01*
G01X663137Y618584D02*
G01X663182Y618586D01*
G01X663266Y618616D01*
G01X663080Y618216D01*
G01X663649Y618368D02*
G01X663648Y618413D01*
G01X663600Y618461D01*
G01X663561Y618479D01*
G01X663496Y618484D01*
G01X663431Y618447D01*
G01X663368Y618359D01*
G01X663324Y618264D01*
G01X663307Y618180D01*
G01X663329Y618125D01*
G01X663374Y618078D01*
G01X663395Y618069D01*
G01X663460Y618064D01*
G01X663516Y618082D01*
G01X663561Y618131D01*
G01X663570Y618150D01*
G01X663578Y618216D01*
G01X663556Y618271D01*
G01X663511Y618317D01*
G01X663490Y618327D01*
G01X663425Y618332D01*
G01X663369Y618313D01*
G01X663324Y618264D01*
G01X663876Y618332D02*
G01X663842Y617860D01*
G01X664180Y618190D02*
G01X663842Y617860D01*
G04 //text: EC4*
G01X663515Y623039D02*
G01X663243Y622457D01*
G01X663515Y623039D02*
G01X663874Y622872D01*
G01X663385Y622760D02*
G01X663606Y622657D01*
G01X663243Y622457D02*
G01X663603Y622289D01*
G01X664450Y622435D02*
G01X664448Y622503D01*
G01X664418Y622584D01*
G01X664376Y622638D01*
G01X664265Y622689D01*
G01X664197Y622687D01*
G01X664114Y622659D01*
G01X664061Y622616D01*
G01X663993Y622544D01*
G01X663929Y622406D01*
G01X663918Y622310D01*
G01X663920Y622242D01*
G01X663952Y622160D01*
G01X663994Y622107D01*
G01X664104Y622055D01*
G01X664173Y622057D01*
G01X664254Y622086D01*
G01X664307Y622129D01*
G01X665016Y622339D02*
G01X664556Y622080D01*
G01X664973Y621886D01*
G01X665016Y622339D02*
G01X664744Y621757D01*
G04 //text: 100U/16V*
G01X657761Y608552D02*
G01X657797Y608579D01*
G01X657849Y608653D01*
G01X657926Y608217D01*
G01X658169Y608709D02*
G01X658113Y608676D01*
G01X658081Y608609D01*
G01X658079Y608500D01*
G01X658090Y608440D01*
G01X658129Y608338D01*
G01X658182Y608286D01*
G01X658246Y608274D01*
G01X658288Y608281D01*
G01X658347Y608315D01*
G01X658376Y608382D01*
G01X658378Y608491D01*
G01X658367Y608551D01*
G01X658329Y608652D01*
G01X658278Y608705D01*
G01X658211Y608717D01*
G01X658169Y608709D01*
G01X658657Y608795D02*
G01X658598Y608762D01*
G01X658569Y608695D01*
G01X658565Y608586D01*
G01X658575Y608525D01*
G01X658616Y608424D01*
G01X658667Y608371D01*
G01X658733Y608360D01*
G01X658774Y608367D01*
G01X658832Y608401D01*
G01X658864Y608468D01*
G01X658866Y608577D01*
G01X658855Y608637D01*
G01X658816Y608738D01*
G01X658763Y608791D01*
G01X658697Y608802D01*
G01X658657Y608795D01*
G01X659019Y608859D02*
G01X659074Y608549D01*
G01X659105Y608490D01*
G01X659155Y608457D01*
G01X659219Y608445D01*
G01X659261Y608453D01*
G01X659317Y608486D01*
G01X659353Y608534D01*
G01X659362Y608600D01*
G01X659307Y608910D01*
G01X659863Y609093D02*
G01X659607Y608367D01*
G01X660090Y608963D02*
G01X660126Y608990D01*
G01X660178Y609063D01*
G01X660254Y608628D01*
G01X660634Y609079D02*
G01X660607Y609116D01*
G01X660540Y609127D01*
G01X660498Y609120D01*
G01X660442Y609087D01*
G01X660410Y609019D01*
G01X660408Y608911D01*
G01X660426Y608808D01*
G01X660461Y608729D01*
G01X660511Y608696D01*
G01X660575Y608685D01*
G01X660597Y608689D01*
G01X660653Y608722D01*
G01X660689Y608769D01*
G01X660698Y608835D01*
G01X660694Y608855D01*
G01X660663Y608914D01*
G01X660613Y608947D01*
G01X660549Y608959D01*
G01X660527Y608955D01*
G01X660471Y608922D01*
G01X660435Y608874D01*
G01X660426Y608808D01*
G01X660840Y609180D02*
G01X661082Y608774D01*
G01X661171Y609238D02*
G01X661082Y608774D01*
G04 //text: EC8*
G01X658023Y611905D02*
G01X658135Y611272D01*
G01X658023Y611905D02*
G01X658413Y611974D01*
G01X658076Y611602D02*
G01X658316Y611645D01*
G01X658135Y611272D02*
G01X658525Y611341D01*
G01X659135Y611946D02*
G01X659094Y612001D01*
G01X659024Y612050D01*
G01X658958Y612070D01*
G01X658838Y612049D01*
G01X658784Y612008D01*
G01X658732Y611937D01*
G01X658712Y611872D01*
G01X658699Y611774D01*
G01X658725Y611624D01*
G01X658771Y611539D01*
G01X658812Y611484D01*
G01X658885Y611435D01*
G01X658950Y611416D01*
G01X659070Y611437D01*
G01X659125Y611478D01*
G01X659174Y611548D01*
G01X659194Y611614D01*
G01X659501Y612166D02*
G01X659416Y612120D01*
G01X659397Y612054D01*
G01X659408Y611994D01*
G01X659448Y611940D01*
G01X659514Y611918D01*
G01X659639Y611909D01*
G01X659737Y611895D01*
G01X659808Y611846D01*
G01X659848Y611791D01*
G01X659864Y611701D01*
G01X659845Y611636D01*
G01X659820Y611600D01*
G01X659733Y611554D01*
G01X659613Y611533D01*
G01X659517Y611547D01*
G01X659482Y611572D01*
G01X659442Y611626D01*
G01X659426Y611716D01*
G01X659445Y611782D01*
G01X659495Y611852D01*
G01X659579Y611898D01*
G01X659697Y611950D01*
G01X659751Y611993D01*
G01X659770Y612058D01*
G01X659760Y612118D01*
G01X659719Y612173D01*
G01X659621Y612187D01*
G01X659501Y612166D01*
G04 //text: 1mH*
G01X643660Y610949D02*
G01X643701Y610969D01*
G01X643764Y611033D01*
G01Y610591D01*
G01X643965Y610886D02*
G01X643965Y610591D01*
G01X643965Y610802D02*
G01X644028Y610865D01*
G01X644069Y610886D01*
G01X644132D01*
G01X644173Y610865D01*
G01X644196Y610802D01*
G01Y610591D01*
G01X644196Y610802D02*
G01X644257Y610865D01*
G01X644300Y610886D01*
G01X644364D01*
G01X644404Y610865D01*
G01X644425Y610802D01*
G01Y610591D01*
G01X644625Y611033D02*
G01X644625Y610591D01*
G01X644920Y611033D02*
G01X644920Y610591D01*
G01X644625Y610822D02*
G01X644920Y610822D01*
G04 //text: L2*
G01X646698Y605064D02*
G01X646698Y605706D01*
G01X646698Y605706D02*
G01X646333Y605706D01*
G01X646056Y605216D02*
G01X646056Y605186D01*
G01X646025Y605125D01*
G01X645995Y605094D01*
G01X645931Y605064D01*
G01X645809D01*
G01X645749Y605094D01*
G01X645718Y605125D01*
G01X645688Y605186D01*
G01Y605246D01*
G01X645718Y605310D01*
G01X645779Y605401D01*
G01X646086Y605706D01*
G01X645657D01*
G04 //text: 4.7U/400V*
G01X631149Y592358D02*
G01X630941Y592064D01*
G01X631253D01*
G01X631149Y592358D02*
G01X631149Y591916D01*
G01X631476Y592023D02*
G01X631454Y592000D01*
G01X631476Y591980D01*
G01X631497Y592000D01*
G01X631476Y592023D01*
G01X631990Y592358D02*
G01X631781Y591916D01*
G01X631697Y592358D02*
G01X631990Y592358D01*
G01X632190Y592358D02*
G01X632190Y592043D01*
G01X632213Y591980D01*
G01X632254Y591939D01*
G01X632317Y591916D01*
G01X632358D01*
G01X632421Y591939D01*
G01X632462Y591980D01*
G01X632485Y592043D01*
G01Y592358D01*
G01X633061Y592442D02*
G01X632686Y591772D01*
G01X633473Y592358D02*
G01X633262Y592064D01*
G01X633577D01*
G01X633473Y592358D02*
G01X633473Y591916D01*
G01X633902Y592358D02*
G01X633841Y592335D01*
G01X633798Y592274D01*
G01X633778Y592168D01*
G01Y592107D01*
G01X633798Y592000D01*
G01X633841Y591939D01*
G01X633902Y591916D01*
G01X633945D01*
G01X634009Y591939D01*
G01X634050Y592000D01*
G01X634070Y592107D01*
G01Y592168D01*
G01X634050Y592274D01*
G01X634009Y592335D01*
G01X633945Y592358D01*
G01X633902D01*
G01X634397Y592358D02*
G01X634334Y592335D01*
G01X634291Y592274D01*
G01X634270Y592168D01*
G01Y592107D01*
G01X634291Y592000D01*
G01X634334Y591939D01*
G01X634397Y591916D01*
G01X634438D01*
G01X634502Y591939D01*
G01X634542Y592000D01*
G01X634565Y592107D01*
G01Y592168D01*
G01X634542Y592274D01*
G01X634502Y592335D01*
G01X634438Y592358D01*
G01X634397D01*
G01X634766Y592358D02*
G01X634933Y591916D01*
G01X635101Y592358D02*
G01X634933Y591916D01*
G04 //text: EC3*
G01X632123Y598738D02*
G01X632123Y598095D01*
G01X632123Y598738D02*
G01X632519Y598738D01*
G01X632123Y598430D02*
G01X632366Y598430D01*
G01X632123Y598095D02*
G01X632519Y598095D01*
G01X633225Y598585D02*
G01X633194Y598646D01*
G01X633133Y598707D01*
G01X633073Y598738D01*
G01X632951D01*
G01X632890Y598707D01*
G01X632826Y598646D01*
G01X632796Y598585D01*
G01X632765Y598491D01*
G01Y598339D01*
G01X632796Y598247D01*
G01X632826Y598186D01*
G01X632890Y598125D01*
G01X632951Y598095D01*
G01X633073D01*
G01X633133Y598125D01*
G01X633194Y598186D01*
G01X633225Y598247D01*
G01X633532Y598738D02*
G01X633870Y598738D01*
G01X633685Y598491D01*
G01X633779D01*
G01X633840Y598461D01*
G01X633870Y598430D01*
G01X633901Y598339D01*
G01Y598278D01*
G01X633870Y598186D01*
G01X633809Y598125D01*
G01X633715Y598095D01*
G01X633624D01*
G01X633532Y598125D01*
G01X633502Y598156D01*
G01X633471Y598217D01*
G04 //text: 4.7U/400V*
G01X624266Y588088D02*
G01X624057Y587793D01*
G01X624370D01*
G01X624266Y588088D02*
G01X624266Y587646D01*
G01X624593Y587752D02*
G01X624571Y587729D01*
G01X624593Y587709D01*
G01X624614Y587729D01*
G01X624593Y587752D01*
G01X625106Y588088D02*
G01X624898Y587646D01*
G01X624814Y588088D02*
G01X625106Y588088D01*
G01X625307Y588088D02*
G01X625307Y587773D01*
G01X625330Y587709D01*
G01X625371Y587668D01*
G01X625434Y587646D01*
G01X625475D01*
G01X625538Y587668D01*
G01X625579Y587709D01*
G01X625602Y587773D01*
G01Y588088D01*
G01X626178Y588171D02*
G01X625802Y587501D01*
G01X626590Y588088D02*
G01X626379Y587793D01*
G01X626694D01*
G01X626590Y588088D02*
G01X626590Y587646D01*
G01X627019Y588088D02*
G01X626958Y588065D01*
G01X626915Y588004D01*
G01X626895Y587897D01*
G01Y587836D01*
G01X626915Y587729D01*
G01X626958Y587668D01*
G01X627019Y587646D01*
G01X627062D01*
G01X627126Y587668D01*
G01X627166Y587729D01*
G01X627187Y587836D01*
G01Y587897D01*
G01X627166Y588004D01*
G01X627126Y588065D01*
G01X627062Y588088D01*
G01X627019D01*
G01X627514Y588088D02*
G01X627451Y588065D01*
G01X627408Y588004D01*
G01X627387Y587897D01*
G01Y587836D01*
G01X627408Y587729D01*
G01X627451Y587668D01*
G01X627514Y587646D01*
G01X627555D01*
G01X627619Y587668D01*
G01X627659Y587729D01*
G01X627682Y587836D01*
G01Y587897D01*
G01X627659Y588004D01*
G01X627619Y588065D01*
G01X627555Y588088D01*
G01X627514D01*
G01X627883Y588088D02*
G01X628050Y587646D01*
G01X628218Y588088D02*
G01X628050Y587646D01*
G04 //text: EC2*
G01X630489Y583583D02*
G01X630489Y584225D01*
G01X630489Y583583D02*
G01X630093Y583583D01*
G01X630489Y583890D02*
G01X630245Y583890D01*
G01X630489Y584225D02*
G01X630093Y584225D01*
G01X629387Y583735D02*
G01X629417Y583674D01*
G01X629478Y583613D01*
G01X629539Y583583D01*
G01X629661D01*
G01X629722Y583613D01*
G01X629785Y583674D01*
G01X629816Y583735D01*
G01X629846Y583829D01*
G01Y583981D01*
G01X629816Y584073D01*
G01X629785Y584134D01*
G01X629722Y584195D01*
G01X629661Y584225D01*
G01X629539D01*
G01X629478Y584195D01*
G01X629417Y584134D01*
G01X629387Y584073D01*
G01X629110Y583735D02*
G01X629110Y583705D01*
G01X629079Y583644D01*
G01X629049Y583613D01*
G01X628988Y583583D01*
G01X628866D01*
G01X628802Y583613D01*
G01X628772Y583644D01*
G01X628741Y583705D01*
G01Y583766D01*
G01X628772Y583829D01*
G01X628833Y583920D01*
G01X629140Y584225D01*
G01X628711D01*
G04 //text: 104K*
G01X619155Y580715D02*
G01X619196Y580735D01*
G01X619259Y580799D01*
G01Y580357D01*
G01X619584Y580799D02*
G01X619523Y580776D01*
G01X619480Y580715D01*
G01X619460Y580608D01*
G01Y580547D01*
G01X619480Y580440D01*
G01X619523Y580380D01*
G01X619584Y580357D01*
G01X619627D01*
G01X619691Y580380D01*
G01X619732Y580440D01*
G01X619752Y580547D01*
G01Y580608D01*
G01X619732Y580715D01*
G01X619691Y580776D01*
G01X619627Y580799D01*
G01X619584D01*
G01X620163Y580799D02*
G01X619953Y580504D01*
G01X620267D01*
G01X620163Y580799D02*
G01X620163Y580357D01*
G01X620468Y580799D02*
G01X620468Y580357D01*
G01X620760Y580799D02*
G01X620468Y580504D01*
G01X620572Y580608D02*
G01X620760Y580357D01*
G04 //text: C1*
G01X627507Y581287D02*
G01X627537Y581226D01*
G01X627598Y581165D01*
G01X627659Y581134D01*
G01X627781D01*
G01X627842Y581165D01*
G01X627903Y581226D01*
G01X627934Y581287D01*
G01X627964Y581381D01*
G01Y581533D01*
G01X627934Y581624D01*
G01X627903Y581685D01*
G01X627842Y581746D01*
G01X627781Y581777D01*
G01X627659D01*
G01X627598Y581746D01*
G01X627537Y581685D01*
G01X627507Y581624D01*
G01X627261Y581256D02*
G01X627197Y581226D01*
G01X627106Y581134D01*
G01Y581777D01*
G04 //text: 7D471K*
G01X617783Y574609D02*
G01X617575Y574167D01*
G01X617491Y574609D02*
G01X617783Y574609D01*
G01X617984Y574609D02*
G01X617984Y574167D01*
G01X617984Y574609D02*
G01X618131Y574609D01*
G01X618195Y574586D01*
G01X618235Y574546D01*
G01X618256Y574502D01*
G01X618278Y574441D01*
G01Y574335D01*
G01X618256Y574274D01*
G01X618235Y574231D01*
G01X618195Y574190D01*
G01X618131Y574167D01*
G01X617984D01*
G01X618687Y574609D02*
G01X618479Y574314D01*
G01X618791D01*
G01X618687Y574609D02*
G01X618687Y574167D01*
G01X619287Y574609D02*
G01X619076Y574167D01*
G01X618992Y574609D02*
G01X619287Y574609D01*
G01X619487Y574525D02*
G01X619528Y574546D01*
G01X619592Y574609D01*
G01Y574167D01*
G01X619792Y574609D02*
G01X619792Y574167D01*
G01X620084Y574609D02*
G01X619792Y574314D01*
G01X619896Y574419D02*
G01X620084Y574167D01*
G04 //text: ZR1*
G01X625287Y573808D02*
G01X625714Y574450D01*
G01X625714Y573808D02*
G01X625287Y573808D01*
G01X625714Y574450D02*
G01X625287Y574450D01*
G01X625041Y573808D02*
G01X625041Y574450D01*
G01X625041Y573808D02*
G01X624764Y573808D01*
G01X624673Y573838D01*
G01X624642Y573869D01*
G01X624612Y573930D01*
G01Y573991D01*
G01X624642Y574054D01*
G01X624673Y574085D01*
G01X624764Y574115D01*
G01X625041D01*
G01X624825Y574115D02*
G01X624612Y574450D01*
G01X624365Y573930D02*
G01X624304Y573899D01*
G01X624213Y573808D01*
G01Y574450D01*
G04 //text: ACN*
G01X624150Y571264D02*
G01X623906Y570621D01*
G01X624150Y571264D02*
G01X624393Y570621D01*
G01X623997Y570835D02*
G01X624302Y570835D01*
G01X625099Y571111D02*
G01X625069Y571172D01*
G01X625008Y571233D01*
G01X624947Y571264D01*
G01X624825D01*
G01X624764Y571233D01*
G01X624703Y571172D01*
G01X624673Y571111D01*
G01X624640Y571017D01*
G01Y570865D01*
G01X624673Y570774D01*
G01X624703Y570713D01*
G01X624764Y570652D01*
G01X624825Y570621D01*
G01X624947D01*
G01X625008Y570652D01*
G01X625069Y570713D01*
G01X625099Y570774D01*
G01X625346Y571264D02*
G01X625346Y570621D01*
G01X625346Y571264D02*
G01X625775Y570621D01*
G01X625775Y571264D02*
G01X625775Y570621D01*
G04 //text: ACL*
G01X618633Y556305D02*
G01X617958Y556434D01*
G01X618633Y556305D02*
G01X618043Y555954D01*
G01X618184Y556381D02*
G01X618237Y556081D01*
G01X618648Y555343D02*
G01X618703Y555384D01*
G01X618752Y555455D01*
G01X618772Y555520D01*
G01X618751Y555640D01*
G01X618710Y555695D01*
G01X618639Y555744D01*
G01X618574Y555764D01*
G01X618476Y555780D01*
G01X618326Y555753D01*
G01X618241Y555705D01*
G01X618187Y555664D01*
G01X618137Y555594D01*
G01X618118Y555528D01*
G01X618139Y555408D01*
G01X618180Y555354D01*
G01X618250Y555304D01*
G01X618316Y555285D01*
G01X618841Y555127D02*
G01X618208Y555016D01*
G01X618208Y555016D02*
G01X618272Y554653D01*
G04 //text: L-OUT2*
G01X728775Y566448D02*
G01X728218Y566127D01*
G01X728218Y566127D02*
G01X728401Y565810D01*
G01X728762Y565734D02*
G01X729037Y565257D01*
G01X729571Y565069D02*
G01X729514Y565107D01*
G01X729431Y565129D01*
G01X729363Y565125D01*
G01X729266Y565104D01*
G01X729134Y565028D01*
G01X729070Y564956D01*
G01X729033Y564899D01*
G01X729010Y564816D01*
G01X729014Y564748D01*
G01X729077Y564640D01*
G01X729134Y564603D01*
G01X729217Y564580D01*
G01X729285Y564584D01*
G01X729379Y564604D01*
G01X729511Y564680D01*
G01X729577Y564753D01*
G01X729615Y564810D01*
G01X729637Y564893D01*
G01X729633Y564961D01*
G01X729571Y565069D01*
G01X729848Y564590D02*
G01X729450Y564360D01*
G01X729386Y564288D01*
G01X729363Y564204D01*
G01X729383Y564110D01*
G01X729413Y564057D01*
G01X729485Y563993D01*
G01X729570Y563969D01*
G01X729664Y563988D01*
G01X730062Y564218D01*
G01X730292Y563820D02*
G01X729736Y563498D01*
G01X730186Y564005D02*
G01X730399Y563635D01*
G01X730405Y563319D02*
G01X730432Y563334D01*
G01X730501Y563336D01*
G01X730543Y563325D01*
G01X730600Y563287D01*
G01X730661Y563182D01*
G01X730665Y563114D01*
G01X730654Y563072D01*
G01X730616Y563015D01*
G01X730563Y562985D01*
G01X730493Y562979D01*
G01X730383Y562987D01*
G01X729966Y563100D01*
G01X730180Y562729D01*
G04 //text: L-OUT1*
G01X739181Y568391D02*
G01X739708Y568760D01*
G01X739708Y568760D02*
G01X739498Y569059D01*
G01X739132Y569104D02*
G01X738816Y569555D01*
G01X738268Y569696D02*
G01X738328Y569663D01*
G01X738413Y569648D01*
G01X738480Y569658D01*
G01X738575Y569687D01*
G01X738700Y569774D01*
G01X738757Y569852D01*
G01X738789Y569912D01*
G01X738804Y569997D01*
G01X738794Y570064D01*
G01X738723Y570166D01*
G01X738663Y570199D01*
G01X738578Y570214D01*
G01X738511Y570204D01*
G01X738418Y570176D01*
G01X738294Y570089D01*
G01X738234Y570010D01*
G01X738202Y569950D01*
G01X738187Y569865D01*
G01X738197Y569798D01*
G01X738268Y569696D01*
G01X737950Y570149D02*
G01X738327Y570413D01*
G01X738384Y570490D01*
G01X738399Y570575D01*
G01X738372Y570668D01*
G01X738337Y570717D01*
G01X738260Y570775D01*
G01X738173Y570792D01*
G01X738081Y570764D01*
G01X737704Y570501D01*
G01X737441Y570877D02*
G01X737967Y571246D01*
G01X737563Y570703D02*
G01X737318Y571052D01*
G01X737277Y571324D02*
G01X737215Y571358D01*
G01X737088Y571381D01*
G01X737614Y571749D01*
G04 //text: 1mH*
G01X622943Y594764D02*
G01X622983Y594785D01*
G01X623047Y594848D01*
G01Y594406D01*
G01X623248Y594701D02*
G01X623248Y594406D01*
G01X623248Y594617D02*
G01X623311Y594680D01*
G01X623352Y594701D01*
G01X623415D01*
G01X623456Y594680D01*
G01X623479Y594617D01*
G01Y594406D01*
G01X623479Y594617D02*
G01X623540Y594680D01*
G01X623583Y594701D01*
G01X623646D01*
G01X623687Y594680D01*
G01X623707Y594617D01*
G01Y594406D01*
G01X623908Y594848D02*
G01X623908Y594406D01*
G01X624203Y594848D02*
G01X624203Y594406D01*
G01X623908Y594637D02*
G01X624203Y594637D01*
G04 //text: L1*
G01X628545Y593733D02*
G01X628545Y594375D01*
G01X628545Y594375D02*
G01X628179Y594375D01*
G01X627933Y593855D02*
G01X627872Y593824D01*
G01X627778Y593733D01*
G01Y594375D01*
G04 //text: RX*
G01X628951Y573156D02*
G01X629062Y573789D01*
G01X628951Y573156D02*
G01X628680Y573203D01*
G01X628596Y573249D01*
G01X628571Y573285D01*
G01X628551Y573350D01*
G01X628562Y573410D01*
G01X628603Y573467D01*
G01X628638Y573492D01*
G01X628734Y573506D01*
G01X629004Y573458D01*
G01X628794Y573496D02*
G01X628642Y573863D01*
G01X628288Y573273D02*
G01X627976Y573980D01*
G01X627865Y573347D02*
G01X628399Y573906D01*
G04 //text: 10R/2W*
G01X625872Y567730D02*
G01X625915Y567743D01*
G01X625989Y567794D01*
G01X625912Y567359D01*
G01X626309Y567738D02*
G01X626245Y567726D01*
G01X626192Y567673D01*
G01X626153Y567572D01*
G01X626143Y567512D01*
G01X626144Y567403D01*
G01X626176Y567336D01*
G01X626232Y567303D01*
G01X626275Y567295D01*
G01X626341Y567307D01*
G01X626392Y567360D01*
G01X626430Y567461D01*
G01X626441Y567521D01*
G01X626439Y567630D01*
G01X626410Y567697D01*
G01X626351Y567730D01*
G01X626309Y567738D01*
G01X626672Y567674D02*
G01X626595Y567239D01*
G01X626672Y567674D02*
G01X626859Y567641D01*
G01X626915Y567608D01*
G01X626934Y567584D01*
G01X626947Y567540D01*
G01X626940Y567498D01*
G01X626913Y567461D01*
G01X626886Y567443D01*
G01X626823Y567433D01*
G01X626635Y567466D01*
G01X626780Y567441D02*
G01X626885Y567188D01*
G01X627544Y567605D02*
G01X627058Y567010D01*
G01X627729Y567379D02*
G01X627733Y567402D01*
G01X627762Y567438D01*
G01X627786Y567454D01*
G01X627830Y567470D01*
G01X627912Y567455D01*
G01X627951Y567425D01*
G01X627967Y567402D01*
G01X627980Y567358D01*
G01X627973Y567316D01*
G01X627946Y567279D01*
G01X627895Y567224D01*
G01X627651Y567053D01*
G01X627941Y567001D01*
G01X628215Y567402D02*
G01X628241Y566948D01*
G01X628420Y567366D02*
G01X628241Y566948D01*
G01X628420Y567366D02*
G01X628446Y566912D01*
G01X628628Y567329D02*
G01X628446Y566912D01*
G04 //text: BYV26C*
G01X639927Y600788D02*
G01X639927Y600346D01*
G01X639927Y600788D02*
G01X640115Y600788D01*
G01X640179Y600765D01*
G01X640199Y600744D01*
G01X640220Y600704D01*
G01Y600661D01*
G01X640199Y600620D01*
G01X640179Y600597D01*
G01X640115Y600577D01*
G01X639927Y600577D02*
G01X640115Y600577D01*
G01X640179Y600556D01*
G01X640199Y600536D01*
G01X640220Y600493D01*
G01Y600429D01*
G01X640199Y600389D01*
G01X640179Y600368D01*
G01X640115Y600346D01*
G01X639927D01*
G01X640420Y600788D02*
G01X640588Y600577D01*
G01Y600346D01*
G01X640755Y600788D02*
G01X640588Y600577D01*
G01X640956Y600788D02*
G01X641124Y600346D01*
G01X641291Y600788D02*
G01X641124Y600346D01*
G01X641512Y600681D02*
G01X641512Y600704D01*
G01X641533Y600744D01*
G01X641556Y600765D01*
G01X641596Y600788D01*
G01X641680D01*
G01X641723Y600765D01*
G01X641744Y600744D01*
G01X641764Y600704D01*
G01Y600661D01*
G01X641744Y600620D01*
G01X641700Y600556D01*
G01X641492Y600346D01*
G01X641784D01*
G01X642236Y600724D02*
G01X642216Y600765D01*
G01X642152Y600788D01*
G01X642112D01*
G01X642048Y600765D01*
G01X642008Y600704D01*
G01X641985Y600597D01*
G01Y600493D01*
G01X642008Y600409D01*
G01X642048Y600368D01*
G01X642112Y600346D01*
G01X642132D01*
G01X642196Y600368D01*
G01X642236Y600409D01*
G01X642259Y600473D01*
G01Y600493D01*
G01X642236Y600556D01*
G01X642196Y600597D01*
G01X642132Y600620D01*
G01X642112D01*
G01X642048Y600597D01*
G01X642008Y600556D01*
G01X641985Y600493D01*
G01X642772Y600681D02*
G01X642752Y600724D01*
G01X642711Y600765D01*
G01X642668Y600788D01*
G01X642584D01*
G01X642544Y600765D01*
G01X642500Y600724D01*
G01X642480Y600681D01*
G01X642460Y600620D01*
G01Y600513D01*
G01X642480Y600452D01*
G01X642500Y600409D01*
G01X642544Y600368D01*
G01X642584Y600346D01*
G01X642668D01*
G01X642711Y600368D01*
G01X642752Y600409D01*
G01X642772Y600452D01*
G04 //text: D4*
G01X639420Y599583D02*
G01X639420Y600225D01*
G01X639420Y599583D02*
G01X639206Y599583D01*
G01X639115Y599613D01*
G01X639054Y599674D01*
G01X639023Y599735D01*
G01X638993Y599829D01*
G01Y599981D01*
G01X639023Y600073D01*
G01X639054Y600134D01*
G01X639115Y600195D01*
G01X639206Y600225D01*
G01X639420D01*
G01X638439Y599583D02*
G01X638747Y600012D01*
G01X638287D01*
G01X638439Y599583D02*
G01X638439Y600225D01*
G04 //text: 4.7U/50V*
G01X635297Y607542D02*
G01X635088Y607247D01*
G01X635401D01*
G01X635297Y607542D02*
G01X635297Y607100D01*
G01X635624Y607206D02*
G01X635601Y607183D01*
G01X635624Y607163D01*
G01X635645Y607183D01*
G01X635624Y607206D01*
G01X636137Y607542D02*
G01X635929Y607100D01*
G01X635845Y607542D02*
G01X636137Y607542D01*
G01X636338Y607542D02*
G01X636338Y607227D01*
G01X636361Y607163D01*
G01X636402Y607123D01*
G01X636465Y607100D01*
G01X636506D01*
G01X636569Y607123D01*
G01X636610Y607163D01*
G01X636633Y607227D01*
G01Y607542D01*
G01X637209Y607625D02*
G01X636833Y606955D01*
G01X637661Y607542D02*
G01X637453Y607542D01*
G01X637430Y607351D01*
G01X637453Y607374D01*
G01X637514Y607394D01*
G01X637578D01*
G01X637641Y607374D01*
G01X637682Y607331D01*
G01X637705Y607267D01*
G01Y607227D01*
G01X637682Y607163D01*
G01X637641Y607123D01*
G01X637578Y607100D01*
G01X637514D01*
G01X637453Y607123D01*
G01X637430Y607143D01*
G01X637410Y607183D01*
G01X638030Y607542D02*
G01X637966Y607519D01*
G01X637926Y607458D01*
G01X637905Y607351D01*
G01Y607290D01*
G01X637926Y607183D01*
G01X637966Y607123D01*
G01X638030Y607100D01*
G01X638073D01*
G01X638134Y607123D01*
G01X638177Y607183D01*
G01X638197Y607290D01*
G01Y607351D01*
G01X638177Y607458D01*
G01X638134Y607519D01*
G01X638073Y607542D01*
G01X638030D01*
G01X638398Y607542D02*
G01X638566Y607100D01*
G01X638733Y607542D02*
G01X638566Y607100D01*
G04 //text: C6*
G01X636176Y610608D02*
G01X636146Y610669D01*
G01X636085Y610730D01*
G01X636024Y610761D01*
G01X635902D01*
G01X635841Y610730D01*
G01X635780Y610669D01*
G01X635750Y610608D01*
G01X635719Y610514D01*
G01Y610362D01*
G01X635750Y610271D01*
G01X635780Y610210D01*
G01X635841Y610149D01*
G01X635902Y610118D01*
G01X636024D01*
G01X636085Y610149D01*
G01X636146Y610210D01*
G01X636176Y610271D01*
G01X636791Y610669D02*
G01X636761Y610730D01*
G01X636669Y610761D01*
G01X636608D01*
G01X636517Y610730D01*
G01X636453Y610639D01*
G01X636423Y610484D01*
G01Y610332D01*
G01X636453Y610210D01*
G01X636517Y610149D01*
G01X636608Y610118D01*
G01X636639D01*
G01X636730Y610149D01*
G01X636791Y610210D01*
G01X636822Y610301D01*
G01Y610332D01*
G01X636791Y610423D01*
G01X636730Y610484D01*
G01X636639Y610514D01*
G01X636608D01*
G01X636517Y610484D01*
G01X636453Y610423D01*
G01X636423Y610332D01*
G04 //text: 78L05*
G01X652976Y616397D02*
G01X652768Y615955D01*
G01X652684Y616397D02*
G01X652976Y616397D01*
G01X653281Y616397D02*
G01X653220Y616374D01*
G01X653197Y616334D01*
G01Y616290D01*
G01X653220Y616250D01*
G01X653261Y616229D01*
G01X653345Y616207D01*
G01X653408Y616186D01*
G01X653449Y616146D01*
G01X653472Y616102D01*
G01Y616039D01*
G01X653449Y615998D01*
G01X653428Y615978D01*
G01X653365Y615955D01*
G01X653281D01*
G01X653220Y615978D01*
G01X653197Y615998D01*
G01X653177Y616039D01*
G01Y616102D01*
G01X653197Y616146D01*
G01X653240Y616186D01*
G01X653304Y616207D01*
G01X653388Y616229D01*
G01X653428Y616250D01*
G01X653449Y616290D01*
G01Y616334D01*
G01X653428Y616374D01*
G01X653365Y616397D01*
G01X653281D01*
G01X653672Y616397D02*
G01X653672Y615955D01*
G01X653672Y615955D02*
G01X653924Y615955D01*
G01X654249Y616397D02*
G01X654185Y616374D01*
G01X654145Y616313D01*
G01X654122Y616207D01*
G01Y616146D01*
G01X654145Y616039D01*
G01X654185Y615978D01*
G01X654249Y615955D01*
G01X654289D01*
G01X654353Y615978D01*
G01X654396Y616039D01*
G01X654416Y616146D01*
G01Y616207D01*
G01X654396Y616313D01*
G01X654353Y616374D01*
G01X654289Y616397D01*
G01X654249D01*
G01X654869Y616397D02*
G01X654658Y616397D01*
G01X654637Y616207D01*
G01X654658Y616229D01*
G01X654721Y616250D01*
G01X654785D01*
G01X654848Y616229D01*
G01X654889Y616186D01*
G01X654909Y616123D01*
G01Y616082D01*
G01X654889Y616019D01*
G01X654848Y615978D01*
G01X654785Y615955D01*
G01X654721D01*
G01X654658Y615978D01*
G01X654637Y615998D01*
G01X654617Y616039D01*
G04 //text: U2*
G01X651564Y617123D02*
G01X651564Y617583D01*
G01X651534Y617675D01*
G01X651473Y617736D01*
G01X651381Y617766D01*
G01X651321D01*
G01X651229Y617736D01*
G01X651168Y617675D01*
G01X651138Y617583D01*
G01Y617123D01*
G01X650861Y617276D02*
G01X650861Y617245D01*
G01X650830Y617184D01*
G01X650797Y617154D01*
G01X650736Y617123D01*
G01X650614D01*
G01X650553Y617154D01*
G01X650523Y617184D01*
G01X650492Y617245D01*
G01Y617306D01*
G01X650523Y617370D01*
G01X650584Y617461D01*
G01X650891Y617766D01*
G01X650462D01*
G04 //text: J1*
G01X667965Y602558D02*
G01X667965Y603048D01*
G01X667995Y603139D01*
G01X668026Y603170D01*
G01X668087Y603200D01*
G01X668148D01*
G01X668209Y603170D01*
G01X668239Y603139D01*
G01X668270Y603048D01*
G01Y602987D01*
G01X667719Y602680D02*
G01X667658Y602649D01*
G01X667566Y602558D01*
G01Y603200D01*
G04 //text: F1*
G01X621047Y560436D02*
G01X620404Y560436D01*
G01X621047Y560436D02*
G01X621047Y560040D01*
G01X620740Y560436D02*
G01X620740Y560192D01*
G01X620925Y559794D02*
G01X620956Y559733D01*
G01X621047Y559639D01*
G01X620404D01*
G04 //text: CX1*
G01X670379Y620387D02*
G01X670348Y620448D01*
G01X670287Y620509D01*
G01X670226Y620540D01*
G01X670104D01*
G01X670044Y620509D01*
G01X669983Y620448D01*
G01X669952Y620387D01*
G01X669922Y620293D01*
G01Y620141D01*
G01X669952Y620050D01*
G01X669983Y619989D01*
G01X670044Y619928D01*
G01X670104Y619897D01*
G01X670226D01*
G01X670287Y619928D01*
G01X670348Y619989D01*
G01X670379Y620050D01*
G01X670625Y620540D02*
G01X671054Y619897D01*
G01X671054Y620540D02*
G01X670625Y619897D01*
G01X671301Y620418D02*
G01X671362Y620448D01*
G01X671453Y620540D01*
G01Y619897D01*
G04 //text: K3*
G54D11*
G01X710690Y596991D02*
G01X710299Y597510D01*
G01X710343Y596729D02*
G01X710430Y597335D01*
G01X710400Y597118D02*
G01X709952Y597248D01*
G01X710053Y596511D02*
G01X709781Y596306D01*
G01X709783Y596616D01*
G01X709708Y596559D01*
G01X709641Y596547D01*
G01X709595Y596553D01*
G01X709516Y596608D01*
G01X709477Y596659D01*
G01X709447Y596750D01*
G01X709459Y596839D01*
G01X709514Y596918D01*
G01X709589Y596975D01*
G01X709680Y597006D01*
G01X709727Y596999D01*
G01X709788Y596969D01*
G04 //text: K2*
G01X742844Y579758D02*
G01X742453Y580278D01*
G01X742498Y579497D02*
G01X742585Y580103D01*
G01X742554Y579886D02*
G01X742106Y580016D01*
G01X742141Y579422D02*
G01X742159Y579398D01*
G01X742171Y579327D01*
G01X742165Y579284D01*
G01X742134Y579223D01*
G01X742035Y579148D01*
G01X741968Y579136D01*
G01X741925Y579142D01*
G01X741861Y579173D01*
G01X741824Y579222D01*
G01X741814Y579290D01*
G01X741806Y579402D01*
G01X741867Y579836D01*
G01X741520Y579575D01*
G04 //text: EC5*
G54D10*
G01X652001Y614470D02*
G01X652001Y613827D01*
G01X652001Y614470D02*
G01X652398Y614470D01*
G01X652001Y614163D02*
G01X652245Y614163D01*
G01X652001Y613827D02*
G01X652398Y613827D01*
G01X653104Y614318D02*
G01X653073Y614379D01*
G01X653012Y614440D01*
G01X652951Y614470D01*
G01X652829D01*
G01X652768Y614440D01*
G01X652705Y614379D01*
G01X652674Y614318D01*
G01X652644Y614224D01*
G01Y614071D01*
G01X652674Y613980D01*
G01X652705Y613919D01*
G01X652768Y613858D01*
G01X652829Y613827D01*
G01X652951D01*
G01X653012Y613858D01*
G01X653073Y613919D01*
G01X653104Y613980D01*
G01X653718Y614470D02*
G01X653411Y614470D01*
G01X653381Y614193D01*
G01X653411Y614224D01*
G01X653502Y614257D01*
G01X653594D01*
G01X653688Y614224D01*
G01X653749Y614163D01*
G01X653779Y614071D01*
G01Y614010D01*
G01X653749Y613919D01*
G01X653688Y613858D01*
G01X653594Y613827D01*
G01X653502D01*
G01X653411Y613858D01*
G01X653381Y613888D01*
G01X653350Y613949D01*
G04 //text: 470U/25V*
G01X651160Y608282D02*
G01X650951Y607987D01*
G01X651264D01*
G01X651160Y608282D02*
G01X651160Y607840D01*
G01X651759Y608282D02*
G01X651548Y607840D01*
G01X651464Y608282D02*
G01X651759Y608282D01*
G01X652084Y608282D02*
G01X652023Y608259D01*
G01X651980Y608198D01*
G01X651960Y608091D01*
G01Y608030D01*
G01X651980Y607923D01*
G01X652023Y607863D01*
G01X652084Y607840D01*
G01X652127D01*
G01X652191Y607863D01*
G01X652232Y607923D01*
G01X652252Y608030D01*
G01Y608091D01*
G01X652232Y608198D01*
G01X652191Y608259D01*
G01X652127Y608282D01*
G01X652084D01*
G01X652453Y608282D02*
G01X652453Y607967D01*
G01X652473Y607903D01*
G01X652516Y607863D01*
G01X652580Y607840D01*
G01X652620D01*
G01X652684Y607863D01*
G01X652724Y607903D01*
G01X652747Y607967D01*
G01Y608282D01*
G01X653324Y608365D02*
G01X652948Y607695D01*
G01X653545Y608175D02*
G01X653545Y608198D01*
G01X653568Y608238D01*
G01X653588Y608259D01*
G01X653629Y608282D01*
G01X653712D01*
G01X653756Y608259D01*
G01X653776Y608238D01*
G01X653796Y608198D01*
G01Y608155D01*
G01X653776Y608114D01*
G01X653735Y608050D01*
G01X653524Y607840D01*
G01X653819D01*
G01X654271Y608282D02*
G01X654060Y608282D01*
G01X654040Y608091D01*
G01X654060Y608114D01*
G01X654124Y608134D01*
G01X654187D01*
G01X654248Y608114D01*
G01X654291Y608071D01*
G01X654312Y608007D01*
G01Y607967D01*
G01X654291Y607903D01*
G01X654248Y607863D01*
G01X654187Y607840D01*
G01X654124D01*
G01X654060Y607863D01*
G01X654040Y607883D01*
G01X654020Y607923D01*
G01X654512Y608282D02*
G01X654680Y607840D01*
G01X654848Y608282D02*
G01X654680Y607840D01*
G04 Text End*

G04 PolygonModel Start*
G01X700590Y619435D02*
G01X700804Y620024D01*
G01X700286Y619836D02*
G01X701054Y619556D01*
G01X690872Y614223D02*
G01X690104Y614503D01*
G01X690568Y614624D02*
G01X690354Y614035D01*
G01X661386Y617587D02*
G01X661495Y616970D01*
G01X661850Y617392D02*
G01X661045Y617250D01*
G01X660684Y609995D02*
G01X660575Y610612D01*
G01X660220Y610190D02*
G01X661025Y610332D01*
G01X653590Y611395D02*
G01X654085Y610538D01*
G01X653277Y610721D02*
G01X654291Y611307D01*
G01X632845Y595534D02*
G01X633545Y594834D01*
G01X632717Y594802D02*
G01X633545Y595630D01*
G01X625962Y591263D02*
G01X626662Y590563D01*
G01X625834Y590531D02*
G01X626662Y591359D01*
G01X626462Y577645D02*
G01X626462Y583663D01*
G01X613499Y577645D02*
G01X626462Y577645D01*
G01X613499Y577645D02*
G01X613499Y583663D01*
G01X613499Y583663D02*
G01X626462Y583663D01*
G01X614377Y572624D02*
G01X614377Y576559D01*
G01X614377Y576559D02*
G01X623244Y576559D01*
G01X623244Y572624D02*
G01X623244Y576559D01*
G01X614377Y572624D02*
G01X623244Y572624D01*
G01X623257Y566986D02*
G01X623257Y571947D01*
G01X614780Y566986D02*
G01X623257Y566986D01*
G01X614780Y566986D02*
G01X614780Y571947D01*
G01X614780Y571947D02*
G01X623257Y571947D01*
G01X616735Y553536D02*
G01X616735Y558497D01*
G01X608257Y553536D02*
G01X616735Y553536D01*
G01X608257Y553536D02*
G01X608257Y558497D01*
G01X608257Y558497D02*
G01X616735Y558497D01*
G01X732729Y571347D02*
G01X728433Y568867D01*
G01X736968Y564005D02*
G01X732729Y571347D01*
G01X736968Y564005D02*
G01X732671Y561525D01*
G01X732671Y561525D02*
G01X728433Y568867D01*
G01X740918Y576706D02*
G01X736854Y573861D01*
G01X745780Y569762D02*
G01X740918Y576706D01*
G01X745780Y569762D02*
G01X741716Y566916D01*
G01X741716Y566916D02*
G01X736854Y573861D01*
G01X622575Y589608D02*
G01X628381Y596527D01*
G01X618755Y592814D02*
G01X622575Y589608D01*
G01X618755Y592814D02*
G01X624560Y599733D01*
G01X624560Y599733D02*
G01X628381Y596527D01*
G01X625574Y562060D02*
G01X632128Y570019D01*
G01X628868Y572733D02*
G01X632128Y570019D01*
G01X622343Y564873D02*
G01X628868Y572733D01*
G01X622343Y564873D02*
G01X625536Y562104D01*
G01X640027Y597279D02*
G01X642718Y597279D01*
G01X640027Y597279D02*
G01X640027Y603753D01*
G01X640027Y603753D02*
G01X642718Y603753D01*
G01X642718Y597279D02*
G01X642718Y603753D01*
G01X640099Y602531D02*
G01X642696Y602531D01*
G01X636856Y608960D02*
G01X637482Y609485D01*
G01X636952Y609502D02*
G01X637355Y609023D01*
G01X653187Y618570D02*
G03X655642Y614674I1227J-1948D01*
G01X671301Y602771D02*
G01X683900Y602771D01*
G01X621416Y561123D02*
G01X621416Y565892D01*
G01X621416Y561123D02*
G01X610507Y561123D01*
G01X610507Y561123D02*
G01X610507Y565892D01*
G01X621416Y565892D02*
G01X610507Y565892D01*
G01X620244Y563350D02*
G01X609754Y563350D01*
G01X672319Y617768D02*
G01X686115Y617032D01*
G01X672319Y617768D02*
G01X672553Y623389D01*
G01X672553Y623389D02*
G01X675517Y623205D01*
G01X675517Y622686D02*
G01X675517Y623205D01*
G01X675517Y622686D02*
G01X678129Y622686D01*
G01X678129Y622686D02*
G01X678129Y623021D01*
G01X678129Y623021D02*
G01X680557Y623021D01*
G01X680557Y622419D02*
G01X680557Y623021D01*
G01X680557Y622419D02*
G01X683319Y622419D01*
G01X683319Y622419D02*
G01X683319Y622686D01*
G01X683319Y622686D02*
G01X686283Y622686D01*
G01X685998Y617015D02*
G01X686283Y622686D01*
G01X671716Y617249D02*
G01X686584Y616446D01*
G01X671716Y617249D02*
G01X672118Y623874D01*
G01X672118Y623874D02*
G01X686869Y623205D01*
G01X686618Y616362D02*
G01X686869Y623205D01*
G54D12*
G01X732840Y582200D02*
G01X735818Y578248D01*
G01X728597Y587831D02*
G01X731575Y583879D01*
G01X728597Y587831D02*
G01X729409Y588444D01*
G01X735818Y578248D02*
G01X736631Y578860D01*
G01X722090Y580746D02*
G01X724464Y577595D01*
G01X725887Y577399D02*
G01X725537Y575122D01*
G01X737076Y584454D02*
G01X738236Y582915D01*
G01X738236Y582915D02*
G01X731339Y577718D01*
G01X731339Y577718D02*
G01X729533Y580114D01*
G01X729533Y580114D02*
G01X729500Y580119D01*
G01X729500Y580119D02*
G01X726292Y577702D01*
G01X726292Y577702D02*
G01X725887Y577396D01*
G54D13*
G01X717296Y581570D02*
G01X732630Y593125D01*
G01X726685Y569111D02*
G01X742019Y580666D01*
G01X717296Y581570D02*
G01X726685Y569111D01*
G01X727263Y573996D02*
G01X725922Y575775D01*
G01X742019Y580666D02*
G01X737502Y586660D01*
G01X737147Y587131D02*
G01X732630Y593125D01*
G54D12*
G01X723315Y594900D02*
G01X726293Y590948D01*
G01X719072Y600531D02*
G01X722050Y596579D01*
G01X719072Y600531D02*
G01X719884Y601144D01*
G01X726293Y590948D02*
G01X727106Y591560D01*
G01X712565Y593446D02*
G01X714939Y590295D01*
G01X716362Y590099D02*
G01X716012Y587822D01*
G01X727551Y597154D02*
G01X728711Y595615D01*
G01X728711Y595615D02*
G01X721814Y590418D01*
G01X721814Y590418D02*
G01X720008Y592814D01*
G01X720008Y592814D02*
G01X719975Y592819D01*
G01X719975Y592819D02*
G01X716767Y590402D01*
G01X716767Y590402D02*
G01X716362Y590096D01*
G54D13*
G01X707771Y594270D02*
G01X723105Y605825D01*
G01X717160Y581811D02*
G01X732494Y593366D01*
G01X707771Y594270D02*
G01X717160Y581811D01*
G01X717738Y586696D02*
G01X716397Y588475D01*
G01X732494Y593366D02*
G01X727977Y599360D01*
G01X727622Y599831D02*
G01X723105Y605825D01*
G04 PolygonModel End*

G04 Rect Start*
G01X733994Y583133D02*
G01X732790Y584730D01*
G01X730394Y582925D01*
G01X731598Y581328D01*
G01X733994Y583133D01*
G01X724469Y595833D02*
G01X723265Y597430D01*
G01X720869Y595625D01*
G01X722073Y594028D01*
G01X724469Y595833D01*
G04 Rect End*

G04 Circle Start*
G54D10*
G01X702294Y610004D02*
G03X715342Y610004I6524J0D01*
G03X702294I-6524J0D01*
G01X696575Y618987D02*
G03X701367Y618987I2396J0D01*
G03X696575I-2396J0D01*
G01X689791Y615072D02*
G03X694583Y615072I2396J0D01*
G03X689791I-2396J0D01*
G01X660168Y618784D02*
G03X664960Y618784I2396J0D01*
G03X660168I-2396J0D01*
G01X657110Y608798D02*
G03X661902Y608798I2396J0D01*
G03X657110I-2396J0D01*
G01X639709Y610888D02*
G03X648917Y610888I4604J0D01*
G03X639709I-4604J0D01*
G01X648961Y608137D02*
G03X656884Y608137I3962J0D01*
G03X648961I-3962J0D01*
G01X629082Y592214D02*
G03X637005Y592214I3962J0D01*
G03X629082I-3962J0D01*
G01X622199Y587943D02*
G03X630122Y587943I3962J0D01*
G03X622199I-3962J0D01*
G01X623171Y565571D02*
G03X628048Y565571I2438J0D01*
G03X623171I-2438J0D01*
G01X634538Y607397D02*
G03X639330Y607397I2396J0D01*
G03X634538I-2396J0D01*
G04 Circle End*

M02*
