G04 Layer: BottomPasteMaskLayer*
G04 EasyEDA Pro v1.9.29.eba1c1, 2023-03-01 16:56:33*
G04 Gerber Generator version 0.3*
G04 Scale: 100 percent, Rotated: No, Reflected: No*
G04 Dimensions in millimeters*
G04 Leading zeros omitted, absolute positions, 3 integers and 3 decimals*
%FSLAX33Y33*%
%MOMM*%
%AMRect*21,1,$1,$2,0,0,$3*%
%AMOval*1,1,$1,$2,$3*1,1,$1,$4,$5*20,1,$1,$2,$3,$4,$5,0*%
%ADD10C,0.0254*%
%ADD11R,1.3X1.899999*%
%ADD12Rect,1.3X1.899999X-138.0*%
%ADD13Rect,1.3X1.899999X132.0*%
%ADD14Rect,1.3X1.899999X165.0*%
%ADD15Rect,1.3X1.899999X138.0*%
%ADD16Rect,1.3X1.899999X-150.0*%
%ADD17R,1.4X1.000001*%
%ADD18Rect,1.4X1.000001X30.0*%
%ADD19R,1.000001X1.4*%
%ADD20R,1.000001X1.4*%
%ADD21Rect,1.4X1.000001X-40.0*%
%ADD22Rect,1.4X1.000001X-150.0*%
%ADD23Rect,1.4X1.000001X167.0*%
%ADD24Rect,1.4X1.000001X135.0*%
%ADD25Rect,1.4X1.000001X140.0*%
%ADD26Rect,1.4X1.000001X300.0*%
%ADD27Rect,1.3X1.899999X120.0*%
%ADD28R,1.799999X1.799999*%
%ADD29Rect,1.799999X1.799999X-150.0*%
%ADD30Rect,1.799999X1.799999X40.0*%
%ADD31Rect,1.799999X1.799999X35.0*%
%ADD32Oval,0.700001X-0.536231X-0.449951X0.536231X0.449951*%
%ADD33Rect,0.850001X1.2X140.0*%
%ADD34Rect,1.3X0.900001X140.0*%
%ADD35Rect,0.850001X1.2X-15.0*%
%ADD36Rect,1.3X0.900001X-15.0*%
%ADD37Rect,1.4X1.000001X157.0*%
%ADD38R,1.699999X1.45*%
%ADD39R,1.000001X1.4*%
%ADD40Oval,0.573989X0.25036X0.687857X-0.25036X-0.687857*%
%ADD41Rect,1.3X1.899999X-115.0*%
%ADD42Rect,0.799998X0.899998X70.0*%
%ADD43R,0.532003X1.072007*%
%ADD44Rect,1.4X1.000001X70.0*%
G75*


G04 PolygonModel Start*
G36*
G01X690937Y610663D02*
G01X691211Y611415D01*
G01X691275Y611445D01*
G01X691489Y611367D01*
G01X691363Y611019D01*
G01X691673Y610906D01*
G01X691799Y611254D01*
G01X692027Y611171D01*
G01X692057Y611107D01*
G01X691783Y610355D01*
G01X691719Y610325D01*
G01X690967Y610599D01*
G01X690937Y610663D01*
G37*
G54D10*
G01X690937Y610663D02*
G01X691211Y611415D01*
G01X691275Y611445D01*
G01X691489Y611367D01*
G01X691363Y611019D01*
G01X691673Y610906D01*
G01X691799Y611254D01*
G01X692027Y611171D01*
G01X692057Y611107D01*
G01X691783Y610355D01*
G01X691719Y610325D01*
G01X690967Y610599D01*
G01X690937Y610663D01*
G36*
G01X691515Y612102D02*
G01X691729Y612024D01*
G01X691859Y612381D01*
G01X692169Y612269D01*
G01X692039Y611912D01*
G01X692266Y611829D01*
G01X692330Y611859D01*
G01X692601Y612601D01*
G01X692571Y612665D01*
G01X691819Y612939D01*
G01X691755Y612909D01*
G01X691485Y612166D01*
G01X691515Y612102D01*
G37*
G01X691515Y612102D02*
G01X691729Y612024D01*
G01X691859Y612381D01*
G01X692169Y612269D01*
G01X692039Y611912D01*
G01X692266Y611829D01*
G01X692330Y611859D01*
G01X692601Y612601D01*
G01X692571Y612665D01*
G01X691819Y612939D01*
G01X691755Y612909D01*
G01X691485Y612166D01*
G01X691515Y612102D01*
G04 PolygonModel End*

G04 Pad Start*
G54D11*
G01X616478Y578688D03*
G01X619768Y578688D03*
G01X621954Y578688D03*
G01X625244Y578688D03*
G54D12*
G01X629128Y602274D03*
G01X631573Y604475D03*
G54D13*
G01X637472Y602420D03*
G01X639673Y599975D03*
G01X638990Y604716D03*
G01X641191Y602271D03*
G01X633148Y606389D03*
G01X635350Y603944D03*
G54D11*
G01X686365Y613154D03*
G01X689655Y613154D03*
G54D14*
G01X692321Y618931D03*
G01X695499Y618079D03*
G54D15*
G01X713659Y606992D03*
G01X716104Y604791D03*
G54D16*
G01X729864Y594292D03*
G01X732713Y595936D03*
G54D17*
G01X661718Y610463D03*
G01X661718Y608443D03*
G54D18*
G01X661060Y615925D03*
G01X662070Y614176D03*
G54D19*
G01X665962Y609552D03*
G01X663942Y609552D03*
G54D20*
G01X670153Y609552D03*
G01X668133Y609552D03*
G54D21*
G01X625815Y597091D03*
G01X624517Y595544D03*
G54D22*
G01X652126Y614625D03*
G01X651116Y616374D03*
G01X659994Y617626D03*
G01X658984Y619375D03*
G54D23*
G01X689814Y617473D03*
G01X690269Y619440D03*
G54D24*
G01X710937Y602950D03*
G01X712365Y604378D03*
G01X712842Y601045D03*
G01X714270Y602473D03*
G54D25*
G01X717486Y606836D03*
G01X718784Y608383D03*
G54D26*
G01X657454Y612242D03*
G01X655705Y611232D03*
G54D27*
G01X648410Y609008D03*
G01X650055Y606159D03*
G54D28*
G01X617554Y585554D03*
G01X617580Y581509D03*
G01X621867Y589610D03*
G01X621894Y585565D03*
G54D29*
G01X637720Y609614D03*
G01X641210Y611660D03*
G54D30*
G01X725627Y604339D03*
G01X722546Y601718D03*
G54D31*
G01X735661Y593011D03*
G01X732362Y590669D03*
G54D32*
G01X631227Y597824D03*
G01X632043Y596851D03*
G01X632859Y595878D03*
G01X633676Y594905D03*
G01X637423Y598050D03*
G01X636607Y599023D03*
G01X635790Y599996D03*
G01X634974Y600968D03*
G54D33*
G01X719205Y605657D03*
G01X720557Y607268D03*
G54D34*
G01X721543Y605191D03*
G54D35*
G01X688441Y620128D03*
G01X687896Y618096D03*
G54D36*
G01X686124Y619562D03*
G54D33*
G01X714760Y599434D03*
G01X716112Y601045D03*
G54D34*
G01X717098Y598968D03*
G54D37*
G01X708159Y613826D03*
G01X708948Y615685D03*
G54D38*
G01X679826Y609349D03*
G01X679826Y612359D03*
G54D39*
G01X686969Y608251D03*
G01X688989Y608251D03*
G01X686969Y610664D03*
G01X688989Y610664D03*
G54D38*
G01X676905Y609349D03*
G01X676905Y612359D03*
G54D40*
G01X694508Y614103D03*
G01X695702Y613669D03*
G01X696895Y613235D03*
G01X698088Y612800D03*
G01X699282Y612366D03*
G01X700475Y611932D03*
G01X701669Y611497D03*
G01X702862Y611063D03*
G01X692614Y608899D03*
G01X693807Y608465D03*
G01X695001Y608030D03*
G01X696194Y607596D03*
G01X697388Y607162D03*
G01X698581Y606727D03*
G01X699774Y606293D03*
G01X700968Y605859D03*
G54D41*
G01X704759Y603942D03*
G01X706150Y606924D03*
G54D42*
G01X704073Y608734D03*
G01X703595Y607418D03*
G54D43*
G01X667827Y612261D03*
G01X666877Y612261D03*
G01X665927Y612261D03*
G01X665927Y614559D03*
G01X666877Y614559D03*
G01X667827Y614559D03*
G54D17*
G01X669973Y614273D03*
G01X669973Y612253D03*
G54D44*
G01X696999Y615885D03*
G01X698897Y615194D03*
G04 Pad End*

M02*
