G04 Layer: BottomLayer*
G04 EasyEDA Pro v1.9.29.eba1c1, 2023-03-01 16:56:33*
G04 Gerber Generator version 0.3*
G04 Scale: 100 percent, Rotated: No, Reflected: No*
G04 Dimensions in millimeters*
G04 Leading zeros omitted, absolute positions, 3 integers and 3 decimals*
%FSLAX33Y33*%
%MOMM*%
%AMOval*1,1,$1,$2,$3*1,1,$1,$4,$5*20,1,$1,$2,$3,$4,$5,0*%
%AMRect*21,1,$1,$2,0,0,$3*%
%ADD999C,0.2032*%
%ADD10C,2.5*%
%ADD11C,2.159*%
%ADD12C,2.413*%
%ADD13C,0.0254*%
%ADD14C,2.000001*%
%ADD15C,1.952219*%
%ADD16C,1.7920*%
%ADD17C,1.789095*%
%ADD18Oval,1.5X0.049438X0.13583X-0.049438X-0.13583*%
%ADD19C,2.412926*%
%ADD20C,2.412921*%
%ADD21C,2.291243*%
%ADD22C,2.161591*%
%ADD23C,2.240384*%
%ADD24Oval,3.180001X0.409999X0.0X-0.409999X0.0*%
%ADD25Oval,3.180001X-0.205X0.35507X0.205X-0.35507*%
%ADD26Oval,3.180001X-0.235166X0.335852X0.235166X-0.335852*%
%ADD27C,2.465913*%
%ADD28C,2.465908*%
%ADD29C,2.100001*%
%ADD30C,2.567109*%
%ADD31C,1.78909*%
%ADD32C,1.804939*%
%ADD33C,1.804934*%
%ADD34C,2.119452*%
%ADD35C,1.672984*%
%ADD36C,1.672989*%
%ADD37R,1.3X1.899999*%
%ADD38Rect,1.3X1.899999X-138.0*%
%ADD39Rect,1.3X1.899999X132.0*%
%ADD40Rect,1.3X1.899999X165.0*%
%ADD41Rect,1.3X1.899999X138.0*%
%ADD42Rect,1.3X1.899999X-150.0*%
%ADD43R,1.4X1.000001*%
%ADD44Rect,1.4X1.000001X30.0*%
%ADD45R,1.000001X1.4*%
%ADD46R,1.000001X1.4*%
%ADD47Rect,1.4X1.000001X-40.0*%
%ADD48Rect,1.4X1.000001X-150.0*%
%ADD49Rect,1.4X1.000001X167.0*%
%ADD50Rect,1.4X1.000001X135.0*%
%ADD51Rect,1.4X1.000001X140.0*%
%ADD52Rect,1.4X1.000001X300.0*%
%ADD53Rect,1.3X1.899999X120.0*%
%ADD54R,1.799999X1.799999*%
%ADD55Rect,1.799999X1.799999X-150.0*%
%ADD56Rect,1.799999X1.799999X40.0*%
%ADD57Rect,1.799999X1.799999X35.0*%
%ADD58Oval,0.700001X-0.536231X-0.449951X0.536231X0.449951*%
%ADD59Rect,0.850001X1.2X140.0*%
%ADD60Rect,1.3X0.900001X140.0*%
%ADD61Rect,0.850001X1.2X-15.0*%
%ADD62Rect,1.3X0.900001X-15.0*%
%ADD63C,2.436073*%
%ADD64Rect,1.4X1.000001X157.0*%
%ADD65R,1.699999X1.45*%
%ADD66R,1.000001X1.4*%
%ADD67Oval,0.573989X0.25036X0.687857X-0.25036X-0.687857*%
%ADD68Rect,1.3X1.899999X-115.0*%
%ADD69Rect,0.799998X0.899998X70.0*%
%ADD70Rect,0.806475X0.864006X250.0*%
%ADD71R,0.532003X1.072007*%
%ADD72Rect,1.4X1.000001X70.0*%
%ADD73C,2.794*%
%ADD74C,1.143*%
%ADD75C,0.599999*%
%ADD76C,0.800001*%
%ADD77C,0.700001*%
%ADD78C,1.000001*%
%ADD79C,0.499999*%
%ADD80C,0.299999*%
%ADD81C,0.508*%
%ADD82C,0.762*%
%ADD83C,0.254*%
%ADD84C,2.54*%
%ADD85C,0.381*%
%ADD86C,0.650001*%
%ADD87C,0.650001*%
%ADD88C,2.032*%
%ADD89C,2.286*%
%ADD90C,2.99974*%
%ADD91C,1.016*%
%ADD92C,0.635*%
G75*


G04 Copper Start*
G36*
G01X617930Y559638D02*
G01X616241Y553291D01*
G01X608178Y553313D01*
G01Y558444D01*
G01X614807D01*
G03X614843Y558451I0J102D01*
G01X617930Y559638D01*
G37*
G36*
G01X610801Y569067D02*
G01X610801Y574756D01*
G01X614337Y580816D01*
G01X615441Y581920D01*
G01X618091D01*
G01Y580515D01*
G01X617225Y579649D01*
G01X616724Y579148D01*
G03X616694Y579076I72J-72D01*
G01Y576122D01*
G01X615864Y575293D01*
G01X614095D01*
G03X614023Y575263I0J-102D01*
G01X612612Y573852D01*
G01X611999Y573239D01*
G03X611969Y573167I72J-72D01*
G01Y569320D01*
G01X610801Y569067D01*
G37*
G36*
G01X623197Y571081D02*
G01X622060Y568076D01*
G01X616636Y568152D01*
G01X616432Y570756D01*
G01X621473Y572705D01*
G03X621530Y572760I-37J95D01*
G01X621992Y573843D01*
G01X624017Y575222D01*
G03X624061Y575291I-57J84D01*
G01X624829Y580664D01*
G01X625515Y580257D01*
G03X625100Y579138I1302J-1119D01*
G01Y577114D01*
G01X624692Y574371D01*
G01X624690Y574356D01*
G01Y572587D01*
G01X623220Y571117D01*
G03X623197Y571081I72J-72D01*
G37*
G36*
G01X619333Y588486D02*
G01X618572Y589757D01*
G01X623893Y595688D01*
G01X624868Y595104D01*
G01X625453Y588791D01*
G01X625148Y588486D01*
G01X619333D01*
G37*
G36*
G01X634277Y600419D02*
G01X633596Y600833D01*
G01X632649Y602200D01*
G01X635336Y604887D01*
G03X635366Y604959I-72J72D01*
G01X635365Y604965D01*
G01X635188Y608010D01*
G01X637978Y610193D01*
G01X638504Y609352D01*
G01X636432Y607767D01*
G01X636067Y607645D01*
G03X635998Y607555I32J-96D01*
G01X635797Y604052D01*
G01X635211Y602759D01*
G03X635202Y602717I93J-42D01*
G03X635207Y602685I102J0D01*
G01X635654Y601321D01*
G01X634277Y600419D01*
G37*
G36*
G01X649892Y608801D02*
G01X647310Y607844D01*
G01X644380Y610773D01*
G03X644308Y610803I-72J-72D01*
G01X641151D01*
G01X640551Y612077D01*
G01X643699Y613772D01*
G01X647705Y609476D01*
G03X647779Y609444I74J69D01*
G01X649740Y609445D01*
G01X649892Y608801D01*
G37*
G36*
G01X648507Y608799D02*
G01X647459Y608915D01*
G01X643631Y614262D01*
G01X646150Y616371D01*
G01X652365Y618804D01*
G01X652749Y618419D01*
G01X651193Y616066D01*
G01X650676Y615284D01*
G01X647381Y612707D01*
G03X647342Y612627I63J-80D01*
G03X647363Y612565I102J0D01*
G01X649481Y609820D01*
G01X648507Y608799D01*
G37*
G36*
G01X673949Y621121D02*
G01X672181Y622889D01*
G01X676061Y623228D01*
G03X675999Y623170I720J-840D01*
G01X673949Y621121D01*
G37*
G54D999*
G01X617930Y559638D02*
G01X616241Y553291D01*
G01X608178Y553313D01*
G01Y558444D01*
G01X614807D01*
G03X614843Y558451I0J102D01*
G01X617930Y559638D01*
G01X610801Y569067D02*
G01X610801Y574756D01*
G01X614337Y580816D01*
G01X615441Y581920D01*
G01X618091D01*
G01Y580515D01*
G01X617225Y579649D01*
G01X616724Y579148D01*
G03X616694Y579076I72J-72D01*
G01Y576122D01*
G01X615864Y575293D01*
G01X614095D01*
G03X614023Y575263I0J-102D01*
G01X612612Y573852D01*
G01X611999Y573239D01*
G03X611969Y573167I72J-72D01*
G01Y569320D01*
G01X610801Y569067D01*
G01X623197Y571081D02*
G01X622060Y568076D01*
G01X616636Y568152D01*
G01X616432Y570756D01*
G01X621473Y572705D01*
G03X621530Y572760I-37J95D01*
G01X621992Y573843D01*
G01X624017Y575222D01*
G03X624061Y575291I-57J84D01*
G01X624829Y580664D01*
G01X625515Y580257D01*
G03X625100Y579138I1302J-1119D01*
G01Y577114D01*
G01X624692Y574371D01*
G01X624690Y574356D01*
G01Y572587D01*
G01X623220Y571117D01*
G03X623197Y571081I72J-72D01*
G01X619333Y588486D02*
G01X618572Y589757D01*
G01X623893Y595688D01*
G01X624868Y595104D01*
G01X625453Y588791D01*
G01X625148Y588486D01*
G01X619333D01*
G01X634277Y600419D02*
G01X633596Y600833D01*
G01X632649Y602200D01*
G01X635336Y604887D01*
G03X635366Y604959I-72J72D01*
G01X635365Y604965D01*
G01X635188Y608010D01*
G01X637978Y610193D01*
G01X638504Y609352D01*
G01X636432Y607767D01*
G01X636067Y607645D01*
G03X635998Y607555I32J-96D01*
G01X635797Y604052D01*
G01X635211Y602759D01*
G03X635202Y602717I93J-42D01*
G03X635207Y602685I102J0D01*
G01X635654Y601321D01*
G01X634277Y600419D01*
G01X649892Y608801D02*
G01X647310Y607844D01*
G01X644380Y610773D01*
G03X644308Y610803I-72J-72D01*
G01X641151D01*
G01X640551Y612077D01*
G01X643699Y613772D01*
G01X647705Y609476D01*
G03X647779Y609444I74J69D01*
G01X649740Y609445D01*
G01X649892Y608801D01*
G01X648507Y608799D02*
G01X647459Y608915D01*
G01X643631Y614262D01*
G01X646150Y616371D01*
G01X652365Y618804D01*
G01X652749Y618419D01*
G01X651193Y616066D01*
G01X650676Y615284D01*
G01X647381Y612707D01*
G03X647342Y612627I63J-80D01*
G03X647363Y612565I102J0D01*
G01X649481Y609820D01*
G01X648507Y608799D01*
G01X673949Y621121D02*
G01X672181Y622889D01*
G01X676061Y623228D01*
G03X675999Y623170I720J-840D01*
G01X673949Y621121D01*
G04 Copper End*

G04 PolygonModel Start*
G54D10*
G01X670124Y603130D02*
G03X628142Y561467I6873J-48908D01*
G54D11*
G01X723138Y595630D02*
G01X726329Y598664D01*
G54D12*
G01X728734Y577239D02*
G01X727926Y586024D01*
G36*
G01X621984Y586364D02*
G01X617876Y586364D01*
G01Y584566D01*
G01X621984D01*
G01Y586364D01*
G37*
G54D13*
G01X621984Y586364D02*
G01X617876Y586364D01*
G01Y584566D01*
G01X621984D01*
G01Y586364D01*
G36*
G01X734441Y575691D02*
G01X732409Y577850D01*
G01X731901Y583565D01*
G01X736092Y587756D01*
G01X738251Y585216D01*
G01X734949Y581914D01*
G01X735203Y578612D01*
G01X738124Y575818D01*
G02X740664Y577215I5438J-6880D01*
G01X745871Y569722D01*
G02X741807Y566928I-10886J11481D01*
G01X738378Y570738D01*
G01X734441Y575691D01*
G37*
G01X734441Y575691D02*
G01X732409Y577850D01*
G01X731901Y583565D01*
G01X736092Y587756D01*
G01X738251Y585216D01*
G01X734949Y581914D01*
G01X735203Y578612D01*
G01X738124Y575818D01*
G02X740664Y577215I5438J-6880D01*
G01X745871Y569722D01*
G02X741807Y566928I-10886J11481D01*
G01X738378Y570738D01*
G01X734441Y575691D01*
G36*
G01X626067Y597008D02*
G01X628015Y595249D01*
G01X630936Y592455D01*
G01X631317Y592709D01*
G01X632460Y592963D01*
G01X633095Y593852D01*
G01X629666Y598043D01*
G01X630682Y600202D01*
G01X628734Y602723D01*
G01X625913Y598418D01*
G01X625348Y597662D01*
G01X626067Y597008D01*
G37*
G01X626067Y597008D02*
G01X628015Y595249D01*
G01X630936Y592455D01*
G01X631317Y592709D01*
G01X632460Y592963D01*
G01X633095Y593852D01*
G01X629666Y598043D01*
G01X630682Y600202D01*
G01X628734Y602723D01*
G01X625913Y598418D01*
G01X625348Y597662D01*
G01X626067Y597008D01*
G36*
G01X731774Y561467D02*
G01X727837Y569087D01*
G01X731774Y571754D01*
G01X727075Y577723D01*
G01X729869Y578231D01*
G01X734060Y572389D01*
G01X738632Y565023D01*
G01X731774Y561467D01*
G37*
G01X731774Y561467D02*
G01X727837Y569087D01*
G01X731774Y571754D01*
G01X727075Y577723D01*
G01X729869Y578231D01*
G01X734060Y572389D01*
G01X738632Y565023D01*
G01X731774Y561467D01*
G36*
G01X710565Y612648D02*
G01X710438Y610997D01*
G01X715988Y612446D01*
G01X711038Y615721D01*
G01X710565Y612648D01*
G37*
G01X710565Y612648D02*
G01X710438Y610997D01*
G01X715988Y612446D01*
G01X711038Y615721D01*
G01X710565Y612648D01*
G54D14*
G01X715137Y588010D02*
G03X685800Y602778I-35282J-33567D01*
G04 PolygonModel End*

G04 Pad Start*
G54D15*
G01X710878Y611623D03*
G01X707015Y608275D03*
G54D17*
G01X699103Y620140D03*
G01X698392Y618189D03*
G54D18*
G01X692766Y615870D03*
G54D17*
G01X692055Y613919D03*
G01X663027Y617720D03*
G01X662666Y619765D03*
G01X659043Y609862D03*
G01X659404Y607817D03*
G54D19*
G01X644003Y608356D03*
G54D20*
G01X644897Y613428D03*
G54D21*
G01X652012Y609628D03*
G01X653766Y606590D03*
G01X631779Y593418D03*
G01X634259Y590937D03*
G01X624896Y589147D03*
G01X627376Y586667D03*
G54D22*
G01X625098Y580689D03*
G01X615001Y580737D03*
G54D23*
G01X616338Y575875D03*
G01X621351Y573054D03*
G54D24*
G01X616627Y569341D03*
G01X621822Y569341D03*
G01X610105Y555892D03*
G01X615300Y555892D03*
G54D25*
G01X734004Y564428D03*
G01X731407Y568927D03*
G54D26*
G01X742791Y569925D03*
G01X739811Y574180D03*
G54D27*
G01X627948Y599898D03*
G54D28*
G01X619202Y589543D03*
G54D29*
G01X625560Y565361D03*
G01X629378Y570124D03*
G54D30*
G01X641413Y595607D03*
G01X641440Y605679D03*
G54D31*
G01X637623Y606330D03*
G01X635910Y608372D03*
G54D32*
G01X653368Y618434D03*
G54D33*
G01X654426Y616602D03*
G54D32*
G01X655483Y614770D03*
G54D34*
G01X685342Y602848D03*
G01X670320Y602959D03*
G54D14*
G01X622799Y563409D03*
G01X608435Y563292D03*
G54D35*
G01X684360Y620277D03*
G54D36*
G01X681832Y620478D03*
G01X679253Y620595D03*
G01X676759Y620762D03*
G01X674281Y620796D03*
G54D37*
G01X616478Y578688D03*
G01X619768Y578688D03*
G01X621954Y578688D03*
G01X625244Y578688D03*
G54D38*
G01X629128Y602274D03*
G01X631573Y604475D03*
G54D39*
G01X637472Y602420D03*
G01X639673Y599975D03*
G01X638990Y604716D03*
G01X641191Y602271D03*
G01X633148Y606389D03*
G01X635350Y603944D03*
G54D37*
G01X686365Y613154D03*
G01X689655Y613154D03*
G54D40*
G01X692321Y618931D03*
G01X695499Y618079D03*
G54D41*
G01X713659Y606992D03*
G01X716104Y604791D03*
G54D42*
G01X729864Y594292D03*
G01X732713Y595936D03*
G54D43*
G01X661718Y610463D03*
G01X661718Y608443D03*
G54D44*
G01X661060Y615925D03*
G01X662070Y614176D03*
G54D45*
G01X665962Y609552D03*
G01X663942Y609552D03*
G54D46*
G01X670153Y609552D03*
G01X668133Y609552D03*
G54D47*
G01X625815Y597091D03*
G01X624517Y595544D03*
G54D48*
G01X652126Y614625D03*
G01X651116Y616374D03*
G01X659994Y617626D03*
G01X658984Y619375D03*
G54D49*
G01X689814Y617473D03*
G01X690269Y619440D03*
G54D50*
G01X710937Y602950D03*
G01X712365Y604378D03*
G01X712842Y601045D03*
G01X714270Y602473D03*
G54D51*
G01X717486Y606836D03*
G01X718784Y608383D03*
G54D52*
G01X657454Y612242D03*
G01X655705Y611232D03*
G54D53*
G01X648410Y609008D03*
G01X650055Y606159D03*
G54D54*
G01X617554Y585554D03*
G01X617580Y581509D03*
G01X621867Y589610D03*
G01X621894Y585565D03*
G54D55*
G01X637720Y609614D03*
G01X641210Y611660D03*
G54D56*
G01X725627Y604339D03*
G01X722546Y601718D03*
G54D57*
G01X735661Y593011D03*
G01X732362Y590669D03*
G54D58*
G01X631227Y597824D03*
G01X632043Y596851D03*
G01X632859Y595878D03*
G01X633676Y594905D03*
G01X637423Y598050D03*
G01X636607Y599023D03*
G01X635790Y599996D03*
G01X634974Y600968D03*
G54D59*
G01X719205Y605657D03*
G01X720557Y607268D03*
G54D60*
G01X721543Y605191D03*
G54D61*
G01X688441Y620128D03*
G01X687896Y618096D03*
G54D62*
G01X686124Y619562D03*
G54D63*
G01X672371Y609108D03*
G01X672280Y609446D03*
G01X672456Y608790D03*
G54D59*
G01X714760Y599434D03*
G01X716112Y601045D03*
G54D60*
G01X717098Y598968D03*
G54D64*
G01X708159Y613826D03*
G01X708948Y615685D03*
G54D65*
G01X679826Y609349D03*
G01X679826Y612359D03*
G54D66*
G01X686969Y608251D03*
G01X688989Y608251D03*
G01X686969Y610664D03*
G01X688989Y610664D03*
G54D65*
G01X676905Y609349D03*
G01X676905Y612359D03*
G54D67*
G01X694508Y614103D03*
G01X695702Y613669D03*
G01X696895Y613235D03*
G01X698088Y612800D03*
G01X699282Y612366D03*
G01X700475Y611932D03*
G01X701669Y611497D03*
G01X702862Y611063D03*
G01X692614Y608899D03*
G01X693807Y608465D03*
G01X695001Y608030D03*
G01X696194Y607596D03*
G01X697388Y607162D03*
G01X698581Y606727D03*
G01X699774Y606293D03*
G01X700968Y605859D03*
G54D68*
G01X704759Y603942D03*
G01X706150Y606924D03*
G54D69*
G01X704073Y608734D03*
G01X703595Y607418D03*
G54D70*
G01X691511Y610924D03*
G01X692027Y612340D03*
G54D71*
G01X667827Y612261D03*
G01X666877Y612261D03*
G01X665927Y612261D03*
G01X665927Y614559D03*
G01X666877Y614559D03*
G01X667827Y614559D03*
G54D43*
G01X669973Y614273D03*
G01X669973Y612253D03*
G54D72*
G01X696999Y615885D03*
G01X698897Y615194D03*
G54D73*
G01X721096Y582178D03*
G01X736047Y585933D03*
G01X738061Y579937D03*
G01X730839Y589521D03*
G01X728317Y572596D03*
G01X711571Y594878D03*
G01X726522Y598633D03*
G01X728536Y592637D03*
G01X721314Y602221D03*
G01X718792Y585296D03*
G54D74*
G01X704850Y611505D03*
G01X701548Y613664D03*
G01X713208Y612661D03*
G01X704342Y616331D03*
G01X689864Y615315D03*
G04 Pad End*

G04 Track Start*
G54D75*
G01X677001Y621705D02*
G01X677499Y622202D01*
G01X676713Y620777D02*
G01X677001Y621705D01*
G54D76*
G01X676199Y619119D02*
G01X676713Y620777D01*
G01X684519Y620032D02*
G01X686124Y619562D01*
G01X674561Y618677D02*
G01X676199Y619119D01*
G01X673431Y618890D02*
G01X674561Y618677D01*
G01X672087Y619822D02*
G01X673431Y618890D01*
G01X670482Y621427D02*
G01X672087Y619822D01*
G54D77*
G01X681714Y620527D02*
G01X682281Y618772D01*
G01X684702Y617666D01*
G54D75*
G01X631287Y604724D02*
G01X633108Y606107D01*
G54D77*
G01X688545Y619896D02*
G01X692140Y618755D01*
G01X716063Y605018D02*
G01X717829Y606784D01*
G54D78*
G01X619768Y578688D02*
G01X621954Y578688D01*
G01X637623Y606330D02*
G01X638895Y605081D01*
G01X638990Y604716D01*
G01X639176Y604801D01*
G01X642017Y607362D02*
G01X643011Y608356D01*
G01X641440Y605679D02*
G01X642017Y607362D01*
G01X639909Y605077D02*
G01X641440Y605679D01*
G01X639176Y604801D02*
G01X639556Y604974D01*
G01X639515Y604922D02*
G01X639556Y604974D01*
G01X639308Y604669D02*
G01X639515Y604922D01*
G01X639204Y604542D02*
G01X639308Y604669D01*
G01X638537Y603724D02*
G01X639204Y604542D01*
G01X637472Y602420D02*
G01X638537Y603724D01*
G54D77*
G01X636972Y601026D02*
G01X637472Y602420D01*
G54D79*
G01X640281Y600894D02*
G01X641191Y602271D01*
G01X639673Y599975D02*
G01X640281Y600894D01*
G01X638295Y598796D02*
G01X639673Y599975D01*
G01X637423Y598050D02*
G01X638295Y598796D01*
G54D78*
G01X655466Y617437D02*
G01X657203Y618778D01*
G54D75*
G01X692244Y616310D02*
G01X692951Y615966D01*
G01X689748Y617307D02*
G01X692244Y616310D01*
G01X687886Y618052D02*
G01X689748Y617307D01*
G54D78*
G01X685060Y613154D02*
G01X686365Y613154D01*
G54D76*
G01X737204Y580049D02*
G01X739582Y581850D01*
G54D77*
G01X635790Y599996D02*
G01X636972Y601026D01*
G54D80*
G01X679274Y618941D02*
G01X679274Y620598D01*
G01X679274Y618941D02*
G01X681269Y617675D01*
G01X683716Y616570D01*
G01X687347Y615092D01*
G01X687973Y614466D01*
G54D77*
G01X688618Y615645D02*
G01X690598Y613665D01*
G01X692182D01*
G01X684702Y617666D02*
G01X688618Y615645D01*
G54D81*
G01X687904Y602117D02*
G01X687151Y602869D01*
G01X686909D01*
G01X665480Y602107D02*
G01X669468Y602107D01*
G01X670320Y602959D01*
G54D80*
G01X687973Y607368D02*
G01X688281Y607060D01*
G01X687973Y607368D02*
G01X687973Y614466D01*
G54D82*
G01X679826Y609222D02*
G01X684152Y609222D01*
G01X685546Y610616D01*
G01X686921D01*
G01X686969Y610664D01*
G54D83*
G01X686969Y608251D02*
G01X686921Y608203D01*
G01X677924D01*
G01X676905Y609222D01*
G01X685238Y607441D02*
G01X686254Y606425D01*
G01X676021Y607441D02*
G01X685238Y607441D01*
G54D84*
G01X619732Y560324D02*
G01X615300Y555892D01*
G01X610870Y572770D02*
G01X613918Y575818D01*
G01X628032Y560324D02*
G01X619732Y560324D01*
G54D75*
G01X677499Y622202D02*
G01X679260Y622410D01*
G54D77*
G01X717829Y606784D02*
G01X719043Y605570D01*
G54D76*
G01X739582Y581850D02*
G01X740918Y583186D01*
G01Y584327D01*
G01Y584454D01*
G54D79*
G01X729925Y597408D02*
G01X732059Y593843D01*
G01Y590422D01*
G01X730021Y597987D02*
G01X729925Y597408D01*
G54D82*
G01X729864Y594292D02*
G01X728459Y592887D01*
G01X728315D01*
G54D85*
G01X712572Y607949D02*
G01X713423Y607098D01*
G54D86*
G01X715956Y607384D02*
G01X715960Y607384D01*
G54D79*
G01X727375Y601320D02*
G01X730021Y597987D01*
G01X721741Y605282D02*
G01X725120Y601903D01*
G01X727375Y601320D01*
G54D84*
G01X610870Y565092D02*
G01X610870Y572770D01*
G01X609070Y563292D02*
G01X610870Y565092D01*
G01X609070Y563292D02*
G01X608465Y563292D01*
G54D14*
G01X622799Y563409D02*
G01X623861Y563409D01*
G01X625433Y564980D01*
G54D76*
G01X740918Y584327D02*
G03X650227Y617950I-63026J-30878D01*
G01X670183Y621663D02*
G03X657162Y618909I7716J-68638D01*
G54D75*
G01X697103Y619506D02*
G03X693983Y620379I-15492J-49351D01*
G03X678751Y622379I-16591J-67354D01*
G54D77*
G01X716958Y608630D02*
G01X718536Y608416D01*
G01X718784Y608383D01*
G01X718536Y608416D02*
G01X720248Y607161D01*
G01X715960Y607384D02*
G01X716958Y608630D01*
G54D85*
G01X694508Y614103D02*
G01X695499Y618079D01*
G54D81*
G01X697406Y611378D02*
G01X697979Y612573D01*
G01X694469Y611378D02*
G01X697406Y611378D01*
G54D83*
G01X692614Y608899D02*
G01X688989Y610664D01*
G01X692818Y607060D02*
G01X693807Y608050D01*
G01Y608465D01*
G54D80*
G01X693580Y606379D02*
G01X695001Y607800D01*
G01Y608030D01*
G54D83*
G01X696368Y605790D02*
G01X697388Y606810D01*
G01Y607162D01*
G54D77*
G01X714159Y602330D02*
G01X714397Y602092D01*
G01X715960Y607384D02*
G01X714159Y605134D01*
G54D87*
G01X714397Y602092D02*
G01X714811Y602092D01*
G01X716112Y600791D01*
G01X714760Y599180D02*
G01X711454Y602486D01*
G54D81*
G01X696194Y608056D02*
G01X696194Y607596D01*
G01X696976Y608838D02*
G01X696194Y608056D01*
G01X698265Y608838D02*
G01X696976Y608838D01*
G54D86*
G01X714502Y608838D02*
G01X715956Y607384D01*
G54D83*
G01X690140Y606425D02*
G01X690775Y605790D01*
G01X686254Y606425D02*
G01X690140Y606425D01*
G01X690775Y605790D02*
G01X696368Y605790D01*
G54D80*
G01X691237Y606379D02*
G01X690556Y607060D01*
G01X688281Y607060D02*
G01X690556Y607060D01*
G01X691237Y606379D02*
G01X693580Y606379D01*
G54D83*
G01X691422Y607060D02*
G01X690231Y608251D01*
G01X688989Y608251D02*
G01X690231Y608251D01*
G01X691422Y607060D02*
G01X692818Y607060D01*
G01X692027Y612340D02*
G01X692430Y613417D01*
G54D81*
G01X694469Y611378D02*
G01X692430Y613417D01*
G01X692182Y613665D01*
G54D85*
G01X691511Y610924D02*
G01X694182Y610362D01*
G01X698754Y610235D01*
G01X701421Y609219D01*
G01X702183Y609346D01*
G01X702634Y610485D01*
G54D83*
G01X702862Y611063D01*
G01X703467Y607544D02*
G01X703467Y606672D01*
G54D81*
G01X707517Y604520D02*
G01X710057Y604901D01*
G01X703467Y606672D02*
G01X698265Y608838D01*
G54D83*
G01X714270Y602473D02*
G01X714159Y602492D01*
G54D77*
G01X714159Y605134D02*
G01X714159Y602492D01*
G01Y602330D01*
G54D81*
G01X710057Y604901D02*
G01X710438Y604901D01*
G01X711073Y604266D01*
G54D85*
G01X712470Y602869D01*
G54D81*
G01X714159Y602492D01*
G54D85*
G01X700968Y605859D02*
G01X701056Y605646D01*
G01X704673Y604139D01*
G01X704759Y603942D01*
G54D78*
G01X625149Y580870D02*
G01X627585Y586956D01*
G01X634628Y591770D01*
G01X641587Y595699D01*
G01X645544Y603433D01*
G01X649673Y605868D01*
G54D85*
G01X666877Y614559D02*
G01X665927Y614559D01*
G01X665958Y616585D01*
G54D78*
G01X665099Y616585D02*
G01X665958Y616585D01*
G54D83*
G01X667766Y613791D02*
G01X667131Y613283D01*
G01X666877Y613029D01*
G01Y612261D01*
G54D85*
G01X665708Y609552D02*
G01X666013Y609552D01*
G01X668006D01*
G01X665927Y612261D02*
G01X666013Y609552D01*
G54D78*
G01X661775Y607530D02*
G01X663688Y609552D01*
G54D85*
G01X663575Y612902D01*
G01X664083Y613410D01*
G01X666496D01*
G01X666877Y613029D01*
G01X669973Y614273D02*
G01X668274Y614299D01*
G01X667808Y614325D01*
G54D83*
G01X667827Y614559D02*
G01X667808Y614325D01*
G01X667766Y613791D01*
G54D85*
G01X670026Y609552D02*
G01X672280Y609446D01*
G01X697611Y614807D02*
G01X696895Y613235D01*
G01X699066Y616654D02*
G03X698208Y616298I0J-1214D01*
G01X697611Y614828D02*
G01X697611Y614807D01*
G01X698088Y612800D02*
G01X698063Y612775D01*
G03X697979Y612573I202J-202D01*
G01X698088Y612800D02*
G03X698897Y614752I-1952J1952D01*
G01Y615194D01*
G01X696999Y615885D02*
G01X696999Y616740D01*
G01X697611Y614807D02*
G01X698208Y616298D01*
G54D81*
G01X703467Y606672D02*
G01X703736Y606560D01*
G01X703950Y606069D01*
G01X707517Y604520D01*
G01X717098Y598968D02*
G01X720581Y602450D01*
G01X721108D01*
G54D78*
G01X665958Y616585D02*
G01X672340Y616585D01*
G01X676565Y612359D01*
G01X677571Y612154D02*
G01X684060Y612154D01*
G01X685060Y613154D01*
G01X676565Y612359D02*
G01X676905Y612359D01*
G54D11*
G01X722884Y595376D02*
G01X723519Y596011D01*
G54D88*
G01X716026Y589153D02*
G01X720725Y588264D01*
G01X722757Y585851D01*
G01Y584073D01*
G01X720878Y582439D01*
G54D11*
G01X722884Y592288D02*
G01X722884Y595376D01*
G01X728345Y585978D02*
G01X726915Y587409D01*
G01X722884Y592288D01*
G01X728345Y585978D02*
G01X728345Y585724D01*
G54D89*
G01X733489Y582994D02*
G01X735775Y585280D01*
G01X738418Y573746D02*
G01X733489Y578675D01*
G01Y582994D01*
G54D85*
G01X702183Y609346D02*
G01X704073Y608734D01*
G54D86*
G01X707270Y614080D02*
G01X708406Y613410D01*
G54D85*
G01X707390Y612394D02*
G01X707491Y611686D01*
G01X700405Y616712D02*
G01X707390Y612394D01*
G01X699066Y616654D02*
G01X700405Y616712D01*
G01X706374Y612013D02*
G01X706374Y612140D01*
G01X706574Y611153D02*
G01X706374Y612013D01*
G01X706374Y612140D02*
G01X702904Y614294D01*
G54D83*
G01X701669Y611497D02*
G01X702056Y612394D01*
G01X703072Y612775D01*
G01X703707Y612648D01*
G01X704850Y611505D01*
G01X700475Y611932D02*
G01X701548Y613664D01*
G54D85*
G01X702904Y614294D02*
G01X701663Y615015D01*
G01X700351Y614577D01*
G01X699282Y612366D01*
G54D11*
G01X728345Y585724D02*
G01X728980Y585089D01*
G54D83*
G01X673227Y612140D02*
G01X674751Y611124D01*
G01X675005Y608076D02*
G01X676021Y607441D01*
G01X670870Y612266D02*
G01X673227Y612140D01*
G01X674751Y611124D02*
G01X675005Y608076D01*
G01X670870Y612266D02*
G01X667827Y612261D01*
G54D90*
G01X715497Y589428D02*
G01X710438Y594487D01*
G01X708787D01*
G01X708533Y594233D01*
G54D91*
G01X662405Y617270D02*
G01X662907Y617270D01*
G54D78*
G01X652654Y614625D02*
G01X655466Y617437D01*
G01X652654Y614625D02*
G01X652126Y614625D01*
G01X643011Y608356D02*
G01X644003Y608356D01*
G54D91*
G01X652126Y614625D02*
G01X655705Y611232D01*
G01X653766Y606590D01*
G01X650235Y606180D01*
G01X650055Y606159D01*
G54D78*
G01X649673Y605868D02*
G01X650235Y606180D01*
G54D91*
G01X655483Y614770D02*
G01X657454Y612242D01*
G01X659043Y609862D01*
G01X662405Y617270D02*
G01X661060Y615925D01*
G01X659994Y617626D02*
G01X661060Y615925D01*
G01X659043Y609862D02*
G01X660654Y610298D01*
G01X661222Y610452D02*
G01X661866Y613279D01*
G01X662070Y614176D01*
G54D78*
G01X661866Y613279D02*
G01X665099Y616585D01*
G01X653766Y606590D02*
G01X658406Y606590D01*
G01X659346Y607530D01*
G01X661775D01*
G54D91*
G01X648410Y609008D02*
G01X652012Y609628D01*
G54D85*
G01X631227Y597824D02*
G01X629920Y596773D01*
G01X632043Y596851D02*
G01X630555Y595757D01*
G01X632859Y595878D02*
G01X630936Y595122D01*
G01X633676Y594905D02*
G01X631779Y593418D01*
G54D86*
G01X708406Y613410D02*
G01X708624Y611414D01*
G01X711200Y608838D01*
G01X714502D01*
G54D85*
G01X707491Y611686D02*
G01X707642Y610999D01*
G01X710692Y607949D01*
G01X712572D01*
G01X712365Y604378D02*
G01X710467Y607161D01*
G01X706603Y611013D01*
G01X706574Y611153D01*
G54D75*
G01X697020Y619528D02*
G01X698392Y618189D01*
G54D85*
G01X698446Y618187D01*
G54D75*
G01X692951Y615966D02*
G01X694487Y620369D01*
G54D92*
G01X701338Y617636D02*
G01X698290Y618030D01*
G54D85*
G01X696999Y616740D02*
G01X698290Y618030D01*
G01X698446Y618187D01*
G54D92*
G01X708159Y613826D02*
G01X701338Y617636D01*
G04 Track End*

M02*
