G04 Layer: TopSolderMaskLayer*
G04 EasyEDA Pro v1.9.29.eba1c1, 2023-03-01 16:56:33*
G04 Gerber Generator version 0.3*
G04 Scale: 100 percent, Rotated: No, Reflected: No*
G04 Dimensions in millimeters*
G04 Leading zeros omitted, absolute positions, 3 integers and 3 decimals*
%FSLAX33Y33*%
%MOMM*%
%AMOval*1,1,$1,$2,$3*1,1,$1,$4,$5*20,1,$1,$2,$3,$4,$5,0*%
%ADD10C,2.155419*%
%ADD11C,1.992295*%
%ADD12Oval,1.7032X0.049438X0.13583X-0.049438X-0.13583*%
%ADD13C,2.616126*%
%ADD14C,2.616121*%
%ADD15C,2.494443*%
%ADD16C,2.364791*%
%ADD17C,2.443584*%
%ADD18Oval,3.383201X0.409999X0.0X-0.409999X0.0*%
%ADD19Oval,3.383201X-0.205X0.35507X0.205X-0.35507*%
%ADD20Oval,3.383201X-0.235166X0.335852X0.235166X-0.335852*%
%ADD21C,2.669113*%
%ADD22C,2.669108*%
%ADD23C,2.303201*%
%ADD24C,2.770309*%
%ADD25C,1.99229*%
%ADD26C,2.008139*%
%ADD27C,2.008134*%
%ADD28C,2.322652*%
%ADD29C,2.203201*%
%ADD30C,1.876184*%
%ADD31C,1.876189*%
%ADD32C,2.639273*%
%ADD33C,2.8956*%
G75*


G04 Pad Start*
G54D10*
G01X710878Y611623D03*
G01X707015Y608275D03*
G54D11*
G01X699103Y620140D03*
G01X698392Y618189D03*
G54D12*
G01X692766Y615870D03*
G54D11*
G01X692055Y613919D03*
G01X663027Y617720D03*
G01X662666Y619765D03*
G01X659043Y609862D03*
G01X659404Y607817D03*
G54D13*
G01X644003Y608356D03*
G54D14*
G01X644897Y613428D03*
G54D15*
G01X652012Y609628D03*
G01X653766Y606590D03*
G01X631779Y593418D03*
G01X634259Y590937D03*
G01X624896Y589147D03*
G01X627376Y586667D03*
G54D16*
G01X625098Y580689D03*
G01X615001Y580737D03*
G54D17*
G01X616338Y575875D03*
G01X621351Y573054D03*
G54D18*
G01X616627Y569341D03*
G01X621822Y569341D03*
G01X610105Y555892D03*
G01X615300Y555892D03*
G54D19*
G01X734004Y564428D03*
G01X731407Y568927D03*
G54D20*
G01X742791Y569925D03*
G01X739811Y574180D03*
G54D21*
G01X627948Y599898D03*
G54D22*
G01X619202Y589543D03*
G54D23*
G01X625560Y565361D03*
G01X629378Y570124D03*
G54D24*
G01X641413Y595607D03*
G01X641440Y605679D03*
G54D25*
G01X637623Y606330D03*
G01X635910Y608372D03*
G54D26*
G01X653368Y618434D03*
G54D27*
G01X654426Y616602D03*
G54D26*
G01X655483Y614770D03*
G54D28*
G01X685342Y602848D03*
G01X670320Y602959D03*
G54D29*
G01X622799Y563409D03*
G01X608435Y563292D03*
G54D30*
G01X684360Y620277D03*
G54D31*
G01X681832Y620478D03*
G01X679253Y620595D03*
G01X676759Y620762D03*
G01X674281Y620796D03*
G54D32*
G01X672371Y609108D03*
G01X672280Y609446D03*
G01X672456Y608790D03*
G54D33*
G01X721096Y582178D03*
G01X736047Y585933D03*
G01X738061Y579937D03*
G01X730839Y589521D03*
G01X728317Y572596D03*
G01X711571Y594878D03*
G01X726522Y598633D03*
G01X728536Y592637D03*
G01X721314Y602221D03*
G01X718792Y585296D03*
G04 Pad End*

M02*
