;TYPE=PLATED
;Layer: PTH_Through_Via
;EasyEDA Pro Client v1.9.29.eba1c1, 2023-03-25 18:59:36
;Gerber Generator version 0.3
M48
METRIC,LZ,000.000
;Hole size 1 = 0.330 METRIC
T01C0.330
;Hole size 2 = 0.457 METRIC
T02C0.457
%
G05
G90
T01
X-005969Y-005207
X-004445Y-005207
X010160Y-003810
T02
X017399Y-008128
X-009906Y008890
X-008763Y003556
X-011176Y004572
X-009144Y-002032
X-008128Y000635
X-008255Y-003048
X-015875Y004826
X-015875Y007208
X000762Y006477
X-007747Y007112
X-001524Y009652
X010795Y-012700
X-014732Y010668
X006223Y-013716
X014732Y-016383
X000000Y-005334
X-000127Y-006096
X-005778Y-002794
X017399Y011557
X001524Y000127
X010287Y011938
X005842Y005461
X-016764Y-009144
X-011430Y-010541
X-010922Y-007112
X-016383Y-013462
X005461Y-002921
X-005588Y-011176
X-011430Y000381
X-010541Y-002286
X002159Y-010287
X008010Y-002291
X-009017Y001524
X-001016Y000127
X-007366Y-002032
X002794Y-009144
X-001905Y-008890
X001778Y-001651
X003175Y-001651
X003818Y000127
X015113Y-008001
X011684Y-003175
X012700Y001143
X013716Y-002413
X012192Y006477
X013462Y009652
X012425Y-000762
X-007366Y-000254
X-004445Y-001778
X009779Y002794
M30