;TYPE=PLATED
;Layer: PTH_Through
;EasyEDA Pro Client v1.9.29.eba1c1, 2023-03-25 18:59:36
;Gerber Generator version 0.3
M48
METRIC,LZ,000.000
;Hole size 1 = 0.762 METRIC
T01C0.762
;Hole size 2 = 1.000 METRIC
T02C1.000
;Hole size 3 = 1.100 METRIC
T03C1.100
;Hole size 4 = 1.143 METRIC
T04C1.143
;Hole size 5 = 2.159 METRIC
T05C2.159
%
G05
G90
T01
X007112Y007493
X004572Y007493
X002032Y007493
X-000508Y007493
X-003048Y007493
X-005588Y007493
X-005588Y-007747
X-003048Y-007747
X-000508Y-007747
X002032Y-007747
X004572Y-007747
X007112Y-007747
T02
X003048Y012700
X000508Y012700
X-002032Y012700
T03
X008763Y-010033
X011303Y-010033
X013843Y-010033
X016383Y-010033
T04
X016764Y-006350
T05
X-014859Y003810
X-014732Y-004445
M30