G04 Layer: TopSolderMaskLayer*
G04 EasyEDA Pro v1.9.29.eba1c1, 2023-03-25 18:59:35*
G04 Gerber Generator version 0.3*
G04 Scale: 100 percent, Rotated: No, Reflected: No*
G04 Dimensions in millimeters*
G04 Leading zeros omitted, absolute positions, 3 integers and 3 decimals*
%FSLAX33Y33*%
%MOMM*%
%ADD10C,4.1656*%
%ADD11C,1.4986*%
%ADD12C,2.1336*%
%ADD13C,1.6256*%
%ADD14R,1.6256X1.6256*%
%ADD15R,1.701597X1.701597*%
%ADD16C,1.701597*%
%ADD17R,1.003201X1.003201*%
%ADD18R,1.35161X0.801599*%
%ADD19R,1.003201X1.003201*%
%ADD20O,0.675589X2.139594*%
%ADD21R,1.586611X1.829587*%
%ADD22R,1.003201X1.003201*%
%ADD23R,1.003201X1.203201*%
%ADD24R,0.801599X1.35161*%
%ADD25R,1.801597X1.801597*%
%ADD26C,1.801597*%
%ADD27R,1.003201X1.203201*%
%ADD28R,0.773608X1.676603*%
%ADD29R,1.234135X1.47861*%
%ADD30R,1.35161X0.801599*%
%ADD31R,1.003201X1.003201*%
%ADD32R,1.203201X1.003201*%
%ADD33R,1.801597X1.901596*%
%ADD34R,1.829587X1.586611*%
G75*


G04 Pad Start*
G54D10*
G01X-14859Y3810D03*
G54D11*
G01X3175Y-11557D03*
G54D12*
G01X16764Y-6350D03*
G54D10*
G01X-14732Y-4445D03*
G54D11*
G01X1016Y-11557D03*
G54D13*
G01X7112Y7493D03*
G01X4572Y7493D03*
G01X2032Y7493D03*
G01X-508Y7493D03*
G01X-3048Y7493D03*
G01X-5588Y7493D03*
G01X-5588Y-7747D03*
G01X-3048Y-7747D03*
G01X-508Y-7747D03*
G01X2032Y-7747D03*
G01X4572Y-7747D03*
G54D14*
G01X7112Y-7747D03*
G54D15*
G01X3048Y12700D03*
G54D16*
G01X508Y12700D03*
G01X-2032Y12700D03*
G54D17*
G01X-4007Y12554D03*
G01X-4007Y10854D03*
G54D18*
G01X-9636Y11745D03*
G01X-9636Y9845D03*
G01X-7636Y10795D03*
G54D19*
G01X7055Y-1505D03*
G01X7055Y195D03*
G54D20*
G01X-4445Y-3404D03*
G01X-3175Y-3404D03*
G01X-1905Y-3404D03*
G01X-635Y-3404D03*
G01X635Y-3404D03*
G01X1905Y-3404D03*
G01X3175Y-3404D03*
G01X4445Y-3404D03*
G01X-4445Y2134D03*
G01X-3175Y2134D03*
G01X-1905Y2134D03*
G01X-635Y2134D03*
G01X635Y2134D03*
G01X1905Y2134D03*
G01X3175Y2134D03*
G01X4445Y2134D03*
G54D21*
G01X16579Y-3937D03*
G01X13393Y-3937D03*
G54D19*
G01X4642Y-11411D03*
G01X4642Y-9711D03*
G54D17*
G01X6534Y-9798D03*
G01X6534Y-11498D03*
G54D22*
G01X-108Y9582D03*
G01X1592Y9582D03*
G54D23*
G01X8617Y1955D03*
G01X7117Y1955D03*
G54D22*
G01X2559Y-5785D03*
G01X4259Y-5785D03*
G54D24*
G01X-9967Y4969D03*
G01X-8067Y4969D03*
G01X-9017Y6969D03*
G54D22*
G01X-3029Y5137D03*
G01X-1329Y5137D03*
G54D25*
G01X8763Y-10033D03*
G54D26*
G01X11303Y-10033D03*
G01X13843Y-10033D03*
G01X16383Y-10033D03*
G54D27*
G01X-2267Y-5765D03*
G01X-767Y-5765D03*
G54D22*
G01X2432Y4375D03*
G01X4132Y4375D03*
G54D17*
G01X-5658Y5950D03*
G01X-5658Y4250D03*
G54D28*
G01X13740Y-1061D03*
G01X16740Y-1061D03*
G54D29*
G01X15097Y-12573D03*
G01X13097Y-12573D03*
G54D22*
G01X7004Y4121D03*
G01X8704Y4121D03*
G54D30*
G01X8874Y9718D03*
G01X8874Y11618D03*
G01X6874Y10668D03*
G54D31*
G01X5315Y9595D03*
G01X3615Y9595D03*
G54D17*
G01X-3118Y-9798D03*
G01X-3118Y-11498D03*
G01X-578Y-9798D03*
G01X-578Y-11498D03*
G01X-10103Y3283D03*
G01X-10103Y1583D03*
G54D22*
G01X8909Y-1340D03*
G01X10609Y-1340D03*
G54D32*
G01X15063Y6077D03*
G01X15063Y4577D03*
G54D27*
G01X13862Y-6146D03*
G01X15362Y-6146D03*
G54D33*
G01X-14732Y-7460D03*
G01X-14732Y-11844D03*
G54D31*
G01X10649Y324D03*
G01X8949Y324D03*
G54D21*
G01X-10345Y-14986D03*
G01X-13531Y-14986D03*
G54D34*
G01X17399Y4630D03*
G01X17399Y7816D03*
G54D21*
G01X13912Y14097D03*
G01X10726Y14097D03*
G36*
G01X15620Y-1849D02*
G02X15570Y-1899I-50J0D01*
G01X14910D01*
G02X14860Y-1849I0J50D01*
G01Y-192D01*
G01X14819Y-182D01*
G01X14808Y-178D01*
G01X14768Y-158D01*
G01X14766Y-157D01*
G01X14727Y-135D01*
G01X14725Y-134D01*
G01X14688Y-110D01*
G01X14686Y-109D01*
G01X14649Y-83D01*
G01X14647Y-82D01*
G01X14612Y-55D01*
G01X14610Y-53D01*
G01X14576Y-24D01*
G01X14575Y-23D01*
G01X14542Y8D01*
G01X14540Y9D01*
G01X14509Y41D01*
G01X14508Y43D01*
G01X14478Y76D01*
G01X14476Y78D01*
G01X14449Y113D01*
G01X14447Y114D01*
G01X14421Y150D01*
G01X14419Y152D01*
G01X14395Y189D01*
G01X14394Y191D01*
G01X14371Y230D01*
G01X14369Y232D01*
G01X14348Y271D01*
G01X14347Y273D01*
G01X14328Y313D01*
G01X14327Y315D01*
G01X14310Y356D01*
G01X14309Y358D01*
G01X14294Y400D01*
G01X14293Y403D01*
G01X14280Y445D01*
G01X14279Y447D01*
G01X14268Y490D01*
G01X14267Y493D01*
G01X14258Y536D01*
G01X14257Y538D01*
G01X14250Y582D01*
G01Y585D01*
G01X14244Y629D01*
G01Y631D01*
G01X14241Y676D01*
G01Y678D01*
G01X14240Y723D01*
G01Y724D01*
G01Y2578D01*
G01Y2579D01*
G01X14241Y2624D01*
G01Y2626D01*
G01X14244Y2670D01*
G01Y2673D01*
G01X14250Y2717D01*
G01Y2719D01*
G01X14257Y2763D01*
G01X14258Y2766D01*
G01X14267Y2809D01*
G01X14268Y2811D01*
G01X14279Y2854D01*
G01X14280Y2857D01*
G01X14293Y2899D01*
G01X14294Y2901D01*
G01X14309Y2943D01*
G01X14310Y2945D01*
G01X14327Y2986D01*
G01X14328Y2989D01*
G01X14347Y3029D01*
G01X14348Y3031D01*
G01X14369Y3070D01*
G01X14371Y3072D01*
G01X14394Y3110D01*
G01X14395Y3112D01*
G01X14419Y3150D01*
G01X14421Y3151D01*
G01X14447Y3187D01*
G01X14449Y3189D01*
G01X14476Y3224D01*
G01X14478Y3226D01*
G01X14508Y3259D01*
G01X14509Y3261D01*
G01X14540Y3292D01*
G01X14542Y3294D01*
G01X14575Y3325D01*
G01X14576Y3326D01*
G01X14610Y3355D01*
G01X14612Y3356D01*
G01X14647Y3384D01*
G01X14649Y3385D01*
G01X14686Y3410D01*
G01X14688Y3412D01*
G01X14725Y3435D01*
G01X14727Y3437D01*
G01X14766Y3459D01*
G01X14768Y3460D01*
G01X14808Y3480D01*
G01X14810Y3481D01*
G01X14851Y3499D01*
G01X14853Y3500D01*
G01X14894Y3516D01*
G01X14897Y3517D01*
G01X14939Y3532D01*
G01X14941D01*
G01X14984Y3545D01*
G01X14986D01*
G01X15029Y3556D01*
G01X15032D01*
G01X15075Y3564D01*
G01X15078Y3565D01*
G01X15122Y3571D01*
G01X15124D01*
G01X15169Y3575D01*
G01X15171Y3576D01*
G01X15215Y3578D01*
G01X15218D01*
G01X15262D01*
G01X15265D01*
G01X15309Y3576D01*
G01X15311Y3575D01*
G01X15356Y3571D01*
G01X15358D01*
G01X15402Y3565D01*
G01X15404Y3564D01*
G01X15448Y3556D01*
G01X15451D01*
G01X15494Y3545D01*
G01X15496D01*
G01X15539Y3532D01*
G01X15541D01*
G01X15583Y3517D01*
G01X15586Y3516D01*
G01X15627Y3500D01*
G01X15629Y3499D01*
G01X15670Y3481D01*
G01X15672Y3480D01*
G01X15712Y3460D01*
G01X15714Y3459D01*
G01X15752Y3437D01*
G01X15754Y3435D01*
G01X15792Y3412D01*
G01X15794Y3410D01*
G01X15831Y3385D01*
G01X15832Y3384D01*
G01X15868Y3356D01*
G01X15870Y3355D01*
G01X15904Y3326D01*
G01X15905Y3325D01*
G01X15938Y3294D01*
G01X15940Y3292D01*
G01X15971Y3261D01*
G01X15972Y3259D01*
G01X16002Y3226D01*
G01X16003Y3224D01*
G01X16031Y3189D01*
G01X16033Y3187D01*
G01X16059Y3151D01*
G01X16061Y3150D01*
G01X16085Y3112D01*
G01X16086Y3110D01*
G01X16109Y3072D01*
G01X16110Y3070D01*
G01X16131Y3031D01*
G01X16133Y3029D01*
G01X16152Y2989D01*
G01X16153Y2986D01*
G01X16170Y2945D01*
G01X16171Y2943D01*
G01X16186Y2901D01*
G01X16187Y2899D01*
G01X16200Y2857D01*
G01X16201Y2854D01*
G01X16212Y2811D01*
G01X16213Y2809D01*
G01X16222Y2766D01*
G01X16223Y2763D01*
G01X16230Y2719D01*
G01Y2717D01*
G01X16235Y2673D01*
G01X16236Y2670D01*
G01X16239Y2626D01*
G01Y2624D01*
G01X16240Y2579D01*
G01Y2578D01*
G01Y724D01*
G01Y723D01*
G01X16239Y678D01*
G01Y676D01*
G01X16236Y631D01*
G01X16235Y629D01*
G01X16230Y585D01*
G01Y582D01*
G01X16223Y538D01*
G01X16222Y536D01*
G01X16213Y493D01*
G01X16212Y490D01*
G01X16201Y447D01*
G01X16200Y445D01*
G01X16187Y403D01*
G01X16186Y400D01*
G01X16171Y358D01*
G01X16170Y356D01*
G01X16153Y315D01*
G01X16152Y313D01*
G01X16133Y273D01*
G01X16131Y271D01*
G01X16110Y232D01*
G01X16109Y230D01*
G01X16086Y191D01*
G01X16085Y189D01*
G01X16061Y152D01*
G01X16059Y150D01*
G01X16033Y114D01*
G01X16031Y113D01*
G01X16003Y78D01*
G01X16002Y76D01*
G01X15972Y43D01*
G01X15971Y41D01*
G01X15940Y9D01*
G01X15938Y8D01*
G01X15905Y-23D01*
G01X15904Y-24D01*
G01X15870Y-53D01*
G01X15868Y-55D01*
G01X15832Y-82D01*
G01X15831Y-83D01*
G01X15794Y-109D01*
G01X15792Y-110D01*
G01X15754Y-134D01*
G01X15752Y-135D01*
G01X15714Y-157D01*
G01X15712Y-158D01*
G01X15672Y-178D01*
G01X15660Y-182D01*
G01X15620Y-192D01*
G01Y-1849D01*
G37*
G04 Pad End*

M02*
