G04 Layer: BottomSilkscreenLayer*
G04 EasyEDA Pro v1.9.29.eba1c1, 2023-03-25 18:59:35*
G04 Gerber Generator version 0.3*
G04 Scale: 100 percent, Rotated: No, Reflected: No*
G04 Dimensions in millimeters*
G04 Leading zeros omitted, absolute positions, 3 integers and 3 decimals*
%FSLAX33Y33*%
%MOMM*%
%ADD10C,0.1524*%
%ADD11C,0.1*%
%ADD12C,0.254*%
G75*


G04 Image Start*
G36*
G01X5853Y-10538D02*
G01X5853Y-10538D01*
G01X6268Y-10624D01*
G01X6744Y-10749D01*
G01X7259Y-10913D01*
G01X7790Y-11113D01*
G01X8312Y-11340D01*
G01X8819Y-11591D01*
G01X9270Y-11843D01*
G01X9666Y-12092D01*
G01X10008Y-12332D01*
G01X10116Y-12414D01*
G01X10307Y-12570D01*
G01X10735Y-12960D01*
G01X11343Y-13570D01*
G01X11674Y-13934D01*
G01X11809Y-14098D01*
G01X11865Y-14175D01*
G01X12013Y-14392D01*
G01X12163Y-14178D01*
G01X12303Y-13990D01*
G01X12745Y-13460D01*
G01X13637Y-12485D01*
G01X14070Y-12052D01*
G01X14208Y-11928D01*
G01X14262Y-11884D01*
G01X14289Y-11864D01*
G01X14304Y-11854D01*
G01X14318Y-11846D01*
G01X14324Y-11843D01*
G01X14329Y-11840D01*
G01X14334Y-11839D01*
G01X14338Y-11837D01*
G01X14342D01*
G01X14345D01*
G01X14348Y-11838D01*
G01X14350Y-11839D01*
G01X14351Y-11862D01*
G01X14338Y-11911D01*
G01X14275Y-12085D01*
G01X13547Y-13734D01*
G01X12204Y-16516D01*
G01X12018Y-16857D01*
G01X11977Y-16924D01*
G01X11946Y-16966D01*
G01X11929Y-16980D01*
G01X11913Y-16966D01*
G01X11886Y-16926D01*
G01X11806Y-16781D01*
G01X11576Y-16306D01*
G01X11311Y-15760D01*
G01X11072Y-15326D01*
G01X10838Y-14949D01*
G01X10587Y-14585D01*
G01X10295Y-14206D01*
G01X9934Y-13784D01*
G01X9539Y-13364D01*
G01X8944Y-12784D01*
G01X8462Y-12360D01*
G01X8039Y-12024D01*
G01X7641Y-11740D01*
G01X7250Y-11490D01*
G01X6848Y-11261D01*
G01X6401Y-11035D01*
G01X5898Y-10814D01*
G01X5747Y-10753D01*
G01X5157Y-10510D01*
G01X5079Y-10472D01*
G01X5049Y-10456D01*
G01X5036Y-10447D01*
G01X5029Y-10442D01*
G01X5023Y-10437D01*
G01X5021Y-10435D01*
G01X5019Y-10433D01*
G01X5018Y-10431D01*
G01X5017Y-10429D01*
G01X5016Y-10427D01*
G01Y-10426D01*
G01Y-10424D01*
G01Y-10423D01*
G01X5017Y-10421D01*
G01X5018Y-10420D01*
G01X5020Y-10419D01*
G01X5022Y-10418D01*
G01X5024Y-10417D01*
G01X5027Y-10416D01*
G01X5030D01*
G01X5038Y-10415D01*
G01X5047Y-10414D01*
G01X5063D01*
G01X5098Y-10416D01*
G01X5186Y-10425D01*
G01X5853Y-10538D01*
G37*
G36*
G01X5528Y-14966D02*
G01X5528Y-16545D01*
G01X5181D01*
G01X4835D01*
G01X4809Y-15909D01*
G01X4783Y-15273D01*
G01X4126D01*
G01X3468D01*
G01X3443Y-15909D01*
G01X3417Y-16545D01*
G01X3068D01*
G01X2720D01*
G01X2743Y-14988D01*
G01X2767Y-13432D01*
G01X3096Y-13405D01*
G01X3425Y-13378D01*
G01Y-13997D01*
G01Y-14616D01*
G01X4126D01*
G01X4827D01*
G01Y-14002D01*
G01Y-13388D01*
G01X5177D01*
G01X5528D01*
G01Y-14966D01*
G37*
G36*
G01X-1093Y-13435D02*
G01X-1093Y-13435D01*
G01X-983Y-13480D01*
G01X-894Y-13523D01*
G01X-809Y-13570D01*
G01X-729Y-13620D01*
G01X-666Y-13664D01*
G01X-606Y-13711D01*
G01X-549Y-13761D01*
G01X-495Y-13813D01*
G01X-444Y-13867D01*
G01X-397Y-13924D01*
G01X-352Y-13984D01*
G01X-311Y-14046D01*
G01X-273Y-14111D01*
G01X-238Y-14179D01*
G01X-206Y-14249D01*
G01X-172Y-14336D01*
G01X-142Y-14427D01*
G01X-117Y-14522D01*
G01X-96Y-14621D01*
G01X-77Y-14741D01*
G01X-64Y-14866D01*
G01X-57Y-15016D01*
G01Y-15054D01*
G01X-59Y-15184D01*
G01X-66Y-15296D01*
G01X-78Y-15391D01*
G01X-94Y-15482D01*
G01X-112Y-15558D01*
G01X-133Y-15633D01*
G01X-157Y-15704D01*
G01X-186Y-15773D01*
G01X-218Y-15840D01*
G01X-248Y-15895D01*
G01X-281Y-15949D01*
G01X-323Y-16010D01*
G01X-369Y-16068D01*
G01X-419Y-16125D01*
G01X-473Y-16181D01*
G01X-539Y-16242D01*
G01X-610Y-16301D01*
G01X-629Y-16315D01*
G01X-681Y-16352D01*
G01X-736Y-16386D01*
G01X-795Y-16418D01*
G01X-879Y-16458D01*
G01X-969Y-16493D01*
G01X-1063Y-16523D01*
G01X-1160Y-16550D01*
G01X-1287Y-16576D01*
G01X-1416Y-16595D01*
G01X-1548Y-16607D01*
G01X-1680Y-16610D01*
G01X-1812Y-16606D01*
G01X-1916Y-16597D01*
G01X-2017Y-16582D01*
G01X-2116Y-16562D01*
G01X-2164Y-16550D01*
G01X-2316Y-16506D01*
G01X-2369Y-16487D01*
G01X-2396Y-16476D01*
G01X-2420Y-16464D01*
G01X-2434Y-16456D01*
G01X-2447Y-16447D01*
G01X-2459Y-16438D01*
G01X-2470Y-16429D01*
G01X-2480Y-16419D01*
G01X-2489Y-16408D01*
G01X-2496Y-16397D01*
G01X-2503Y-16385D01*
G01X-2509Y-16372D01*
G01X-2514Y-16359D01*
G01X-2519Y-16344D01*
G01X-2523Y-16329D01*
G01X-2527Y-16304D01*
G01X-2531Y-16267D01*
G01X-2534Y-16201D01*
G01X-2535Y-16137D01*
G01X-2533Y-16030D01*
G01X-2529Y-15980D01*
G01X-2525Y-15952D01*
G01X-2520Y-15929D01*
G01X-2517Y-15918D01*
G01X-2514Y-15909D01*
G01X-2510Y-15901D01*
G01X-2506Y-15894D01*
G01X-2502Y-15887D01*
G01X-2497Y-15882D01*
G01X-2492Y-15877D01*
G01X-2487Y-15874D01*
G01X-2480Y-15871D01*
G01X-2474Y-15868D01*
G01X-2467Y-15867D01*
G01X-2460D01*
G01X-2452D01*
G01X-2443Y-15868D01*
G01X-2434Y-15869D01*
G01X-2415Y-15874D01*
G01X-2393Y-15882D01*
G01X-2381Y-15886D01*
G01X-2319Y-15909D01*
G01X-2236Y-15935D01*
G01X-2149Y-15956D01*
G01X-2040Y-15976D01*
G01X-1930Y-15989D01*
G01X-1819Y-15997D01*
G01X-1710Y-15998D01*
G01X-1621Y-15995D01*
G01X-1537Y-15986D01*
G01X-1473Y-15977D01*
G01X-1412Y-15964D01*
G01X-1370Y-15953D01*
G01X-1330Y-15940D01*
G01X-1305Y-15930D01*
G01X-1270Y-15914D01*
G01X-1235Y-15896D01*
G01X-1202Y-15876D01*
G01X-1169Y-15854D01*
G01X-1138Y-15830D01*
G01X-1108Y-15804D01*
G01X-1079Y-15777D01*
G01X-1043Y-15738D01*
G01X-1008Y-15696D01*
G01X-976Y-15652D01*
G01X-946Y-15606D01*
G01X-918Y-15557D01*
G01X-893Y-15507D01*
G01X-865Y-15442D01*
G01X-840Y-15374D01*
G01X-820Y-15304D01*
G01X-803Y-15233D01*
G01X-790Y-15160D01*
G01X-781Y-15087D01*
G01X-777Y-15013D01*
G01Y-14939D01*
G01X-781Y-14865D01*
G01X-789Y-14791D01*
G01X-799Y-14733D01*
G01X-812Y-14676D01*
G01X-828Y-14619D01*
G01X-847Y-14564D01*
G01X-869Y-14510D01*
G01X-894Y-14458D01*
G01X-922Y-14407D01*
G01X-953Y-14358D01*
G01X-962Y-14347D01*
G01X-997Y-14301D01*
G01X-1035Y-14258D01*
G01X-1076Y-14217D01*
G01X-1121Y-14179D01*
G01X-1168Y-14143D01*
G01X-1218Y-14110D01*
G01X-1269Y-14080D01*
G01X-1323Y-14053D01*
G01X-1378Y-14028D01*
G01X-1435Y-14006D01*
G01X-1493Y-13988D01*
G01X-1552Y-13972D01*
G01X-1612Y-13960D01*
G01X-1672Y-13950D01*
G01X-1732Y-13945D01*
G01X-1792Y-13942D01*
G01X-1852Y-13943D01*
G01X-1911Y-13948D01*
G01X-1970Y-13956D01*
G01X-2027Y-13969D01*
G01X-2083Y-13984D01*
G01X-2101Y-13991D01*
G01X-2286Y-14050D01*
G01X-2390Y-14078D01*
G01X-2433Y-14087D01*
G01X-2451Y-14089D01*
G01X-2460Y-14090D01*
G01X-2479Y-14083D01*
G01X-2494Y-14064D01*
G01X-2507Y-14035D01*
G01X-2518Y-13996D01*
G01X-2525Y-13950D01*
G01X-2530Y-13899D01*
G01X-2533Y-13785D01*
G01X-2525Y-13669D01*
G01X-2518Y-13613D01*
G01X-2508Y-13562D01*
G01X-2495Y-13516D01*
G01X-2481Y-13478D01*
G01X-2464Y-13449D01*
G01X-2445Y-13431D01*
G01X-2424Y-13419D01*
G01X-2400Y-13409D01*
G01X-2372Y-13399D01*
G01X-2309Y-13381D01*
G01X-2235Y-13367D01*
G01X-2108Y-13350D01*
G01X-1967Y-13341D01*
G01X-1767Y-13338D01*
G01X-1563Y-13348D01*
G01X-1416Y-13363D01*
G01X-1280Y-13384D01*
G01X-1198Y-13402D01*
G01X-1125Y-13423D01*
G01X-1093Y-13435D01*
G37*
G36*
G01X7518Y-13519D02*
G01X7518Y-13519D01*
G01X7629Y-13579D01*
G01X7720Y-13635D01*
G01X7794Y-13685D01*
G01X7864Y-13738D01*
G01X7929Y-13794D01*
G01X7981Y-13843D01*
G01X8030Y-13895D01*
G01X8075Y-13948D01*
G01X8117Y-14004D01*
G01X8157Y-14061D01*
G01X8193Y-14121D01*
G01X8226Y-14183D01*
G01X8256Y-14248D01*
G01X8288Y-14327D01*
G01X8316Y-14409D01*
G01X8340Y-14495D01*
G01X8363Y-14598D01*
G01X8384Y-14721D01*
G01X8391Y-14777D01*
G01X8408Y-14961D01*
G01X8414Y-15107D01*
G01X8412Y-15231D01*
G01X8405Y-15337D01*
G01X8394Y-15427D01*
G01X8380Y-15502D01*
G01X8363Y-15575D01*
G01X8342Y-15645D01*
G01X8318Y-15713D01*
G01X8294Y-15770D01*
G01X8267Y-15825D01*
G01X8233Y-15887D01*
G01X8195Y-15948D01*
G01X8153Y-16008D01*
G01X8107Y-16066D01*
G01X8049Y-16131D01*
G01X8042Y-16139D01*
G01X7989Y-16192D01*
G01X7934Y-16242D01*
G01X7877Y-16289D01*
G01X7818Y-16333D01*
G01X7757Y-16373D01*
G01X7694Y-16411D01*
G01X7629Y-16445D01*
G01X7561Y-16476D01*
G01X7469Y-16512D01*
G01X7373Y-16542D01*
G01X7274Y-16567D01*
G01X7171Y-16586D01*
G01X7066Y-16599D01*
G01X6957Y-16606D01*
G01X6845Y-16608D01*
G01X6701Y-16601D01*
G01X6553Y-16586D01*
G01X6492Y-16577D01*
G01X6240Y-16533D01*
G01X6189Y-16521D01*
G01X6155Y-16512D01*
G01X6126Y-16501D01*
G01X6109Y-16494D01*
G01X6094Y-16486D01*
G01X6080Y-16477D01*
G01X6067Y-16468D01*
G01X6056Y-16457D01*
G01X6046Y-16446D01*
G01X6037Y-16435D01*
G01X6029Y-16422D01*
G01X6022Y-16408D01*
G01X6016Y-16392D01*
G01X6010Y-16376D01*
G01X6004Y-16349D01*
G01X5997Y-16308D01*
G01X5986Y-16206D01*
G01X5982Y-16160D01*
G01X5973Y-16019D01*
G01Y-15975D01*
G01X5974Y-15945D01*
G01X5976Y-15926D01*
G01X5978Y-15915D01*
G01X5980Y-15905D01*
G01X5983Y-15897D01*
G01X5984Y-15893D01*
G01X5986Y-15889D01*
G01X5988Y-15885D01*
G01X5990Y-15882D01*
G01X5992Y-15879D01*
G01X5994Y-15876D01*
G01X5996Y-15874D01*
G01X5999Y-15872D01*
G01X6001Y-15870D01*
G01X6004Y-15868D01*
G01X6007Y-15866D01*
G01X6010Y-15865D01*
G01X6013Y-15864D01*
G01X6016Y-15863D01*
G01X6019Y-15862D01*
G01X6023D01*
G01X6027Y-15861D01*
G01X6030D01*
G01X6039Y-15862D01*
G01X6047Y-15863D01*
G01X6057Y-15865D01*
G01X6072Y-15869D01*
G01X6095Y-15877D01*
G01X6114Y-15884D01*
G01X6152Y-15898D01*
G01X6256Y-15928D01*
G01X6418Y-15964D01*
G01X6587Y-15993D01*
G01X6647Y-16000D01*
G01X6706Y-16003D01*
G01X6764D01*
G01X6820Y-16000D01*
G01X6876Y-15994D01*
G01X6930Y-15984D01*
G01X6983Y-15972D01*
G01X7034Y-15956D01*
G01X7085Y-15938D01*
G01X7133Y-15917D01*
G01X7180Y-15894D01*
G01X7226Y-15868D01*
G01X7270Y-15840D01*
G01X7312Y-15810D01*
G01X7352Y-15777D01*
G01X7391Y-15742D01*
G01X7427Y-15705D01*
G01X7462Y-15667D01*
G01X7495Y-15626D01*
G01X7526Y-15584D01*
G01X7554Y-15540D01*
G01X7581Y-15495D01*
G01X7605Y-15449D01*
G01X7633Y-15384D01*
G01X7658Y-15318D01*
G01X7678Y-15250D01*
G01X7690Y-15198D01*
G01X7699Y-15145D01*
G01X7706Y-15091D01*
G01X7710Y-15037D01*
G01X7712Y-14982D01*
G01X7710Y-14927D01*
G01X7706Y-14871D01*
G01X7699Y-14815D01*
G01X7689Y-14759D01*
G01X7675Y-14703D01*
G01X7659Y-14648D01*
G01X7640Y-14592D01*
G01X7617Y-14536D01*
G01X7591Y-14481D01*
G01X7561Y-14427D01*
G01X7540Y-14391D01*
G01X7500Y-14330D01*
G01X7458Y-14275D01*
G01X7414Y-14223D01*
G01X7368Y-14176D01*
G01X7336Y-14148D01*
G01X7302Y-14121D01*
G01X7268Y-14096D01*
G01X7232Y-14073D01*
G01X7196Y-14052D01*
G01X7158Y-14034D01*
G01X7119Y-14017D01*
G01X7078Y-14001D01*
G01X7037Y-13988D01*
G01X6972Y-13972D01*
G01X6905Y-13961D01*
G01X6834Y-13953D01*
G01X6760Y-13950D01*
G01X6684Y-13951D01*
G01X6576Y-13959D01*
G01X6463Y-13975D01*
G01X6313Y-14005D01*
G01X6153Y-14046D01*
G01X6120Y-14056D01*
G01X6097Y-14062D01*
G01X6077Y-14066D01*
G01X6059Y-14067D01*
G01X6043Y-14066D01*
G01X6028Y-14062D01*
G01X6016Y-14056D01*
G01X6005Y-14046D01*
G01X5996Y-14033D01*
G01X5988Y-14017D01*
G01X5982Y-13997D01*
G01X5976Y-13974D01*
G01X5972Y-13946D01*
G01X5968Y-13879D01*
G01X5966Y-13794D01*
G01X5969Y-13684D01*
G01X5973Y-13631D01*
G01X5978Y-13595D01*
G01X5983Y-13573D01*
G01X5989Y-13553D01*
G01X5996Y-13534D01*
G01X6004Y-13516D01*
G01X6013Y-13500D01*
G01X6024Y-13484D01*
G01X6036Y-13470D01*
G01X6049Y-13457D01*
G01X6065Y-13445D01*
G01X6082Y-13434D01*
G01X6100Y-13423D01*
G01X6121Y-13414D01*
G01X6144Y-13405D01*
G01X6182Y-13393D01*
G01X6225Y-13382D01*
G01X6308Y-13366D01*
G01X6500Y-13342D01*
G01X6604Y-13331D01*
G01X6751Y-13320D01*
G01X6839Y-13319D01*
G01X6907Y-13321D01*
G01X6973Y-13326D01*
G01X7024Y-13333D01*
G01X7074Y-13343D01*
G01X7137Y-13359D01*
G01X7202Y-13379D01*
G01X7284Y-13410D01*
G01X7402Y-13462D01*
G01X7518Y-13519D01*
G37*
G36*
G01X-2973Y-14966D02*
G01X-2973Y-16545D01*
G01X-3320D01*
G01X-3667D01*
G01X-3692Y-15834D01*
G01X-3718Y-15122D01*
G01X-4200Y-15832D01*
G01X-4682Y-16541D01*
G01X-5098Y-16543D01*
G01X-5222Y-16540D01*
G01X-5330Y-16532D01*
G01X-5392Y-16524D01*
G01X-5431Y-16517D01*
G01X-5454Y-16512D01*
G01X-5473Y-16506D01*
G01X-5489Y-16500D01*
G01X-5496Y-16497D01*
G01X-5501Y-16494D01*
G01X-5506Y-16491D01*
G01X-5510Y-16487D01*
G01X-5512Y-16484D01*
G01X-5514Y-16481D01*
G01Y-16477D01*
G01X-5507Y-16455D01*
G01X-5487Y-16417D01*
G01X-5411Y-16304D01*
G01X-5232Y-16070D01*
G01X-5161Y-15983D01*
G01X-4886Y-15630D01*
G01X-4714Y-15389D01*
G01X-4661Y-15305D01*
G01X-4621Y-15242D01*
G01X-4582Y-15186D01*
G01X-4543Y-15136D01*
G01X-4514Y-15104D01*
G01X-4494Y-15084D01*
G01X-4482Y-15074D01*
G01X-4471Y-15065D01*
G01X-4466Y-15062D01*
G01X-4461Y-15059D01*
G01X-4456Y-15057D01*
G01X-4452Y-15055D01*
G01X-4448Y-15054D01*
G01X-4444D01*
G01X-4430Y-15053D01*
G01X-4418Y-15051D01*
G01X-4407Y-15048D01*
G01X-4398Y-15043D01*
G01X-4391Y-15037D01*
G01X-4385Y-15029D01*
G01X-4382Y-15020D01*
G01X-4379Y-15009D01*
G01Y-14997D01*
G01X-4380Y-14983D01*
G01X-4384Y-14967D01*
G01X-4389Y-14949D01*
G01X-4395Y-14930D01*
G01X-4415Y-14886D01*
G01X-4441Y-14834D01*
G01X-4496Y-14742D01*
G01X-4660Y-14498D01*
G01X-4901Y-14170D01*
G01X-5369Y-13525D01*
G01X-5413Y-13457D01*
G01X-5422Y-13440D01*
G01X-5425Y-13435D01*
G01X-5426Y-13433D01*
G01X-5427Y-13431D01*
G01Y-13430D01*
G01X-5419Y-13421D01*
G01X-5396Y-13414D01*
G01X-5359Y-13407D01*
G01X-5253Y-13395D01*
G01X-5034Y-13388D01*
G01X-4641D01*
G01X-4158Y-14111D01*
G01X-3674Y-14833D01*
G01Y-14111D01*
G01Y-13388D01*
G01X-3323D01*
G01X-2973D01*
G01Y-14966D01*
G37*
G36*
G01X2110Y-14966D02*
G01X2110Y-16545D01*
G01X1190D01*
G01X270D01*
G01Y-16282D01*
G01Y-16019D01*
G01X839D01*
G01X1409D01*
G01Y-15624D01*
G01Y-15229D01*
G01X883D01*
G01X357D01*
G01Y-14966D01*
G01Y-14703D01*
G01X883D01*
G01X1409D01*
G01Y-14309D01*
G01Y-13914D01*
G01X839D01*
G01X270D01*
G01Y-13651D01*
G01Y-13388D01*
G01X1190D01*
G01X2110D01*
G01Y-14966D01*
G37*
G36*
G01X-10948Y-14966D02*
G01X-10948Y-16545D01*
G01X-11298D01*
G01X-11649D01*
G01Y-14966D01*
G01Y-13388D01*
G01X-11298D01*
G01X-10948D01*
G01Y-14966D01*
G37*
G36*
G01X-9546Y-14966D02*
G01X-9546Y-16545D01*
G01X-9896D01*
G01X-10247D01*
G01Y-14966D01*
G01Y-13388D01*
G01X-9896D01*
G01X-9546D01*
G01Y-14966D01*
G37*
G36*
G01X10202Y-15200D02*
G01X10202Y-15200D01*
G01X10214Y-15216D01*
G01X10225Y-15239D01*
G01X10235Y-15268D01*
G01X10243Y-15302D01*
G01X10250Y-15339D01*
G01X10256Y-15379D01*
G01X10259Y-15421D01*
G01X10260Y-15463D01*
G01X10259Y-15513D01*
G01X10256Y-15542D01*
G01X10254Y-15555D01*
G01X10251Y-15566D01*
G01X10247Y-15577D01*
G01X10242Y-15588D01*
G01X10236Y-15597D01*
G01X10229Y-15606D01*
G01X10220Y-15614D01*
G01X10211Y-15621D01*
G01X10200Y-15627D01*
G01X10187Y-15633D01*
G01X10173Y-15639D01*
G01X10157Y-15643D01*
G01X10119Y-15651D01*
G01X10074Y-15657D01*
G01X9989Y-15663D01*
G01X9647Y-15668D01*
G01X9033D01*
G01Y-15405D01*
G01Y-15142D01*
G01X9589D01*
G01X9847Y-15148D01*
G01X10018Y-15161D01*
G01X10099Y-15171D01*
G01X10142Y-15179D01*
G01X10165Y-15184D01*
G01X10179Y-15189D01*
G01X10187Y-15191D01*
G01X10193Y-15194D01*
G01X10196Y-15196D01*
G01X10198Y-15197D01*
G01X10200Y-15199D01*
G01X10202Y-15200D01*
G37*
G04 Image End*
G04 Image End*

G04 Text Start*
G04 //text: LED1*
G54D10*
G01X17577Y1577D02*
G01X17577Y927D01*
G01X17577Y927D02*
G01X17206Y927D01*
G01X16904Y1577D02*
G01X16904Y927D01*
G01X16904Y1577D02*
G01X16502Y1577D01*
G01X16904Y1267D02*
G01X16657Y1267D01*
G01X16904Y927D02*
G01X16502Y927D01*
G01X16200Y1577D02*
G01X16200Y927D01*
G01X16200Y1577D02*
G01X15984Y1577D01*
G01X15890Y1547D01*
G01X15829Y1486D01*
G01X15799Y1422D01*
G01X15768Y1331D01*
G01Y1176D01*
G01X15799Y1082D01*
G01X15829Y1021D01*
G01X15890Y958D01*
G01X15984Y927D01*
G01X16200D01*
G01X15466Y1453D02*
G01X15405Y1486D01*
G01X15311Y1577D01*
G01Y927D01*
G04 //text: TM*
G01X-6876Y-13485D02*
G01X-6876Y-14333D01*
G01X-6591Y-13485D02*
G01X-7158Y-13485D01*
G01X-7582Y-13485D02*
G01X-7582Y-14333D01*
G01X-7582Y-13485D02*
G01X-7904Y-14333D01*
G01X-8230Y-13485D02*
G01X-7904Y-14333D01*
G01X-8230Y-13485D02*
G01X-8230Y-14333D01*
G04 Text End*

G04 PolygonModel Start*
G54D11*
G01X-9598Y-15929D02*
G01X-16036Y-15929D01*
G54D12*
G01X-3048Y-2032D02*
G01X-3302Y-1905D01*
G01X-3302Y-2286D02*
G01X-3683Y-2032D01*
G01X-3683Y-2032D02*
G01X-5207Y-2032D01*
G01X-5207Y-2032D02*
G01X-5334Y-2286D01*
G01X-5334Y-2286D02*
G01X-4826Y-2540D01*
G01X-4826Y-2540D02*
G01X-3429Y-2540D01*
G01X-3429Y-2540D02*
G01X-3302Y-2286D01*
G01X-4826Y2794D02*
G01X-5207Y3048D01*
G01X-5207Y3048D02*
G01X-6731Y3048D01*
G01X-6731Y3048D02*
G01X-6858Y2794D01*
G01X-6858Y2794D02*
G01X-6350Y2540D01*
G01X-6350Y2540D02*
G01X-4953Y2540D01*
G01X-4953Y2540D02*
G01X-4826Y2794D01*
G01X-4445Y508D02*
G01X-5969Y508D01*
G01X-5969Y508D02*
G01X-6096Y254D01*
G01X-6096Y254D02*
G01X-5588Y-0D01*
G01X-5588Y-0D02*
G01X-4191Y-0D01*
G01X-4191Y-0D02*
G01X-4064Y254D01*
G01X-4064Y254D02*
G01X-4445Y508D01*
G01X-6223Y-0D02*
G01X-5969Y-127D01*
G01X-5969Y-127D02*
G01X-5461Y-1905D01*
G01X-5461Y-1905D02*
G01X-5588Y-2159D01*
G01X-5588Y-2159D02*
G01X-5842Y-2032D01*
G01X-5842Y-2032D02*
G01X-6350Y-254D01*
G01X-6350Y-254D02*
G01X-6223Y-0D01*
G01X-3683Y127D02*
G01X-3429Y-0D01*
G01X-3429Y-0D02*
G01X-2921Y-1778D01*
G01X-2921Y-1778D02*
G01X-3048Y-2032D01*
G01X-3048Y-2032D02*
G01X-3302Y-1905D01*
G01X-3302Y-1905D02*
G01X-3810Y-127D01*
G01X-3810Y-127D02*
G01X-3683Y127D01*
G01X-6731Y2413D02*
G01X-6985Y2540D01*
G01X-6985Y2540D02*
G01X-6731Y2413D01*
G01X-6731Y2413D02*
G01X-6223Y635D01*
G01X-6223Y635D02*
G01X-6350Y381D01*
G01X-6350Y381D02*
G01X-6604Y508D01*
G01X-6604Y508D02*
G01X-7112Y2286D01*
G01X-7112Y2286D02*
G01X-6985Y2540D01*
G01X-4572Y2413D02*
G01X-4445Y2667D01*
G01X-4445Y2667D02*
G01X-4191Y2540D01*
G01X-4191Y2540D02*
G01X-3683Y762D01*
G01X-3683Y762D02*
G01X-3810Y508D01*
G01X-3810Y508D02*
G01X-4064Y635D01*
G01X-4064Y635D02*
G01X-4572Y2413D01*
G01X-4572Y2413D02*
G01X-4445Y2667D01*
G01X-4445Y2667D02*
G01X-4191Y2540D01*
G01X11176Y-2413D02*
G01X10922Y-2286D01*
G01X10922Y-2667D02*
G01X10541Y-2413D01*
G01X10541Y-2413D02*
G01X9017Y-2413D01*
G01X9017Y-2413D02*
G01X8890Y-2667D01*
G01X8890Y-2667D02*
G01X9398Y-2921D01*
G01X9398Y-2921D02*
G01X10795Y-2921D01*
G01X10795Y-2921D02*
G01X10922Y-2667D01*
G01X9398Y2413D02*
G01X9017Y2667D01*
G01X9017Y2667D02*
G01X7493Y2667D01*
G01X7493Y2667D02*
G01X7366Y2413D01*
G01X7366Y2413D02*
G01X7874Y2159D01*
G01X7874Y2159D02*
G01X9271Y2159D01*
G01X9271Y2159D02*
G01X9398Y2413D01*
G01X9779Y127D02*
G01X8255Y127D01*
G01X8255Y127D02*
G01X8128Y-127D01*
G01X8128Y-127D02*
G01X8636Y-381D01*
G01X8636Y-381D02*
G01X10033Y-381D01*
G01X10033Y-381D02*
G01X10160Y-127D01*
G01X10160Y-127D02*
G01X9779Y127D01*
G01X8001Y-381D02*
G01X8255Y-508D01*
G01X8255Y-508D02*
G01X8763Y-2286D01*
G01X8763Y-2286D02*
G01X8636Y-2540D01*
G01X8636Y-2540D02*
G01X8382Y-2413D01*
G01X8382Y-2413D02*
G01X7874Y-635D01*
G01X7874Y-635D02*
G01X8001Y-381D01*
G01X10541Y-254D02*
G01X10795Y-381D01*
G01X10795Y-381D02*
G01X11303Y-2159D01*
G01X11303Y-2159D02*
G01X11176Y-2413D01*
G01X11176Y-2413D02*
G01X10922Y-2286D01*
G01X10922Y-2286D02*
G01X10414Y-508D01*
G01X10414Y-508D02*
G01X10541Y-254D01*
G01X7493Y2032D02*
G01X7239Y2159D01*
G01X7239Y2159D02*
G01X7493Y2032D01*
G01X7493Y2032D02*
G01X8001Y254D01*
G01X8001Y254D02*
G01X7874Y-0D01*
G01X7874Y-0D02*
G01X7620Y127D01*
G01X7620Y127D02*
G01X7112Y1905D01*
G01X7112Y1905D02*
G01X7239Y2159D01*
G01X9652Y2032D02*
G01X9779Y2286D01*
G01X9779Y2286D02*
G01X10033Y2159D01*
G01X10033Y2159D02*
G01X10541Y381D01*
G01X10541Y381D02*
G01X10414Y127D01*
G01X10414Y127D02*
G01X10160Y254D01*
G01X10160Y254D02*
G01X9652Y2032D01*
G01X9652Y2032D02*
G01X9779Y2286D01*
G01X9779Y2286D02*
G01X10033Y2159D01*
G01X2794Y2286D02*
G01X2540Y2413D01*
G01X2540Y2413D02*
G01X2413Y2159D01*
G01X3937Y-2286D02*
G01X3683Y-2159D01*
G01X1016Y-381D02*
G01X1524Y-2159D01*
G01X1524Y-2159D02*
G01X1397Y-2413D01*
G01X1397Y-2413D02*
G01X1143Y-2286D01*
G01X1143Y-2286D02*
G01X635Y-508D01*
G01X635Y-508D02*
G01X762Y-254D01*
G01X762Y-254D02*
G01X1016Y-381D01*
G01X2921Y-0D02*
G01X2540Y254D01*
G01X2540Y254D02*
G01X1016Y254D01*
G01X1016Y254D02*
G01X889Y-0D01*
G01X889Y-0D02*
G01X1397Y-254D01*
G01X1397Y-254D02*
G01X2794Y-254D01*
G01X2794Y-254D02*
G01X2921Y-0D01*
G01X1778Y2794D02*
G01X254Y2794D01*
G01X254Y2794D02*
G01X127Y2540D01*
G01X127Y2540D02*
G01X635Y2286D01*
G01X635Y2286D02*
G01X2032Y2286D01*
G01X2032Y2286D02*
G01X2159Y2540D01*
G01X2159Y2540D02*
G01X1778Y2794D01*
G01X0Y2286D02*
G01X-127Y2032D01*
G01X-127Y2032D02*
G01X381Y254D01*
G01X381Y254D02*
G01X635Y127D01*
G01X635Y127D02*
G01X762Y381D01*
G01X762Y381D02*
G01X254Y2159D01*
G01X254Y2159D02*
G01X0Y2286D01*
G01X0Y2286D02*
G01X254Y2159D01*
G01X2921Y381D02*
G01X2413Y2159D01*
G01X2413Y2159D02*
G01X2540Y2413D01*
G01X2540Y2413D02*
G01X2794Y2286D01*
G01X2794Y2286D02*
G01X3302Y508D01*
G01X3302Y508D02*
G01X3175Y254D01*
G01X3175Y254D02*
G01X2921Y381D01*
G01X3302Y-2286D02*
G01X1778Y-2286D01*
G01X1778Y-2286D02*
G01X1651Y-2540D01*
G01X1651Y-2540D02*
G01X2159Y-2794D01*
G01X2159Y-2794D02*
G01X3556Y-2794D01*
G01X3556Y-2794D02*
G01X3683Y-2540D01*
G01X3683Y-2540D02*
G01X3302Y-2286D01*
G01X3302Y-127D02*
G01X3556Y-254D01*
G01X3556Y-254D02*
G01X4064Y-2032D01*
G01X4064Y-2032D02*
G01X3937Y-2286D01*
G01X3937Y-2286D02*
G01X3683Y-2159D01*
G01X3683Y-2159D02*
G01X3175Y-381D01*
G01X3175Y-381D02*
G01X3302Y-127D01*
G01X-6551Y-2106D02*
G02X-6553Y-2465I-3J-180D01*
G02X-6556Y-2106I0J180D01*
G01X7673Y-2487D02*
G02X7671Y-2846I-3J-180D01*
G02X7668Y-2487I0J180D01*
G01X434Y-2360D02*
G02X432Y-2719I-3J-180D01*
G02X429Y-2360I0J180D01*
G04 PolygonModel End*

G04 Rect Start*
G01X19562Y-9627D02*
G01X19562Y9373D01*
G01X-18038D01*
G01Y-9627D01*
G01X19562D01*
G04 Rect End*

M02*
