G04 Layer: DrillDrawingLayer*
G04 EasyEDA Pro v1.9.29.eba1c1, 2023-03-25 18:59:35*
G04 Gerber Generator version 0.3*
G04 Scale: 100 percent, Rotated: No, Reflected: No*
G04 Dimensions in millimeters*
G04 Leading zeros omitted, absolute positions, 3 integers and 3 decimals*
%FSLAX33Y33*%
%MOMM*%
%ADD10C,0.254*%
G75*


G04 Image Start*
G36*
G01X16565Y-6150D02*
G01X16565Y-6187D01*
G01X16601D01*
G01X16927D01*
G01Y-6513D01*
G01X16601D01*
G01Y-6187D01*
G01X16565D01*
G01Y-6549D01*
G01X16964D01*
G01Y-6150D01*
G37*
G36*
G01X-14859Y4010D02*
G01X-14879Y4008D01*
G01X-14899Y4006D01*
G01X-14918Y4001D01*
G01X-14937Y3994D01*
G01X-14954Y3985D01*
G01X-14970Y3975D01*
G01X-14986Y3964D01*
G01X-15000Y3951D01*
G01X-15013Y3937D01*
G01X-15024Y3921D01*
G01X-15034Y3905D01*
G01X-15043Y3888D01*
G01X-15049Y3869D01*
G01X-15055Y3850D01*
G01X-15057Y3830D01*
G01X-15059Y3810D01*
G01X-15025D01*
G01X-15024Y3827D01*
G01X-15022Y3844D01*
G01X-15017Y3859D01*
G01X-15012Y3875D01*
G01X-15005Y3889D01*
G01X-14997Y3903D01*
G01X-14987Y3916D01*
G01X-14976Y3927D01*
G01X-14965Y3938D01*
G01X-14952Y3948D01*
G01X-14938Y3956D01*
G01X-14924Y3963D01*
G01X-14908Y3968D01*
G01X-14893Y3973D01*
G01X-14876Y3975D01*
G01X-14859Y3976D01*
G01X-14842Y3975D01*
G01X-14825Y3973D01*
G01X-14810Y3968D01*
G01X-14794Y3963D01*
G01X-14780Y3956D01*
G01X-14766Y3948D01*
G01X-14753Y3938D01*
G01X-14742Y3927D01*
G01X-14731Y3916D01*
G01X-14721Y3903D01*
G01X-14713Y3889D01*
G01X-14706Y3875D01*
G01X-14701Y3859D01*
G01X-14696Y3844D01*
G01X-14694Y3827D01*
G01X-14693Y3810D01*
G01X-14694Y3793D01*
G01X-14696Y3776D01*
G01X-14701Y3761D01*
G01X-14706Y3745D01*
G01X-14713Y3731D01*
G01X-14721Y3717D01*
G01X-14731Y3704D01*
G01X-14742Y3693D01*
G01X-14753Y3682D01*
G01X-14766Y3672D01*
G01X-14780Y3664D01*
G01X-14794Y3657D01*
G01X-14810Y3652D01*
G01X-14825Y3647D01*
G01X-14842Y3645D01*
G01X-14859Y3644D01*
G01X-14876Y3645D01*
G01X-14893Y3647D01*
G01X-14908Y3652D01*
G01X-14924Y3657D01*
G01X-14938Y3664D01*
G01X-14952Y3672D01*
G01X-14965Y3682D01*
G01X-14976Y3693D01*
G01X-14987Y3704D01*
G01X-14997Y3717D01*
G01X-15005Y3731D01*
G01X-15012Y3745D01*
G01X-15017Y3761D01*
G01X-15022Y3776D01*
G01X-15024Y3793D01*
G01X-15025Y3810D01*
G01X-15059D01*
G01X-15057Y3790D01*
G01X-15055Y3770D01*
G01X-15049Y3751D01*
G01X-15043Y3732D01*
G01X-15034Y3715D01*
G01X-15024Y3699D01*
G01X-15013Y3683D01*
G01X-15000Y3669D01*
G01X-14986Y3656D01*
G01X-14970Y3645D01*
G01X-14954Y3635D01*
G01X-14937Y3626D01*
G01X-14918Y3620D01*
G01X-14899Y3614D01*
G01X-14879Y3612D01*
G01X-14859Y3611D01*
G01X-14839Y3612D01*
G01X-14819Y3614D01*
G01X-14800Y3620D01*
G01X-14781Y3626D01*
G01X-14764Y3635D01*
G01X-14748Y3645D01*
G01X-14732Y3656D01*
G01X-14718Y3669D01*
G01X-14705Y3683D01*
G01X-14694Y3699D01*
G01X-14684Y3715D01*
G01X-14675Y3732D01*
G01X-14668Y3751D01*
G01X-14663Y3770D01*
G01X-14661Y3790D01*
G01X-14659Y3810D01*
G01X-14661Y3830D01*
G01X-14663Y3850D01*
G01X-14668Y3869D01*
G01X-14675Y3888D01*
G01X-14684Y3905D01*
G01X-14694Y3921D01*
G01X-14705Y3937D01*
G01X-14718Y3951D01*
G01X-14732Y3964D01*
G01X-14748Y3975D01*
G01X-14764Y3985D01*
G01X-14781Y3994D01*
G01X-14800Y4001D01*
G01X-14819Y4006D01*
G01X-14839Y4008D01*
G37*
G36*
G01X-14732Y-4245D02*
G01X-14752Y-4247D01*
G01X-14772Y-4249D01*
G01X-14791Y-4254D01*
G01X-14810Y-4261D01*
G01X-14827Y-4270D01*
G01X-14843Y-4280D01*
G01X-14859Y-4291D01*
G01X-14873Y-4304D01*
G01X-14886Y-4318D01*
G01X-14897Y-4334D01*
G01X-14907Y-4350D01*
G01X-14916Y-4367D01*
G01X-14922Y-4386D01*
G01X-14928Y-4405D01*
G01X-14930Y-4425D01*
G01X-14932Y-4445D01*
G01X-14898D01*
G01X-14897Y-4428D01*
G01X-14895Y-4411D01*
G01X-14890Y-4396D01*
G01X-14885Y-4380D01*
G01X-14878Y-4366D01*
G01X-14870Y-4352D01*
G01X-14860Y-4339D01*
G01X-14849Y-4328D01*
G01X-14838Y-4317D01*
G01X-14825Y-4307D01*
G01X-14811Y-4299D01*
G01X-14797Y-4292D01*
G01X-14781Y-4287D01*
G01X-14766Y-4282D01*
G01X-14749Y-4280D01*
G01X-14732Y-4279D01*
G01X-14715Y-4280D01*
G01X-14698Y-4282D01*
G01X-14683Y-4287D01*
G01X-14667Y-4292D01*
G01X-14653Y-4299D01*
G01X-14639Y-4307D01*
G01X-14626Y-4317D01*
G01X-14615Y-4328D01*
G01X-14604Y-4339D01*
G01X-14594Y-4352D01*
G01X-14586Y-4366D01*
G01X-14579Y-4380D01*
G01X-14574Y-4396D01*
G01X-14569Y-4411D01*
G01X-14567Y-4428D01*
G01X-14566Y-4445D01*
G01X-14567Y-4462D01*
G01X-14569Y-4479D01*
G01X-14574Y-4494D01*
G01X-14579Y-4510D01*
G01X-14586Y-4524D01*
G01X-14594Y-4538D01*
G01X-14604Y-4551D01*
G01X-14615Y-4562D01*
G01X-14626Y-4573D01*
G01X-14639Y-4583D01*
G01X-14653Y-4591D01*
G01X-14667Y-4598D01*
G01X-14683Y-4603D01*
G01X-14698Y-4608D01*
G01X-14715Y-4610D01*
G01X-14732Y-4611D01*
G01X-14749Y-4610D01*
G01X-14766Y-4608D01*
G01X-14781Y-4603D01*
G01X-14797Y-4598D01*
G01X-14811Y-4591D01*
G01X-14825Y-4583D01*
G01X-14838Y-4573D01*
G01X-14849Y-4562D01*
G01X-14860Y-4551D01*
G01X-14870Y-4538D01*
G01X-14878Y-4524D01*
G01X-14885Y-4510D01*
G01X-14890Y-4494D01*
G01X-14895Y-4479D01*
G01X-14897Y-4462D01*
G01X-14898Y-4445D01*
G01X-14932D01*
G01X-14930Y-4465D01*
G01X-14928Y-4485D01*
G01X-14922Y-4504D01*
G01X-14916Y-4523D01*
G01X-14907Y-4540D01*
G01X-14897Y-4556D01*
G01X-14886Y-4572D01*
G01X-14873Y-4586D01*
G01X-14859Y-4599D01*
G01X-14843Y-4610D01*
G01X-14827Y-4620D01*
G01X-14810Y-4629D01*
G01X-14791Y-4635D01*
G01X-14772Y-4641D01*
G01X-14752Y-4643D01*
G01X-14732Y-4644D01*
G01X-14712Y-4643D01*
G01X-14692Y-4641D01*
G01X-14673Y-4635D01*
G01X-14654Y-4629D01*
G01X-14637Y-4620D01*
G01X-14621Y-4610D01*
G01X-14605Y-4599D01*
G01X-14591Y-4586D01*
G01X-14578Y-4572D01*
G01X-14567Y-4556D01*
G01X-14557Y-4540D01*
G01X-14548Y-4523D01*
G01X-14541Y-4504D01*
G01X-14536Y-4485D01*
G01X-14534Y-4465D01*
G01X-14532Y-4445D01*
G01X-14534Y-4425D01*
G01X-14536Y-4405D01*
G01X-14541Y-4386D01*
G01X-14548Y-4367D01*
G01X-14557Y-4350D01*
G01X-14567Y-4334D01*
G01X-14578Y-4318D01*
G01X-14591Y-4304D01*
G01X-14605Y-4291D01*
G01X-14621Y-4280D01*
G01X-14637Y-4270D01*
G01X-14654Y-4261D01*
G01X-14673Y-4254D01*
G01X-14692Y-4249D01*
G01X-14712Y-4247D01*
G37*
G36*
G01X-6168Y-5034D02*
G01X-6149Y-5068D01*
G01X-6111D01*
G01X-5827D01*
G01X-5898Y-5190D01*
G01X-5969Y-5313D01*
G01X-6040Y-5190D01*
G01X-6111Y-5068D01*
G01X-6149D01*
G01X-5969Y-5380D01*
G01X-5869Y-5207D01*
G01X-5769Y-5034D01*
G37*
G36*
G01X-4644Y-5034D02*
G01X-4625Y-5068D01*
G01X-4587D01*
G01X-4303D01*
G01X-4374Y-5190D01*
G01X-4445Y-5313D01*
G01X-4516Y-5190D01*
G01X-4587Y-5068D01*
G01X-4625D01*
G01X-4445Y-5380D01*
G01X-4345Y-5207D01*
G01X-4245Y-5034D01*
G37*
G36*
G01X9960Y-3637D02*
G01X9980Y-3671D01*
G01X10018D01*
G01X10302D01*
G01X10231Y-3793D01*
G01X10160Y-3916D01*
G01X10089Y-3793D01*
G01X10018Y-3671D01*
G01X9980D01*
G01X10060Y-3810D01*
G01X10160Y-3983D01*
G01X10260Y-3810D01*
G01X10360Y-3637D01*
G37*
G36*
G01X3048Y12930D02*
G01X2991Y12800D01*
G01X2849Y12815D01*
G01X2933Y12700D01*
G01X2880Y12627D01*
G01X2922D01*
G01X2961Y12680D01*
G01X2975Y12700D01*
G01X2961Y12720D01*
G01X2922Y12773D01*
G01X2987Y12766D01*
G01X3011Y12763D01*
G01X3022Y12786D01*
G01X3048Y12846D01*
G01X3074Y12786D01*
G01X3085Y12763D01*
G01X3109Y12766D01*
G01X3174Y12773D01*
G01X3135Y12720D01*
G01X3121Y12700D01*
G01X3135Y12680D01*
G01X3174Y12627D01*
G01X3109Y12634D01*
G01X3085Y12637D01*
G01X3074Y12614D01*
G01X3048Y12554D01*
G01X3022Y12614D01*
G01X3011Y12637D01*
G01X2987Y12634D01*
G01X2922Y12627D01*
G01X2880D01*
G01X2849Y12585D01*
G01X2991Y12600D01*
G01X3048Y12470D01*
G01X3105Y12600D01*
G01X3248Y12585D01*
G01X3163Y12700D01*
G01X3248Y12815D01*
G01X3105Y12800D01*
G37*
G36*
G01X508Y12930D02*
G01X451Y12800D01*
G01X309Y12815D01*
G01X393Y12700D01*
G01X340Y12627D01*
G01X382D01*
G01X421Y12680D01*
G01X435Y12700D01*
G01X421Y12720D01*
G01X382Y12773D01*
G01X447Y12766D01*
G01X471Y12763D01*
G01X482Y12786D01*
G01X508Y12846D01*
G01X534Y12786D01*
G01X545Y12763D01*
G01X569Y12766D01*
G01X634Y12773D01*
G01X595Y12720D01*
G01X581Y12700D01*
G01X595Y12680D01*
G01X634Y12627D01*
G01X569Y12634D01*
G01X545Y12637D01*
G01X534Y12614D01*
G01X508Y12554D01*
G01X482Y12614D01*
G01X471Y12637D01*
G01X447Y12634D01*
G01X382Y12627D01*
G01X340D01*
G01X309Y12585D01*
G01X451Y12600D01*
G01X508Y12470D01*
G01X565Y12600D01*
G01X708Y12585D01*
G01X623Y12700D01*
G01X708Y12815D01*
G01X565Y12800D01*
G37*
G36*
G01X-2032Y12930D02*
G01X-2089Y12800D01*
G01X-2231Y12815D01*
G01X-2147Y12700D01*
G01X-2200Y12627D01*
G01X-2158D01*
G01X-2119Y12680D01*
G01X-2105Y12700D01*
G01X-2119Y12720D01*
G01X-2158Y12773D01*
G01X-2093Y12766D01*
G01X-2069Y12763D01*
G01X-2058Y12786D01*
G01X-2032Y12846D01*
G01X-2006Y12786D01*
G01X-1995Y12763D01*
G01X-1971Y12766D01*
G01X-1906Y12773D01*
G01X-1945Y12720D01*
G01X-1959Y12700D01*
G01X-1945Y12680D01*
G01X-1906Y12627D01*
G01X-1971Y12634D01*
G01X-1995Y12637D01*
G01X-2006Y12614D01*
G01X-2032Y12554D01*
G01X-2058Y12614D01*
G01X-2069Y12637D01*
G01X-2093Y12634D01*
G01X-2158Y12627D01*
G01X-2200D01*
G01X-2231Y12585D01*
G01X-2089Y12600D01*
G01X-2032Y12470D01*
G01X-1975Y12600D01*
G01X-1832Y12585D01*
G01X-1917Y12700D01*
G01X-1832Y12815D01*
G01X-1975Y12800D01*
G37*
G36*
G01X8563Y-9833D02*
G01X8595Y-9901D01*
G01X8631D01*
G01X8749Y-9955D01*
G01X8763Y-9962D01*
G01X8777Y-9955D01*
G01X8895Y-9901D01*
G01X8841Y-10019D01*
G01X8834Y-10033D01*
G01X8841Y-10047D01*
G01X8895Y-10165D01*
G01X8777Y-10111D01*
G01X8763Y-10104D01*
G01X8749Y-10111D01*
G01X8631Y-10165D01*
G01X8685Y-10047D01*
G01X8692Y-10033D01*
G01X8685Y-10019D01*
G01X8631Y-9901D01*
G01X8595D01*
G01X8655Y-10033D01*
G01X8563Y-10232D01*
G01X8763Y-10141D01*
G01X8963Y-10232D01*
G01X8871Y-10033D01*
G01X8963Y-9833D01*
G01X8763Y-9925D01*
G37*
G36*
G01X11103Y-9833D02*
G01X11135Y-9901D01*
G01X11171D01*
G01X11289Y-9955D01*
G01X11303Y-9962D01*
G01X11317Y-9955D01*
G01X11435Y-9901D01*
G01X11381Y-10019D01*
G01X11374Y-10033D01*
G01X11381Y-10047D01*
G01X11435Y-10165D01*
G01X11317Y-10111D01*
G01X11303Y-10104D01*
G01X11289Y-10111D01*
G01X11171Y-10165D01*
G01X11225Y-10047D01*
G01X11232Y-10033D01*
G01X11225Y-10019D01*
G01X11171Y-9901D01*
G01X11135D01*
G01X11195Y-10033D01*
G01X11103Y-10232D01*
G01X11303Y-10141D01*
G01X11503Y-10232D01*
G01X11411Y-10033D01*
G01X11503Y-9833D01*
G01X11303Y-9925D01*
G37*
G36*
G01X13643Y-9833D02*
G01X13675Y-9901D01*
G01X13711D01*
G01X13829Y-9955D01*
G01X13843Y-9962D01*
G01X13857Y-9955D01*
G01X13975Y-9901D01*
G01X13921Y-10019D01*
G01X13914Y-10033D01*
G01X13921Y-10047D01*
G01X13975Y-10165D01*
G01X13857Y-10111D01*
G01X13843Y-10104D01*
G01X13829Y-10111D01*
G01X13711Y-10165D01*
G01X13765Y-10047D01*
G01X13772Y-10033D01*
G01X13765Y-10019D01*
G01X13711Y-9901D01*
G01X13675D01*
G01X13735Y-10033D01*
G01X13643Y-10232D01*
G01X13843Y-10141D01*
G01X14043Y-10232D01*
G01X13951Y-10033D01*
G01X14043Y-9833D01*
G01X13843Y-9925D01*
G37*
G36*
G01X16183Y-9833D02*
G01X16215Y-9901D01*
G01X16251D01*
G01X16369Y-9955D01*
G01X16383Y-9962D01*
G01X16397Y-9955D01*
G01X16515Y-9901D01*
G01X16461Y-10019D01*
G01X16454Y-10033D01*
G01X16461Y-10047D01*
G01X16515Y-10165D01*
G01X16397Y-10111D01*
G01X16383Y-10104D01*
G01X16369Y-10111D01*
G01X16251Y-10165D01*
G01X16305Y-10047D01*
G01X16312Y-10033D01*
G01X16305Y-10019D01*
G01X16251Y-9901D01*
G01X16215D01*
G01X16275Y-10033D01*
G01X16183Y-10232D01*
G01X16383Y-10141D01*
G01X16583Y-10232D01*
G01X16491Y-10033D01*
G01X16583Y-9833D01*
G01X16383Y-9925D01*
G37*
G36*
G01X7022Y7693D02*
G01X7022Y7583D01*
G01X6913D01*
G01Y7436D01*
G01X6946D01*
G01Y7550D01*
G01X7055D01*
G01Y7659D01*
G01X7169D01*
G01Y7550D01*
G01X7278D01*
G01Y7436D01*
G01X7169D01*
G01Y7327D01*
G01X7055D01*
G01Y7436D01*
G01X6946D01*
G01X6913D01*
G01Y7403D01*
G01X7022D01*
G01Y7294D01*
G01X7202D01*
G01Y7403D01*
G01X7312D01*
G01Y7583D01*
G01X7202D01*
G01Y7693D01*
G37*
G36*
G01X4482Y7692D02*
G01X4482Y7583D01*
G01X4373D01*
G01Y7436D01*
G01X4406D01*
G01Y7550D01*
G01X4515D01*
G01Y7659D01*
G01X4629D01*
G01Y7550D01*
G01X4738D01*
G01Y7436D01*
G01X4629D01*
G01Y7327D01*
G01X4515D01*
G01Y7436D01*
G01X4406D01*
G01X4373D01*
G01Y7402D01*
G01X4482D01*
G01Y7293D01*
G01X4662D01*
G01Y7403D01*
G01X4772D01*
G01Y7583D01*
G01X4662D01*
G01Y7692D01*
G37*
G36*
G01X1942Y7692D02*
G01X1942Y7583D01*
G01X1833D01*
G01Y7436D01*
G01X1866D01*
G01Y7550D01*
G01X1975D01*
G01Y7659D01*
G01X2089D01*
G01Y7550D01*
G01X2198D01*
G01Y7436D01*
G01X2089D01*
G01Y7327D01*
G01X1975D01*
G01Y7436D01*
G01X1866D01*
G01X1833D01*
G01Y7402D01*
G01X1942D01*
G01Y7293D01*
G01X2122D01*
G01Y7403D01*
G01X2232D01*
G01Y7583D01*
G01X2122D01*
G01Y7692D01*
G37*
G36*
G01X-598Y7692D02*
G01X-598Y7583D01*
G01X-707D01*
G01Y7436D01*
G01X-674D01*
G01Y7550D01*
G01X-565D01*
G01Y7659D01*
G01X-451D01*
G01Y7550D01*
G01X-342D01*
G01Y7436D01*
G01X-451D01*
G01Y7327D01*
G01X-565D01*
G01Y7436D01*
G01X-674D01*
G01X-707D01*
G01Y7402D01*
G01X-598D01*
G01Y7293D01*
G01X-418D01*
G01Y7403D01*
G01X-309D01*
G01Y7583D01*
G01X-418D01*
G01Y7692D01*
G37*
G36*
G01X-3138Y7692D02*
G01X-3138Y7583D01*
G01X-3247D01*
G01Y7436D01*
G01X-3214D01*
G01Y7550D01*
G01X-3105D01*
G01Y7659D01*
G01X-2991D01*
G01Y7550D01*
G01X-2882D01*
G01Y7436D01*
G01X-2991D01*
G01Y7327D01*
G01X-3105D01*
G01Y7436D01*
G01X-3214D01*
G01X-3247D01*
G01Y7402D01*
G01X-3138D01*
G01Y7293D01*
G01X-2958D01*
G01Y7403D01*
G01X-2848D01*
G01Y7583D01*
G01X-2958D01*
G01Y7692D01*
G37*
G36*
G01X-5678Y7692D02*
G01X-5678Y7583D01*
G01X-5787D01*
G01Y7436D01*
G01X-5754D01*
G01Y7550D01*
G01X-5645D01*
G01Y7659D01*
G01X-5531D01*
G01Y7550D01*
G01X-5422D01*
G01Y7436D01*
G01X-5531D01*
G01Y7327D01*
G01X-5645D01*
G01Y7436D01*
G01X-5754D01*
G01X-5787D01*
G01Y7402D01*
G01X-5678D01*
G01Y7293D01*
G01X-5498D01*
G01Y7403D01*
G01X-5388D01*
G01Y7583D01*
G01X-5498D01*
G01Y7692D01*
G37*
G36*
G01X-5678Y-7547D02*
G01X-5678Y-7657D01*
G01X-5787D01*
G01Y-7804D01*
G01X-5754D01*
G01Y-7690D01*
G01X-5645D01*
G01Y-7581D01*
G01X-5531D01*
G01Y-7690D01*
G01X-5422D01*
G01Y-7804D01*
G01X-5531D01*
G01Y-7913D01*
G01X-5645D01*
G01Y-7804D01*
G01X-5754D01*
G01X-5787D01*
G01Y-7837D01*
G01X-5678D01*
G01Y-7946D01*
G01X-5498D01*
G01Y-7837D01*
G01X-5388D01*
G01Y-7657D01*
G01X-5498D01*
G01Y-7547D01*
G37*
G36*
G01X-3138Y-7547D02*
G01X-3138Y-7657D01*
G01X-3247D01*
G01Y-7804D01*
G01X-3214D01*
G01Y-7690D01*
G01X-3105D01*
G01Y-7581D01*
G01X-2991D01*
G01Y-7690D01*
G01X-2882D01*
G01Y-7804D01*
G01X-2991D01*
G01Y-7913D01*
G01X-3105D01*
G01Y-7804D01*
G01X-3214D01*
G01X-3247D01*
G01Y-7837D01*
G01X-3138D01*
G01Y-7946D01*
G01X-2958D01*
G01Y-7837D01*
G01X-2848D01*
G01Y-7657D01*
G01X-2958D01*
G01Y-7547D01*
G37*
G36*
G01X-598Y-7547D02*
G01X-598Y-7657D01*
G01X-707D01*
G01Y-7804D01*
G01X-674D01*
G01Y-7690D01*
G01X-565D01*
G01Y-7581D01*
G01X-451D01*
G01Y-7690D01*
G01X-342D01*
G01Y-7804D01*
G01X-451D01*
G01Y-7913D01*
G01X-565D01*
G01Y-7804D01*
G01X-674D01*
G01X-707D01*
G01Y-7837D01*
G01X-598D01*
G01Y-7946D01*
G01X-418D01*
G01Y-7837D01*
G01X-309D01*
G01Y-7657D01*
G01X-418D01*
G01Y-7547D01*
G37*
G36*
G01X1942Y-7547D02*
G01X1942Y-7657D01*
G01X1833D01*
G01Y-7804D01*
G01X1866D01*
G01Y-7690D01*
G01X1975D01*
G01Y-7581D01*
G01X2089D01*
G01Y-7690D01*
G01X2198D01*
G01Y-7804D01*
G01X2089D01*
G01Y-7913D01*
G01X1975D01*
G01Y-7804D01*
G01X1866D01*
G01X1833D01*
G01Y-7837D01*
G01X1942D01*
G01Y-7946D01*
G01X2122D01*
G01Y-7837D01*
G01X2232D01*
G01Y-7657D01*
G01X2122D01*
G01Y-7547D01*
G37*
G36*
G01X4482Y-7547D02*
G01X4482Y-7657D01*
G01X4373D01*
G01Y-7804D01*
G01X4406D01*
G01Y-7690D01*
G01X4515D01*
G01Y-7581D01*
G01X4629D01*
G01Y-7690D01*
G01X4738D01*
G01Y-7804D01*
G01X4629D01*
G01Y-7913D01*
G01X4515D01*
G01Y-7804D01*
G01X4406D01*
G01X4373D01*
G01Y-7837D01*
G01X4482D01*
G01Y-7946D01*
G01X4662D01*
G01Y-7837D01*
G01X4772D01*
G01Y-7657D01*
G01X4662D01*
G01Y-7547D01*
G37*
G36*
G01X7022Y-7547D02*
G01X7022Y-7657D01*
G01X6913D01*
G01Y-7804D01*
G01X6946D01*
G01Y-7690D01*
G01X7055D01*
G01Y-7581D01*
G01X7169D01*
G01Y-7690D01*
G01X7278D01*
G01Y-7804D01*
G01X7169D01*
G01Y-7913D01*
G01X7055D01*
G01Y-7804D01*
G01X6946D01*
G01X6913D01*
G01Y-7837D01*
G01X7022D01*
G01Y-7946D01*
G01X7202D01*
G01Y-7837D01*
G01X7312D01*
G01Y-7657D01*
G01X7202D01*
G01Y-7547D01*
G37*
G36*
G01X17200Y-7928D02*
G01X17200Y-7965D01*
G01X17236D01*
G01X17322D01*
G01X17399Y-8118D01*
G01X17476Y-7965D01*
G01X17562D01*
G01Y-8051D01*
G01X17409Y-8128D01*
G01X17562Y-8205D01*
G01Y-8291D01*
G01X17476D01*
G01X17399Y-8138D01*
G01X17322Y-8291D01*
G01X17236D01*
G01Y-8205D01*
G01X17389Y-8128D01*
G01X17236Y-8051D01*
G01Y-7965D01*
G01X17200D01*
G01Y-8074D01*
G01X17309Y-8128D01*
G01X17200Y-8182D01*
G01Y-8328D01*
G01X17345D01*
G01X17399Y-8218D01*
G01X17453Y-8328D01*
G01X17599D01*
G01Y-8182D01*
G01X17489Y-8128D01*
G01X17599Y-8074D01*
G01Y-7928D01*
G01X17453D01*
G01X17399Y-8038D01*
G01X17345Y-7928D01*
G37*
G36*
G01X-10105Y9090D02*
G01X-10105Y9053D01*
G01X-10069D01*
G01X-9983D01*
G01X-9906Y8900D01*
G01X-9829Y9053D01*
G01X-9743D01*
G01Y8967D01*
G01X-9896Y8890D01*
G01X-9743Y8813D01*
G01Y8727D01*
G01X-9829D01*
G01X-9906Y8880D01*
G01X-9983Y8727D01*
G01X-10069D01*
G01Y8813D01*
G01X-9916Y8890D01*
G01X-10069Y8967D01*
G01Y9053D01*
G01X-10105D01*
G01Y8944D01*
G01X-9996Y8890D01*
G01X-10105Y8836D01*
G01Y8690D01*
G01X-9960D01*
G01X-9906Y8800D01*
G01X-9852Y8690D01*
G01X-9706D01*
G01Y8836D01*
G01X-9816Y8890D01*
G01X-9706Y8944D01*
G01Y9090D01*
G01X-9852D01*
G01X-9906Y8980D01*
G01X-9960Y9090D01*
G37*
G36*
G01X-8962Y3756D02*
G01X-8962Y3719D01*
G01X-8926D01*
G01X-8840D01*
G01X-8763Y3566D01*
G01X-8686Y3719D01*
G01X-8600D01*
G01Y3633D01*
G01X-8753Y3556D01*
G01X-8600Y3479D01*
G01Y3393D01*
G01X-8686D01*
G01X-8763Y3546D01*
G01X-8840Y3393D01*
G01X-8926D01*
G01Y3479D01*
G01X-8773Y3556D01*
G01X-8926Y3633D01*
G01Y3719D01*
G01X-8962D01*
G01Y3610D01*
G01X-8853Y3556D01*
G01X-8962Y3502D01*
G01Y3357D01*
G01X-8817D01*
G01X-8763Y3466D01*
G01X-8709Y3357D01*
G01X-8563D01*
G01Y3502D01*
G01X-8673Y3556D01*
G01X-8563Y3610D01*
G01Y3756D01*
G01X-8709D01*
G01X-8763Y3646D01*
G01X-8817Y3756D01*
G37*
G36*
G01X-11375Y4772D02*
G01X-11375Y4735D01*
G01X-11339D01*
G01X-11253D01*
G01X-11176Y4582D01*
G01X-11099Y4735D01*
G01X-11013D01*
G01Y4649D01*
G01X-11166Y4572D01*
G01X-11013Y4495D01*
G01Y4409D01*
G01X-11099D01*
G01X-11176Y4562D01*
G01X-11253Y4409D01*
G01X-11339D01*
G01Y4495D01*
G01X-11186Y4572D01*
G01X-11339Y4649D01*
G01Y4735D01*
G01X-11375D01*
G01Y4626D01*
G01X-11266Y4572D01*
G01X-11375Y4518D01*
G01Y4373D01*
G01X-11230D01*
G01X-11176Y4482D01*
G01X-11122Y4373D01*
G01X-10976D01*
G01Y4518D01*
G01X-11086Y4572D01*
G01X-10976Y4626D01*
G01Y4772D01*
G01X-11122D01*
G01X-11176Y4662D01*
G01X-11230Y4772D01*
G37*
G36*
G01X-9343Y-1832D02*
G01X-9343Y-1869D01*
G01X-9307D01*
G01X-9221D01*
G01X-9144Y-2022D01*
G01X-9067Y-1869D01*
G01X-8981D01*
G01Y-1955D01*
G01X-9134Y-2032D01*
G01X-8981Y-2109D01*
G01Y-2195D01*
G01X-9067D01*
G01X-9144Y-2042D01*
G01X-9221Y-2195D01*
G01X-9307D01*
G01Y-2109D01*
G01X-9154Y-2032D01*
G01X-9307Y-1955D01*
G01Y-1869D01*
G01X-9343D01*
G01Y-1978D01*
G01X-9234Y-2032D01*
G01X-9343Y-2086D01*
G01Y-2231D01*
G01X-9198D01*
G01X-9144Y-2122D01*
G01X-9090Y-2231D01*
G01X-8944D01*
G01Y-2086D01*
G01X-9054Y-2032D01*
G01X-8944Y-1978D01*
G01Y-1832D01*
G01X-9090D01*
G01X-9144Y-1942D01*
G01X-9198Y-1832D01*
G37*
G36*
G01X-8327Y834D02*
G01X-8327Y798D01*
G01X-8291D01*
G01X-8205D01*
G01X-8128Y645D01*
G01X-8051Y798D01*
G01X-7965D01*
G01Y712D01*
G01X-8118Y635D01*
G01X-7965Y558D01*
G01Y472D01*
G01X-8051D01*
G01X-8128Y625D01*
G01X-8205Y472D01*
G01X-8291D01*
G01Y558D01*
G01X-8138Y635D01*
G01X-8291Y712D01*
G01Y798D01*
G01X-8327D01*
G01Y689D01*
G01X-8218Y635D01*
G01X-8327Y581D01*
G01Y435D01*
G01X-8182D01*
G01X-8128Y545D01*
G01X-8074Y435D01*
G01X-7928D01*
G01Y581D01*
G01X-8038Y635D01*
G01X-7928Y689D01*
G01Y834D01*
G01X-8074D01*
G01X-8128Y725D01*
G01X-8182Y834D01*
G37*
G36*
G01X-8454Y-2848D02*
G01X-8454Y-2885D01*
G01X-8418D01*
G01X-8332D01*
G01X-8255Y-3038D01*
G01X-8178Y-2885D01*
G01X-8092D01*
G01Y-2971D01*
G01X-8245Y-3048D01*
G01X-8092Y-3125D01*
G01Y-3211D01*
G01X-8178D01*
G01X-8255Y-3058D01*
G01X-8332Y-3211D01*
G01X-8418D01*
G01Y-3125D01*
G01X-8265Y-3048D01*
G01X-8418Y-2971D01*
G01Y-2885D01*
G01X-8454D01*
G01Y-2994D01*
G01X-8345Y-3048D01*
G01X-8454Y-3102D01*
G01Y-3247D01*
G01X-8309D01*
G01X-8255Y-3138D01*
G01X-8201Y-3247D01*
G01X-8055D01*
G01Y-3102D01*
G01X-8165Y-3048D01*
G01X-8055Y-2994D01*
G01Y-2848D01*
G01X-8201D01*
G01X-8255Y-2958D01*
G01X-8309Y-2848D01*
G37*
G36*
G01X-16074Y5026D02*
G01X-16074Y4989D01*
G01X-16038D01*
G01X-15952D01*
G01X-15875Y4836D01*
G01X-15798Y4989D01*
G01X-15712D01*
G01Y4903D01*
G01X-15865Y4826D01*
G01X-15712Y4749D01*
G01Y4663D01*
G01X-15798D01*
G01X-15875Y4816D01*
G01X-15952Y4663D01*
G01X-16038D01*
G01Y4749D01*
G01X-15885Y4826D01*
G01X-16038Y4903D01*
G01Y4989D01*
G01X-16074D01*
G01Y4880D01*
G01X-15965Y4826D01*
G01X-16074Y4772D01*
G01Y4627D01*
G01X-15929D01*
G01X-15875Y4736D01*
G01X-15821Y4627D01*
G01X-15675D01*
G01Y4772D01*
G01X-15785Y4826D01*
G01X-15675Y4880D01*
G01Y5026D01*
G01X-15821D01*
G01X-15875Y4916D01*
G01X-15929Y5026D01*
G37*
G36*
G01X-16074Y7407D02*
G01X-16074Y7371D01*
G01X-16038D01*
G01X-15952D01*
G01X-15875Y7217D01*
G01X-15798Y7371D01*
G01X-15712D01*
G01Y7284D01*
G01X-15865Y7208D01*
G01X-15800Y7176D01*
G01X-15712Y7131D01*
G01Y7044D01*
G01X-15798D01*
G01X-15842Y7133D01*
G01X-15875Y7198D01*
G01X-15908Y7133D01*
G01X-15952Y7044D01*
G01X-16038D01*
G01Y7131D01*
G01X-15950Y7176D01*
G01X-15885Y7208D01*
G01X-16038Y7284D01*
G01Y7371D01*
G01X-16074D01*
G01Y7262D01*
G01X-15965Y7208D01*
G01X-16074Y7153D01*
G01Y7008D01*
G01X-15929D01*
G01X-15875Y7117D01*
G01X-15821Y7008D01*
G01X-15675D01*
G01Y7153D01*
G01X-15785Y7208D01*
G01X-15675Y7262D01*
G01Y7407D01*
G01X-15821D01*
G01X-15875Y7298D01*
G01X-15929Y7407D01*
G37*
G36*
G01X563Y6677D02*
G01X563Y6640D01*
G01X599D01*
G01X685D01*
G01X762Y6487D01*
G01X839Y6640D01*
G01X925D01*
G01Y6554D01*
G01X772Y6477D01*
G01X925Y6400D01*
G01Y6314D01*
G01X839D01*
G01X762Y6467D01*
G01X685Y6314D01*
G01X599D01*
G01Y6400D01*
G01X752Y6477D01*
G01X599Y6554D01*
G01Y6640D01*
G01X563D01*
G01Y6531D01*
G01X672Y6477D01*
G01X563Y6423D01*
G01Y6278D01*
G01X708D01*
G01X762Y6387D01*
G01X816Y6278D01*
G01X962D01*
G01Y6423D01*
G01X852Y6477D01*
G01X962Y6531D01*
G01Y6677D01*
G01X816D01*
G01X762Y6567D01*
G01X708Y6677D01*
G37*
G36*
G01X-7946Y7312D02*
G01X-7946Y7275D01*
G01X-7910D01*
G01X-7824D01*
G01X-7747Y7122D01*
G01X-7670Y7275D01*
G01X-7584D01*
G01Y7189D01*
G01X-7737Y7112D01*
G01X-7584Y7035D01*
G01Y6949D01*
G01X-7670D01*
G01X-7747Y7102D01*
G01X-7824Y6949D01*
G01X-7910D01*
G01Y7035D01*
G01X-7757Y7112D01*
G01X-7910Y7189D01*
G01Y7275D01*
G01X-7946D01*
G01Y7166D01*
G01X-7837Y7112D01*
G01X-7946Y7058D01*
G01Y6913D01*
G01X-7801D01*
G01X-7747Y7022D01*
G01X-7693Y6913D01*
G01X-7547D01*
G01Y7058D01*
G01X-7657Y7112D01*
G01X-7547Y7166D01*
G01Y7312D01*
G01X-7693D01*
G01X-7747Y7202D01*
G01X-7801Y7312D01*
G37*
G36*
G01X-1723Y9852D02*
G01X-1723Y9815D01*
G01X-1687D01*
G01X-1601D01*
G01X-1524Y9662D01*
G01X-1447Y9815D01*
G01X-1361D01*
G01Y9729D01*
G01X-1514Y9652D01*
G01X-1361Y9575D01*
G01Y9489D01*
G01X-1447D01*
G01X-1524Y9642D01*
G01X-1601Y9489D01*
G01X-1687D01*
G01Y9575D01*
G01X-1534Y9652D01*
G01X-1687Y9729D01*
G01Y9815D01*
G01X-1723D01*
G01Y9706D01*
G01X-1614Y9652D01*
G01X-1723Y9598D01*
G01Y9452D01*
G01X-1578D01*
G01X-1524Y9562D01*
G01X-1470Y9452D01*
G01X-1324D01*
G01Y9598D01*
G01X-1434Y9652D01*
G01X-1324Y9706D01*
G01Y9852D01*
G01X-1470D01*
G01X-1524Y9742D01*
G01X-1578Y9852D01*
G37*
G36*
G01X10596Y-12500D02*
G01X10596Y-12537D01*
G01X10632D01*
G01X10718D01*
G01X10795Y-12690D01*
G01X10872Y-12537D01*
G01X10958D01*
G01Y-12623D01*
G01X10805Y-12700D01*
G01X10958Y-12777D01*
G01Y-12863D01*
G01X10872D01*
G01X10795Y-12710D01*
G01X10718Y-12863D01*
G01X10632D01*
G01Y-12777D01*
G01X10785Y-12700D01*
G01X10632Y-12623D01*
G01Y-12537D01*
G01X10596D01*
G01Y-12646D01*
G01X10705Y-12700D01*
G01X10596Y-12754D01*
G01Y-12900D01*
G01X10741D01*
G01X10795Y-12790D01*
G01X10849Y-12900D01*
G01X10995D01*
G01Y-12754D01*
G01X10885Y-12700D01*
G01X10995Y-12646D01*
G01Y-12500D01*
G01X10849D01*
G01X10795Y-12610D01*
G01X10741Y-12500D01*
G37*
G36*
G01X-14931Y10868D02*
G01X-14931Y10831D01*
G01X-14895D01*
G01X-14809D01*
G01X-14732Y10678D01*
G01X-14655Y10831D01*
G01X-14569D01*
G01Y10745D01*
G01X-14722Y10668D01*
G01X-14569Y10591D01*
G01Y10505D01*
G01X-14655D01*
G01X-14732Y10658D01*
G01X-14809Y10505D01*
G01X-14895D01*
G01Y10591D01*
G01X-14742Y10668D01*
G01X-14895Y10745D01*
G01Y10831D01*
G01X-14931D01*
G01Y10722D01*
G01X-14822Y10668D01*
G01X-14931Y10614D01*
G01Y10468D01*
G01X-14786D01*
G01X-14732Y10578D01*
G01X-14678Y10468D01*
G01X-14532D01*
G01Y10614D01*
G01X-14642Y10668D01*
G01X-14532Y10722D01*
G01Y10868D01*
G01X-14678D01*
G01X-14732Y10758D01*
G01X-14786Y10868D01*
G37*
G36*
G01X6024Y-13516D02*
G01X6024Y-13553D01*
G01X6060D01*
G01X6146D01*
G01X6223Y-13706D01*
G01X6300Y-13553D01*
G01X6386D01*
G01Y-13639D01*
G01X6233Y-13716D01*
G01X6386Y-13793D01*
G01Y-13879D01*
G01X6300D01*
G01X6223Y-13726D01*
G01X6146Y-13879D01*
G01X6060D01*
G01Y-13793D01*
G01X6213Y-13716D01*
G01X6060Y-13639D01*
G01Y-13553D01*
G01X6024D01*
G01Y-13662D01*
G01X6133Y-13716D01*
G01X6024Y-13770D01*
G01Y-13916D01*
G01X6169D01*
G01X6223Y-13806D01*
G01X6277Y-13916D01*
G01X6423D01*
G01Y-13770D01*
G01X6313Y-13716D01*
G01X6423Y-13662D01*
G01Y-13516D01*
G01X6277D01*
G01X6223Y-13626D01*
G01X6169Y-13516D01*
G37*
G36*
G01X14533Y-16183D02*
G01X14533Y-16220D01*
G01X14569D01*
G01X14655D01*
G01X14732Y-16373D01*
G01X14809Y-16220D01*
G01X14895D01*
G01Y-16306D01*
G01X14742Y-16383D01*
G01X14895Y-16460D01*
G01Y-16546D01*
G01X14809D01*
G01X14732Y-16393D01*
G01X14655Y-16546D01*
G01X14569D01*
G01Y-16460D01*
G01X14722Y-16383D01*
G01X14569Y-16306D01*
G01Y-16220D01*
G01X14533D01*
G01Y-16329D01*
G01X14642Y-16383D01*
G01X14533Y-16437D01*
G01Y-16582D01*
G01X14678D01*
G01X14732Y-16473D01*
G01X14786Y-16582D01*
G01X14932D01*
G01Y-16437D01*
G01X14822Y-16383D01*
G01X14932Y-16329D01*
G01Y-16183D01*
G01X14786D01*
G01X14732Y-16293D01*
G01X14678Y-16183D01*
G37*
G36*
G01X-199Y-5134D02*
G01X-199Y-5171D01*
G01X-163D01*
G01X-77D01*
G01X0Y-5324D01*
G01X77Y-5171D01*
G01X163D01*
G01Y-5257D01*
G01X10Y-5334D01*
G01X163Y-5411D01*
G01Y-5497D01*
G01X77D01*
G01X0Y-5344D01*
G01X-77Y-5497D01*
G01X-163D01*
G01Y-5411D01*
G01X-10Y-5334D01*
G01X-163Y-5257D01*
G01Y-5171D01*
G01X-199D01*
G01Y-5280D01*
G01X-90Y-5334D01*
G01X-199Y-5388D01*
G01Y-5533D01*
G01X-54D01*
G01X0Y-5424D01*
G01X54Y-5533D01*
G01X199D01*
G01Y-5388D01*
G01X90Y-5334D01*
G01X199Y-5280D01*
G01Y-5134D01*
G01X54D01*
G01X0Y-5244D01*
G01X-54Y-5134D01*
G37*
G36*
G01X-327Y-5896D02*
G01X-327Y-5933D01*
G01X-290D01*
G01X-204D01*
G01X-127Y-6086D01*
G01X-50Y-5933D01*
G01X36D01*
G01Y-6019D01*
G01X-117Y-6096D01*
G01X36Y-6173D01*
G01Y-6259D01*
G01X-50D01*
G01X-127Y-6106D01*
G01X-204Y-6259D01*
G01X-290D01*
G01Y-6173D01*
G01X-137Y-6096D01*
G01X-290Y-6019D01*
G01Y-5933D01*
G01X-327D01*
G01Y-6042D01*
G01X-217Y-6096D01*
G01X-327Y-6150D01*
G01Y-6295D01*
G01X-181D01*
G01X-127Y-6186D01*
G01X-73Y-6295D01*
G01X72D01*
G01Y-6150D01*
G01X-37Y-6096D01*
G01X72Y-6042D01*
G01Y-5896D01*
G01X-73D01*
G01X-127Y-6006D01*
G01X-181Y-5896D01*
G37*
G36*
G01X-5978Y-2595D02*
G01X-5978Y-2631D01*
G01X-5942D01*
G01X-5855D01*
G01X-5811Y-2720D01*
G01X-5778Y-2784D01*
G01X-5746Y-2720D01*
G01X-5702Y-2631D01*
G01X-5615D01*
G01Y-2717D01*
G01X-5769Y-2794D01*
G01X-5615Y-2871D01*
G01Y-2957D01*
G01X-5702D01*
G01X-5778Y-2804D01*
G01X-5855Y-2957D01*
G01X-5942D01*
G01Y-2871D01*
G01X-5788Y-2794D01*
G01X-5942Y-2717D01*
G01Y-2631D01*
G01X-5978D01*
G01Y-2740D01*
G01X-5869Y-2794D01*
G01X-5978Y-2848D01*
G01Y-2994D01*
G01X-5833D01*
G01X-5778Y-2884D01*
G01X-5724Y-2994D01*
G01X-5579D01*
G01Y-2848D01*
G01X-5688Y-2794D01*
G01X-5579Y-2740D01*
G01Y-2595D01*
G01X-5724D01*
G01X-5778Y-2704D01*
G01X-5833Y-2595D01*
G37*
G36*
G01X17200Y11757D02*
G01X17200Y11720D01*
G01X17236D01*
G01X17322D01*
G01X17399Y11567D01*
G01X17476Y11720D01*
G01X17562D01*
G01Y11634D01*
G01X17409Y11557D01*
G01X17562Y11480D01*
G01Y11394D01*
G01X17476D01*
G01X17399Y11547D01*
G01X17322Y11394D01*
G01X17236D01*
G01Y11480D01*
G01X17389Y11557D01*
G01X17236Y11634D01*
G01Y11720D01*
G01X17200D01*
G01Y11611D01*
G01X17309Y11557D01*
G01X17200Y11503D01*
G01Y11357D01*
G01X17345D01*
G01X17399Y11467D01*
G01X17453Y11357D01*
G01X17599D01*
G01Y11503D01*
G01X17489Y11557D01*
G01X17599Y11611D01*
G01Y11757D01*
G01X17453D01*
G01X17399Y11647D01*
G01X17345Y11757D01*
G37*
G36*
G01X1325Y327D02*
G01X1325Y290D01*
G01X1361D01*
G01X1447D01*
G01X1524Y137D01*
G01X1601Y290D01*
G01X1687D01*
G01Y204D01*
G01X1534Y127D01*
G01X1687Y50D01*
G01Y-36D01*
G01X1601D01*
G01X1524Y117D01*
G01X1447Y-36D01*
G01X1361D01*
G01Y50D01*
G01X1514Y127D01*
G01X1361Y204D01*
G01Y290D01*
G01X1325D01*
G01Y181D01*
G01X1434Y127D01*
G01X1325Y73D01*
G01Y-72D01*
G01X1470D01*
G01X1524Y37D01*
G01X1578Y-72D01*
G01X1724D01*
G01Y73D01*
G01X1614Y127D01*
G01X1724Y181D01*
G01Y327D01*
G01X1578D01*
G01X1524Y217D01*
G01X1470Y327D01*
G37*
G36*
G01X10088Y12138D02*
G01X10088Y12101D01*
G01X10124D01*
G01X10210D01*
G01X10287Y11948D01*
G01X10364Y12101D01*
G01X10450D01*
G01Y12015D01*
G01X10297Y11938D01*
G01X10450Y11861D01*
G01Y11775D01*
G01X10364D01*
G01X10287Y11928D01*
G01X10210Y11775D01*
G01X10124D01*
G01Y11861D01*
G01X10277Y11938D01*
G01X10124Y12015D01*
G01Y12101D01*
G01X10088D01*
G01Y11992D01*
G01X10197Y11938D01*
G01X10088Y11884D01*
G01Y11738D01*
G01X10233D01*
G01X10287Y11848D01*
G01X10341Y11738D01*
G01X10487D01*
G01Y11884D01*
G01X10377Y11938D01*
G01X10487Y11992D01*
G01Y12138D01*
G01X10341D01*
G01X10287Y12028D01*
G01X10233Y12138D01*
G37*
G36*
G01X5643Y5661D02*
G01X5643Y5624D01*
G01X5679D01*
G01X5765D01*
G01X5842Y5471D01*
G01X5919Y5624D01*
G01X6005D01*
G01Y5538D01*
G01X5852Y5461D01*
G01X6005Y5384D01*
G01Y5298D01*
G01X5919D01*
G01X5842Y5451D01*
G01X5765Y5298D01*
G01X5679D01*
G01Y5384D01*
G01X5832Y5461D01*
G01X5679Y5538D01*
G01Y5624D01*
G01X5643D01*
G01Y5515D01*
G01X5752Y5461D01*
G01X5643Y5407D01*
G01Y5262D01*
G01X5788D01*
G01X5842Y5371D01*
G01X5896Y5262D01*
G01X6042D01*
G01Y5407D01*
G01X5932Y5461D01*
G01X6042Y5515D01*
G01Y5661D01*
G01X5896D01*
G01X5842Y5551D01*
G01X5788Y5661D01*
G37*
G36*
G01X-16963Y-8944D02*
G01X-16963Y-8981D01*
G01X-16927D01*
G01X-16841D01*
G01X-16764Y-9134D01*
G01X-16687Y-8981D01*
G01X-16601D01*
G01Y-9067D01*
G01X-16754Y-9144D01*
G01X-16601Y-9221D01*
G01Y-9307D01*
G01X-16687D01*
G01X-16764Y-9154D01*
G01X-16841Y-9307D01*
G01X-16927D01*
G01Y-9221D01*
G01X-16774Y-9144D01*
G01X-16927Y-9067D01*
G01Y-8981D01*
G01X-16963D01*
G01Y-9090D01*
G01X-16854Y-9144D01*
G01X-16963Y-9198D01*
G01Y-9344D01*
G01X-16818D01*
G01X-16764Y-9234D01*
G01X-16710Y-9344D01*
G01X-16564D01*
G01Y-9198D01*
G01X-16674Y-9144D01*
G01X-16564Y-9090D01*
G01Y-8944D01*
G01X-16710D01*
G01X-16764Y-9054D01*
G01X-16818Y-8944D01*
G37*
G36*
G01X-11629Y-10341D02*
G01X-11629Y-10378D01*
G01X-11593D01*
G01X-11507D01*
G01X-11430Y-10531D01*
G01X-11353Y-10378D01*
G01X-11267D01*
G01Y-10464D01*
G01X-11420Y-10541D01*
G01X-11267Y-10618D01*
G01Y-10704D01*
G01X-11353D01*
G01X-11430Y-10551D01*
G01X-11507Y-10704D01*
G01X-11593D01*
G01Y-10618D01*
G01X-11440Y-10541D01*
G01X-11593Y-10464D01*
G01Y-10378D01*
G01X-11629D01*
G01Y-10487D01*
G01X-11520Y-10541D01*
G01X-11629Y-10595D01*
G01Y-10741D01*
G01X-11484D01*
G01X-11430Y-10631D01*
G01X-11376Y-10741D01*
G01X-11230D01*
G01Y-10595D01*
G01X-11340Y-10541D01*
G01X-11230Y-10487D01*
G01Y-10341D01*
G01X-11376D01*
G01X-11430Y-10451D01*
G01X-11484Y-10341D01*
G37*
G36*
G01X-11121Y-6912D02*
G01X-11121Y-6949D01*
G01X-11085D01*
G01X-10999D01*
G01X-10922Y-7102D01*
G01X-10845Y-6949D01*
G01X-10759D01*
G01Y-7035D01*
G01X-10912Y-7112D01*
G01X-10759Y-7189D01*
G01Y-7275D01*
G01X-10845D01*
G01X-10922Y-7122D01*
G01X-10999Y-7275D01*
G01X-11085D01*
G01Y-7189D01*
G01X-10932Y-7112D01*
G01X-11085Y-7035D01*
G01Y-6949D01*
G01X-11121D01*
G01Y-7058D01*
G01X-11012Y-7112D01*
G01X-11121Y-7166D01*
G01Y-7311D01*
G01X-10976D01*
G01X-10922Y-7202D01*
G01X-10868Y-7311D01*
G01X-10722D01*
G01Y-7166D01*
G01X-10832Y-7112D01*
G01X-10722Y-7058D01*
G01Y-6912D01*
G01X-10868D01*
G01X-10922Y-7022D01*
G01X-10976Y-6912D01*
G37*
G36*
G01X-16582Y-13262D02*
G01X-16582Y-13299D01*
G01X-16546D01*
G01X-16460D01*
G01X-16383Y-13452D01*
G01X-16306Y-13299D01*
G01X-16220D01*
G01Y-13385D01*
G01X-16373Y-13462D01*
G01X-16220Y-13539D01*
G01Y-13625D01*
G01X-16306D01*
G01X-16383Y-13472D01*
G01X-16460Y-13625D01*
G01X-16546D01*
G01Y-13539D01*
G01X-16393Y-13462D01*
G01X-16546Y-13385D01*
G01Y-13299D01*
G01X-16582D01*
G01Y-13408D01*
G01X-16473Y-13462D01*
G01X-16582Y-13516D01*
G01Y-13662D01*
G01X-16437D01*
G01X-16383Y-13552D01*
G01X-16329Y-13662D01*
G01X-16183D01*
G01Y-13516D01*
G01X-16293Y-13462D01*
G01X-16183Y-13408D01*
G01Y-13262D01*
G01X-16329D01*
G01X-16383Y-13372D01*
G01X-16437Y-13262D01*
G37*
G36*
G01X5262Y-2721D02*
G01X5262Y-2758D01*
G01X5298D01*
G01X5384D01*
G01X5461Y-2911D01*
G01X5538Y-2758D01*
G01X5624D01*
G01Y-2844D01*
G01X5471Y-2921D01*
G01X5624Y-2998D01*
G01Y-3084D01*
G01X5538D01*
G01X5461Y-2931D01*
G01X5384Y-3084D01*
G01X5298D01*
G01Y-2998D01*
G01X5451Y-2921D01*
G01X5298Y-2844D01*
G01Y-2758D01*
G01X5262D01*
G01Y-2867D01*
G01X5371Y-2921D01*
G01X5262Y-2975D01*
G01Y-3120D01*
G01X5407D01*
G01X5461Y-3011D01*
G01X5515Y-3120D01*
G01X5661D01*
G01Y-2975D01*
G01X5551Y-2921D01*
G01X5661Y-2867D01*
G01Y-2721D01*
G01X5515D01*
G01X5461Y-2831D01*
G01X5407Y-2721D01*
G37*
G36*
G01X-5787Y-10976D02*
G01X-5787Y-11013D01*
G01X-5751D01*
G01X-5665D01*
G01X-5588Y-11166D01*
G01X-5511Y-11013D01*
G01X-5425D01*
G01Y-11099D01*
G01X-5578Y-11176D01*
G01X-5425Y-11253D01*
G01Y-11339D01*
G01X-5511D01*
G01X-5588Y-11186D01*
G01X-5665Y-11339D01*
G01X-5751D01*
G01Y-11253D01*
G01X-5598Y-11176D01*
G01X-5751Y-11099D01*
G01Y-11013D01*
G01X-5787D01*
G01Y-11122D01*
G01X-5678Y-11176D01*
G01X-5787Y-11230D01*
G01Y-11376D01*
G01X-5642D01*
G01X-5588Y-11266D01*
G01X-5534Y-11376D01*
G01X-5388D01*
G01Y-11230D01*
G01X-5498Y-11176D01*
G01X-5388Y-11122D01*
G01Y-10976D01*
G01X-5534D01*
G01X-5588Y-11086D01*
G01X-5642Y-10976D01*
G37*
G36*
G01X-11629Y580D02*
G01X-11629Y544D01*
G01X-11593D01*
G01X-11507D01*
G01X-11430Y391D01*
G01X-11353Y544D01*
G01X-11267D01*
G01Y458D01*
G01X-11420Y381D01*
G01X-11267Y304D01*
G01Y218D01*
G01X-11353D01*
G01X-11430Y371D01*
G01X-11507Y218D01*
G01X-11593D01*
G01Y304D01*
G01X-11440Y381D01*
G01X-11593Y458D01*
G01Y544D01*
G01X-11629D01*
G01Y435D01*
G01X-11520Y381D01*
G01X-11629Y327D01*
G01Y181D01*
G01X-11484D01*
G01X-11430Y291D01*
G01X-11376Y181D01*
G01X-11230D01*
G01Y327D01*
G01X-11340Y381D01*
G01X-11230Y435D01*
G01Y580D01*
G01X-11376D01*
G01X-11430Y471D01*
G01X-11484Y580D01*
G37*
G36*
G01X-10740Y-2086D02*
G01X-10740Y-2123D01*
G01X-10704D01*
G01X-10618D01*
G01X-10541Y-2276D01*
G01X-10464Y-2123D01*
G01X-10378D01*
G01Y-2209D01*
G01X-10531Y-2286D01*
G01X-10378Y-2363D01*
G01Y-2449D01*
G01X-10464D01*
G01X-10541Y-2296D01*
G01X-10618Y-2449D01*
G01X-10704D01*
G01Y-2363D01*
G01X-10551Y-2286D01*
G01X-10704Y-2209D01*
G01Y-2123D01*
G01X-10740D01*
G01Y-2232D01*
G01X-10631Y-2286D01*
G01X-10740Y-2340D01*
G01Y-2485D01*
G01X-10595D01*
G01X-10541Y-2376D01*
G01X-10487Y-2485D01*
G01X-10341D01*
G01Y-2340D01*
G01X-10451Y-2286D01*
G01X-10341Y-2232D01*
G01Y-2086D01*
G01X-10487D01*
G01X-10541Y-2196D01*
G01X-10595Y-2086D01*
G37*
G36*
G01X1960Y-10087D02*
G01X1960Y-10124D01*
G01X1996D01*
G01X2082D01*
G01X2159Y-10277D01*
G01X2236Y-10124D01*
G01X2322D01*
G01Y-10210D01*
G01X2169Y-10287D01*
G01X2322Y-10364D01*
G01Y-10450D01*
G01X2236D01*
G01X2159Y-10297D01*
G01X2082Y-10450D01*
G01X1996D01*
G01Y-10364D01*
G01X2149Y-10287D01*
G01X1996Y-10210D01*
G01Y-10124D01*
G01X1960D01*
G01Y-10233D01*
G01X2069Y-10287D01*
G01X1960Y-10341D01*
G01Y-10487D01*
G01X2105D01*
G01X2159Y-10377D01*
G01X2213Y-10487D01*
G01X2359D01*
G01Y-10341D01*
G01X2249Y-10287D01*
G01X2359Y-10233D01*
G01Y-10087D01*
G01X2213D01*
G01X2159Y-10197D01*
G01X2105Y-10087D01*
G37*
G36*
G01X7811Y-2092D02*
G01X7811Y-2128D01*
G01X7847D01*
G01X7933D01*
G01X7978Y-2217D01*
G01X8010Y-2281D01*
G01X8043Y-2217D01*
G01X8087Y-2128D01*
G01X8173D01*
G01Y-2214D01*
G01X8084Y-2259D01*
G01X8020Y-2291D01*
G01X8084Y-2324D01*
G01X8173Y-2368D01*
G01Y-2454D01*
G01X8087D01*
G01X8010Y-2301D01*
G01X7933Y-2454D01*
G01X7847D01*
G01Y-2368D01*
G01X8000Y-2291D01*
G01X7847Y-2214D01*
G01Y-2128D01*
G01X7811D01*
G01Y-2237D01*
G01X7919Y-2291D01*
G01X7811Y-2345D01*
G01Y-2491D01*
G01X7956D01*
G01X8010Y-2382D01*
G01X8065Y-2491D01*
G01X8209D01*
G01Y-2345D01*
G01X8101Y-2291D01*
G01X8209Y-2237D01*
G01Y-2092D01*
G01X8065D01*
G01X8010Y-2201D01*
G01X7956Y-2092D01*
G37*
G36*
G01X-9216Y1724D02*
G01X-9216Y1687D01*
G01X-9180D01*
G01X-9094D01*
G01X-9017Y1534D01*
G01X-8940Y1687D01*
G01X-8854D01*
G01Y1601D01*
G01X-9007Y1524D01*
G01X-8854Y1447D01*
G01Y1361D01*
G01X-8940D01*
G01X-9017Y1514D01*
G01X-9094Y1361D01*
G01X-9180D01*
G01Y1447D01*
G01X-9027Y1524D01*
G01X-9180Y1601D01*
G01Y1687D01*
G01X-9216D01*
G01Y1578D01*
G01X-9107Y1524D01*
G01X-9216Y1470D01*
G01Y1325D01*
G01X-9071D01*
G01X-9017Y1434D01*
G01X-8963Y1325D01*
G01X-8817D01*
G01Y1470D01*
G01X-8927Y1524D01*
G01X-8817Y1578D01*
G01Y1724D01*
G01X-8963D01*
G01X-9017Y1614D01*
G01X-9071Y1724D01*
G37*
G36*
G01X-1215Y327D02*
G01X-1215Y290D01*
G01X-1179D01*
G01X-1093D01*
G01X-1016Y137D01*
G01X-939Y290D01*
G01X-853D01*
G01Y204D01*
G01X-1006Y127D01*
G01X-853Y50D01*
G01Y-36D01*
G01X-939D01*
G01X-1016Y117D01*
G01X-1093Y-36D01*
G01X-1179D01*
G01Y50D01*
G01X-1026Y127D01*
G01X-1179Y204D01*
G01Y290D01*
G01X-1215D01*
G01Y181D01*
G01X-1106Y127D01*
G01X-1215Y73D01*
G01Y-72D01*
G01X-1070D01*
G01X-1016Y37D01*
G01X-962Y-72D01*
G01X-816D01*
G01Y73D01*
G01X-926Y127D01*
G01X-816Y181D01*
G01Y327D01*
G01X-962D01*
G01X-1016Y217D01*
G01X-1070Y327D01*
G37*
G36*
G01X-7565Y-1832D02*
G01X-7565Y-1869D01*
G01X-7529D01*
G01X-7443D01*
G01X-7366Y-2022D01*
G01X-7289Y-1869D01*
G01X-7203D01*
G01Y-1955D01*
G01X-7356Y-2032D01*
G01X-7203Y-2109D01*
G01Y-2195D01*
G01X-7289D01*
G01X-7366Y-2042D01*
G01X-7443Y-2195D01*
G01X-7529D01*
G01Y-2109D01*
G01X-7376Y-2032D01*
G01X-7529Y-1955D01*
G01Y-1869D01*
G01X-7565D01*
G01Y-1978D01*
G01X-7456Y-2032D01*
G01X-7565Y-2086D01*
G01Y-2231D01*
G01X-7420D01*
G01X-7366Y-2122D01*
G01X-7312Y-2231D01*
G01X-7166D01*
G01Y-2086D01*
G01X-7276Y-2032D01*
G01X-7166Y-1978D01*
G01Y-1832D01*
G01X-7312D01*
G01X-7366Y-1942D01*
G01X-7420Y-1832D01*
G37*
G36*
G01X2595Y-8944D02*
G01X2595Y-8981D01*
G01X2631D01*
G01X2717D01*
G01X2794Y-9134D01*
G01X2871Y-8981D01*
G01X2957D01*
G01Y-9067D01*
G01X2804Y-9144D01*
G01X2957Y-9221D01*
G01Y-9307D01*
G01X2871D01*
G01X2794Y-9154D01*
G01X2717Y-9307D01*
G01X2631D01*
G01Y-9221D01*
G01X2784Y-9144D01*
G01X2631Y-9067D01*
G01Y-8981D01*
G01X2595D01*
G01Y-9090D01*
G01X2704Y-9144D01*
G01X2595Y-9198D01*
G01Y-9344D01*
G01X2740D01*
G01X2794Y-9234D01*
G01X2848Y-9344D01*
G01X2994D01*
G01Y-9198D01*
G01X2884Y-9144D01*
G01X2994Y-9090D01*
G01Y-8944D01*
G01X2848D01*
G01X2794Y-9054D01*
G01X2740Y-8944D01*
G37*
G36*
G01X-2104Y-8690D02*
G01X-2104Y-8727D01*
G01X-2068D01*
G01X-1982D01*
G01X-1905Y-8880D01*
G01X-1828Y-8727D01*
G01X-1742D01*
G01Y-8813D01*
G01X-1895Y-8890D01*
G01X-1742Y-8967D01*
G01Y-9053D01*
G01X-1828D01*
G01X-1905Y-8900D01*
G01X-1982Y-9053D01*
G01X-2068D01*
G01Y-8967D01*
G01X-1915Y-8890D01*
G01X-2068Y-8813D01*
G01Y-8727D01*
G01X-2104D01*
G01Y-8836D01*
G01X-1995Y-8890D01*
G01X-2104Y-8944D01*
G01Y-9090D01*
G01X-1959D01*
G01X-1905Y-8980D01*
G01X-1851Y-9090D01*
G01X-1706D01*
G01Y-8944D01*
G01X-1815Y-8890D01*
G01X-1706Y-8836D01*
G01Y-8690D01*
G01X-1851D01*
G01X-1905Y-8800D01*
G01X-1959Y-8690D01*
G37*
G36*
G01X1579Y-1451D02*
G01X1579Y-1488D01*
G01X1615D01*
G01X1701D01*
G01X1778Y-1641D01*
G01X1855Y-1488D01*
G01X1941D01*
G01Y-1574D01*
G01X1788Y-1651D01*
G01X1941Y-1728D01*
G01Y-1814D01*
G01X1855D01*
G01X1778Y-1661D01*
G01X1701Y-1814D01*
G01X1615D01*
G01Y-1728D01*
G01X1768Y-1651D01*
G01X1615Y-1574D01*
G01Y-1488D01*
G01X1579D01*
G01Y-1597D01*
G01X1688Y-1651D01*
G01X1579Y-1705D01*
G01Y-1850D01*
G01X1724D01*
G01X1778Y-1741D01*
G01X1832Y-1850D01*
G01X1978D01*
G01Y-1705D01*
G01X1868Y-1651D01*
G01X1978Y-1597D01*
G01Y-1451D01*
G01X1832D01*
G01X1778Y-1561D01*
G01X1724Y-1451D01*
G37*
G36*
G01X2976Y-1451D02*
G01X2976Y-1488D01*
G01X3012D01*
G01X3098D01*
G01X3175Y-1641D01*
G01X3252Y-1488D01*
G01X3338D01*
G01Y-1574D01*
G01X3185Y-1651D01*
G01X3338Y-1728D01*
G01Y-1814D01*
G01X3252D01*
G01X3175Y-1661D01*
G01X3098Y-1814D01*
G01X3012D01*
G01Y-1728D01*
G01X3165Y-1651D01*
G01X3012Y-1574D01*
G01Y-1488D01*
G01X2976D01*
G01Y-1597D01*
G01X3085Y-1651D01*
G01X2976Y-1705D01*
G01Y-1850D01*
G01X3121D01*
G01X3175Y-1741D01*
G01X3229Y-1850D01*
G01X3375D01*
G01Y-1705D01*
G01X3265Y-1651D01*
G01X3375Y-1597D01*
G01Y-1451D01*
G01X3229D01*
G01X3175Y-1561D01*
G01X3121Y-1451D01*
G37*
G36*
G01X3618Y327D02*
G01X3618Y290D01*
G01X3655D01*
G01X3741D01*
G01X3818Y137D01*
G01X3894Y290D01*
G01X3981D01*
G01Y204D01*
G01X3827Y127D01*
G01X3981Y50D01*
G01Y-36D01*
G01X3894D01*
G01X3818Y117D01*
G01X3741Y-36D01*
G01X3655D01*
G01Y50D01*
G01X3743Y94D01*
G01X3808Y127D01*
G01X3743Y160D01*
G01X3655Y204D01*
G01Y290D01*
G01X3618D01*
G01Y181D01*
G01X3727Y127D01*
G01X3618Y73D01*
G01Y-72D01*
G01X3763D01*
G01X3818Y37D01*
G01X3872Y-72D01*
G01X4017D01*
G01Y73D01*
G01X3909Y127D01*
G01X4017Y181D01*
G01Y327D01*
G01X3872D01*
G01X3818Y217D01*
G01X3763Y327D01*
G37*
G36*
G01X14914Y-7801D02*
G01X14914Y-7838D01*
G01X14950D01*
G01X15036D01*
G01X15113Y-7991D01*
G01X15190Y-7838D01*
G01X15276D01*
G01Y-7924D01*
G01X15123Y-8001D01*
G01X15276Y-8078D01*
G01Y-8164D01*
G01X15190D01*
G01X15113Y-8011D01*
G01X15036Y-8164D01*
G01X14950D01*
G01Y-8078D01*
G01X15103Y-8001D01*
G01X14950Y-7924D01*
G01Y-7838D01*
G01X14914D01*
G01Y-7947D01*
G01X15023Y-8001D01*
G01X14914Y-8055D01*
G01Y-8201D01*
G01X15059D01*
G01X15113Y-8091D01*
G01X15167Y-8201D01*
G01X15313D01*
G01Y-8055D01*
G01X15203Y-8001D01*
G01X15313Y-7947D01*
G01Y-7801D01*
G01X15167D01*
G01X15113Y-7911D01*
G01X15059Y-7801D01*
G37*
G36*
G01X11485Y-2975D02*
G01X11485Y-3012D01*
G01X11521D01*
G01X11607D01*
G01X11684Y-3165D01*
G01X11761Y-3012D01*
G01X11847D01*
G01Y-3098D01*
G01X11694Y-3175D01*
G01X11847Y-3252D01*
G01Y-3338D01*
G01X11761D01*
G01X11684Y-3185D01*
G01X11607Y-3338D01*
G01X11521D01*
G01Y-3252D01*
G01X11674Y-3175D01*
G01X11521Y-3098D01*
G01Y-3012D01*
G01X11485D01*
G01Y-3121D01*
G01X11594Y-3175D01*
G01X11485Y-3229D01*
G01Y-3374D01*
G01X11630D01*
G01X11684Y-3265D01*
G01X11738Y-3374D01*
G01X11884D01*
G01Y-3229D01*
G01X11774Y-3175D01*
G01X11884Y-3121D01*
G01Y-2975D01*
G01X11738D01*
G01X11684Y-3085D01*
G01X11630Y-2975D01*
G37*
G36*
G01X12501Y1343D02*
G01X12501Y1306D01*
G01X12537D01*
G01X12623D01*
G01X12700Y1153D01*
G01X12777Y1306D01*
G01X12863D01*
G01Y1220D01*
G01X12710Y1143D01*
G01X12863Y1066D01*
G01Y980D01*
G01X12777D01*
G01X12700Y1133D01*
G01X12623Y980D01*
G01X12537D01*
G01Y1066D01*
G01X12690Y1143D01*
G01X12537Y1220D01*
G01Y1306D01*
G01X12501D01*
G01Y1197D01*
G01X12610Y1143D01*
G01X12501Y1089D01*
G01Y944D01*
G01X12646D01*
G01X12700Y1053D01*
G01X12754Y944D01*
G01X12900D01*
G01Y1089D01*
G01X12790Y1143D01*
G01X12900Y1197D01*
G01Y1343D01*
G01X12754D01*
G01X12700Y1233D01*
G01X12646Y1343D01*
G37*
G36*
G01X13517Y-2213D02*
G01X13517Y-2250D01*
G01X13553D01*
G01X13639D01*
G01X13716Y-2403D01*
G01X13793Y-2250D01*
G01X13879D01*
G01Y-2336D01*
G01X13726Y-2413D01*
G01X13879Y-2490D01*
G01Y-2576D01*
G01X13793D01*
G01X13716Y-2423D01*
G01X13639Y-2576D01*
G01X13553D01*
G01Y-2490D01*
G01X13706Y-2413D01*
G01X13553Y-2336D01*
G01Y-2250D01*
G01X13517D01*
G01Y-2359D01*
G01X13626Y-2413D01*
G01X13517Y-2467D01*
G01Y-2612D01*
G01X13662D01*
G01X13716Y-2503D01*
G01X13770Y-2612D01*
G01X13916D01*
G01Y-2467D01*
G01X13806Y-2413D01*
G01X13916Y-2359D01*
G01Y-2213D01*
G01X13770D01*
G01X13716Y-2323D01*
G01X13662Y-2213D01*
G37*
G36*
G01X11993Y6677D02*
G01X11993Y6640D01*
G01X12029D01*
G01X12115D01*
G01X12192Y6487D01*
G01X12269Y6640D01*
G01X12355D01*
G01Y6554D01*
G01X12202Y6477D01*
G01X12355Y6400D01*
G01Y6314D01*
G01X12269D01*
G01X12192Y6467D01*
G01X12115Y6314D01*
G01X12029D01*
G01Y6400D01*
G01X12182Y6477D01*
G01X12029Y6554D01*
G01Y6640D01*
G01X11993D01*
G01Y6531D01*
G01X12102Y6477D01*
G01X11993Y6423D01*
G01Y6278D01*
G01X12138D01*
G01X12192Y6387D01*
G01X12246Y6278D01*
G01X12392D01*
G01Y6423D01*
G01X12282Y6477D01*
G01X12392Y6531D01*
G01Y6677D01*
G01X12246D01*
G01X12192Y6567D01*
G01X12138Y6677D01*
G37*
G36*
G01X13263Y9852D02*
G01X13263Y9815D01*
G01X13299D01*
G01X13385D01*
G01X13462Y9662D01*
G01X13539Y9815D01*
G01X13625D01*
G01Y9729D01*
G01X13472Y9652D01*
G01X13625Y9575D01*
G01Y9489D01*
G01X13539D01*
G01X13462Y9642D01*
G01X13385Y9489D01*
G01X13299D01*
G01Y9575D01*
G01X13452Y9652D01*
G01X13299Y9729D01*
G01Y9815D01*
G01X13263D01*
G01Y9706D01*
G01X13372Y9652D01*
G01X13263Y9598D01*
G01Y9452D01*
G01X13408D01*
G01X13462Y9562D01*
G01X13516Y9452D01*
G01X13662D01*
G01Y9598D01*
G01X13552Y9652D01*
G01X13662Y9706D01*
G01Y9852D01*
G01X13516D01*
G01X13462Y9742D01*
G01X13408Y9852D01*
G37*
G36*
G01X12226Y-562D02*
G01X12226Y-599D01*
G01X12262D01*
G01X12348D01*
G01X12425Y-752D01*
G01X12502Y-599D01*
G01X12588D01*
G01Y-685D01*
G01X12435Y-762D01*
G01X12588Y-839D01*
G01Y-925D01*
G01X12502D01*
G01X12458Y-836D01*
G01X12425Y-772D01*
G01X12393Y-836D01*
G01X12348Y-925D01*
G01X12262D01*
G01Y-839D01*
G01X12351Y-795D01*
G01X12416Y-762D01*
G01X12351Y-729D01*
G01X12262Y-685D01*
G01Y-599D01*
G01X12226D01*
G01Y-708D01*
G01X12335Y-762D01*
G01X12226Y-816D01*
G01Y-961D01*
G01X12371D01*
G01X12425Y-852D01*
G01X12480Y-961D01*
G01X12625D01*
G01Y-816D01*
G01X12516Y-762D01*
G01X12625Y-708D01*
G01Y-562D01*
G01X12480D01*
G01X12425Y-671D01*
G01X12371Y-562D01*
G37*
G36*
G01X-7565Y-54D02*
G01X-7565Y-91D01*
G01X-7529D01*
G01X-7443D01*
G01X-7366Y-244D01*
G01X-7289Y-91D01*
G01X-7203D01*
G01Y-177D01*
G01X-7356Y-254D01*
G01X-7203Y-331D01*
G01Y-417D01*
G01X-7289D01*
G01X-7366Y-264D01*
G01X-7443Y-417D01*
G01X-7529D01*
G01Y-331D01*
G01X-7376Y-254D01*
G01X-7529Y-177D01*
G01Y-91D01*
G01X-7565D01*
G01Y-200D01*
G01X-7456Y-254D01*
G01X-7565Y-308D01*
G01Y-453D01*
G01X-7420D01*
G01X-7366Y-344D01*
G01X-7312Y-453D01*
G01X-7166D01*
G01Y-308D01*
G01X-7276Y-254D01*
G01X-7166Y-200D01*
G01Y-54D01*
G01X-7312D01*
G01X-7366Y-164D01*
G01X-7420Y-54D01*
G37*
G36*
G01X-4644Y-1578D02*
G01X-4644Y-1615D01*
G01X-4608D01*
G01X-4522D01*
G01X-4445Y-1768D01*
G01X-4368Y-1615D01*
G01X-4282D01*
G01Y-1701D01*
G01X-4435Y-1778D01*
G01X-4282Y-1855D01*
G01Y-1941D01*
G01X-4368D01*
G01X-4445Y-1788D01*
G01X-4522Y-1941D01*
G01X-4608D01*
G01Y-1855D01*
G01X-4455Y-1778D01*
G01X-4608Y-1701D01*
G01Y-1615D01*
G01X-4644D01*
G01Y-1724D01*
G01X-4535Y-1778D01*
G01X-4644Y-1832D01*
G01Y-1977D01*
G01X-4499D01*
G01X-4445Y-1868D01*
G01X-4391Y-1977D01*
G01X-4245D01*
G01Y-1832D01*
G01X-4355Y-1778D01*
G01X-4245Y-1724D01*
G01Y-1578D01*
G01X-4391D01*
G01X-4445Y-1688D01*
G01X-4499Y-1578D01*
G37*
G36*
G01X9580Y2994D02*
G01X9580Y2957D01*
G01X9616D01*
G01X9702D01*
G01X9779Y2804D01*
G01X9856Y2957D01*
G01X9942D01*
G01Y2871D01*
G01X9789Y2794D01*
G01X9942Y2717D01*
G01Y2631D01*
G01X9856D01*
G01X9779Y2784D01*
G01X9702Y2631D01*
G01X9616D01*
G01Y2717D01*
G01X9769Y2794D01*
G01X9616Y2871D01*
G01Y2957D01*
G01X9580D01*
G01Y2848D01*
G01X9689Y2794D01*
G01X9580Y2740D01*
G01Y2595D01*
G01X9725D01*
G01X9779Y2704D01*
G01X9833Y2595D01*
G01X9979D01*
G01Y2740D01*
G01X9869Y2794D01*
G01X9979Y2848D01*
G01Y2994D01*
G01X9833D01*
G01X9779Y2884D01*
G01X9725Y2994D01*
G37*
G04 Image End*
G54D10*

M02*
