G04 Layer: TopSilkscreenLayer*
G04 EasyEDA Pro v1.9.29.eba1c1, 2023-03-25 18:59:35*
G04 Gerber Generator version 0.3*
G04 Scale: 100 percent, Rotated: No, Reflected: No*
G04 Dimensions in millimeters*
G04 Leading zeros omitted, absolute positions, 3 integers and 3 decimals*
%FSLAX33Y33*%
%MOMM*%
%ADD10C,0.2032*%
%ADD11C,0.1524*%
%ADD12C,0.254*%
%ADD13C,0.1*%
%ADD14C,0.15*%
%ADD15C,0.0254*%
%ADD16C,0.3008*%
%ADD17C,0.299999*%
G75*


G04 Text Start*
G04 //text: -*
G54D10*
G01X-15392Y1016D02*
G01X-14077Y1016D01*
G04 //text: +*
G01X-14735Y-612D02*
G01X-14735Y-1928D01*
G01X-15392Y-1270D02*
G01X-14077Y-1270D01*
G04 //text: R9*
G54D11*
G01X-5641Y10490D02*
G01X-4991Y10490D01*
G01X-5641Y10490D02*
G01X-5641Y10770D01*
G01X-5611Y10861D01*
G01X-5580Y10892D01*
G01X-5517Y10925D01*
G01X-5456D01*
G01X-5395Y10892D01*
G01X-5364Y10861D01*
G01X-5331Y10770D01*
G01Y10490D01*
G01X-5331Y10706D02*
G01X-4991Y10925D01*
G01X-5425Y11628D02*
G01X-5331Y11595D01*
G01X-5270Y11534D01*
G01X-5240Y11440D01*
G01Y11410D01*
G01X-5270Y11318D01*
G01X-5331Y11255D01*
G01X-5425Y11224D01*
G01X-5456D01*
G01X-5550Y11255D01*
G01X-5611Y11318D01*
G01X-5641Y11410D01*
G01Y11440D01*
G01X-5611Y11534D01*
G01X-5550Y11595D01*
G01X-5425Y11628D01*
G01X-5270D01*
G01X-5116Y11595D01*
G01X-5022Y11534D01*
G01X-4991Y11440D01*
G01Y11379D01*
G01X-5022Y11288D01*
G01X-5085Y11255D01*
G04 //text: Q2*
G01X-8882Y13261D02*
G01X-8943Y13231D01*
G01X-9007Y13170D01*
G01X-9037Y13106D01*
G01X-9068Y13015D01*
G01Y12860D01*
G01X-9037Y12766D01*
G01X-9007Y12705D01*
G01X-8943Y12642D01*
G01X-8882Y12611D01*
G01X-8758D01*
G01X-8697Y12642D01*
G01X-8633Y12705D01*
G01X-8603Y12766D01*
G01X-8572Y12860D01*
G01Y13015D01*
G01X-8603Y13106D01*
G01X-8633Y13170D01*
G01X-8697Y13231D01*
G01X-8758Y13261D01*
G01X-8882D01*
G01X-8788Y12736D02*
G01X-8603Y12550D01*
G01X-8240Y13106D02*
G01X-8240Y13137D01*
G01X-8209Y13200D01*
G01X-8179Y13231D01*
G01X-8118Y13261D01*
G01X-7993D01*
G01X-7930Y13231D01*
G01X-7899Y13200D01*
G01X-7869Y13137D01*
G01Y13076D01*
G01X-7899Y13015D01*
G01X-7963Y12921D01*
G01X-8270Y12611D01*
G01X-7838D01*
G04 //text: R6*
G01X5535Y-1575D02*
G01X6185Y-1575D01*
G01X5535Y-1575D02*
G01X5535Y-1295D01*
G01X5565Y-1204D01*
G01X5596Y-1173D01*
G01X5659Y-1140D01*
G01X5720D01*
G01X5781Y-1173D01*
G01X5812Y-1204D01*
G01X5845Y-1295D01*
G01Y-1575D01*
G01X5845Y-1359D02*
G01X6185Y-1140D01*
G01X5626Y-470D02*
G01X5565Y-500D01*
G01X5535Y-592D01*
G01Y-655D01*
G01X5565Y-747D01*
G01X5659Y-810D01*
G01X5812Y-841D01*
G01X5966D01*
G01X6091Y-810D01*
G01X6154Y-747D01*
G01X6185Y-655D01*
G01Y-625D01*
G01X6154Y-531D01*
G01X6091Y-470D01*
G01X5999Y-437D01*
G01X5966D01*
G01X5875Y-470D01*
G01X5812Y-531D01*
G01X5781Y-625D01*
G01Y-655D01*
G01X5812Y-747D01*
G01X5875Y-810D01*
G01X5966Y-841D01*
G04 //text: U1*
G01X-6401Y-1344D02*
G01X-6401Y-1808D01*
G01X-6370Y-1900D01*
G01X-6307Y-1963D01*
G01X-6215Y-1994D01*
G01X-6152D01*
G01X-6060Y-1963D01*
G01X-5999Y-1900D01*
G01X-5966Y-1808D01*
G01Y-1344D01*
G01X-5667Y-1468D02*
G01X-5603Y-1435D01*
G01X-5512Y-1344D01*
G01Y-1994D01*
G04 //text: C13*
G01X11082Y-3785D02*
G01X11052Y-3721D01*
G01X10988Y-3660D01*
G01X10927Y-3630D01*
G01X10803D01*
G01X10742Y-3660D01*
G01X10678Y-3721D01*
G01X10648Y-3785D01*
G01X10617Y-3876D01*
G01Y-4031D01*
G01X10648Y-4125D01*
G01X10678Y-4186D01*
G01X10742Y-4249D01*
G01X10803Y-4280D01*
G01X10927D01*
G01X10988Y-4249D01*
G01X11052Y-4186D01*
G01X11082Y-4125D01*
G01X11382Y-3754D02*
G01X11445Y-3721D01*
G01X11537Y-3630D01*
G01Y-4280D01*
G01X11900Y-3630D02*
G01X12240Y-3630D01*
G01X12055Y-3876D01*
G01X12149D01*
G01X12210Y-3907D01*
G01X12240Y-3940D01*
G01X12271Y-4031D01*
G01Y-4094D01*
G01X12240Y-4186D01*
G01X12179Y-4249D01*
G01X12085Y-4280D01*
G01X11994D01*
G01X11900Y-4249D01*
G01X11869Y-4216D01*
G01X11839Y-4155D01*
G04 //text: R17*
G01X3759Y-12393D02*
G01X3759Y-13043D01*
G01X3759Y-12393D02*
G01X4039Y-12393D01*
G01X4130Y-12423D01*
G01X4161Y-12454D01*
G01X4194Y-12517D01*
G01Y-12578D01*
G01X4161Y-12639D01*
G01X4130Y-12670D01*
G01X4039Y-12703D01*
G01X3759D01*
G01X3975Y-12703D02*
G01X4194Y-13043D01*
G01X4493Y-12517D02*
G01X4557Y-12484D01*
G01X4648Y-12393D01*
G01Y-13043D01*
G01X5382Y-12393D02*
G01X5072Y-13043D01*
G01X4950Y-12393D02*
G01X5382Y-12393D01*
G04 //text: R18*
G01X5791Y-12393D02*
G01X5791Y-13043D01*
G01X5791Y-12393D02*
G01X6071Y-12393D01*
G01X6162Y-12423D01*
G01X6193Y-12454D01*
G01X6226Y-12517D01*
G01Y-12578D01*
G01X6193Y-12639D01*
G01X6162Y-12670D01*
G01X6071Y-12703D01*
G01X5791D01*
G01X6007Y-12703D02*
G01X6226Y-13043D01*
G01X6525Y-12517D02*
G01X6589Y-12484D01*
G01X6680Y-12393D01*
G01Y-13043D01*
G01X7137Y-12393D02*
G01X7043Y-12423D01*
G01X7013Y-12484D01*
G01Y-12548D01*
G01X7043Y-12609D01*
G01X7104Y-12639D01*
G01X7229Y-12670D01*
G01X7323Y-12703D01*
G01X7384Y-12763D01*
G01X7414Y-12824D01*
G01Y-12918D01*
G01X7384Y-12979D01*
G01X7353Y-13012D01*
G01X7259Y-13043D01*
G01X7137D01*
G01X7043Y-13012D01*
G01X7013Y-12979D01*
G01X6982Y-12918D01*
G01Y-12824D01*
G01X7013Y-12763D01*
G01X7074Y-12703D01*
G01X7168Y-12670D01*
G01X7290Y-12639D01*
G01X7353Y-12609D01*
G01X7384Y-12548D01*
G01Y-12484D01*
G01X7353Y-12423D01*
G01X7259Y-12393D01*
G01X7137D01*
G04 //text: R13*
G01X-51Y11102D02*
G01X-51Y10452D01*
G01X-51Y11102D02*
G01X229Y11102D01*
G01X320Y11072D01*
G01X351Y11041D01*
G01X384Y10978D01*
G01Y10917D01*
G01X351Y10856D01*
G01X320Y10825D01*
G01X229Y10792D01*
G01X-51D01*
G01X165Y10792D02*
G01X384Y10452D01*
G01X683Y10978D02*
G01X747Y11011D01*
G01X838Y11102D01*
G01Y10452D01*
G01X1201Y11102D02*
G01X1542Y11102D01*
G01X1356Y10856D01*
G01X1448D01*
G01X1511Y10825D01*
G01X1542Y10792D01*
G01X1572Y10701D01*
G01Y10638D01*
G01X1542Y10546D01*
G01X1481Y10483D01*
G01X1387Y10452D01*
G01X1295D01*
G01X1201Y10483D01*
G01X1171Y10516D01*
G01X1140Y10577D01*
G04 //text: C1*
G01X5621Y2184D02*
G01X5591Y2248D01*
G01X5527Y2309D01*
G01X5466Y2339D01*
G01X5342D01*
G01X5281Y2309D01*
G01X5217Y2248D01*
G01X5187Y2184D01*
G01X5156Y2093D01*
G01Y1938D01*
G01X5187Y1844D01*
G01X5217Y1783D01*
G01X5281Y1720D01*
G01X5342Y1689D01*
G01X5466D01*
G01X5527Y1720D01*
G01X5591Y1783D01*
G01X5621Y1844D01*
G01X5921Y2215D02*
G01X5984Y2248D01*
G01X6076Y2339D01*
G01Y1689D01*
G04 //text: R32*
G01X5243Y-5421D02*
G01X5243Y-6071D01*
G01X5243Y-5421D02*
G01X5523Y-5421D01*
G01X5614Y-5451D01*
G01X5645Y-5482D01*
G01X5678Y-5545D01*
G01Y-5606D01*
G01X5645Y-5667D01*
G01X5614Y-5698D01*
G01X5523Y-5731D01*
G01X5243D01*
G01X5459Y-5731D02*
G01X5678Y-6071D01*
G01X6041Y-5421D02*
G01X6381Y-5421D01*
G01X6193Y-5667D01*
G01X6287D01*
G01X6348Y-5698D01*
G01X6381Y-5731D01*
G01X6412Y-5822D01*
G01Y-5885D01*
G01X6381Y-5977D01*
G01X6318Y-6040D01*
G01X6226Y-6071D01*
G01X6132D01*
G01X6041Y-6040D01*
G01X6008Y-6007D01*
G01X5977Y-5946D01*
G01X6742Y-5576D02*
G01X6742Y-5545D01*
G01X6775Y-5482D01*
G01X6805Y-5451D01*
G01X6866Y-5421D01*
G01X6991D01*
G01X7052Y-5451D01*
G01X7085Y-5482D01*
G01X7115Y-5545D01*
G01Y-5606D01*
G01X7085Y-5667D01*
G01X7021Y-5761D01*
G01X6711Y-6071D01*
G01X7146D01*
G04 //text: Q3*
G01X-9263Y8562D02*
G01X-9324Y8532D01*
G01X-9388Y8471D01*
G01X-9418Y8407D01*
G01X-9449Y8316D01*
G01Y8161D01*
G01X-9418Y8067D01*
G01X-9388Y8006D01*
G01X-9324Y7943D01*
G01X-9263Y7912D01*
G01X-9139D01*
G01X-9078Y7943D01*
G01X-9014Y8006D01*
G01X-8984Y8067D01*
G01X-8953Y8161D01*
G01Y8316D01*
G01X-8984Y8407D01*
G01X-9014Y8471D01*
G01X-9078Y8532D01*
G01X-9139Y8562D01*
G01X-9263D01*
G01X-9169Y8037D02*
G01X-8984Y7851D01*
G01X-8590Y8562D02*
G01X-8250Y8562D01*
G01X-8435Y8316D01*
G01X-8344D01*
G01X-8280Y8285D01*
G01X-8250Y8252D01*
G01X-8219Y8161D01*
G01Y8098D01*
G01X-8250Y8006D01*
G01X-8311Y7943D01*
G01X-8405Y7912D01*
G01X-8499D01*
G01X-8590Y7943D01*
G01X-8621Y7976D01*
G01X-8651Y8037D01*
G04 //text: R21*
G01X-2972Y4244D02*
G01X-2972Y3594D01*
G01X-2972Y4244D02*
G01X-2692Y4244D01*
G01X-2601Y4214D01*
G01X-2570Y4183D01*
G01X-2537Y4120D01*
G01Y4059D01*
G01X-2570Y3998D01*
G01X-2601Y3967D01*
G01X-2692Y3934D01*
G01X-2972D01*
G01X-2756Y3934D02*
G01X-2537Y3594D01*
G01X-2207Y4089D02*
G01X-2207Y4120D01*
G01X-2174Y4183D01*
G01X-2144Y4214D01*
G01X-2083Y4244D01*
G01X-1958D01*
G01X-1897Y4214D01*
G01X-1867Y4183D01*
G01X-1834Y4120D01*
G01Y4059D01*
G01X-1867Y3998D01*
G01X-1928Y3904D01*
G01X-2238Y3594D01*
G01X-1803D01*
G01X-1504Y4120D02*
G01X-1440Y4153D01*
G01X-1349Y4244D01*
G01Y3594D01*
G04 //text: H2*
G01X8204Y-11885D02*
G01X8204Y-12535D01*
G01X8639Y-11885D02*
G01X8639Y-12535D01*
G01X8204Y-12195D02*
G01X8639Y-12195D01*
G01X8969Y-12040D02*
G01X8969Y-12009D01*
G01X9002Y-11946D01*
G01X9032Y-11915D01*
G01X9093Y-11885D01*
G01X9218D01*
G01X9279Y-11915D01*
G01X9309Y-11946D01*
G01X9342Y-12009D01*
G01Y-12070D01*
G01X9309Y-12131D01*
G01X9248Y-12225D01*
G01X8938Y-12535D01*
G01X9373D01*
G04 //text: C12*
G01X-4412Y-5690D02*
G01X-4442Y-5626D01*
G01X-4506Y-5565D01*
G01X-4567Y-5535D01*
G01X-4691D01*
G01X-4752Y-5565D01*
G01X-4816Y-5626D01*
G01X-4846Y-5690D01*
G01X-4877Y-5781D01*
G01Y-5936D01*
G01X-4846Y-6030D01*
G01X-4816Y-6091D01*
G01X-4752Y-6154D01*
G01X-4691Y-6185D01*
G01X-4567D01*
G01X-4506Y-6154D01*
G01X-4442Y-6091D01*
G01X-4412Y-6030D01*
G01X-4112Y-5659D02*
G01X-4049Y-5626D01*
G01X-3957Y-5535D01*
G01Y-6185D01*
G01X-3625Y-5690D02*
G01X-3625Y-5659D01*
G01X-3594Y-5596D01*
G01X-3564Y-5565D01*
G01X-3500Y-5535D01*
G01X-3378D01*
G01X-3315Y-5565D01*
G01X-3284Y-5596D01*
G01X-3254Y-5659D01*
G01Y-5720D01*
G01X-3284Y-5781D01*
G01X-3345Y-5875D01*
G01X-3655Y-6185D01*
G01X-3223D01*
G04 //text: R12*
G01X-178Y4625D02*
G01X-178Y3975D01*
G01X-178Y4625D02*
G01X102Y4625D01*
G01X193Y4595D01*
G01X224Y4564D01*
G01X257Y4501D01*
G01Y4440D01*
G01X224Y4379D01*
G01X193Y4348D01*
G01X102Y4315D01*
G01X-178D01*
G01X38Y4315D02*
G01X257Y3975D01*
G01X556Y4501D02*
G01X620Y4534D01*
G01X711Y4625D01*
G01Y3975D01*
G01X1044Y4470D02*
G01X1044Y4501D01*
G01X1074Y4564D01*
G01X1105Y4595D01*
G01X1168Y4625D01*
G01X1290D01*
G01X1354Y4595D01*
G01X1384Y4564D01*
G01X1415Y4501D01*
G01Y4440D01*
G01X1384Y4379D01*
G01X1321Y4285D01*
G01X1013Y3975D01*
G01X1445D01*
G04 //text: R14*
G01X-6852Y3336D02*
G01X-6852Y2686D01*
G01X-6852Y3336D02*
G01X-6572Y3336D01*
G01X-6481Y3306D01*
G01X-6450Y3275D01*
G01X-6417Y3212D01*
G01Y3151D01*
G01X-6450Y3090D01*
G01X-6481Y3059D01*
G01X-6572Y3026D01*
G01X-6852D01*
G01X-6636Y3026D02*
G01X-6417Y2686D01*
G01X-6118Y3212D02*
G01X-6054Y3245D01*
G01X-5963Y3336D01*
G01Y2686D01*
G01X-5353Y3336D02*
G01X-5661Y2905D01*
G01X-5198D01*
G01X-5353Y3336D02*
G01X-5353Y2686D01*
G04 //text: U2*
G01X12649Y3355D02*
G01X12649Y2891D01*
G01X12680Y2799D01*
G01X12743Y2736D01*
G01X12835Y2705D01*
G01X12898D01*
G01X12990Y2736D01*
G01X13051Y2799D01*
G01X13084Y2891D01*
G01Y3355D01*
G01X13414Y3200D02*
G01X13414Y3231D01*
G01X13447Y3294D01*
G01X13477Y3325D01*
G01X13538Y3355D01*
G01X13663D01*
G01X13724Y3325D01*
G01X13754Y3294D01*
G01X13787Y3231D01*
G01Y3170D01*
G01X13754Y3109D01*
G01X13693Y3015D01*
G01X13383Y2705D01*
G01X13818D01*
G04 //text: R7*
G01X16205Y-12266D02*
G01X16205Y-12916D01*
G01X16205Y-12266D02*
G01X16485Y-12266D01*
G01X16576Y-12296D01*
G01X16607Y-12327D01*
G01X16640Y-12390D01*
G01Y-12451D01*
G01X16607Y-12512D01*
G01X16576Y-12543D01*
G01X16485Y-12576D01*
G01X16205D01*
G01X16421Y-12576D02*
G01X16640Y-12916D01*
G01X17374Y-12266D02*
G01X17064Y-12916D01*
G01X16939Y-12266D02*
G01X17374Y-12266D01*
G04 //text: R19*
G01X6934Y5641D02*
G01X6934Y4991D01*
G01X6934Y5641D02*
G01X7214Y5641D01*
G01X7305Y5611D01*
G01X7336Y5580D01*
G01X7369Y5517D01*
G01Y5456D01*
G01X7336Y5395D01*
G01X7305Y5364D01*
G01X7214Y5331D01*
G01X6934D01*
G01X7150Y5331D02*
G01X7369Y4991D01*
G01X7668Y5517D02*
G01X7732Y5550D01*
G01X7823Y5641D01*
G01Y4991D01*
G01X8527Y5425D02*
G01X8496Y5331D01*
G01X8433Y5271D01*
G01X8341Y5240D01*
G01X8311D01*
G01X8217Y5271D01*
G01X8156Y5331D01*
G01X8125Y5425D01*
G01Y5456D01*
G01X8156Y5550D01*
G01X8217Y5611D01*
G01X8311Y5641D01*
G01X8341D01*
G01X8433Y5611D01*
G01X8496Y5550D01*
G01X8527Y5425D01*
G01Y5271D01*
G01X8496Y5116D01*
G01X8433Y5022D01*
G01X8341Y4991D01*
G01X8280D01*
G01X8186Y5022D01*
G01X8156Y5085D01*
G04 //text: Q1*
G01X7755Y13261D02*
G01X7694Y13231D01*
G01X7630Y13170D01*
G01X7600Y13106D01*
G01X7569Y13015D01*
G01Y12860D01*
G01X7600Y12766D01*
G01X7630Y12705D01*
G01X7694Y12642D01*
G01X7755Y12611D01*
G01X7879D01*
G01X7940Y12642D01*
G01X8004Y12705D01*
G01X8034Y12766D01*
G01X8065Y12860D01*
G01Y13015D01*
G01X8034Y13106D01*
G01X8004Y13170D01*
G01X7940Y13231D01*
G01X7879Y13261D01*
G01X7755D01*
G01X7849Y12736D02*
G01X8034Y12550D01*
G01X8367Y13137D02*
G01X8428Y13170D01*
G01X8519Y13261D01*
G01Y12611D01*
G04 //text: R8*
G01X4013Y11102D02*
G01X4013Y10452D01*
G01X4013Y11102D02*
G01X4293Y11102D01*
G01X4384Y11072D01*
G01X4415Y11041D01*
G01X4448Y10978D01*
G01Y10917D01*
G01X4415Y10856D01*
G01X4384Y10825D01*
G01X4293Y10792D01*
G01X4013D01*
G01X4229Y10792D02*
G01X4448Y10452D01*
G01X4902Y11102D02*
G01X4811Y11072D01*
G01X4778Y11011D01*
G01Y10947D01*
G01X4811Y10886D01*
G01X4872Y10856D01*
G01X4996Y10825D01*
G01X5088Y10792D01*
G01X5151Y10732D01*
G01X5182Y10671D01*
G01Y10577D01*
G01X5151Y10516D01*
G01X5118Y10483D01*
G01X5027Y10452D01*
G01X4902D01*
G01X4811Y10483D01*
G01X4778Y10516D01*
G01X4747Y10577D01*
G01Y10671D01*
G01X4778Y10732D01*
G01X4841Y10792D01*
G01X4933Y10825D01*
G01X5057Y10856D01*
G01X5118Y10886D01*
G01X5151Y10947D01*
G01Y11011D01*
G01X5118Y11072D01*
G01X5027Y11102D01*
G01X4902D01*
G04 //text: R2*
G01X-3734Y-12393D02*
G01X-3734Y-13043D01*
G01X-3734Y-12393D02*
G01X-3454Y-12393D01*
G01X-3363Y-12423D01*
G01X-3332Y-12454D01*
G01X-3299Y-12517D01*
G01Y-12578D01*
G01X-3332Y-12639D01*
G01X-3363Y-12670D01*
G01X-3454Y-12703D01*
G01X-3734D01*
G01X-3518Y-12703D02*
G01X-3299Y-13043D01*
G01X-2969Y-12548D02*
G01X-2969Y-12517D01*
G01X-2936Y-12454D01*
G01X-2906Y-12423D01*
G01X-2845Y-12393D01*
G01X-2720D01*
G01X-2659Y-12423D01*
G01X-2629Y-12454D01*
G01X-2596Y-12517D01*
G01Y-12578D01*
G01X-2629Y-12639D01*
G01X-2690Y-12733D01*
G01X-3000Y-13043D01*
G01X-2565D01*
G04 //text: R15*
G01X-1448Y-12520D02*
G01X-1448Y-13170D01*
G01X-1448Y-12520D02*
G01X-1168Y-12520D01*
G01X-1077Y-12550D01*
G01X-1046Y-12581D01*
G01X-1013Y-12644D01*
G01Y-12705D01*
G01X-1046Y-12766D01*
G01X-1077Y-12797D01*
G01X-1168Y-12830D01*
G01X-1448D01*
G01X-1232Y-12830D02*
G01X-1013Y-13170D01*
G01X-714Y-12644D02*
G01X-650Y-12611D01*
G01X-559Y-12520D01*
G01Y-13170D01*
G01X114Y-12520D02*
G01X-196Y-12520D01*
G01X-226Y-12797D01*
G01X-196Y-12766D01*
G01X-102Y-12736D01*
G01X-10D01*
G01X84Y-12766D01*
G01X145Y-12830D01*
G01X175Y-12921D01*
G01Y-12984D01*
G01X145Y-13076D01*
G01X84Y-13139D01*
G01X-10Y-13170D01*
G01X-102D01*
G01X-196Y-13139D01*
G01X-226Y-13106D01*
G01X-257Y-13045D01*
G04 //text: R1*
G01X-10592Y688D02*
G01X-10592Y38D01*
G01X-10592Y688D02*
G01X-10312Y688D01*
G01X-10221Y658D01*
G01X-10190Y627D01*
G01X-10157Y564D01*
G01Y503D01*
G01X-10190Y442D01*
G01X-10221Y411D01*
G01X-10312Y378D01*
G01X-10592D01*
G01X-10376Y378D02*
G01X-10157Y38D01*
G01X-9858Y564D02*
G01X-9794Y597D01*
G01X-9703Y688D01*
G01Y38D01*
G04 //text: R5*
G01X11506Y-1217D02*
G01X11506Y-1867D01*
G01X11506Y-1217D02*
G01X11786Y-1217D01*
G01X11877Y-1247D01*
G01X11908Y-1278D01*
G01X11941Y-1341D01*
G01Y-1402D01*
G01X11908Y-1463D01*
G01X11877Y-1494D01*
G01X11786Y-1527D01*
G01X11506D01*
G01X11722Y-1527D02*
G01X11941Y-1867D01*
G01X12611Y-1217D02*
G01X12304Y-1217D01*
G01X12271Y-1494D01*
G01X12304Y-1463D01*
G01X12395Y-1433D01*
G01X12489D01*
G01X12581Y-1463D01*
G01X12644Y-1527D01*
G01X12675Y-1618D01*
G01Y-1681D01*
G01X12644Y-1773D01*
G01X12581Y-1836D01*
G01X12489Y-1867D01*
G01X12395D01*
G01X12304Y-1836D01*
G01X12271Y-1803D01*
G01X12240Y-1742D01*
G04 //text: C2*
G01X14892Y7645D02*
G01X14862Y7709D01*
G01X14798Y7770D01*
G01X14737Y7800D01*
G01X14613D01*
G01X14552Y7770D01*
G01X14488Y7709D01*
G01X14458Y7645D01*
G01X14427Y7554D01*
G01Y7399D01*
G01X14458Y7305D01*
G01X14488Y7244D01*
G01X14552Y7181D01*
G01X14613Y7150D01*
G01X14737D01*
G01X14798Y7181D01*
G01X14862Y7244D01*
G01X14892Y7305D01*
G01X15225Y7645D02*
G01X15225Y7676D01*
G01X15255Y7739D01*
G01X15286Y7770D01*
G01X15347Y7800D01*
G01X15471D01*
G01X15532Y7770D01*
G01X15565Y7739D01*
G01X15596Y7676D01*
G01Y7615D01*
G01X15565Y7554D01*
G01X15502Y7460D01*
G01X15192Y7150D01*
G01X15626D01*
G04 //text: C3*
G01X12098Y-5944D02*
G01X12068Y-5880D01*
G01X12004Y-5819D01*
G01X11943Y-5789D01*
G01X11819D01*
G01X11758Y-5819D01*
G01X11694Y-5880D01*
G01X11664Y-5944D01*
G01X11633Y-6035D01*
G01Y-6190D01*
G01X11664Y-6284D01*
G01X11694Y-6345D01*
G01X11758Y-6408D01*
G01X11819Y-6439D01*
G01X11943D01*
G01X12004Y-6408D01*
G01X12068Y-6345D01*
G01X12098Y-6284D01*
G01X12461Y-5789D02*
G01X12802Y-5789D01*
G01X12616Y-6035D01*
G01X12708D01*
G01X12771Y-6066D01*
G01X12802Y-6099D01*
G01X12832Y-6190D01*
G01Y-6253D01*
G01X12802Y-6345D01*
G01X12738Y-6408D01*
G01X12647Y-6439D01*
G01X12553D01*
G01X12461Y-6408D01*
G01X12431Y-6375D01*
G01X12398Y-6314D01*
G04 //text: D1*
G01X-17323Y-10107D02*
G01X-17323Y-10757D01*
G01X-17323Y-10107D02*
G01X-17107Y-10107D01*
G01X-17013Y-10137D01*
G01X-16952Y-10198D01*
G01X-16921Y-10262D01*
G01X-16888Y-10353D01*
G01Y-10508D01*
G01X-16921Y-10602D01*
G01X-16952Y-10663D01*
G01X-17013Y-10726D01*
G01X-17107Y-10757D01*
G01X-17323D01*
G01X-16589Y-10231D02*
G01X-16525Y-10198D01*
G01X-16434Y-10107D01*
G01Y-10757D01*
G04 //text: R4*
G01X11506Y561D02*
G01X11506Y-89D01*
G01X11506Y561D02*
G01X11786Y561D01*
G01X11877Y531D01*
G01X11908Y500D01*
G01X11941Y437D01*
G01Y376D01*
G01X11908Y315D01*
G01X11877Y284D01*
G01X11786Y251D01*
G01X11506D01*
G01X11722Y251D02*
G01X11941Y-89D01*
G01X12550Y561D02*
G01X12240Y130D01*
G01X12705D01*
G01X12550Y561D02*
G01X12550Y-89D01*
G04 //text: C4*
G01X-8603Y-14961D02*
G01X-8633Y-14897D01*
G01X-8697Y-14836D01*
G01X-8758Y-14806D01*
G01X-8882D01*
G01X-8943Y-14836D01*
G01X-9007Y-14897D01*
G01X-9037Y-14961D01*
G01X-9068Y-15052D01*
G01Y-15207D01*
G01X-9037Y-15301D01*
G01X-9007Y-15362D01*
G01X-8943Y-15425D01*
G01X-8882Y-15456D01*
G01X-8758D01*
G01X-8697Y-15425D01*
G01X-8633Y-15362D01*
G01X-8603Y-15301D01*
G01X-7993Y-14806D02*
G01X-8303Y-15237D01*
G01X-7838D01*
G01X-7993Y-14806D02*
G01X-7993Y-15456D01*
G04 //text: C5*
G01X17178Y9677D02*
G01X17148Y9741D01*
G01X17084Y9802D01*
G01X17023Y9832D01*
G01X16899D01*
G01X16838Y9802D01*
G01X16774Y9741D01*
G01X16744Y9677D01*
G01X16713Y9586D01*
G01Y9431D01*
G01X16744Y9337D01*
G01X16774Y9276D01*
G01X16838Y9213D01*
G01X16899Y9182D01*
G01X17023D01*
G01X17084Y9213D01*
G01X17148Y9276D01*
G01X17178Y9337D01*
G01X17851Y9832D02*
G01X17541Y9832D01*
G01X17511Y9555D01*
G01X17541Y9586D01*
G01X17633Y9616D01*
G01X17727D01*
G01X17818Y9586D01*
G01X17882Y9522D01*
G01X17912Y9431D01*
G01Y9368D01*
G01X17882Y9276D01*
G01X17818Y9213D01*
G01X17727Y9182D01*
G01X17633D01*
G01X17541Y9213D01*
G01X17511Y9246D01*
G01X17478Y9307D01*
G04 //text: C6*
G01X15654Y14249D02*
G01X15624Y14313D01*
G01X15560Y14374D01*
G01X15499Y14404D01*
G01X15375D01*
G01X15314Y14374D01*
G01X15250Y14313D01*
G01X15220Y14249D01*
G01X15189Y14158D01*
G01Y14003D01*
G01X15220Y13909D01*
G01X15250Y13848D01*
G01X15314Y13785D01*
G01X15375Y13754D01*
G01X15499D01*
G01X15560Y13785D01*
G01X15624Y13848D01*
G01X15654Y13909D01*
G01X16327Y14313D02*
G01X16294Y14374D01*
G01X16203Y14404D01*
G01X16139D01*
G01X16048Y14374D01*
G01X15987Y14280D01*
G01X15954Y14127D01*
G01Y13973D01*
G01X15987Y13848D01*
G01X16048Y13785D01*
G01X16139Y13754D01*
G01X16172D01*
G01X16264Y13785D01*
G01X16327Y13848D01*
G01X16358Y13940D01*
G01Y13973D01*
G01X16327Y14064D01*
G01X16264Y14127D01*
G01X16172Y14158D01*
G01X16139D01*
G01X16048Y14127D01*
G01X15987Y14064D01*
G01X15954Y13973D01*
G04 //text: LED2*
G01X1575Y13917D02*
G01X1575Y14567D01*
G01X1575Y14567D02*
G01X1204Y14567D01*
G01X902Y13917D02*
G01X902Y14567D01*
G01X902Y13917D02*
G01X500Y13917D01*
G01X902Y14227D02*
G01X655Y14227D01*
G01X902Y14567D02*
G01X500Y14567D01*
G01X198Y13917D02*
G01X198Y14567D01*
G01X198Y13917D02*
G01X-18Y13917D01*
G01X-112Y13947D01*
G01X-173Y14008D01*
G01X-203Y14072D01*
G01X-234Y14163D01*
G01Y14318D01*
G01X-203Y14412D01*
G01X-173Y14473D01*
G01X-112Y14536D01*
G01X-18Y14567D01*
G01X198D01*
G01X-566Y14072D02*
G01X-566Y14041D01*
G01X-597Y13978D01*
G01X-627Y13947D01*
G01X-691Y13917D01*
G01X-815D01*
G01X-876Y13947D01*
G01X-907Y13978D01*
G01X-937Y14041D01*
G01Y14102D01*
G01X-907Y14163D01*
G01X-846Y14257D01*
G01X-536Y14567D01*
G01X-968D01*
G04 Text End*

G04 PolygonModel Start*
G54D12*
G01X-2012Y11170D02*
G01X-2012Y14170D01*
G01X-1651Y11430D02*
G01X-1651Y13970D01*
G01X-1778Y11938D02*
G01X-1778Y13335D01*
G01X-1783Y11700D02*
G03X2800Y11702I2291J1000D01*
G01X-2018Y11177D02*
G03X3272Y11670I2526J1523D01*
G01X3302Y13647D02*
G03X-2034Y14198I-2794J-947D01*
G01X2808Y13681D02*
G03X-1647Y13968I-2300J-981D01*
G54D13*
G01X-4707Y10154D02*
G01X-4707Y11254D01*
G01X-4707Y10154D02*
G01X-3307Y10154D01*
G01X-3307Y10154D02*
G01X-3307Y11254D01*
G01X-4707Y12154D02*
G01X-4707Y13254D01*
G01X-4707Y13254D02*
G01X-3307Y13254D01*
G01X-3307Y12154D02*
G01X-3307Y13254D01*
G54D11*
G01X-9362Y9269D02*
G01X-7910Y9269D01*
G01X-7910Y9269D02*
G01X-7910Y10300D01*
G01X-9362Y12321D02*
G01X-7910Y12321D01*
G01X-7910Y12321D02*
G01X-7910Y11290D01*
G01X-9362Y10340D02*
G01X-9362Y11250D01*
G54D13*
G01X7755Y895D02*
G01X7755Y-205D01*
G01X7755Y895D02*
G01X6355Y895D01*
G01X6355Y895D02*
G01X6355Y-205D01*
G01X7755Y-1105D02*
G01X7755Y-2205D01*
G01X7755Y-2205D02*
G01X6355Y-2205D01*
G01X6355Y-1105D02*
G01X6355Y-2205D01*
G54D11*
G01X-5026Y-2156D02*
G01X-5026Y886D01*
G01X-5026Y886D02*
G01X5026Y886D01*
G01X5026Y886D02*
G01X5026Y-2156D01*
G01X5026Y-2156D02*
G01X-5026Y-2156D01*
G01X17397Y-2844D02*
G01X15912Y-2844D01*
G01X15912Y-5030D02*
G01X17397Y-5030D01*
G01X17550Y-4877D02*
G01X17550Y-2997D01*
G01X12575Y-2844D02*
G01X14060Y-2844D01*
G01X14060Y-5030D02*
G01X12575Y-5030D01*
G01X12422Y-4877D02*
G01X12422Y-2997D01*
G01X17397Y-5030D02*
G03X17550Y-4877I0J152D01*
G01X17550Y-2997D02*
G03X17397Y-2844I-152J0D01*
G01X12575Y-5030D02*
G02X12422Y-4877I0J152D01*
G01X12422Y-2997D02*
G02X12575Y-2844I152J0D01*
G54D13*
G01X5342Y-9011D02*
G01X5342Y-10111D01*
G01X5342Y-9011D02*
G01X3942Y-9011D01*
G01X3942Y-9011D02*
G01X3942Y-10111D01*
G01X5342Y-11011D02*
G01X5342Y-12111D01*
G01X5342Y-12111D02*
G01X3942Y-12111D01*
G01X3942Y-11011D02*
G01X3942Y-12111D01*
G01X5834Y-12198D02*
G01X5834Y-11098D01*
G01X5834Y-12198D02*
G01X7234Y-12198D01*
G01X7234Y-12198D02*
G01X7234Y-11098D01*
G01X5834Y-10198D02*
G01X5834Y-9098D01*
G01X5834Y-9098D02*
G01X7234Y-9098D01*
G01X7234Y-10198D02*
G01X7234Y-9098D01*
G01X2292Y8882D02*
G01X1192Y8882D01*
G01X2292Y8882D02*
G01X2292Y10282D01*
G01X2292Y10282D02*
G01X1192Y10282D01*
G01X292Y8882D02*
G01X-808Y8882D01*
G01X-808Y8882D02*
G01X-808Y10282D01*
G01X292Y10282D02*
G01X-808Y10282D01*
G54D14*
G01X9117Y1231D02*
G03X9116Y2681I-675J725D01*
G01X6618Y2680D02*
G03X6619Y1230I675J-725D01*
G01X9117Y1230D02*
G01X6617Y1230D01*
G01X9117Y2680D02*
G01X6617Y2680D01*
G54D13*
G01X4959Y-6485D02*
G01X3859Y-6485D01*
G01X4959Y-6485D02*
G01X4959Y-5085D01*
G01X4959Y-5085D02*
G01X3859Y-5085D01*
G01X2959Y-6485D02*
G01X1859Y-6485D01*
G01X1859Y-6485D02*
G01X1859Y-5085D01*
G01X2959Y-5085D02*
G01X1859Y-5085D01*
G54D11*
G01X-7491Y5243D02*
G01X-7491Y6695D01*
G01X-7491Y6695D02*
G01X-8522Y6695D01*
G01X-10543Y5243D02*
G01X-10543Y6695D01*
G01X-10543Y6695D02*
G01X-9512Y6695D01*
G01X-8562Y5243D02*
G01X-9472Y5243D01*
G54D13*
G01X-629Y4437D02*
G01X-1729Y4437D01*
G01X-629Y4437D02*
G01X-629Y5837D01*
G01X-629Y5837D02*
G01X-1729Y5837D01*
G01X-2629Y4437D02*
G01X-3729Y4437D01*
G01X-3729Y4437D02*
G01X-3729Y5837D01*
G01X-2629Y5837D02*
G01X-3729Y5837D01*
G54D12*
G01X10057Y-8763D02*
G01X17653Y-8763D01*
G01X17653Y-8763D02*
G01X17653Y-11303D01*
G01X17653Y-11303D02*
G01X7493Y-11303D01*
G01X7493Y-11303D02*
G01X7493Y-8763D01*
G01X7493Y-8763D02*
G01X10057Y-8763D01*
G01X10057Y-8763D02*
G01X10057Y-11303D01*
G54D14*
G01X-2767Y-5041D02*
G03X-2766Y-6491I675J-725D01*
G01X-268Y-6490D02*
G03X-269Y-5040I-675J725D01*
G01X-2767Y-5040D02*
G01X-267Y-5040D01*
G01X-2767Y-6490D02*
G01X-267Y-6490D01*
G54D13*
G01X4832Y3675D02*
G01X3732Y3675D01*
G01X4832Y3675D02*
G01X4832Y5075D01*
G01X4832Y5075D02*
G01X3732Y5075D01*
G01X2832Y3675D02*
G01X1732Y3675D01*
G01X1732Y3675D02*
G01X1732Y5075D01*
G01X2832Y5075D02*
G01X1732Y5075D01*
G01X-6358Y3550D02*
G01X-6358Y4650D01*
G01X-6358Y3550D02*
G01X-4958Y3550D01*
G01X-4958Y3550D02*
G01X-4958Y4650D01*
G01X-6358Y5550D02*
G01X-6358Y6650D01*
G01X-6358Y6650D02*
G01X-4958Y6650D01*
G01X-4958Y5550D02*
G01X-4958Y6650D01*
G54D11*
G01X17566Y-408D02*
G01X17566Y2245D01*
G01X17566Y2245D02*
G01X16418Y2245D01*
G01X12914Y-408D02*
G01X12914Y2245D01*
G01X12914Y2245D02*
G01X14063Y2245D01*
G01X14573Y-13490D02*
G01X15858Y-13490D01*
G01X15858Y-13490D02*
G01X15858Y-11656D01*
G01X15858Y-11656D02*
G01X14573Y-11656D01*
G01X13621Y-13490D02*
G01X12336Y-13490D01*
G01X12336Y-13490D02*
G01X12336Y-11656D01*
G01X12336Y-11656D02*
G01X13621Y-11656D01*
G54D13*
G01X9404Y3421D02*
G01X8304Y3421D01*
G01X9404Y3421D02*
G01X9404Y4821D01*
G01X9404Y4821D02*
G01X8304Y4821D01*
G01X7404Y3421D02*
G01X6304Y3421D01*
G01X6304Y3421D02*
G01X6304Y4821D01*
G01X7404Y4821D02*
G01X6304Y4821D01*
G54D11*
G01X8600Y12194D02*
G01X7148Y12194D01*
G01X7148Y12194D02*
G01X7148Y11163D01*
G01X8600Y9142D02*
G01X7148Y9142D01*
G01X7148Y9142D02*
G01X7148Y10173D01*
G01X8600Y11123D02*
G01X8600Y10213D01*
G54D13*
G01X2915Y10295D02*
G01X4015Y10295D01*
G01X2915Y10295D02*
G01X2915Y8895D01*
G01X2915Y8895D02*
G01X4015Y8895D01*
G01X4915Y10295D02*
G01X6015Y10295D01*
G01X6015Y10295D02*
G01X6015Y8895D01*
G01X4915Y8895D02*
G01X6015Y8895D01*
G01X-3818Y-12198D02*
G01X-3818Y-11098D01*
G01X-3818Y-12198D02*
G01X-2418Y-12198D01*
G01X-2418Y-12198D02*
G01X-2418Y-11098D01*
G01X-3818Y-10198D02*
G01X-3818Y-9098D01*
G01X-3818Y-9098D02*
G01X-2418Y-9098D01*
G01X-2418Y-10198D02*
G01X-2418Y-9098D01*
G01X-1278Y-12198D02*
G01X-1278Y-11098D01*
G01X-1278Y-12198D02*
G01X122Y-12198D01*
G01X122Y-12198D02*
G01X122Y-11098D01*
G01X-1278Y-10198D02*
G01X-1278Y-9098D01*
G01X-1278Y-9098D02*
G01X122Y-9098D01*
G01X122Y-10198D02*
G01X122Y-9098D01*
G01X-10803Y883D02*
G01X-10803Y1983D01*
G01X-10803Y883D02*
G01X-9403Y883D01*
G01X-9403Y883D02*
G01X-9403Y1983D01*
G01X-10803Y2883D02*
G01X-10803Y3983D01*
G01X-10803Y3983D02*
G01X-9403Y3983D01*
G01X-9403Y2883D02*
G01X-9403Y3983D01*
G01X11309Y-2040D02*
G01X10209Y-2040D01*
G01X11309Y-2040D02*
G01X11309Y-640D01*
G01X11309Y-640D02*
G01X10209Y-640D01*
G01X9309Y-2040D02*
G01X8209Y-2040D01*
G01X8209Y-2040D02*
G01X8209Y-640D01*
G01X9309Y-640D02*
G01X8209Y-640D01*
G54D14*
G01X15787Y6577D02*
G03X14337Y6576I-725J-675D01*
G01X14338Y4078D02*
G03X15788Y4079I725J675D01*
G01X15788Y6577D02*
G01X15788Y4077D01*
G01X14338Y6577D02*
G01X14338Y4077D01*
G01X13362Y-5422D02*
G03X13363Y-6872I675J-725D01*
G01X15861Y-6871D02*
G03X15860Y-5421I-675J725D01*
G01X13362Y-5421D02*
G01X15862Y-5421D01*
G01X13362Y-6871D02*
G01X15862Y-6871D01*
G54D11*
G01X-16133Y-10849D02*
G01X-13331Y-10849D01*
G01X-16133Y-12378D02*
G01X-16133Y-6926D01*
G01X-13331Y-12378D02*
G01X-13331Y-6926D01*
G01X-16133Y-6926D02*
G01X-15732Y-6926D01*
G01X-13331Y-6926D02*
G01X-13732Y-6926D01*
G36*
G01X-16209Y-12302D02*
G01X-15681Y-12302D01*
G01Y-12759D01*
G01X-16209D01*
G01Y-12302D01*
G37*
G54D15*
G01X-16209Y-12302D02*
G01X-15681Y-12302D01*
G01Y-12759D01*
G01X-16209D01*
G01Y-12302D01*
G36*
G01X-13255Y-12302D02*
G01X-13783Y-12302D01*
G01Y-12759D01*
G01X-13255D01*
G01Y-12302D01*
G37*
G01X-13255Y-12302D02*
G01X-13783Y-12302D01*
G01Y-12759D01*
G01X-13255D01*
G01Y-12302D01*
G54D13*
G01X8249Y1024D02*
G01X9349Y1024D01*
G01X8249Y1024D02*
G01X8249Y-376D01*
G01X8249Y-376D02*
G01X9349Y-376D01*
G01X10249Y1024D02*
G01X11349Y1024D01*
G01X11349Y1024D02*
G01X11349Y-376D01*
G01X10249Y-376D02*
G01X11349Y-376D01*
G54D11*
G01X-9527Y-13893D02*
G01X-11012Y-13893D01*
G01X-11012Y-16079D02*
G01X-9527Y-16079D01*
G01X-9374Y-15926D02*
G01X-9374Y-14046D01*
G01X-14349Y-13893D02*
G01X-12864Y-13893D01*
G01X-12864Y-16079D02*
G01X-14349Y-16079D01*
G01X-14502Y-15926D02*
G01X-14502Y-14046D01*
G01X-9527Y-16079D02*
G03X-9374Y-15926I0J152D01*
G01X-9374Y-14046D02*
G03X-9527Y-13893I-152J0D01*
G01X-14349Y-16079D02*
G02X-14502Y-15926I0J152D01*
G01X-14502Y-14046D02*
G02X-14349Y-13893I152J0D01*
G01X18492Y3812D02*
G01X18492Y5297D01*
G01X16306Y5297D02*
G01X16306Y3812D01*
G01X16459Y3659D02*
G01X18339Y3659D01*
G01X18492Y8634D02*
G01X18492Y7149D01*
G01X16306Y7149D02*
G01X16306Y8634D01*
G01X16459Y8787D02*
G01X18339Y8787D01*
G01X16306Y3812D02*
G03X16459Y3659I152J0D01*
G01X18339Y3659D02*
G03X18492Y3812I0J152D01*
G01X16306Y8634D02*
G02X16459Y8787I152J0D01*
G01X18339Y8787D02*
G02X18492Y8634I0J-152D01*
G01X14730Y15190D02*
G01X13245Y15190D01*
G01X13245Y13004D02*
G01X14730Y13004D01*
G01X14883Y13157D02*
G01X14883Y15037D01*
G01X9908Y15190D02*
G01X11393Y15190D01*
G01X11393Y13004D02*
G01X9908Y13004D01*
G01X9755Y13157D02*
G01X9755Y15037D01*
G01X14730Y13004D02*
G03X14883Y13157I0J152D01*
G01X14883Y15037D02*
G03X14730Y15190I-152J0D01*
G01X9908Y13004D02*
G02X9755Y13157I0J152D01*
G01X9755Y15037D02*
G02X9908Y15190I152J0D01*
G04 PolygonModel End*

G04 Circle Start*
G54D17*
G01X-4595Y-1404D02*
G03X-4295Y-1404I150J0D01*
G03X-4595I-150J0D01*
G01X-5335Y-3404D02*
G03X-5034Y-3404I150J0D01*
G03X-5335I-150J0D01*
G04 Circle End*

M02*
